<svg width="24" height="24" viewBox="0 0 24 24" fill="none" xmlns="http://www.w3.org/2000/svg">
<g id="noun-menu-align-left-4032693 1">
<g id="menu align left">
<path id="Vector" d="M2.84279 6.28556H21.1272C21.4303 6.28556 21.721 6.16516 21.9353 5.95084C22.1496 5.73653 22.27 5.44586 22.27 5.14278C22.27 4.83969 22.1496 4.54902 21.9353 4.33471C21.721 4.1204 21.4303 4 21.1272 4H2.84279C2.53971 4 2.24904 4.1204 2.03472 4.33471C1.82041 4.54902 1.70001 4.83969 1.70001 5.14278C1.70001 5.44586 1.82041 5.73653 2.03472 5.95084C2.24904 6.16516 2.53971 6.28556 2.84279 6.28556Z" fill="white"/>
<path id="Vector_2" d="M10.8422 17.7134H2.84279C2.53971 17.7134 2.24904 17.8338 2.03472 18.0481C1.82041 18.2624 1.70001 18.5531 1.70001 18.8562C1.70001 19.1592 1.82041 19.4499 2.03472 19.6642C2.24904 19.8785 2.53971 19.9989 2.84279 19.9989H10.8422C11.1453 19.9989 11.436 19.8785 11.6503 19.6642C11.8646 19.4499 11.985 19.1592 11.985 18.8562C11.985 18.5531 11.8646 18.2624 11.6503 18.0481C11.436 17.8338 11.1453 17.7134 10.8422 17.7134Z" fill="white"/>
<path id="Vector_3" d="M21.1272 10.8564H2.84279C2.53971 10.8564 2.24904 10.9768 2.03472 11.1912C1.82041 11.4055 1.70001 11.6961 1.70001 11.9992C1.70001 12.3023 1.82041 12.593 2.03472 12.8073C2.24904 13.0216 2.53971 13.142 2.84279 13.142H21.1272C21.4303 13.142 21.721 13.0216 21.9353 12.8073C22.1496 12.593 22.27 12.3023 22.27 11.9992C22.27 11.6961 22.1496 11.4055 21.9353 11.1912C21.721 10.9768 21.4303 10.8564 21.1272 10.8564Z" fill="white"/>
</g>
</g>
</svg>
