<svg width="24" height="24" viewBox="0 0 24 24" fill="none" xmlns="http://www.w3.org/2000/svg">
<g id="noun-qr-5755983 1">
<g id="Group 33890">
<path id="Vector" d="M3.42857 9.85713H8.42855C9.21755 9.85713 9.85713 9.21755 9.85713 8.42855V3.42857C9.85713 2.63958 9.21755 2 8.42855 2H3.42857C2.63958 2 2 2.63958 2 3.42857V8.42855C2 9.21755 2.63958 9.85713 3.42857 9.85713ZM3.42857 3.42857H8.42855V8.42855H3.42857V3.42857Z" fill="#808080"/>
<path id="Vector_2" d="M20.5714 2H15.5714C14.7824 2 14.1428 2.63958 14.1428 3.42857V8.42855C14.1428 9.21755 14.7824 9.85713 15.5714 9.85713H20.5714C21.3604 9.85713 22 9.21755 22 8.42855V3.42857C22 2.63958 21.3604 2 20.5714 2ZM20.5714 8.42855H15.5714V3.42857H20.5714V8.42855Z" fill="#808080"/>
<path id="Vector_3" d="M8.42855 14.1426H3.42857C2.63958 14.1426 2 14.7822 2 15.5712V20.5712C2 21.3602 2.63958 21.9997 3.42857 21.9997H8.42855C9.21755 21.9997 9.85713 21.3602 9.85713 20.5712V15.5712C9.85713 14.7822 9.21755 14.1426 8.42855 14.1426ZM8.42855 20.5712H3.42857V15.5712H8.42855V20.5712Z" fill="#808080"/>
<path id="Vector_4" d="M2.71427 12.7143H12C12.3945 12.7143 12.7143 12.3945 12.7143 12V2.71427C12.7143 2.31979 12.3945 2 12 2C11.6055 2 11.2857 2.31979 11.2857 2.71427V11.2857H2.71427C2.31979 11.2857 2 11.6055 2 12C2 12.3945 2.31979 12.7143 2.71427 12.7143Z" fill="#808080"/>
<path id="Vector_5" d="M15.5714 15.5709V11.9995C15.5714 11.605 15.2516 11.2852 14.8572 11.2852C14.4627 11.2852 14.1428 11.605 14.1428 11.9995V14.8566H12C11.6055 14.8566 11.2857 15.1764 11.2857 15.5709V20.5709C11.2857 20.9654 11.6055 21.2852 12 21.2852C12.3945 21.2852 12.7143 20.9654 12.7143 20.5709V16.2852H14.8572C15.2516 16.2852 15.5714 15.9654 15.5714 15.5709Z" fill="#808080"/>
<path id="Vector_6" d="M20.5714 17.7139H14.8571C14.4626 17.7139 14.1428 18.0337 14.1428 18.4282C14.1428 18.8227 14.4626 19.1424 14.8571 19.1424H16.2857V20.571C16.2857 20.9655 16.6055 21.2853 17 21.2853C17.3945 21.2853 17.7143 20.9655 17.7143 20.571V19.1424H19.8571V20.571C19.8571 20.9655 20.1769 21.2853 20.5714 21.2853C20.9659 21.2853 21.2857 20.9655 21.2857 20.571V18.4282C21.2857 18.0337 20.9659 17.7139 20.5714 17.7139Z" fill="#808080"/>
<path id="Vector_7" d="M21.2857 12.7137C21.6802 12.7137 22 12.3939 22 11.9995C22 11.605 21.6802 11.2852 21.2857 11.2852H17.7143C17.3198 11.2852 17 11.605 17 11.9995V15.5709C17 15.9654 17.3198 16.2852 17.7143 16.2852H21.2857C21.6802 16.2852 22 15.9654 22 15.5709C22 15.1764 21.6802 14.8566 21.2857 14.8566H18.4286V12.7137H21.2857Z" fill="#808080"/>
</g>
</g>
</svg>
