<svg width="90" height="128" viewBox="0 0 90 128" fill="none" xmlns="http://www.w3.org/2000/svg">
<g id="graduate student 1">
<g id="Group 33812">
<path id="Vector" d="M28.5528 109.635L28.5476 109.652L28.2483 110.481L27.4784 112.621L24.5182 120.834L24.404 121.147C24.2033 121.085 24.0026 121.021 23.8019 120.957C23.2102 120.763 22.6202 120.562 22.0355 120.355C21.859 120.291 21.6825 120.228 21.5043 120.163C21.2016 120.054 20.8988 119.941 20.5978 119.825C20.5978 119.825 20.5977 119.825 20.596 119.825C20.5372 119.803 20.4784 119.779 20.4195 119.756C16.8711 118.398 13.4628 116.758 10.2206 114.862C11.1254 111.574 12.1462 108.324 13.2759 105.301C13.6237 104.369 13.9818 103.457 14.3521 102.573V102.571C14.4144 102.424 14.4749 102.277 14.5389 102.132C14.5977 101.99 14.6583 101.848 14.7189 101.709C14.8451 101.417 14.9732 101.126 15.1047 100.841C15.1548 100.728 15.205 100.619 15.2535 100.509C15.3088 100.388 15.3659 100.268 15.4195 100.151C15.4541 100.076 15.4905 100.002 15.5251 99.9291V99.9274L15.5268 99.9256C15.5683 99.8357 15.6081 99.7491 15.6514 99.6609C16.5424 97.8045 17.4853 96.1228 18.4749 94.6817C18.6877 94.3737 18.8988 94.0761 19.1168 93.7924C19.1306 93.7734 19.1427 93.7543 19.1583 93.7388C20.6358 91.7959 22.2189 90.3979 23.8936 89.7491L26.2171 99.6626L26.2552 99.8184L27.8832 106.777V106.779L28.0995 107.692L28.5493 109.618L28.5528 109.635Z" fill="#3777BC"/>
<path id="Vector_2" d="M82.6929 113.701C79.4385 115.747 76.0043 117.528 72.4195 119.019C71.1756 119.538 69.9143 120.022 68.6358 120.469C68.6219 120.472 68.6098 120.478 68.596 120.483L66.987 116.017L66.679 115.164L65.7015 112.453L64.9524 110.379L64.6842 109.635L65.0648 108.017L65.2759 107.114V107.112L65.7361 105.154V105.152L66.9679 99.8927L67.0216 99.6626L68.7967 92.0899V92.0882L69.3434 89.7509C70.423 90.1678 71.461 90.8962 72.461 91.8806C74.4489 93.8408 76.2742 96.8131 77.9195 100.372C77.9455 100.427 77.9714 100.484 77.9974 100.542C78.1012 100.768 78.2032 100.998 78.3071 101.23V101.232C78.4749 101.606 78.641 101.988 78.8001 102.374C79.1583 103.221 79.5043 104.092 79.8399 104.984C80.8849 107.739 81.8365 110.694 82.6929 113.701Z" fill="#3777BC"/>
<path id="Vector_3" d="M50.5119 3.00171V3.00694C50.4823 3.0052 50.4527 3.0052 50.4213 3.00345C50.4527 3.00171 50.4823 3.00171 50.5119 3.00171Z" fill="#3E4057"/>
<path id="Vector_4" d="M44.9541 44.4309C44.9855 44.4291 45.0151 44.4291 45.0448 44.4274V44.4326C45.0151 44.4326 44.9855 44.4326 44.9541 44.4309Z" fill="#3E4057"/>
<path id="Vector_5" d="M86.0216 26.353L47.1324 45.0018C46.4939 45.308 45.8088 45.4758 45.1168 45.5087C45.0874 45.5104 45.058 45.5104 45.0268 45.5121H44.9732C44.9438 45.5104 44.9144 45.5104 44.8832 45.5087C44.1929 45.4775 43.5061 45.308 42.8694 45.0018L3.97837 26.353C2.67388 25.7284 2.67388 23.8703 3.97837 23.244C17.9939 18.4447 30.9853 12.263 42.8676 4.59345C43.5061 4.28722 44.1929 4.1194 44.8832 4.08653C44.9126 4.0848 44.942 4.0848 44.9732 4.08307H45.0268C45.0562 4.0848 45.0874 4.0848 45.1168 4.08653C45.8088 4.11767 46.4939 4.28722 47.1324 4.59345C59.0147 12.2647 72.0061 18.4447 86.0216 23.244C87.3261 23.8703 87.3261 25.7284 86.0216 26.353Z" fill="#10498A"/>
<path id="Vector_6" d="M45.4369 17.3184C45.2587 17.3184 45.0995 17.3201 44.968 17.3201C44.968 17.3201 44.6877 17.3184 44.5511 17.3184C40.5113 17.3184 26.9801 17.7959 22.5043 23.9343C21.8694 24.8062 21.5338 25.8443 21.5338 26.9377V34.7699L26.6168 37.2076H63.3815L68.4646 34.7699V26.936C68.4646 25.8409 68.1272 24.7993 67.487 23.9239C63.0061 17.7941 49.4767 17.3184 45.4369 17.3184Z" fill="#2D3144"/>
<path id="Vector_7" d="M44.9541 44.4274C44.9855 44.4291 45.0134 44.4291 45.0448 44.4309C45.0151 44.4326 44.9855 44.4326 44.9541 44.4326V44.4274Z" fill="#3E4057"/>
<path id="Vector_8" d="M50.3684 3.00174C50.337 3.00349 50.3091 3.00349 50.2777 3.00523V3C50.3091 3.00174 50.3387 3.00174 50.3684 3.00174Z" fill="#3E4057"/>
<path id="Vector_9" d="M80.231 55.4429C80.2656 55.6955 79.9957 55.8045 79.9629 55.5519C79.7328 53.7215 79.4265 51.91 79.0373 50.135C78.7777 48.9256 78.4733 47.7318 78.1549 46.5502C78.0978 46.6159 78.039 46.6782 77.9732 46.737C78.2414 48.2543 78.4629 49.7855 78.6653 51.3218C78.7933 52.3062 78.9179 53.2889 79.0303 54.2768C79.084 54.763 79.1411 55.2491 79.1895 55.7353C79.2137 55.9654 79.2379 56.1903 79.2604 56.4204C79.2847 56.6696 79.2881 56.8478 79.2518 57.0934C79.238 57.1938 79.1324 57.2128 79.0995 57.1228C79.0148 56.891 78.9836 56.699 78.956 56.4394C78.9317 56.2093 78.9092 55.9844 78.885 55.7595C78.8314 55.2682 78.7795 54.782 78.7258 54.2976C78.6168 53.3253 78.4992 52.3564 78.3746 51.3841C78.1809 49.8824 77.9715 48.3893 77.7691 46.8893C77.6722 46.9516 77.5701 46.9983 77.4611 47.0381C77.6393 48.8339 77.8227 50.6263 77.9767 52.4273C78.0667 53.4671 78.1601 54.5035 78.2483 55.545C78.3383 56.564 78.4421 57.5882 78.5096 58.6142H78.5044C78.5044 58.8201 78.2674 58.8893 78.2397 58.6678C78.129 57.6298 78.0528 56.583 77.9646 55.545C77.8781 54.5242 77.7899 53.5 77.7051 52.4775C77.5494 50.6851 77.4196 48.8875 77.2881 47.0917C77.1964 47.1159 77.0978 47.1263 77.0009 47.1298C76.9923 47.7215 76.9854 48.3114 76.9854 48.8997C76.9854 49.891 76.9854 50.8824 76.994 51.8754C77.0044 52.8858 77.0217 53.8927 77.0476 54.8997C77.0632 55.3945 77.0788 55.8927 77.0978 56.3858C77.1134 56.8443 77.1843 57.3616 77.129 57.8166C77.1099 57.9792 76.9421 57.9567 76.9127 57.8166C76.8625 57.583 76.8694 57.3218 76.8591 57.0796C76.8504 56.8305 76.8383 56.583 76.8296 56.3374C76.8106 55.8408 76.7968 55.346 76.7829 54.8529C76.7553 53.8616 76.7362 52.8685 76.7328 51.8772C76.7293 50.8668 76.7293 49.8599 76.7535 48.8529C76.7639 48.2768 76.7812 47.7007 76.8002 47.1228C76.6757 47.1142 76.5511 47.0917 76.4352 47.0519C76.404 47.5571 76.3677 48.0623 76.3383 48.5675C76.2207 50.3028 76.1463 52.0484 76.1013 53.7907C76.0805 54.6817 76.0667 55.5675 76.0667 56.4585C76.0615 56.8858 76.0667 57.3149 76.0701 57.7405C76.0701 57.9741 76.0753 58.2042 76.0788 58.4343C76.0822 58.6315 76.0978 58.8305 76.0597 59.0208H76.0546C76.0269 59.1505 75.8867 59.1851 75.8487 59.0208C75.795 58.7907 75.8141 58.526 75.8106 58.2889C75.8054 58.0398 75.8054 57.7924 75.802 57.5467C75.802 57.0519 75.802 56.5588 75.8054 56.064C75.8245 53.0277 75.9767 49.9983 76.2881 47C76.1826 46.9533 76.0805 46.891 75.9888 46.8253C75.9265 47.3166 75.8591 47.8045 75.8054 48.2959C75.6272 49.9429 75.494 51.6038 75.4162 53.2716C75.3781 54.1159 75.3539 54.9567 75.3452 55.801C75.3418 56.2093 75.3418 56.6142 75.3452 57.0173C75.3452 57.2474 75.3504 57.4723 75.3539 57.6972C75.3591 57.8806 75.3694 58.0554 75.3262 58.2266C75.2968 58.3789 75.1584 58.3668 75.1203 58.2266C75.058 58.0052 75.0771 57.7405 75.0719 57.5087C75.0684 57.2786 75.0684 57.0536 75.0684 56.8235C75.0649 56.3529 75.0684 55.8841 75.077 55.417C75.1272 52.4879 75.3452 49.5363 75.8037 46.6747C75.7414 46.6159 75.6912 46.545 75.6359 46.4758C75.2622 47.763 74.9179 49.0623 74.6636 50.417C74.4957 51.2993 74.3608 52.2024 74.2639 53.1073C74.1618 54.045 74.1238 54.9827 74.0771 55.9308C74.0649 56.1765 73.8002 56.1834 73.8002 55.9308C73.8123 54.9862 73.8971 54.0294 73.9992 53.0969C74.1047 52.1626 74.2397 51.2336 74.4144 50.3218C74.6826 48.9204 75.0252 47.5277 75.4923 46.2301C75.3919 46.0242 75.3331 45.7976 75.3279 45.5536C75.3245 44.8114 75.8296 44.192 76.5148 44.0104L76.4802 36.2526L76.4542 30.9429L76.3989 19.6696C76.667 19.7786 76.9335 19.8858 77.2034 19.9914L77.2553 30.5588L77.2812 35.8685L77.3193 44.0069C78.0027 44.1817 78.5182 44.7976 78.5182 45.5398C78.5217 45.8322 78.4352 46.0986 78.3037 46.3374C79.2207 49.2249 79.8314 52.3322 80.231 55.4429Z" fill="#DDA21F"/>
<path id="Vector_10" d="M44.9991 45.6297C57.544 45.6297 67.7137 42.3718 67.7137 38.3529C67.7137 34.3341 57.544 31.0761 44.9991 31.0761C32.4542 31.0761 22.2846 34.3341 22.2846 38.3529C22.2846 42.3718 32.4542 45.6297 44.9991 45.6297Z" fill="#2D3144"/>
<path id="Vector_11" d="M3.97831 26.3529L19.698 33.891C11.8088 27.3339 17.6306 20.0796 23.9351 15.1315C17.5389 18.1782 10.8866 20.8789 3.9835 23.2439L3.97831 23.2457C3.48869 23.481 3.18419 23.8875 3.06136 24.3391C3.0527 24.3685 3.04924 24.3996 3.04405 24.4291C3.03367 24.4758 3.02329 24.5207 3.01637 24.5675C3.01118 24.6107 3.00945 24.6557 3.00772 24.6989C3.00599 24.7318 3.0008 24.7664 3.0008 24.7993C2.99907 25.4204 3.32433 26.0398 3.97831 26.3529Z" fill="#E6E6E6"/>
<path id="Vector_12" d="M72.4991 90.8754C72.4887 91.211 72.4766 91.545 72.4645 91.8789C72.3624 94.5657 72.2084 97.173 72.0025 99.6626C71.9939 99.7751 71.9835 99.8858 71.9749 99.9965C71.8486 101.481 71.7032 102.92 71.5389 104.308C71.5043 104.611 71.4662 104.913 71.4299 105.211C71.3243 106.048 71.2119 106.863 71.0908 107.659V107.661C70.9437 108.642 70.7828 109.586 70.6115 110.493C70.4506 111.356 70.2776 112.185 70.096 112.974C70.096 112.974 69.025 113.699 67.205 114.837L67.2032 114.839C67.0354 114.943 66.8607 115.054 66.6807 115.164C62.9351 117.488 56.5475 121.235 49.7534 124.251C48.3468 124.336 46.9281 124.379 45.4974 124.379C39.8416 124.379 34.3416 123.709 29.0735 122.443C28.8313 122.386 28.589 122.325 28.3486 122.265C27.0925 121.95 25.8503 121.6 24.6236 121.218C24.5493 121.195 24.4766 121.171 24.4039 121.147C24.2032 121.085 24.0025 121.021 23.8018 120.957C23.2102 120.763 22.6202 120.562 22.0354 120.355C21.9264 119.777 21.814 119.161 21.7032 118.51C21.5856 117.818 21.4679 117.086 21.3538 116.315C21.0579 114.348 20.769 112.137 20.4956 109.734C20.3866 108.761 20.2776 107.758 20.1738 106.725C20.115 106.131 20.0544 105.528 19.9991 104.915C19.961 104.538 19.9264 104.156 19.8935 103.772C19.8659 103.471 19.8399 103.166 19.8122 102.86C19.7292 101.881 19.6461 100.881 19.5683 99.865C19.5631 99.7975 19.5579 99.7283 19.551 99.6609C19.4316 98.0847 19.3209 96.4654 19.2188 94.8148C19.198 94.4567 19.1756 94.0986 19.1565 93.737C19.1236 93.1886 19.0925 92.6349 19.0648 92.0778V92.0761C18.9143 89.2249 18.7984 86.2975 18.7275 83.3339C18.4679 72.8166 18.7413 61.8771 19.9195 52.4411C19.9195 52.4394 19.9195 52.4394 19.9195 52.4377C19.9783 51.9567 20.0406 51.4827 20.1063 51.0103C20.1063 51.0034 20.1081 51 20.1098 50.993C20.6963 46.7093 21.4783 42.7664 22.4974 39.3564C22.7984 38.3425 23.1236 37.3754 23.4697 36.4619C23.4679 36.4602 23.4679 36.4602 23.4679 36.4602C23.4697 36.4602 23.4697 36.4584 23.4697 36.4584C23.551 36.2405 23.634 36.0259 23.7171 35.8166C23.7205 35.8097 23.7223 35.801 23.7257 35.7958V35.7941C25.0095 32.583 26.5787 30.0657 28.4801 28.4775H28.4818L30.4956 28.7058L42.2742 30.0432H42.2776L47.589 30.647C47.5925 30.647 47.596 30.647 47.5994 30.6488L56.5285 31.6609H56.5302L62.1686 32.301L64.0095 32.5103C64.3088 32.8079 64.6029 33.1609 64.8866 33.5605C64.8901 33.5623 64.8901 33.564 64.8901 33.5657C65.3122 34.1591 65.7188 34.8598 66.1098 35.6626C66.1392 35.7266 66.1721 35.7889 66.2032 35.8546C66.2707 36 66.3399 36.1488 66.4057 36.2993C66.4126 36.3148 66.4195 36.327 66.423 36.3425C66.4247 36.3443 66.4264 36.346 66.4264 36.3477L66.4281 36.3495C66.8174 37.218 67.1859 38.1903 67.5389 39.2491C71.352 50.6816 73.1115 72.436 72.4991 90.8754Z" fill="#3C3C3C"/>
<path id="Vector_13" d="M77.4385 99.6626C77.4316 99.8512 77.3953 100.05 77.3313 100.261C77.3019 100.36 77.2638 100.462 77.2188 100.569C77.1288 100.782 77.0441 100.993 76.9576 101.206C76.7967 101.597 76.6427 101.986 76.4939 102.375C76.1652 103.228 75.8572 104.073 75.57 104.91V104.912C75.1513 106.135 74.7759 107.341 74.4437 108.533V108.535C73.4212 112.171 72.7794 115.663 72.416 119.019C71.1721 119.538 69.9109 120.022 68.6323 120.469C68.6185 120.472 68.6064 120.477 68.5925 120.483C68.1911 120.625 67.788 120.759 67.3832 120.893C61.7828 122.732 55.8728 123.886 49.75 124.251C48.3434 124.336 46.9247 124.379 45.4939 124.379C39.8382 124.379 34.3382 123.709 29.07 122.443C28.8278 122.386 28.5856 122.325 28.3451 122.265C27.0891 121.95 25.8468 121.6 24.6202 121.218C24.5458 121.195 24.4731 121.171 24.4005 121.147C24.1998 121.085 23.9991 121.021 23.7984 120.957C23.2067 120.763 22.6167 120.562 22.032 120.355C21.8555 120.291 21.679 120.228 21.5008 120.163C21.198 120.054 20.8953 119.941 20.5942 119.825C20.5942 119.825 20.5942 119.825 20.5925 119.825C20.5787 119.675 20.5648 119.524 20.5475 119.374C20.1998 115.96 19.5614 112.405 18.5337 108.699C18.1877 107.455 17.7984 106.197 17.3624 104.92V104.919C16.9731 103.787 16.5493 102.644 16.0839 101.484C15.9628 101.182 15.8382 100.875 15.7102 100.569C15.6686 100.469 15.634 100.372 15.6046 100.277C15.5666 100.157 15.5389 100.041 15.5216 99.9308V99.929C15.506 99.8373 15.4974 99.7491 15.4939 99.6626H77.4385Z" fill="#3777BC"/>
<path id="Vector_14" d="M79.8434 104.979C79.2344 103.365 78.5926 101.82 77.9213 100.37C75.3106 99.4394 15.5095 99.8356 15.5251 99.9256C14.7344 101.597 13.9836 103.407 13.2742 105.303C13.4507 105.434 13.6254 105.566 13.8054 105.695C22.6843 112.1 34.2396 115.628 46.3417 115.628C58.4438 115.628 69.9991 112.1 78.878 105.695C79.2085 105.46 79.5268 105.221 79.8434 104.979Z" fill="#CCCCCC"/>
<path id="Vector_15" d="M68.6237 87.5536C64.6168 84.2802 54.8901 82.2335 54.8901 82.2335H38.032C38.032 82.2335 28.3054 84.2802 24.2984 87.5536C21.2915 90.0103 15.8365 94.9723 12.9887 97.583C11.923 98.5605 11.8867 100.232 12.9161 101.247C13.9074 102.227 15.3365 103.49 17.2535 104.843C33.7119 116.455 59.2085 116.455 75.6669 104.843C77.5839 103.49 79.013 102.227 80.0043 101.247C81.0337 100.232 80.9974 98.5605 79.9316 97.583C77.0856 94.9705 71.6306 90.0103 68.6237 87.5536Z" fill="#DDA21F"/>
<path id="Vector_16" d="M51.5753 104.067C51.5753 103.235 51.3867 102.408 51.0285 101.663L63.731 85.2231C63.7898 85.147 63.8382 85.0588 63.878 84.955C62.9351 84.5709 61.9663 84.2231 61.0285 83.9134L49.0528 99.4117C48.1548 98.8217 47.1133 98.5121 46.0199 98.5121C45.2206 98.5121 44.4541 98.6764 43.7362 99.0017L32.0389 83.865C31.1012 84.1712 30.1289 84.5172 29.1808 84.8979C29.2188 84.9965 29.269 85.0882 29.3313 85.1678L41.4697 100.879C40.8123 101.813 40.4663 102.908 40.4663 104.066C40.4663 107.128 42.9576 109.621 46.0216 109.621C49.0839 109.623 51.5753 107.131 51.5753 104.067Z" fill="#F7ECD0"/>
<path id="Vector_17" d="M12.532 98.1471C12.3971 98.372 12.3002 98.6125 12.2396 98.8599C23.5978 107.066 35.1012 111.291 46.4593 111.419C46.6376 111.42 46.8157 111.422 46.9939 111.422C58.2033 111.422 69.5493 107.439 80.75 99.5796C80.7638 99.2959 80.731 99.0104 80.6497 98.7353C58.0493 114.751 35.1445 114.552 12.532 98.1471Z" fill="#E65247"/>
<path id="Vector_18" d="M59.7517 83.5103L48.3832 98.2248L47.705 99.102L47.2015 99.7525L47.0458 99.9549L47.0268 99.9792L46.6842 100.424L46.5527 100.592L46.4264 100.754L46.3469 100.855L46.0579 101.228L45.6704 101.732L45.5994 101.823L45.5164 101.801L44.788 101.6L44.8572 101.51L45.0752 101.23L45.4178 100.784L45.5354 100.631L45.5666 100.59L45.7327 100.374L46.0562 99.9532L46.2119 99.7525L46.3278 99.602L46.551 99.3148L46.8901 98.8736L47.5683 97.9965L48.2448 97.1176L58.9472 83.2664C59.2119 83.3477 59.4783 83.4255 59.7517 83.5103Z" fill="#E65247"/>
<path id="Vector_19" d="M60.5476 83.7578L48.5182 99.3236L47.9697 100.036L47.8417 100.201L47.5407 100.592L47.487 100.661L47.2535 100.962L47.1652 101.076L47.0493 101.227L46.5562 101.865L46.487 101.955L46.4161 102.047L45.6047 101.822L45.6756 101.73L46.0632 101.227L46.3521 100.853L46.4317 100.753L46.558 100.59L46.6895 100.422L47.032 99.9775L47.051 99.9533L47.2068 99.7509L47.7102 99.1004L48.3884 98.2232L59.7569 83.5087C60.013 83.59 60.2794 83.6713 60.5476 83.7578Z" fill="white"/>
<path id="Vector_20" d="M61.3331 84.0156L48.6531 100.427L48.641 100.443L48.1705 101.052L48.032 101.234L47.9749 101.304L47.9455 101.343L47.5891 101.803L47.295 102.182L47.2258 102.273L46.5528 102.09L46.4127 102.05L46.4836 101.958L46.5528 101.868L47.0459 101.23L47.1618 101.08L47.25 100.965L47.4836 100.664L47.5372 100.595L47.8383 100.204L47.9663 100.04L48.5147 99.327L60.5441 83.7612C60.8071 83.8408 61.0684 83.9273 61.3331 84.0156Z" fill="#E65247"/>
<path id="Vector_21" d="M62.1099 84.2837L49.231 100.952L48.7864 101.528L48.7552 101.569L48.5269 101.865L48.1082 102.405L48.0372 102.497L47.2258 102.273L47.295 102.182L47.5891 101.803L47.9455 101.343L47.975 101.304L48.0321 101.234L48.1705 101.052L48.6411 100.443L48.6532 100.427L61.3331 84.0156C61.5909 84.1003 61.8504 84.1903 62.1099 84.2837Z" fill="white"/>
<path id="Vector_22" d="M62.8763 84.564L49.7344 101.571L49.2327 102.221L48.9887 102.538L48.9195 102.626L48.8503 102.718L48.0372 102.495L48.1081 102.403L48.5268 101.863L48.7552 101.567L48.7863 101.526L49.2309 100.95L62.1098 84.282C62.3642 84.3754 62.6219 84.4671 62.8763 84.564Z" fill="#E65247"/>
<path id="Vector_23" d="M48.3174 101.602L48.2794 101.614L47.5873 101.803L47.5026 101.825L47.4334 101.734L47.0441 101.23L46.7552 100.856L46.7136 100.805L46.551 100.593L46.3884 100.384L46.077 99.981L46.0579 99.9585L45.7846 99.6021L45.3988 99.1038L44.7223 98.2267L33.3174 83.4671C33.5908 83.3824 33.8572 83.3045 34.1185 83.2284H34.1202L44.8555 97.1229L45.5337 98.0018L46.2119 98.8789L46.5527 99.3201L46.8209 99.6661L46.8901 99.7561L47.0441 99.955L47.5372 100.593L47.5666 100.633L47.6514 100.742L48.0303 101.234L48.2465 101.512L48.3174 101.602Z" fill="#E65247"/>
<path id="Vector_24" d="M47.5043 101.825L46.6929 102.05L46.622 101.958L46.5528 101.869L46.0597 101.23L45.9438 101.08L45.6877 100.747L45.5701 100.592L45.4299 100.412L45.269 100.202L44.9074 99.7353L44.5908 99.3253L32.5251 83.7111C32.795 83.6246 33.0614 83.5432 33.3209 83.4654L44.7258 98.2249L45.4022 99.1021L45.7881 99.6003L46.0614 99.9567L46.0804 99.9792L46.3919 100.382L46.5545 100.592L46.7171 100.803L46.7586 100.855L47.0476 101.228L47.4368 101.732L47.5043 101.825Z" fill="white"/>
<path id="Vector_25" d="M46.6929 102.05L46.5527 102.09H46.551L45.8815 102.273L45.8105 102.182L45.5181 101.803L45.1323 101.304L45.077 101.232L44.8538 100.943L44.6202 100.64L44.4558 100.429L44.1358 100.016L31.7379 83.9688C32.0026 83.8806 32.2655 83.7958 32.5251 83.7145L44.5908 99.3287L44.9074 99.7387L45.269 100.206L45.4299 100.415L45.57 100.595L45.6877 100.751L45.9437 101.083L46.0597 101.234L46.5527 101.872L46.6219 101.962L46.6929 102.05Z" fill="#E65247"/>
<path id="Vector_26" d="M45.8815 102.273L45.0683 102.497L44.9974 102.405L44.3209 101.528L44.1479 101.306L43.9247 101.014L43.4541 100.405L30.9576 84.2336C31.2188 84.1419 31.4783 84.0537 31.7361 83.9672L44.1341 100.014L44.4541 100.427L44.6185 100.638L44.8521 100.941L45.0752 101.23L45.1306 101.303L45.5164 101.801L45.8088 102.18L45.8815 102.273Z" fill="white"/>
<path id="Vector_27" d="M45.0684 102.495L44.2569 102.718L44.186 102.626L43.5597 101.815L43.3331 101.523L42.8556 100.907L30.1877 84.5104C30.4438 84.417 30.7033 84.3235 30.9576 84.2336L43.4542 100.405L43.9248 101.014L44.148 101.306L44.321 101.528L44.9974 102.405L45.0684 102.495Z" fill="#E65247"/>
<path id="Vector_28" d="M46.0216 108.543C48.4925 108.543 50.4956 106.54 50.4956 104.069C50.4956 101.598 48.4925 99.5952 46.0216 99.5952C43.5506 99.5952 41.5475 101.598 41.5475 104.069C41.5475 106.54 43.5506 108.543 46.0216 108.543Z" fill="#E65247"/>
<path id="Vector_29" d="M46.0217 107.773C48.0674 107.773 49.7258 106.115 49.7258 104.069C49.7258 102.023 48.0674 100.365 46.0217 100.365C43.9759 100.365 42.3175 102.023 42.3175 104.069C42.3175 106.115 43.9759 107.773 46.0217 107.773Z" fill="white"/>
<path id="Vector_30" d="M46.0216 107.407C47.8648 107.407 49.359 105.912 49.359 104.069C49.359 102.226 47.8648 100.732 46.0216 100.732C44.1785 100.732 42.6843 102.226 42.6843 104.069C42.6843 105.912 44.1785 107.407 46.0216 107.407Z" fill="#FCA51F"/>
<path id="Vector_31" d="M47.3746 113.545C57.558 113.381 67.6791 110.481 75.6687 104.843C77.5857 103.49 79.0147 102.227 80.0061 101.247C81.0355 100.232 80.9991 98.5605 79.9334 97.583C77.0856 94.9706 71.6324 90.0104 68.6237 87.5536C68.423 87.391 68.2085 87.2301 67.9818 87.0726C67.9836 87.0726 75.3607 111.898 47.3746 113.545Z" fill="#F7ECD0"/>
<path id="Vector_32" d="M37.2379 82.4135C36.9524 83.4879 36.6756 84.7647 36.4057 86.1851C36.34 86.5208 36.2777 86.8651 36.2137 87.2146C36.1548 87.5554 36.0926 87.9031 36.0337 88.2578C35.9957 88.4689 35.9611 88.6817 35.9265 88.8962C35.904 89.0294 35.8815 89.1661 35.859 89.3045C35.8036 89.6505 35.7465 90.0017 35.6912 90.3599V90.3616C35.6375 90.7111 35.5839 91.0675 35.5285 91.4256C35.4559 91.9152 35.3849 92.4118 35.314 92.9152C35.0043 95.1021 34.7154 97.3928 34.4507 99.6627C34.4455 99.7024 34.442 99.7405 34.4368 99.782C34.0735 102.896 33.7586 105.974 33.5078 108.699C33.4818 108.969 33.4576 109.235 33.4334 109.498C33.3555 110.367 33.2829 111.196 33.2171 111.971C33.1981 112.196 33.1791 112.415 33.1635 112.632C33.1341 112.988 32.8486 113.268 32.4939 113.292C32.4766 113.292 32.4628 113.294 32.4455 113.294C32.1099 113.294 31.8157 113.059 31.7413 112.728L31.4732 111.51L30.8555 108.701L30.6583 107.81L29.8209 104.003C29.6583 104.993 29.5268 106.132 29.4213 107.37C29.3988 107.635 29.378 107.903 29.3573 108.175C29.295 109.016 29.2431 109.898 29.2033 110.811C29.1687 111.571 29.1393 112.35 29.1185 113.14V113.142C29.0303 116.19 29.0303 119.424 29.0718 122.445C28.8296 122.388 28.5874 122.327 28.3469 122.266C27.0908 121.952 25.8486 121.602 24.622 121.22C24.5476 121.197 24.4749 121.173 24.4022 121.149C24.2016 121.087 24.0009 121.023 23.8002 120.959C22.7275 117.073 21.8123 113.438 21.0493 110.009C20.8088 108.934 20.5856 107.881 20.3746 106.848C20.2431 106.197 20.115 105.554 19.9974 104.919C19.9195 104.512 19.8452 104.111 19.7742 103.711V103.709C19.7154 103.386 19.6566 103.066 19.6012 102.746C19.4317 101.772 19.2777 100.815 19.1341 99.8737C19.1254 99.8028 19.1133 99.7336 19.1047 99.6644C18.8503 97.9568 18.641 96.2993 18.4732 94.6851C18.4057 94.0415 18.3469 93.4031 18.295 92.7716C18.3919 92.6869 18.487 92.6004 18.5839 92.5121C18.6254 92.4775 18.6652 92.4395 18.7067 92.4031C18.7967 92.3253 18.8849 92.2457 18.9749 92.1644V92.1627C19.0043 92.1384 19.0337 92.1107 19.0666 92.0831C19.1669 91.9931 19.269 91.9031 19.3694 91.8132C19.6323 91.5831 19.8919 91.3495 20.1496 91.1211C20.4853 90.827 20.814 90.5364 21.1375 90.2526C21.1894 90.2076 21.2413 90.1627 21.2915 90.1159C21.4351 89.9914 21.5787 89.8668 21.7189 89.744C21.7829 89.6886 21.8469 89.635 21.9092 89.5779C21.949 89.545 21.9853 89.5104 22.0251 89.4775C22.2656 89.2716 22.5009 89.0675 22.7292 88.872C22.8192 88.7976 22.9057 88.7232 22.9922 88.6488C23.4628 88.2492 23.9022 87.8806 24.2984 87.5554C24.3763 87.4914 24.4559 87.4291 24.5407 87.3651C24.6306 87.2941 24.7258 87.2249 24.8209 87.1557C24.8798 87.1125 24.9438 87.071 25.0078 87.0277C25.1133 86.9533 25.224 86.8806 25.3348 86.8097C25.4092 86.7613 25.4853 86.7146 25.5631 86.6661C25.7171 86.571 25.8763 86.4775 26.0372 86.3876C26.1099 86.346 26.1825 86.3063 26.2552 86.2665C26.3469 86.2163 26.4403 86.1661 26.5337 86.1142C26.641 86.0571 26.7535 85.9983 26.8659 85.9429C26.9939 85.8772 27.1272 85.8132 27.2586 85.7474C27.2863 85.7336 27.3123 85.7215 27.34 85.7076C27.4213 85.6678 27.5043 85.6298 27.5856 85.5917C27.6652 85.5519 27.7465 85.5173 27.8278 85.4793C27.9022 85.4447 27.9784 85.4101 28.0545 85.3772C28.3573 85.2405 28.6669 85.109 28.9801 84.9827C29.0476 84.955 29.1116 84.9291 29.1791 84.9031V84.9014C29.1894 84.8979 29.2033 84.8928 29.2137 84.8876C29.269 84.8633 29.3261 84.8409 29.3832 84.8201C29.4541 84.7907 29.5251 84.763 29.5977 84.7353C29.6739 84.7059 29.7517 84.6765 29.8278 84.6471C29.8503 84.6384 29.8711 84.6298 29.8936 84.6211C29.9282 84.6073 29.9663 84.5934 30.0026 84.5796C30.0407 84.564 30.077 84.5519 30.115 84.5364C30.1393 84.5277 30.1618 84.519 30.186 84.5104C30.2085 84.5017 30.231 84.4931 30.2535 84.4862C30.3019 84.4672 30.3503 84.4516 30.3988 84.4326C30.4005 84.4326 30.4005 84.4326 30.4022 84.4308C30.4282 84.4222 30.4559 84.4118 30.4836 84.4014C30.4905 84.3997 30.4974 84.3979 30.5043 84.3945C30.5078 84.3945 30.513 84.3928 30.5182 84.391C30.5233 84.3893 30.532 84.3876 30.5372 84.3841C30.5476 84.3806 30.5597 84.3772 30.5701 84.3703C30.5856 84.3668 30.5977 84.3616 30.6133 84.3547C30.6202 84.353 30.6289 84.3512 30.6375 84.3478C30.6566 84.3426 30.6721 84.3339 30.6912 84.3287C30.6998 84.3253 30.7085 84.3218 30.7154 84.3184C30.7171 84.3184 30.7206 84.3166 30.7223 84.3166C30.7327 84.3132 30.7431 84.3097 30.7535 84.3062C30.7708 84.3011 30.7846 84.2959 30.8019 84.289C30.8054 84.2872 30.8088 84.2855 30.8123 84.2855C30.833 84.2786 30.8521 84.2699 30.8711 84.2647C30.8988 84.2543 30.9265 84.244 30.9541 84.2353C30.9732 84.2284 30.9939 84.2197 31.013 84.2128C31.0216 84.2094 31.032 84.2076 31.0407 84.2042C31.0562 84.199 31.0718 84.1938 31.0891 84.1869C31.0943 84.1851 31.0995 84.1834 31.1064 84.1817C31.1566 84.1644 31.2085 84.1471 31.2586 84.1298C31.2725 84.1246 31.2863 84.1211 31.3002 84.1142C31.3157 84.109 31.3313 84.1038 31.3486 84.0969C31.3503 84.0969 31.3521 84.0952 31.3538 84.0952C31.3555 84.0952 31.359 84.0934 31.3607 84.0934C31.4334 84.0675 31.5043 84.045 31.577 84.0191C31.6116 84.0087 31.6462 83.9966 31.6808 83.9862C31.6981 83.981 31.7119 83.9758 31.7292 83.9689H31.731C31.7396 83.9654 31.75 83.962 31.7604 83.9602C31.7638 83.9585 31.769 83.9568 31.7742 83.955C31.7881 83.9499 31.7984 83.9464 31.8123 83.9412C31.8157 83.9395 31.8209 83.9395 31.8278 83.9377C31.8607 83.9274 31.8953 83.9152 31.9299 83.9049C31.9645 83.891 32.0009 83.8806 32.0355 83.8703C32.1531 83.8305 32.2708 83.7941 32.3867 83.7561C32.4265 83.7422 32.4645 83.7319 32.5043 83.718C32.5095 83.7163 32.513 83.7146 32.5182 83.7146C32.5666 83.6973 32.615 83.6834 32.6635 83.6678C32.6877 83.6609 32.7119 83.6523 32.7344 83.6453C32.8019 83.6246 32.8676 83.6021 32.9368 83.5813C33.0095 83.5588 33.0822 83.5363 33.1531 83.5156C33.1756 83.5087 33.1981 83.5 33.2223 83.4948C33.2535 83.4844 33.2846 83.4741 33.3157 83.4672C33.3451 83.4585 33.3728 83.4481 33.404 83.4395C33.4282 83.4325 33.4524 83.4239 33.4749 83.4187C33.6704 83.3599 33.8625 83.3028 34.0493 83.2492C34.0735 83.2422 34.096 83.2353 34.1185 83.2284C34.2362 83.1955 34.3503 83.1609 34.4645 83.1298C34.6773 83.071 34.8832 83.0121 35.0822 82.9602C35.1669 82.936 35.2517 82.9135 35.3348 82.891C35.4438 82.8616 35.5528 82.8339 35.6566 82.8063C35.7604 82.7786 35.8607 82.7526 35.9576 82.7284C36.0216 82.7111 36.0804 82.6973 36.1427 82.68C36.2016 82.6644 36.2621 82.6505 36.3192 82.635L36.3469 82.6298C36.3798 82.6211 36.4144 82.6125 36.4472 82.6056C36.4939 82.5917 36.5407 82.5813 36.5874 82.571C36.6843 82.5467 36.7777 82.5242 36.8642 82.5018C36.9472 82.481 37.0285 82.462 37.1029 82.4447C37.1531 82.4325 37.1981 82.4222 37.2379 82.4135Z" fill="#CCCCCC"/>
<path id="Vector_33" d="M54.7898 82.2491C52.8382 80.5588 51.6721 77.1488 52.1566 71.5761H40.7673C41.25 77.1505 40.0856 80.5623 38.1323 82.2491C37.9109 82.4394 37.8451 82.7543 37.9853 83.0104C37.987 83.0138 37.9887 83.0155 37.9905 83.019C38.1479 83.3097 38.3867 83.7128 38.7102 84.1799C42.4611 89.5899 50.4628 89.5899 54.2136 84.1799C54.5354 83.7145 54.7742 83.3097 54.9316 83.0225C54.9334 83.019 54.9351 83.0156 54.9368 83.0138C55.077 82.756 55.0112 82.4412 54.7898 82.2491Z" fill="#FFD6C9"/>
<path id="Vector_34" d="M54.8746 83.1246C54.8953 83.0882 54.9144 83.0536 54.9317 83.0207C54.9334 83.0173 54.9351 83.0138 54.9369 83.0121C55.0407 82.8252 55.032 82.6073 54.9334 82.4273C54.8244 82.3201 54.7206 82.2093 54.6168 82.0917C52.8434 80.4204 51.7759 77.2457 52.1081 72.2111H40.814C40.9351 74.0432 40.8711 75.6315 40.6548 76.9879C41.9299 77.2993 44.2171 77.7266 47.4092 77.7232C49.4749 77.7214 51.3711 78.7751 52.3192 80.4377C52.9559 81.5553 53.8192 82.6713 54.8746 83.1246Z" fill="#FCE6E0"/>
<path id="Vector_35" d="M20.878 49.2145C21.8953 47.8252 23.6946 48.1764 25.1894 48.8338C26.5753 49.4428 27.3711 50.5968 27.1514 51.7716C26.622 54.5968 28.7431 57.5484 29.3417 60.4688C19.1514 60.2266 18.923 51.8857 20.878 49.2145Z" fill="#FFD6C9"/>
<path id="Vector_36" d="M22.5095 51.4169C23.231 51.1366 24.3054 51.23 24.7154 51.7975C24.8953 52.0466 24.442 52.2871 24.2102 52.0466C24.0337 51.8615 23.7154 51.7785 23.4213 51.8529C23.16 51.9203 22.9403 52.147 22.8279 52.3252C22.4853 52.8719 22.8711 53.5224 23.1808 54.0293C23.4888 54.5345 23.8919 55.0138 24.3573 55.4498C24.8521 55.9134 25.5182 56.2525 26.013 56.7075C26.4836 57.1401 25.6843 57.7958 25.0407 57.5172C24.5459 57.3027 24.167 56.9584 23.8036 56.6366C23.468 56.339 23.1618 56.0207 22.8867 55.6902C22.3227 55.0138 21.84 54.2577 21.622 53.4774C21.4282 52.7854 21.5424 51.7923 22.5095 51.4169Z" fill="#EDD6C7"/>
<path id="Vector_37" d="M69.1203 49.2145C68.103 47.8252 66.3037 48.1764 64.8089 48.8338C63.4231 49.4428 62.6272 50.5968 62.8469 51.7716C63.3763 54.5968 61.2552 57.5484 60.6566 60.4688C70.8469 60.2266 71.077 51.8857 69.1203 49.2145Z" fill="#FFD6C9"/>
<path id="Vector_38" d="M67.4888 51.4169C66.7674 51.1366 65.693 51.23 65.2829 51.7975C65.103 52.0466 65.5563 52.2871 65.7881 52.0466C65.9646 51.8615 66.2829 51.7785 66.577 51.8529C66.8383 51.9203 67.058 52.147 67.1705 52.3252C67.513 52.8719 67.1272 53.5224 66.8175 54.0293C66.5096 54.5345 66.1065 55.0138 65.6411 55.4498C65.1463 55.9134 64.4802 56.2525 63.9854 56.7075C63.5148 57.1401 64.3141 57.7958 64.9577 57.5172C65.4525 57.3027 65.8314 56.9584 66.1947 56.6366C66.5303 56.339 66.8366 56.0207 67.1117 55.6902C67.6757 55.0138 68.1584 54.2577 68.3764 53.4774C68.5701 52.7854 68.4577 51.7923 67.4888 51.4169Z" fill="#EDD6C7"/>
<path id="Vector_39" d="M65.3694 47.9515C65.3694 63.801 57.3088 76.1487 44.9299 76.1487C33.1514 76.1487 24.6289 62.1816 24.6289 46.3304C24.6289 30.4792 33.6116 22.6089 45.9905 22.6089C58.3694 22.6089 65.3694 32.102 65.3694 47.9515Z" fill="#FFD6C9"/>
<path id="Vector_40" d="M43.4212 58.038C43.9039 56.6193 45.1046 56.0709 45.4074 52.2975C45.9749 54.5501 44.8382 57.4238 44.4074 58.6332C43.5354 61.0813 47.8174 60.6661 46.5493 60.936C45.0181 61.2595 42.4628 60.8512 43.4212 58.038Z" fill="#EDD6C7"/>
<path id="Vector_41" d="M38.3296 47.3719C35.1999 45.6488 31.4403 48.3391 31.2293 49.6591C31.1739 50.0052 31.4767 49.6678 32.8763 48.7283C33.9109 48.0588 35.9005 47.9013 37.0649 48.2526C38.2794 48.6176 39.8262 48.2906 38.3296 47.3719Z" fill="#703123"/>
<path id="Vector_42" d="M40.3088 53.2301C39.8313 55.6332 33.2881 55.7422 32.2829 55.0104C32.2293 54.9689 32.1739 54.9291 32.1237 54.8875C32.1185 54.8875 32.1185 54.8824 32.1185 54.8824C31.641 54.1332 31.2189 52.8253 31.2189 52.8253C31.2189 52.8253 32.4126 51.5761 33.0666 51.2128C33.0753 51.2128 33.0805 51.2042 33.0943 51.199C33.2587 51.1125 33.8988 50.782 34.7604 50.5536C35.9455 50.2491 37.5528 50.1367 38.8988 51.1263C39.0528 51.2405 39.9697 51.9118 40.3296 52.8651C40.34 52.9844 40.3313 53.1073 40.3088 53.2301Z" fill="#943F27"/>
<path id="Vector_43" d="M40.4767 53.8166C40.34 55.5381 38.0113 56.6003 36.3296 56.7318C36.1618 56.7457 35.6843 56.7734 35.077 56.6592C34.5095 56.564 33.8331 56.3408 33.1739 55.8772C33.0874 55.8218 32.7604 55.5917 32.4057 55.2457C32.3106 55.1557 32.2154 55.0329 32.1237 54.8875C32.1185 54.8875 32.1185 54.8824 32.1185 54.8824C31.641 54.1332 31.2189 52.8253 31.2189 52.8253C31.2189 52.8253 32.4126 51.5761 33.0666 51.2128C33.0753 51.2128 33.0805 51.2042 33.0943 51.199C33.2587 51.1125 33.8988 50.782 34.7604 50.5536C35.9455 50.2491 37.5528 50.1367 38.8988 51.1263C39.0528 51.2405 39.9697 51.9118 40.3296 52.8651C40.4438 53.1574 40.5043 53.481 40.4767 53.8166Z" fill="white"/>
<path id="Vector_44" d="M36.0095 56.7786C37.825 56.7786 39.2967 55.3068 39.2967 53.4914C39.2967 51.6759 37.825 50.2042 36.0095 50.2042C34.194 50.2042 32.7223 51.6759 32.7223 53.4914C32.7223 55.3068 34.194 56.7786 36.0095 56.7786Z" fill="#B56953"/>
<path id="Vector_45" d="M35.9368 55.4083C37.0586 55.4083 37.968 54.4989 37.968 53.3771C37.968 52.2554 37.0586 51.346 35.9368 51.346C34.8151 51.346 33.9057 52.2554 33.9057 53.3771C33.9057 54.4989 34.8151 55.4083 35.9368 55.4083Z" fill="#2E130C"/>
<path id="Vector_46" d="M37.3521 52.7146C37.6321 52.7146 37.8591 52.4876 37.8591 52.2077C37.8591 51.9277 37.6321 51.7007 37.3521 51.7007C37.0722 51.7007 36.8452 51.9277 36.8452 52.2077C36.8452 52.4876 37.0722 52.7146 37.3521 52.7146Z" fill="white"/>
<path id="Vector_47" d="M37.9178 54.1679C38.0745 54.1679 38.2015 54.0408 38.2015 53.8841C38.2015 53.7274 38.0745 53.6004 37.9178 53.6004C37.7611 53.6004 37.634 53.7274 37.634 53.8841C37.634 54.0408 37.7611 54.1679 37.9178 54.1679Z" fill="white"/>
<path id="Vector_48" d="M40.3313 52.8668C39.9731 51.9135 39.0544 51.2405 38.9005 51.128C37.5562 50.1384 35.9489 50.2509 34.7621 50.5554C33.8987 50.782 33.2586 51.1142 33.096 51.2007C33.0821 51.2059 33.0769 51.2146 33.0683 51.2146C32.4143 51.5779 31.2205 52.827 31.2205 52.827C31.2205 52.827 31.6427 54.135 32.1202 54.8841C31.7742 54.5986 31.5925 54.3339 31.5925 54.3339C31.5112 54.2111 31.3555 53.962 31.2067 53.6384C31.0198 53.2336 30.9887 53.0485 30.852 53.0156C30.7378 52.9879 30.3382 53.9793 29.1029 53.7872C28.9991 53.7699 28.8797 53.6505 28.8797 53.6505C29.371 53.7543 30.1704 53.1696 31.0648 51.9793C33.4852 48.7509 38.3399 48.7509 39.9576 51.7665C40.1046 52.0364 40.3122 52.4308 40.3313 52.8668Z" fill="#703123"/>
<path id="Vector_49" d="M51.1929 53.1488C51.6704 55.5519 58.2137 55.6609 59.2189 54.9291C59.2725 54.8876 59.3279 54.8478 59.378 54.8062C59.3832 54.8062 59.3832 54.8011 59.3832 54.8011C59.8607 54.0519 60.2829 52.744 60.2829 52.744C60.2829 52.744 59.0891 51.4948 58.4351 51.1315C58.4265 51.1315 58.4213 51.1229 58.4074 51.1177C58.2431 51.0312 57.6029 50.7007 56.7413 50.4723C55.5562 50.1678 53.949 50.0554 52.6029 51.045C52.449 51.1592 51.532 51.8305 51.1721 52.7838C51.1618 52.9031 51.1704 53.026 51.1929 53.1488Z" fill="#943F27"/>
<path id="Vector_50" d="M51.0251 53.7336C51.1618 55.4551 53.4905 56.5173 55.1721 56.6488C55.34 56.6627 55.8175 56.6904 56.4247 56.5762C56.9922 56.481 57.6687 56.2578 58.3278 55.7942C58.4144 55.7388 58.7413 55.5087 59.096 55.1627C59.1912 55.0727 59.2863 54.9499 59.378 54.8045C59.3832 54.8045 59.3832 54.7993 59.3832 54.7993C59.8607 54.0502 60.2829 52.7423 60.2829 52.7423C60.2829 52.7423 59.0891 51.4931 58.4351 51.1298C58.4265 51.1298 58.4213 51.1211 58.4074 51.116C58.2431 51.0295 57.6029 50.699 56.7413 50.4706C55.5562 50.1661 53.949 50.0537 52.6029 51.0433C52.449 51.1575 51.532 51.8288 51.1721 52.782C51.058 53.0762 50.9974 53.398 51.0251 53.7336Z" fill="white"/>
<path id="Vector_51" d="M55.4922 56.6955C57.3077 56.6955 58.7794 55.2238 58.7794 53.4084C58.7794 51.5929 57.3077 50.1212 55.4922 50.1212C53.6767 50.1212 52.205 51.5929 52.205 53.4084C52.205 55.2238 53.6767 56.6955 55.4922 56.6955Z" fill="#B56953"/>
<path id="Vector_52" d="M55.5649 55.3271C56.6867 55.3271 57.596 54.4177 57.596 53.2959C57.596 52.1741 56.6867 51.2648 55.5649 51.2648C54.4431 51.2648 53.5338 52.1741 53.5338 53.2959C53.5338 54.4177 54.4431 55.3271 55.5649 55.3271Z" fill="#2E130C"/>
<path id="Vector_53" d="M54.1497 52.6332C54.4296 52.6332 54.6566 52.4063 54.6566 52.1263C54.6566 51.8463 54.4296 51.6194 54.1497 51.6194C53.8697 51.6194 53.6428 51.8463 53.6428 52.1263C53.6428 52.4063 53.8697 52.6332 54.1497 52.6332Z" fill="white"/>
<path id="Vector_54" d="M53.5839 54.0849C53.7406 54.0849 53.8677 53.9578 53.8677 53.8011C53.8677 53.6444 53.7406 53.5174 53.5839 53.5174C53.4272 53.5174 53.3002 53.6444 53.3002 53.8011C53.3002 53.9578 53.4272 54.0849 53.5839 54.0849Z" fill="white"/>
<path id="Vector_55" d="M51.1704 52.7854C51.5285 51.8322 52.4472 51.1591 52.6012 51.0467C53.9455 50.0571 55.5528 50.1695 56.7396 50.474C57.6029 50.7007 58.2431 51.0329 58.4057 51.1194C58.4195 51.1245 58.4247 51.1332 58.4334 51.1332C59.0874 51.4965 60.2811 52.7457 60.2811 52.7457C60.2811 52.7457 59.859 54.0536 59.3815 54.8027C59.7275 54.5173 59.9092 54.2526 59.9092 54.2526C59.9905 54.1297 60.1462 53.8806 60.295 53.5571C60.4818 53.1522 60.513 52.9671 60.6497 52.9342C60.7638 52.9066 61.1635 53.8979 62.3988 53.7059C62.5026 53.6886 62.622 53.5692 62.622 53.5692C62.1306 53.673 61.3313 53.0882 60.4368 51.8979C58.0164 48.6695 53.1618 48.6695 51.5441 51.6851C51.3971 51.9533 51.1894 52.3495 51.1704 52.7854Z" fill="#703123"/>
<path id="Vector_56" d="M52.7552 47.1644C55.885 45.4412 59.6445 48.1315 59.8555 49.4516C59.9109 49.7976 59.6081 49.4602 58.2085 48.5208C57.1739 47.8512 55.1843 47.6938 54.0199 48.045C52.8054 48.41 51.2587 48.083 52.7552 47.1644Z" fill="#703123"/>
<path id="Vector_57" d="M56.2086 61.0294C58.3432 61.0294 60.0736 60.316 60.0736 59.4359C60.0736 58.5559 58.3432 57.8425 56.2086 57.8425C54.0739 57.8425 52.3435 58.5559 52.3435 59.4359C52.3435 60.316 54.0739 61.0294 56.2086 61.0294Z" fill="#FFBBAD"/>
<path id="Vector_58" d="M34.1029 61.6367C36.2375 61.6367 37.968 60.9233 37.968 60.0432C37.968 59.1632 36.2375 58.4498 34.1029 58.4498C31.9683 58.4498 30.2379 59.1632 30.2379 60.0432C30.2379 60.9233 31.9683 61.6367 34.1029 61.6367Z" fill="#FFBBAD"/>
<g id="Group">
<path id="Vector_59" d="M46.8295 64.1055C45.814 64.1055 45.7413 64.7093 45.7413 64.7093C45.7413 64.7093 45.6686 64.1055 44.6531 64.1055C43.6375 64.1055 41.9022 65.2439 41.0233 65.3962C41.0233 65.3962 42.16 68.1176 45.7413 68.1176C49.3226 68.1176 50.4593 65.3962 50.4593 65.3962C49.4247 65.2388 47.8451 64.1055 46.8295 64.1055Z" fill="#FFA694"/>
<path id="Vector_60" d="M41.5613 65.5087C41.5613 65.5087 46.6616 66.5692 49.8121 65.5329C47.2706 67.0069 44.9765 67.5294 41.5613 65.5087Z" fill="#B34949"/>
</g>
<path id="Vector_61" d="M63.75 31.2474C60.7258 26.1644 52.9628 19.3962 46.3296 21.4827C37.0009 18.8011 30.3244 26.1644 26.9749 30.2457C20.8694 37.6851 20.9714 50.4083 28.4299 63.699C23.0493 47.8097 32.904 28.8547 45.0874 35.4585C59.077 29.0519 64.7361 49.4602 62.6341 63.5294C65.2915 56.4914 69.4057 40.7561 63.75 31.2474Z" fill="#3C3C3C"/>
<path id="Vector_62" d="M41.5597 33.9342C39.1601 33.1107 36.8504 34.3979 35.0943 35.9688C33.3158 37.5605 31.6255 39.3893 30.3971 41.4446C29.1012 43.6142 28.4853 46.0709 28.1774 48.5588C27.8729 51.0173 27.7483 53.5398 28.0113 56.0086C28.1566 57.3598 28.4231 58.7059 28.8435 59.9983C29.2673 61.2993 29.7587 62.6246 30.513 63.7733C30.5355 63.8079 30.5978 63.7803 30.5805 63.7405C30.1064 62.6488 29.641 61.5709 29.3227 60.4204C29.0113 59.2976 28.8106 58.1332 28.6722 56.9758C28.3867 54.5934 28.3798 52.192 28.6099 49.8045C28.8417 47.4066 29.2327 44.974 30.2777 42.7803C31.2777 40.6799 32.7881 38.8564 34.4144 37.2128C36.2258 35.3823 38.7379 33.3235 41.5096 34.1782C41.6635 34.2284 41.7068 33.9861 41.5597 33.9342Z" fill="#703123"/>
<g id="Group_2">
<path id="Vector_63" d="M23.1116 24.3772C27.5268 18.3219 41.4818 18.045 44.9213 18.071H44.968C48.205 18.0398 62.4126 18.2544 66.8815 24.3703C67.4265 25.116 67.7137 26.0174 67.7137 26.9395V38.3876C64.7829 31.2648 50.2673 30.6298 45.6912 30.6125C45.4126 30.6108 45.1687 30.6108 44.9715 30.6125H44.9542C44.769 30.6108 44.5545 30.6108 44.3071 30.6125C39.731 30.6298 25.2154 31.2648 22.2846 38.3876V26.9395C22.2846 26.0191 22.5701 25.1194 23.1116 24.3772Z" fill="#10498A"/>
<path id="Vector_64" d="M22.2847 26.936V38.3858C25.2172 31.263 39.731 30.6263 44.3072 30.6125C44.5546 30.609 44.7691 30.609 44.9542 30.6125H44.9732C45.1687 30.609 45.4144 30.609 45.6912 30.6125C45.9248 30.6125 46.1791 30.6159 46.4611 30.6194C34.4888 29.4204 26.4265 24.8253 24.0459 23.308C23.7016 23.6419 23.3867 23.9966 23.1134 24.3737C22.5701 25.1194 22.2847 26.0191 22.2847 26.936Z" fill="#E6E6E6"/>
</g>
<path id="Vector_65" d="M37.7396 79.0173C37.2967 79.7214 36.8659 80.9775 36.4542 82.6003C36.4542 82.6003 36.4559 82.6021 36.4542 82.6038C36.2396 83.455 36.0303 84.4065 35.8261 85.4308C35.7586 85.7647 35.6946 86.1055 35.6289 86.4533C35.5666 86.7924 35.5043 87.1384 35.442 87.4879C35.404 87.6989 35.3694 87.91 35.333 88.1245C35.3106 88.2578 35.2881 88.3944 35.2656 88.5311C35.2067 88.8771 35.1497 89.2266 35.0926 89.583C35.0372 89.9325 34.9836 90.2872 34.9265 90.6436C34.8521 91.1332 34.7794 91.628 34.7085 92.128C34.3469 94.6159 34.0234 97.2007 33.7379 99.6626C33.7327 99.7041 33.7275 99.7422 33.7223 99.7837C33.3382 103.1 33.0285 106.187 32.8106 108.497C32.7846 108.773 32.7587 109.041 32.7344 109.296C32.6358 110.368 32.5614 111.225 32.5112 111.792C32.468 112.298 32.4455 112.574 32.4455 112.574L32.2604 111.723L31.6514 108.958L31.4559 108.073L29.8728 100.893C29.3313 102.187 28.9663 104.405 28.7258 107.111C28.7033 107.374 28.6808 107.642 28.66 107.913C28.6168 108.467 28.5805 109.036 28.5459 109.619C28.5441 109.63 28.5441 109.642 28.5441 109.652C28.5268 109.953 28.5112 110.261 28.4957 110.569C28.4576 111.336 28.4282 112.121 28.404 112.922C28.3106 115.981 28.3054 119.228 28.3452 122.263C27.0891 121.948 25.8469 121.599 24.6202 121.216C24.5856 121.088 24.5493 120.96 24.5147 120.832C23.4991 117.15 22.622 113.685 21.8798 110.401C21.6427 109.356 21.4213 108.329 21.2137 107.32C20.9905 106.247 20.7829 105.195 20.5943 104.161C20.5355 103.841 20.4749 103.521 20.4196 103.204C20.2171 102.069 20.0337 100.955 19.8694 99.8633C19.859 99.7941 19.8486 99.7266 19.84 99.6609C19.5908 98.0017 19.3832 96.3892 19.2189 94.8149C19.1808 94.4723 19.1479 94.1297 19.1168 93.7906C19.0649 93.2439 19.0164 92.6989 18.9749 92.1591V92.1574C18.7327 89.0934 18.6548 86.1713 18.7292 83.3339C18.7431 82.7249 18.7638 82.1194 18.795 81.519L37.7396 79.0173Z" fill="#3C3C3C"/>
<path id="Vector_66" d="M68.6341 120.469C68.6203 120.472 68.6082 120.477 68.5944 120.483C68.193 120.625 67.7899 120.759 67.385 120.893C67.0961 119 66.9179 117.234 66.9871 116.017C67.0148 115.524 67.084 115.119 67.2033 114.839C67.2033 114.837 67.2051 114.836 67.2051 114.834C67.2051 114.834 67.2051 114.836 67.2051 114.837C67.2155 114.952 67.4732 117.569 68.6341 120.469Z" fill="#2D3144"/>
<path id="Vector_67" d="M21.7034 118.51C21.6514 119.035 21.584 119.59 21.5044 120.163C21.2016 120.054 20.8989 119.941 20.5978 119.825C20.5978 119.825 20.5978 119.825 20.5961 119.825C20.5373 119.803 20.4784 119.779 20.4196 119.756C20.4646 119.628 20.5096 119.5 20.5511 119.372C20.9473 118.197 21.1982 117.121 21.3539 116.313C21.5269 115.403 21.5788 114.829 21.5788 114.829C21.866 115.502 21.8643 116.86 21.7034 118.51Z" fill="#2D3144"/>
<path id="Vector_68" d="M58.8451 41.2612C58.2932 40.038 57.6444 38.9238 56.7102 37.948C55.7967 36.9947 54.7188 36.211 53.5164 35.6643C52.2604 35.0933 50.9161 34.7612 49.5458 34.621C47.9956 34.4601 46.4005 34.5985 44.9282 35.1193C44.8347 35.1522 44.8711 35.294 44.9697 35.2681C47.6116 34.5778 50.3797 34.6781 52.8711 35.8546C55.2206 36.9653 56.9956 38.8044 58.3296 41.0034C59.0545 42.2006 59.3953 43.6522 59.5873 45.0241C59.6046 45.1504 59.8174 45.121 59.8088 44.9947C59.7309 43.7041 59.3745 42.4342 58.8451 41.2612Z" fill="#703123"/>
</g>
</g>
</svg>
