<svg width="24" height="24" viewBox="0 0 24 24" fill="none" xmlns="http://www.w3.org/2000/svg">
<g id="noun-calender-3676927 2">
<path id="Vector" d="M19.5 5.36669H18.5333V4.73336C18.5333 4.26669 18.1667 3.90002 17.7 3.90002C17.2333 3.90002 16.8667 4.26669 16.8667 4.73336V5.36669H7.13333V4.73336C7.13333 4.26669 6.76667 3.90002 6.3 3.90002C5.83333 3.90002 5.46667 4.26669 5.46667 4.73336V5.36669H4.5C3.13333 5.36669 2 6.50003 2 7.86669V17.6C2 18.9667 3.13333 20.1 4.5 20.1H19.5C20.8667 20.1 22 18.9667 22 17.6V7.86669C22 6.50003 20.8667 5.36669 19.5 5.36669ZM20.3333 17.6C20.3333 18.0667 19.9667 18.4334 19.5 18.4334H4.5C4.03333 18.4334 3.66667 18.0667 3.66667 17.6V7.86669C3.66667 7.40003 4.03333 7.03336 4.5 7.03336H5.46667V7.93336C5.46667 8.40002 5.83333 8.76669 6.3 8.76669C6.76667 8.76669 7.13333 8.40002 7.13333 7.93336V7.03336H16.8667V7.93336C16.8667 8.40002 17.2333 8.76669 17.7 8.76669C18.1667 8.76669 18.5333 8.40002 18.5333 7.93336V7.03336H19.5C19.9667 7.03336 20.3333 7.40003 20.3333 7.86669V17.6ZM18.5333 12.1C18.5333 12.5667 18.1667 12.9334 17.7 12.9334H6.3C5.83333 12.9334 5.46667 12.5667 5.46667 12.1C5.46667 11.6334 5.83333 11.2667 6.3 11.2667H17.7C18.1667 11.2667 18.5333 11.6334 18.5333 12.1ZM16.9667 15.8C16.9667 16.2667 16.6 16.6334 16.1333 16.6334H7.86667C7.4 16.6334 7.03333 16.2667 7.03333 15.8C7.03333 15.3334 7.4 14.9667 7.86667 14.9667H16.1333C16.6 14.9667 16.9667 15.3334 16.9667 15.8Z" fill="#B0B0B0"/>
</g>
</svg>
