<svg width="14" height="14" viewBox="0 0 14 14" fill="none" xmlns="http://www.w3.org/2000/svg">
<path d="M8.4755 1.25196C8.8635 1.25196 9.2245 1.45196 9.43 1.78146L10.1905 2.99996H11.375C11.806 2.99996 12.2193 3.17117 12.524 3.47592C12.8288 3.78066 13 4.19399 13 4.62496V10.875C13 11.3059 12.8288 11.7193 12.524 12.024C12.2193 12.3288 11.806 12.5 11.375 12.5H2.625C2.19402 12.5 1.7807 12.3288 1.47595 12.024C1.1712 11.7193 1 11.3059 1 10.875V4.62496C1 4.19399 1.1712 3.78066 1.47595 3.47592C1.7807 3.17117 2.19402 2.99996 2.625 2.99996H3.9095L4.6 1.81146C4.6989 1.64117 4.84078 1.49982 5.01144 1.40155C5.1821 1.30327 5.37557 1.25152 5.5725 1.25146H8.475L8.4755 1.25196ZM8.4755 2.00196H5.573C5.51696 2.002 5.46164 2.01459 5.41111 2.03882C5.36058 2.06305 5.31612 2.09829 5.281 2.14196L5.249 2.18846L4.449 3.56346C4.41609 3.62027 4.36884 3.66744 4.31198 3.70025C4.25513 3.73307 4.19065 3.75038 4.125 3.75046H2.625C2.39302 3.75046 2.17054 3.84258 2.00646 4.00657C1.84238 4.17056 1.75013 4.39299 1.75 4.62496V10.875C1.75 11.358 2.142 11.75 2.625 11.75H11.375C11.6071 11.75 11.8296 11.6578 11.9937 11.4937C12.1578 11.3296 12.25 11.107 12.25 10.875V4.62496C12.25 4.3929 12.1578 4.17034 11.9937 4.00625C11.8296 3.84215 11.6071 3.74996 11.375 3.74996H9.9825C9.91887 3.74994 9.8563 3.73372 9.80067 3.70285C9.74504 3.67197 9.69818 3.62745 9.6645 3.57346L8.7935 2.17796C8.75982 2.12398 8.71296 2.07946 8.65733 2.04858C8.6017 2.01771 8.53913 2.00149 8.4755 2.00146V2.00196ZM7 4.75096C7.72935 4.75096 8.42882 5.0407 8.94454 5.55642C9.46027 6.07215 9.75 6.77162 9.75 7.50096C9.75 8.23031 9.46027 8.92978 8.94454 9.44551C8.42882 9.96123 7.72935 10.251 7 10.251C6.27065 10.251 5.57118 9.96123 5.05546 9.44551C4.53973 8.92978 4.25 8.23031 4.25 7.50096C4.25 6.77162 4.53973 6.07215 5.05546 5.55642C5.57118 5.0407 6.27065 4.75096 7 4.75096ZM7 5.50096C6.46957 5.50096 5.96086 5.71168 5.58579 6.08675C5.21071 6.46182 5 6.97053 5 7.50096C5 8.0314 5.21071 8.54011 5.58579 8.91518C5.96086 9.29025 6.46957 9.50096 7 9.50096C7.53043 9.50096 8.03914 9.29025 8.41421 8.91518C8.78929 8.54011 9 8.0314 9 7.50096C9 6.97053 8.78929 6.46182 8.41421 6.08675C8.03914 5.71168 7.53043 5.50096 7 5.50096Z" fill="#808081" stroke="#808081" stroke-width="0.2"/>
</svg>
