<svg width="24" height="24" viewBox="0 0 24 24" fill="none" xmlns="http://www.w3.org/2000/svg">
<path d="M20 10.8643C19.7348 10.8643 19.4804 10.9697 19.2929 11.1572C19.1054 11.3448 19 11.5991 19 11.8643V12.0043C18.9941 13.5516 18.4757 15.0532 17.5258 16.2746C16.576 17.496 15.2482 18.3683 13.7501 18.7551C12.252 19.142 10.6679 19.0215 9.2455 18.4127C7.82308 17.8038 6.64246 16.7408 5.88818 15.3899C5.13391 14.0389 4.84847 12.4762 5.0765 10.9458C5.30453 9.41544 6.03316 8.00375 7.14852 6.93139C8.26388 5.85902 9.7031 5.18641 11.2412 5.01868C12.7794 4.85095 14.3297 5.19756 15.65 6.00433C15.7623 6.09281 15.8923 6.15619 16.0311 6.19018C16.17 6.22418 16.3145 6.22801 16.455 6.20141C16.5954 6.17481 16.7286 6.11841 16.8454 6.036C16.9622 5.95359 17.06 5.84709 17.1322 5.72368C17.2043 5.60027 17.2492 5.46283 17.2637 5.32061C17.2783 5.17839 17.2622 5.03471 17.2165 4.89925C17.1708 4.76379 17.0966 4.6397 16.9989 4.53535C16.9011 4.431 16.7822 4.34881 16.65 4.29433C14.9475 3.26695 12.9527 2.83233 10.9771 3.05833C9.00149 3.28434 7.15637 4.15826 5.72987 5.5436C4.30338 6.92893 3.37583 8.74769 3.0921 10.7158C2.80837 12.684 3.18443 14.6906 4.16154 16.4225C5.13865 18.1543 6.66181 19.5138 8.49312 20.2887C10.3244 21.0635 12.3608 21.21 14.2842 20.7053C16.2075 20.2007 17.9096 19.0732 19.1246 17.4991C20.3396 15.925 20.9991 13.9928 21 12.0043V11.8743C21 11.6091 20.8947 11.3548 20.7071 11.1672C20.5196 10.9797 20.2652 10.8743 20 10.8743V10.8643Z" fill="#FF2D2D"/>
<path fill-rule="evenodd" clip-rule="evenodd" d="M15.0862 13.9022C15.4116 14.2277 15.4116 14.7553 15.0862 15.0808C14.7608 15.4062 14.2331 15.4062 13.9077 15.0808L12.0109 13.184L10.1142 15.0808C9.7887 15.4062 9.26112 15.4062 8.93562 15.0808C8.6102 14.7553 8.6102 14.2277 8.93562 13.9023L10.8297 12.0082L8.92412 10.1026C8.5987 9.77714 8.5987 9.24948 8.92412 8.92406C9.24953 8.59865 9.7772 8.59865 10.1026 8.92406L11.9994 10.8208L13.8962 8.92406C14.2216 8.59865 14.7493 8.59865 15.0747 8.92406C15.4001 9.24948 15.4001 9.77714 15.0747 10.1026L13.1806 11.9966L15.0862 13.9022Z" fill="#FF2D2D"/>
</svg>
