<svg width="24" height="24" viewBox="0 0 24 24" fill="none" xmlns="http://www.w3.org/2000/svg">
<path d="M8.00001 13.6C8.44184 13.6 8.80001 13.2418 8.80001 12.8C8.80001 12.3582 8.44184 12 8.00001 12C7.55818 12 7.20001 12.3582 7.20001 12.8C7.20001 13.2418 7.55818 13.6 8.00001 13.6Z" fill="#808081"/>
<path d="M12 13.6C12.4418 13.6 12.8 13.2418 12.8 12.8C12.8 12.3582 12.4418 12 12 12C11.5582 12 11.2 12.3582 11.2 12.8C11.2 13.2418 11.5582 13.6 12 13.6Z" fill="#808081"/>
<path d="M16 13.6C16.4418 13.6 16.8 13.2418 16.8 12.8C16.8 12.3582 16.4418 12 16 12C15.5582 12 15.2 12.3582 15.2 12.8C15.2 13.2418 15.5582 13.6 16 13.6Z" fill="#808081"/>
<path d="M12 3.02441C10.8328 3.03591 9.67931 3.27721 8.60536 3.73453C7.53142 4.19185 6.55807 4.85624 5.74091 5.68975C4.92374 6.52326 4.27876 7.50957 3.84279 8.59236C3.40682 9.67515 3.18841 10.8332 3.20002 12.0004C3.19413 14.3733 4.119 16.6539 5.77602 18.3524L3.20002 20.9764H12C13.1672 20.9649 14.3207 20.7236 15.3947 20.2663C16.4686 19.809 17.442 19.1446 18.2591 18.3111C19.0763 17.4776 19.7213 16.4913 20.1573 15.4085C20.5932 14.3257 20.8116 13.1676 20.8 12.0004C20.8116 10.8332 20.5932 9.67515 20.1573 8.59236C19.7213 7.50957 19.0763 6.52326 18.2591 5.68975C17.442 4.85624 16.4686 4.19185 15.3947 3.73453C14.3207 3.27721 13.1672 3.03591 12 3.02441Z" stroke="#808081" stroke-width="2" stroke-linecap="round" stroke-linejoin="round"/>
</svg>
