<svg width="25" height="24" viewBox="0 0 25 24" fill="none" xmlns="http://www.w3.org/2000/svg">
<g id="chat1 3">
<path id="Vector" d="M8.50001 13.6C8.94184 13.6 9.30001 13.2418 9.30001 12.8C9.30001 12.3582 8.94184 12 8.50001 12C8.05818 12 7.70001 12.3582 7.70001 12.8C7.70001 13.2418 8.05818 13.6 8.50001 13.6Z" fill="#10498A"/>
<path id="Vector_2" d="M12.5 13.6C12.9418 13.6 13.3 13.2418 13.3 12.8C13.3 12.3582 12.9418 12 12.5 12C12.0582 12 11.7 12.3582 11.7 12.8C11.7 13.2418 12.0582 13.6 12.5 13.6Z" fill="#10498A"/>
<path id="Vector_3" d="M16.5 13.6C16.9418 13.6 17.3 13.2418 17.3 12.8C17.3 12.3582 16.9418 12 16.5 12C16.0582 12 15.7 12.3582 15.7 12.8C15.7 13.2418 16.0582 13.6 16.5 13.6Z" fill="#10498A"/>
<path id="Vector_4" d="M12.5 3.02441C11.3328 3.03591 10.1793 3.27721 9.10536 3.73453C8.03142 4.19185 7.05807 4.85624 6.24091 5.68975C5.42374 6.52326 4.77876 7.50957 4.34279 8.59236C3.90682 9.67515 3.68841 10.8332 3.70002 12.0004C3.69413 14.3733 4.619 16.6539 6.27602 18.3524L3.70002 20.9764H12.5C13.6672 20.9649 14.8207 20.7236 15.8947 20.2663C16.9686 19.809 17.942 19.1446 18.7591 18.3111C19.5763 17.4776 20.2213 16.4913 20.6573 15.4085C21.0932 14.3257 21.3116 13.1676 21.3 12.0004C21.3116 10.8332 21.0932 9.67515 20.6573 8.59236C20.2213 7.50957 19.5763 6.52326 18.7591 5.68975C17.942 4.85624 16.9686 4.19185 15.8947 3.73453C14.8207 3.27721 13.6672 3.03591 12.5 3.02441Z" stroke="#10498A" stroke-width="2" stroke-linecap="round" stroke-linejoin="round"/>
</g>
</svg>
