<svg width="16" height="16" viewBox="0 0 16 16" fill="none" xmlns="http://www.w3.org/2000/svg">
<g id="noun-time-6249300 1">
<g id="Group 33859">
<path id="Vector" d="M10.9538 1.57785C8.9991 1.25204 7.00396 1.25204 5.04927 1.57785C4.18133 1.72258 3.38025 2.13472 2.75785 2.75673C2.13546 3.37874 1.72282 4.17957 1.57755 5.04742C1.2519 7.00212 1.2519 8.99723 1.57755 10.9519C1.72198 11.82 2.13402 12.6213 2.75608 13.2437C3.37815 13.8661 4.17914 14.2787 5.04712 14.4237C7.00194 14.7479 8.99681 14.7479 10.9516 14.4237C11.8196 14.2789 12.6207 13.8668 13.2431 13.2448C13.8654 12.6228 14.2781 11.8219 14.4234 10.9541C14.5861 9.97805 14.6681 8.99026 14.6686 8.00075C14.6681 7.01124 14.5861 6.02346 14.4234 5.04742C14.2785 4.17975 13.8663 3.37897 13.2443 2.75694C12.6222 2.13491 11.8215 1.72269 10.9538 1.57785ZM13.1521 10.7411C13.0518 11.3443 12.7655 11.901 12.3331 12.3334C11.9007 12.7658 11.344 13.0521 10.7408 13.1524C9.83514 13.3029 8.91857 13.3784 8.00045 13.3783C7.08234 13.3784 6.16578 13.3028 5.26007 13.1524C4.65729 13.0517 4.10104 12.7652 3.66909 12.3328C3.23714 11.9005 2.9511 11.344 2.85094 10.7411C2.54849 8.92673 2.54849 7.07477 2.85094 5.26037C2.9511 4.6575 3.23714 4.10099 3.66909 3.66866C4.10104 3.23633 4.65729 2.94979 5.26007 2.84909C7.07458 2.5479 8.92633 2.5479 10.7408 2.84909C11.344 2.94938 11.9007 3.23574 12.3331 3.6681C12.7655 4.10047 13.0518 4.6572 13.1521 5.26037C13.3025 6.16608 13.3781 7.08264 13.378 8.00075C13.3781 8.91887 13.3025 9.83543 13.1521 10.7411Z" fill="#3C3C3C"/>
<path id="Vector_2" d="M9.93635 8.00092H8.64574C8.4746 8.00092 8.31046 7.93294 8.18945 7.81192C8.06843 7.6909 8.00044 7.52677 8.00044 7.35562V5.41972C8.00044 5.24857 7.93246 5.08444 7.81144 4.96342C7.69042 4.8424 7.52629 4.77441 7.35514 4.77441C7.184 4.77441 7.01986 4.8424 6.89884 4.96342C6.77783 5.08444 6.70984 5.24857 6.70984 5.41972V7.35562C6.70984 7.86906 6.9138 8.36146 7.27685 8.72451C7.63991 9.08757 8.13231 9.29153 8.64574 9.29153H9.93635C10.1075 9.29153 10.2716 9.22354 10.3926 9.10252C10.5137 8.9815 10.5816 8.81737 10.5816 8.64622C10.5816 8.47508 10.5137 8.31095 10.3926 8.18993C10.2716 8.06891 10.1075 8.00092 9.93635 8.00092Z" fill="#3C3C3C"/>
</g>
</g>
</svg>
