<svg width="24" height="24" viewBox="0 0 24 24" fill="none" xmlns="http://www.w3.org/2000/svg">
<g id="noun-ticket-5242489 3">
<g id="Group 33922">
<path id="Vector" fill-rule="evenodd" clip-rule="evenodd" d="M3.41499 11.3915C4.6821 11.7103 5.62819 12.8633 5.62819 14.2254C5.62819 15.5876 4.68186 16.7407 3.41449 17.0595C3.43088 18.7035 3.66831 19.4859 4.09123 19.9089C4.52979 20.3474 5.35495 20.5865 7.12659 20.5865H15.9662C17.7379 20.5865 18.5629 20.3474 19.0015 19.9089C19.3856 19.5247 19.6167 18.8442 19.6682 17.4909C18.4081 17.171 17.4646 16.0298 17.4646 14.6683C17.4646 13.2965 18.4054 12.157 19.6698 11.8425V11.5773C19.6698 9.80562 19.4307 8.98048 18.9921 8.54192C18.5535 8.10335 17.7284 7.86426 15.9568 7.86426H7.12659C5.35495 7.86426 4.53252 8.10338 4.09521 8.54146C3.67268 8.96476 3.43574 9.74746 3.41499 11.3915ZM3.09477 7.54281C3.98151 6.65448 5.36428 6.45068 7.12659 6.45068H15.9568C17.719 6.45068 19.1039 6.65451 19.9917 7.54236C20.8795 8.43021 21.0833 9.81496 21.0833 11.5773V12.4632C21.0833 12.8535 20.7669 13.1699 20.3766 13.1699C19.5492 13.1699 18.8782 13.8356 18.8782 14.6683C18.8782 15.4897 19.5567 16.1667 20.386 16.1667C20.7763 16.1667 21.0928 16.4831 21.0928 16.8735C21.0928 18.6358 20.8889 20.0205 20.0011 20.9084C19.1133 21.7963 17.7284 22.0001 15.9662 22.0001H7.12659C5.36428 22.0001 3.97953 21.7963 3.09168 20.9084C2.20383 20.0205 2 18.6358 2 16.8735V16.44C2 16.0496 2.31644 15.7332 2.70679 15.7332C3.53212 15.7332 4.21461 15.0507 4.21461 14.2254C4.21461 13.4001 3.53212 12.7176 2.70679 12.7176C2.31644 12.7176 2 12.4011 2 12.0108V11.5773V11.5754C2.0047 9.8142 2.20902 8.43013 3.09477 7.54281Z" fill="#10498A" stroke="#10498A" stroke-width="0.5"/>
<path id="Vector_2" fill-rule="evenodd" clip-rule="evenodd" d="M12.6406 3.41358C12.1124 3.41358 11.452 3.7665 10.3226 4.8958L8.76801 6.45042H14.7425C14.7224 5.95887 14.8402 5.46509 15.0906 5.02781L14.9586 4.8958C13.8292 3.7665 13.1688 3.41358 12.6406 3.41358ZM12.6406 2C13.804 2 14.8351 2.77324 15.9581 3.89624L16.5235 4.46168C16.6561 4.59422 16.7305 4.774 16.7305 4.96145C16.7305 5.1489 16.6561 5.32868 16.5235 5.46123C16.1409 5.84388 16.0545 6.40066 16.2682 6.85787C16.3706 7.07677 16.354 7.3328 16.2243 7.53668C16.0945 7.74054 15.8696 7.86401 15.628 7.86401H7.06167C6.7758 7.86401 6.51807 7.6918 6.40868 7.42769C6.29928 7.16359 6.35975 6.85958 6.5619 6.65744L9.32309 3.89624C10.446 2.77324 11.4772 2 12.6406 2Z" fill="#10498A"/>
<path id="Vector_3" fill-rule="evenodd" clip-rule="evenodd" d="M9.66059 6.45068C10.0509 6.45068 10.3674 6.76712 10.3674 7.15747V8.92445C10.3674 9.3148 10.0509 9.63124 9.66059 9.63124C9.27023 9.63124 8.9538 9.3148 8.9538 8.92445V7.15747C8.9538 6.76712 9.27023 6.45068 9.66059 6.45068ZM9.66059 11.7517C10.0509 11.7517 10.3674 12.068 10.3674 12.4584V15.9924C10.3674 16.3827 10.0509 16.6992 9.66059 16.6992C9.27023 16.6992 8.9538 16.3827 8.9538 15.9924V12.4584C8.9538 12.068 9.27023 11.7517 9.66059 11.7517ZM9.66059 18.8196C10.0509 18.8196 10.3674 19.1359 10.3674 19.5263V21.2933C10.3674 21.6837 10.0509 22.0001 9.66059 22.0001C9.27023 22.0001 8.9538 21.6837 8.9538 21.2933V19.5263C8.9538 19.1359 9.27023 18.8196 9.66059 18.8196Z" fill="#10498A"/>
</g>
</g>
</svg>
