<svg width="24" height="24" viewBox="0 0 24 24" fill="none" xmlns="http://www.w3.org/2000/svg">
<g id="noun-events-6113534 1">
<path id="Vector" d="M21.3497 8.45161C21.3484 7.6138 21.0507 6.80345 20.5093 6.16405C19.968 5.52465 19.2178 5.09745 18.3916 4.95806L18.1239 4.90323V2.96774C18.1239 2.71108 18.0219 2.46493 17.8404 2.28344C17.659 2.10196 17.4128 2 17.1561 2C16.8995 2 16.6533 2.10196 16.4719 2.28344C16.2904 2.46493 16.1884 2.71108 16.1884 2.96774V4.90323H12.9626V2.96774C12.9626 2.71108 12.8606 2.46493 12.6792 2.28344C12.4977 2.10196 12.2515 2 11.9949 2C11.7382 2 11.492 2.10196 11.3106 2.28344C11.1291 2.46493 11.0271 2.71108 11.0271 2.96774V4.90323H7.80131V2.96774C7.80131 2.71108 7.69935 2.46493 7.51786 2.28344C7.33638 2.10196 7.09023 2 6.83357 2C6.5769 2 6.33076 2.10196 6.14927 2.28344C5.96778 2.46493 5.86582 2.71108 5.86582 2.96774V4.90323L5.59808 4.94839C4.7703 5.08805 4.01884 5.51666 3.47725 6.15807C2.93565 6.79948 2.639 7.61213 2.64002 8.45161V18.4516C2.64002 19.3927 3.01386 20.2952 3.67932 20.9607C4.34477 21.6262 5.24731 22 6.1884 22H17.8013C18.7424 22 19.6449 21.6262 20.3104 20.9607C20.9758 20.2952 21.3497 19.3927 21.3497 18.4516V8.45161ZM6.1884 20.0645C5.76064 20.0645 5.35039 19.8946 5.04791 19.5921C4.74543 19.2896 4.5755 18.8794 4.5755 18.4516V14.2581L4.93357 14.2968C6.31275 14.4575 7.59729 15.0791 8.57912 16.0609C9.56095 17.0427 10.1826 18.3273 10.3432 19.7065L10.382 20.0645H6.1884ZM19.4142 18.4516C19.4142 18.8794 19.2443 19.2896 18.9418 19.5921C18.6393 19.8946 18.2291 20.0645 17.8013 20.0645H12.3174L12.2949 19.7677C12.1371 17.8527 11.3047 16.0559 9.94604 14.6972C8.58734 13.3385 6.7905 12.5062 4.8755 12.3484L4.5755 12.3226V8.45161C4.5755 8.02384 4.74543 7.6136 5.04791 7.31112C5.35039 7.00864 5.76064 6.83871 6.1884 6.83871H17.8013C18.2291 6.83871 18.6393 7.00864 18.9418 7.31112C19.2443 7.6136 19.4142 8.02384 19.4142 8.45161V18.4516Z" fill="#10498A"/>
</g>
</svg>
