<svg width="90" height="128" viewBox="0 0 90 128" fill="none" xmlns="http://www.w3.org/2000/svg">
<g id="parent 1 1">
<g id="Group 33855">
<path id="Vector" d="M39.0719 38.5325C35.1689 39.3103 28.6358 43.8778 20.5471 49.0534C17.1674 51.217 7 78.7072 7 85.4949C7 89.1291 14.0705 107.626 19.7269 113.678C21.5578 111.084 23.6838 108.711 26.0621 106.607C26.0621 106.607 19.6138 93.6118 20.2643 84.4626C20.6037 79.8385 26.6277 69.8266 26.6277 69.8266C26.5146 72.471 29.9509 87.7857 29.9509 87.7857C28.5368 95.9451 24.6056 111.825 24.6056 111.825C32.8922 119.037 65.2186 115.05 68.6832 111.825C68.6832 111.825 62.249 95.337 61.952 87.7857L65.5156 71.368C67.744 75.8519 69.3838 80.6049 70.3942 85.509C69.7296 94.63 65.5014 106.31 65.5014 106.31C68.2448 107.894 71.9215 113.24 71.9215 113.24C76.1638 108.615 82.8666 89.4119 82.8525 84.8302C82.8525 76.8547 75.5698 54.0735 71.4124 49.6898C68.1034 46.1828 53.3684 38.7446 50.8655 38.377L39.0719 38.5325Z" fill="#DDA21F"/>
<path id="Vector_2" d="M39.0718 33.6961V42.506C42.8901 43.4003 46.8634 43.4003 50.6816 42.506V37.288V33.6678L39.0718 33.6961Z" fill="#FFD6C9"/>
<path id="Vector_3" opacity="0.25" d="M50.6675 36.0012C49.9231 36.7922 49.0247 37.4225 48.0276 37.8534C47.0306 38.2842 45.9559 38.5065 44.8697 38.5065C43.7835 38.5065 42.7088 38.2842 41.7117 37.8534C40.7146 37.4225 39.8162 36.7922 39.0718 36.0012V34.0922H50.6816L50.6675 36.0012Z" fill="#F4795D"/>
<path id="Vector_4" d="M54.7826 22.3833H54.5846L55.0795 18.7208C55.73 12.2301 50.3281 8.97764 45.0394 8.9635C40.2173 8.9635 35.678 10.7877 35.1407 16.6562C35.0488 17.5306 35.0488 18.4121 35.1407 19.2865L35.4659 22.0157H35.2821C35.0169 22.0012 34.7518 22.0467 34.5066 22.1488C34.2614 22.2508 34.0423 22.4068 33.8657 22.6052C33.689 22.8036 33.5594 23.0392 33.4863 23.2946C33.4133 23.5499 33.3987 23.8185 33.4438 24.0803C33.7549 25.4944 34.4195 26.6398 35.3104 26.5974H35.5366C36.6821 32.678 39.7789 36.8496 44.8838 36.8496C48.4757 36.8496 53.3685 33.2154 54.4149 26.6539H54.5987C55.7442 26.6539 56.0835 25.4802 56.3805 24.2782C56.6775 23.0762 55.9421 22.3833 54.7826 22.3833Z" fill="#FFD6C9"/>
<path id="Vector_5" opacity="0.5" d="M55.8149 24.7591C55.8007 24.668 55.7615 24.5827 55.7015 24.5128C55.6416 24.4428 55.5633 24.391 55.4755 24.3631C55.3824 24.3414 55.2857 24.3414 55.1926 24.3631C55.2902 24.1532 55.4414 23.9727 55.631 23.8399C55.73 23.7692 55.631 23.5995 55.532 23.6702C55.2933 23.8422 55.1073 24.0772 54.9947 24.349C54.9169 24.6552 54.9169 24.9761 54.9947 25.2823C54.9947 25.3954 55.1926 25.2823 55.1785 25.2823C55.129 25.0587 55.129 24.8271 55.1785 24.6035H55.4755V24.7025C55.4671 24.7109 55.4605 24.7208 55.456 24.7317C55.4514 24.7426 55.4491 24.7543 55.4491 24.7661C55.4491 24.778 55.4514 24.7897 55.456 24.8006C55.4605 24.8115 55.4671 24.8214 55.4755 24.8298C55.4838 24.8381 55.4937 24.8448 55.5047 24.8493C55.5156 24.8538 55.5273 24.8561 55.5391 24.8561C55.5509 24.8561 55.5626 24.8538 55.5735 24.8493C55.5845 24.8448 55.5944 24.8381 55.6027 24.8298C55.6771 24.8192 55.749 24.7953 55.8149 24.7591Z" fill="#F4795D"/>
<path id="Vector_6" opacity="0.5" d="M35.0841 24.2782C34.9804 24.0013 34.7924 23.7639 34.5467 23.5994C34.4619 23.5994 34.3629 23.6843 34.4619 23.755C34.6483 23.8935 34.7946 24.0789 34.8861 24.2923C34.7965 24.2865 34.7066 24.2984 34.6217 24.3276C34.5367 24.3567 34.4584 24.4024 34.3912 24.462C34.3349 24.5327 34.2954 24.6153 34.2758 24.7035C34.2562 24.7917 34.257 24.8832 34.2781 24.9711C34.3023 25.071 34.3509 25.1633 34.4195 25.2398C34.4287 25.2492 34.4397 25.2567 34.4518 25.2618C34.464 25.2669 34.477 25.2695 34.4902 25.2695C34.5034 25.2695 34.5164 25.2669 34.5285 25.2618C34.5407 25.2567 34.5517 25.2492 34.5609 25.2398C34.5759 25.222 34.5841 25.1994 34.5841 25.1762C34.5841 25.1529 34.5759 25.1303 34.5609 25.1125V24.7873C34.5627 24.7543 34.5627 24.7213 34.5609 24.6883H34.9003C34.9427 24.9126 34.9427 25.1428 34.9003 25.3671C34.9003 25.4802 35.07 25.5367 35.0841 25.3671C35.2006 25.0135 35.2006 24.6318 35.0841 24.2782Z" fill="#F4795D"/>
<path id="Vector_7" d="M39.0577 22.0582C40.3431 21.8396 41.6429 21.7167 42.9465 21.6905C43.5828 21.6905 43.8373 20.8844 42.9465 20.7006C41.5551 20.5541 40.1488 20.7432 38.8456 21.2521C37.9547 21.5774 38.2375 22.242 39.0577 22.0582Z" fill="#382633"/>
<g id="Group" opacity="0.6">
<path id="Vector_8" opacity="0.7" d="M44.7707 24.9287C44.6717 25.3105 44.5586 25.7065 44.4313 26.0883C44.3343 26.3542 44.2633 26.6289 44.2192 26.9085C44.1946 26.9984 44.1921 27.0928 44.2118 27.1839C44.2315 27.275 44.2728 27.36 44.3323 27.4317C44.5202 27.5806 44.7582 27.6515 44.997 27.6297C45.1684 27.6058 45.3323 27.5439 45.4766 27.4485C45.621 27.3531 45.7422 27.2265 45.8313 27.0782C45.902 26.965 45.7323 26.866 45.6616 26.965C45.581 27.1162 45.4574 27.2399 45.3063 27.3205C45.1552 27.4011 44.9835 27.4349 44.8131 27.4175C44.601 27.4175 44.4172 27.3044 44.403 27.0782C44.4262 26.7916 44.493 26.5103 44.601 26.2438C44.7283 25.8196 44.8555 25.4095 44.9687 24.9853C44.9687 24.858 44.799 24.8015 44.7707 24.9853V24.9287Z" fill="#F4795D"/>
</g>
<path id="Vector_9" d="M44.8838 31.0518C45.3242 31.0956 45.7688 31.0505 46.1915 30.9193C46.6141 30.7882 47.0061 30.5736 47.3444 30.2882C47.3444 30.2882 47.3444 30.1468 47.2595 30.1468H44.9545C44.0071 30.1468 42.6213 30.0337 42.6213 30.0337C42.6213 30.0337 42.494 30.0337 42.5364 30.1185C42.835 30.4371 43.2002 30.6859 43.6059 30.8472C44.0117 31.0086 44.448 31.0784 44.8838 31.0518Z" fill="white"/>
<path id="Vector_10" d="M41.9284 24.1933C41.9073 24.2805 41.8622 24.36 41.7983 24.4228C41.7344 24.4857 41.6541 24.5294 41.5667 24.5491C41.4792 24.5688 41.388 24.5636 41.3033 24.5342C41.2186 24.5047 41.1439 24.4522 41.0874 24.3825C41.031 24.3129 40.9952 24.2288 40.9841 24.1398C40.9729 24.0509 40.9869 23.9606 41.0243 23.8791C41.0618 23.7977 41.1213 23.7283 41.1961 23.6789C41.2709 23.6295 41.358 23.602 41.4476 23.5994C41.5183 23.6065 41.5869 23.6275 41.6495 23.6612C41.712 23.695 41.7672 23.7408 41.812 23.796C41.8567 23.8513 41.89 23.9148 41.91 23.983C41.93 24.0512 41.9362 24.1227 41.9284 24.1933Z" fill="#382633"/>
<path id="Vector_11" d="M49.2534 24.1934C49.2655 24.3316 49.2237 24.4691 49.1367 24.5771C49.0498 24.6852 48.9244 24.7554 48.7868 24.7732C48.6549 24.7438 48.5369 24.6704 48.4523 24.565C48.3678 24.4596 48.3217 24.3285 48.3217 24.1934C48.3217 24.0582 48.3678 23.9271 48.4523 23.8217C48.5369 23.7163 48.6549 23.6429 48.7868 23.6136C48.9244 23.6313 49.0498 23.7016 49.1367 23.8096C49.2237 23.9177 49.2655 24.0552 49.2534 24.1934Z" fill="#382633"/>
<path id="Vector_12" d="M51.3604 21.9167C50.075 21.6982 48.7752 21.5753 47.4716 21.5491C46.8494 21.5491 46.5949 20.743 47.5424 20.5592C48.9337 20.4137 50.3397 20.6028 51.6432 21.1107C52.4776 21.4359 52.2513 22.1006 51.3604 21.9167Z" fill="#382633"/>
<path id="Vector_13" d="M37.2618 39.0132C37.8981 47.9927 45.0676 77.8444 45.0676 77.8444C45.0676 77.8444 54.528 47.3422 53.2412 38.999C53.2412 38.999 52.0392 35.1527 50.6958 34.7567V36.0011C50.5685 38.0092 45.0394 41.0919 45.0394 41.0919C45.0394 41.0919 39.991 38.2637 39.0436 36.0011V34.587C38.1102 34.9688 37.1769 37.9385 37.2618 39.0132Z" fill="#3777BC"/>
<path id="Vector_14" d="M55.6027 11.523C54.429 9.24632 51.219 7.05446 47.5423 6.24842C48.2069 5.66864 47.4009 4.63635 47.5423 4C46.3195 4.88246 44.9433 5.52981 43.4838 5.90904C44.0495 5.45653 43.399 4.49494 43.3 4C41.7367 5.18119 40.013 6.1335 38.1809 6.82821C35.282 7.87464 34.5184 10.3352 34.4194 13.8987C34.2921 16.2461 35.1689 19.1168 35.3951 22.3833C35.4548 24.3282 35.62 26.2684 35.8901 28.1953C36.5547 31.3488 39.1142 37.0334 44.6999 37.3304C50.017 37.6274 53.2694 32.0841 54.1462 27.8842C54.5694 26.1025 54.7125 24.2657 54.5704 22.4399C54.9946 20.1773 57.4127 15.0017 55.6027 11.523ZM44.8838 32.7346C43.6834 32.7419 42.4897 32.5557 41.3485 32.1831C41.6596 31.5609 41.7869 30.2175 42.5364 29.765C43.3762 29.435 44.2872 29.3278 45.1807 29.4539C45.9426 29.4066 46.7012 29.5889 47.3585 29.9771C47.8909 30.5904 48.2562 31.3308 48.419 32.1265C47.3003 32.5936 46.0958 32.8201 44.8838 32.7911V32.7346ZM51.5442 29.4539C51.0302 30.2639 50.3624 30.9653 49.5786 31.5184C49.4982 31.101 49.3307 30.7051 49.087 30.3567C48.8434 30.0083 48.529 29.7151 48.1645 29.4963C47.1959 28.9464 46.1098 28.6361 44.9969 28.5913C43.7705 28.4621 42.5389 28.7838 41.5324 29.4963C40.8512 30.0238 40.3278 30.7282 40.0193 31.5326C39.309 30.9997 38.7607 30.2801 38.4355 29.4539C37.2618 26.5549 35.6073 21.9308 35.678 20.7571C36.0315 18.5653 36.7527 15.5108 39.7647 15.0017C41.6183 15.6424 43.5491 16.0323 45.506 16.1613C47.7827 16.1613 51.3462 14.1815 52.9583 15.0017C54.0613 16.1471 54.3724 19.145 54.528 20.9692C54.1603 22.1995 53.1421 26.9509 51.5442 29.4539Z" fill="#382633"/>
<path id="Vector_15" d="M45.0676 41.0919L42.4516 43.8353L43.8657 46.2251L42.3526 66.1074C42.9889 69.1053 45.0676 77.8445 45.0676 77.8445C45.0676 77.8445 47.7686 69.0346 48.4474 66.1074L46.5949 46.2251L47.91 43.8353L45.0676 41.0919Z" fill="#D8624A"/>
<path id="Vector_16" d="M25.9914 111.104L66.76 111.09C67.6655 114.996 68.2249 118.908 68.5413 122.785C50.6231 124.421 41.0409 124.389 24.9397 122.785C24.8532 118.811 25.1119 114.937 25.9914 111.104Z" fill="#DDA21F"/>
<path id="Vector_17" d="M48.009 44.1181C48.8291 44.7968 49.7059 45.419 50.5402 46.0695C50.7106 46.2318 50.8952 46.3785 51.0917 46.5079C51.2897 46.6069 51.4594 46.4089 51.6008 46.2958L53.0149 45.2494C53.1704 45.1362 53.0149 44.8534 52.8452 44.9807L51.9826 45.617L51.5725 45.9281C51.4432 46.0474 51.3009 46.1517 51.1483 46.2392H51.3038C51.0529 46.0758 50.8164 45.8913 50.5968 45.6877L49.819 45.0938C49.2958 44.6979 48.7726 44.3019 48.2635 43.8918C48.0938 43.7504 47.8675 43.9908 48.0372 44.1181H48.009Z" fill="#DDD5CC"/>
<path id="Vector_18" d="M42.2395 43.8918C41.7445 44.3019 41.2213 44.6837 40.6981 45.0797L39.9345 45.6594L39.5951 45.9281C39.473 46.0438 39.3404 46.1479 39.1991 46.2392H39.3547C39.1532 46.1281 38.9676 45.9901 38.8032 45.8291L38.4214 45.5463C38.2517 45.419 38.082 45.7019 38.2517 45.8291L38.7325 46.1827C38.8724 46.3159 39.0293 46.43 39.1991 46.522C39.3971 46.5928 39.6234 46.3241 39.7648 46.2109C40.6557 45.5039 41.589 44.7968 42.4799 44.1181C42.6354 43.9908 42.4091 43.7504 42.2395 43.8918Z" fill="#DDD5CC"/>
<path id="Vector_19" d="M33.1609 41.1343C32.468 43.0858 31.8316 45.0514 31.2943 47.0594C31.1437 47.3723 31.1135 47.7297 31.2094 48.0634C31.3508 48.3745 31.7468 48.5159 32.0155 48.6715C33.0619 49.2654 34.1083 49.8452 35.1689 50.4108V50.1563L34.08 51.3441C33.7315 51.6618 33.4142 52.0122 33.1326 52.3906C32.8498 52.8148 33.1326 53.2107 33.2316 53.635C33.5144 54.3703 33.8255 55.0491 34.1225 55.8127C35.0652 57.915 36.0079 60.0126 36.9507 62.1055C38.9681 66.5269 41.028 70.9389 43.1303 75.3415C43.6394 76.4162 44.1202 77.4909 44.6575 78.5515C44.7565 78.7353 45.0252 78.5515 44.9404 78.3818C43.5263 75.7657 42.4091 73.0648 41.1647 70.4062C39.0718 65.966 37.0072 61.5257 35.0416 57.0288C34.6315 56.0955 34.2356 55.1622 33.8538 54.2006C33.7048 53.8681 33.5727 53.5283 33.4578 53.1825C33.274 52.5461 33.8255 52.1219 34.2073 51.7684L35.4376 50.3543C35.458 50.3399 35.4747 50.3209 35.4862 50.2987C35.4977 50.2766 35.5037 50.252 35.5037 50.227C35.5037 50.202 35.4977 50.1774 35.4862 50.1553C35.4747 50.1331 35.458 50.1141 35.4376 50.0997L32.8498 48.6856C32.3407 48.3887 31.5912 48.1765 31.6336 47.4553C31.7004 47.0354 31.8094 46.6232 31.9589 46.2251C32.4538 44.5282 32.9912 42.8595 33.5992 41.1909C33.67 40.9929 33.3447 40.9081 33.274 41.106L33.1609 41.1343Z" fill="#281A24"/>
<path id="Vector_20" d="M56.6492 41.0919C57.2431 42.7605 57.7946 44.4292 58.2754 46.1261C58.4294 46.5238 58.5431 46.9359 58.6148 47.3564C58.6148 48.1058 57.9218 48.2897 57.3986 48.5866L54.7967 50.0007C54.7763 50.0151 54.7596 50.0341 54.7481 50.0563C54.7366 50.0784 54.7306 50.103 54.7306 50.128C54.7306 50.153 54.7366 50.1776 54.7481 50.1997C54.7596 50.2219 54.7763 50.2409 54.7967 50.2553L55.8148 51.3724C56.2108 51.8108 56.9037 52.334 56.8047 52.9703C56.7323 53.2702 56.6231 53.56 56.4795 53.8329C56.1542 54.639 55.8148 55.445 55.4754 56.2369C54.5704 58.3298 53.6371 60.3944 52.6472 62.4731C50.6958 66.7437 48.7113 70.986 46.6939 75.2C46.2131 76.2041 45.7606 77.2222 45.2798 78.2121C45.1808 78.3959 45.4636 78.5656 45.5626 78.3818C46.9767 75.5536 48.2211 72.7254 49.5362 69.982C51.6432 65.471 53.7785 60.9459 55.7441 56.35C56.1259 55.4733 56.4936 54.5966 56.8471 53.6915C56.9885 53.338 57.2714 52.8431 57.1724 52.4613C57.0734 52.0795 56.5784 51.6977 56.3098 51.4007L55.0088 49.9866V50.2411L58.0633 48.5583C58.4003 48.4294 58.7011 48.2208 58.94 47.9503C59.0776 47.6101 59.0776 47.2298 58.94 46.8897C58.4026 44.8817 57.7663 42.9161 57.0592 40.9646C57.0592 40.7666 56.6774 40.8515 56.7481 41.0495L56.6492 41.0919Z" fill="#281A24"/>
<path id="Vector_21" d="M26.7974 69.6709C26.8797 67.8573 26.7993 66.04 26.557 64.2408C26.359 62.558 26.1469 60.8752 25.8358 59.2066C25.0899 55.9052 23.9505 52.7053 22.442 49.6755C22.343 49.4775 22.0743 49.6755 22.1591 49.8311C23.65 52.8408 24.7797 56.0163 25.5247 59.2914C25.85 61.0025 26.0621 62.7277 26.26 64.4529C26.4788 66.1831 26.5498 67.9287 26.4722 69.6709C26.4722 69.883 26.7833 69.883 26.7974 69.6709Z" fill="#281A24"/>
<path id="Vector_22" d="M65.6994 71.17C66.4631 64.0004 67.3115 56.5623 71.2145 50.3261C71.3276 50.1564 71.0448 49.9867 70.9316 50.1705C67.0004 56.4491 66.152 63.9439 65.3742 71.17C65.3742 71.3679 65.6712 71.3679 65.6994 71.17Z" fill="#281A24"/>
<path id="Vector_23" d="M25.9066 112.773C27.7449 112.914 29.5974 112.985 31.4498 112.999C33.2026 113.052 34.9568 112.967 36.6962 112.744C39.8866 112.153 42.8801 110.778 45.407 108.743C45.5767 108.629 45.407 108.347 45.2373 108.46C42.7347 110.477 39.7709 111.842 36.6113 112.433C34.8523 112.648 33.0796 112.728 31.3084 112.674C29.5267 112.674 27.7449 112.575 25.9773 112.448C25.7651 112.448 25.7651 112.759 25.9773 112.773H25.9066Z" fill="#281A24"/>
<path id="Vector_24" d="M66.9297 112.561C63.0675 112.907 59.1821 112.907 55.3199 112.561C51.7116 111.996 48.2895 110.58 45.3363 108.432C45.1525 108.318 44.9969 108.601 45.1666 108.714C48.0563 110.825 51.3879 112.252 54.9098 112.886C56.8531 113.105 58.8092 113.19 60.7642 113.141C62.8288 113.141 64.8792 113.042 66.9297 112.914C67.1276 112.914 67.1276 112.575 66.9297 112.589V112.561Z" fill="#281A24"/>
<path id="Vector_25" d="M45.4212 108.644C45.7181 103.949 45.704 99.2398 45.6616 94.5026C45.6616 90.2603 45.4919 85.919 45.3505 81.6343C45.3505 80.4323 45.2656 79.2303 45.2373 78.0283C45.2373 77.8303 44.8979 77.8303 44.9121 78.0283C45.0959 85.7352 45.4212 93.442 45.3363 101.149C45.3363 103.638 45.2515 106.141 45.0959 108.615C45.0959 108.827 45.407 108.827 45.4212 108.615V108.644Z" fill="#281A24"/>
<path id="Vector_26" d="M54.0048 69.0487C54.0581 68.5818 54.2235 68.1348 54.487 67.7458C54.7505 67.3567 55.1041 67.0372 55.5179 66.8144C56.1234 67.0014 56.7142 67.233 57.2855 67.5073C57.2855 67.5073 58.8976 65.6407 59.1238 65.6407C59.6916 65.9859 60.1629 66.4689 60.4942 67.0449C60.8254 67.6209 61.0059 68.2712 61.0187 68.9355L54.0048 69.0487Z" fill="#FAF6EC"/>
<path id="Vector_27" d="M61.0188 68.2709H53.92C53.6076 68.2709 53.3543 68.5242 53.3543 68.8366V69.9254C53.3543 70.2378 53.6076 70.4911 53.92 70.4911H61.0188C61.3312 70.4911 61.5844 70.2378 61.5844 69.9254V68.8366C61.5844 68.5242 61.3312 68.2709 61.0188 68.2709Z" fill="#281A24"/>
<path id="Vector_28" d="M48.405 83.6565C48.4013 83.8678 48.3147 84.0692 48.1639 84.2173C48.0132 84.3654 47.8103 84.4484 47.5989 84.4484C47.3889 84.4484 47.1875 84.3649 47.039 84.2164C46.8905 84.0679 46.807 83.8665 46.807 83.6565C46.807 83.4464 46.8905 83.245 47.039 83.0965C47.1875 82.948 47.3889 82.8646 47.5989 82.8646C47.8103 82.8645 48.0132 82.9475 48.1639 83.0956C48.3147 83.2437 48.4013 83.4451 48.405 83.6565Z" fill="#281A24"/>
<path id="Vector_29" d="M48.6029 91.5895C48.6029 91.7996 48.5194 92.001 48.3709 92.1495C48.2224 92.298 48.021 92.3814 47.811 92.3814C47.5996 92.3815 47.3967 92.2985 47.246 92.1504C47.0952 92.0023 47.0087 91.8009 47.0049 91.5895C47.0086 91.3769 47.0947 91.174 47.245 91.0236C47.3954 90.8732 47.5983 90.7871 47.811 90.7835C48.0223 90.7872 48.2237 90.8738 48.3718 91.0245C48.5199 91.1753 48.6029 91.3782 48.6029 91.5895Z" fill="#281A24"/>
<path id="Vector_30" d="M48.8716 99.7772C48.8716 99.9338 48.8251 100.087 48.7381 100.217C48.6511 100.347 48.5274 100.449 48.3827 100.509C48.238 100.569 48.0788 100.584 47.9252 100.554C47.7716 100.523 47.6305 100.448 47.5197 100.337C47.409 100.226 47.3336 100.085 47.303 99.9317C47.2724 99.7781 47.2881 99.6188 47.3481 99.4741C47.408 99.3294 47.5095 99.2058 47.6397 99.1187C47.7699 99.0317 47.9231 98.9853 48.0797 98.9853C48.2897 98.9853 48.4911 99.0687 48.6396 99.2172C48.7881 99.3657 48.8716 99.5672 48.8716 99.7772Z" fill="#281A24"/>
<path id="Vector_31" d="M28.3671 97.3308C30.7747 96.1437 32.995 94.6096 34.9568 92.7774C35.1124 92.636 34.8861 92.4097 34.7306 92.5511C32.7879 94.3592 30.5918 95.8741 28.2116 97.048C28.0277 97.147 28.2116 97.4298 28.3813 97.3308H28.3671Z" fill="#281A24"/>
<path id="Vector_32" d="M63.7904 97.5712C61.4061 96.4029 59.2052 94.8927 57.2572 93.0885C57.1017 92.9471 56.8754 93.1733 57.031 93.3147C58.9799 95.133 61.1801 96.6618 63.5641 97.854C63.7621 97.9388 63.9176 97.6702 63.7338 97.5712H63.7904Z" fill="#281A24"/>
<path id="Vector_33" d="M39.6375 14.5775C39.2659 14.2742 38.9729 13.8857 38.7834 13.4451C38.5938 13.0045 38.5133 12.5246 38.5486 12.0462C38.4875 11.146 38.6427 10.2441 39.0012 9.41602C39.4078 8.59006 40.0532 7.90528 40.8536 7.45041C41.6455 6.94134 42.5364 6.6868 43.3566 6.26257C43.5546 6.16358 43.3566 5.88076 43.201 5.97975C42.151 6.40814 41.1388 6.92373 40.1749 7.52112C39.4336 8.05645 38.8677 8.79952 38.5486 9.65641C38.2426 10.5902 38.146 11.58 38.2658 12.5553C38.2805 13.0112 38.402 13.4573 38.6206 13.8577C38.8392 14.258 39.1488 14.6015 39.5244 14.8603C39.6941 14.9734 39.8638 14.6906 39.6799 14.5775H39.6375Z" fill="#2B1C27"/>
<path id="Vector_34" d="M47.1322 6.3615C46.8791 6.51553 46.6598 6.7193 46.4876 6.96049C46.3154 7.20168 46.1939 7.47528 46.1304 7.76476C46.067 8.05423 46.0629 8.35357 46.1184 8.64467C46.174 8.93577 46.2879 9.21258 46.4535 9.45839C46.8777 9.9816 47.4716 10.3351 47.8676 10.8725C48.1195 11.2024 48.2957 11.5838 48.3837 11.9895C48.4717 12.3952 48.4693 12.8152 48.3766 13.2199C48.3766 13.432 48.6453 13.5169 48.6877 13.3047C48.8163 12.6917 48.772 12.055 48.5598 11.4657C48.3475 10.8764 47.9757 10.3577 47.4858 9.96746C47.005 9.54323 46.4393 9.14728 46.3686 8.45437C46.3561 8.09602 46.4353 7.7404 46.5986 7.42118C46.7619 7.10196 47.004 6.8297 47.3019 6.63018C47.4575 6.50291 47.3019 6.22009 47.1322 6.34736V6.3615Z" fill="#2B1C27"/>
<path id="Vector_35" d="M35.1548 10.2645C35.0573 11.2787 35.2771 12.2982 35.7836 13.1822C36.2902 14.0661 37.0587 14.7711 37.983 15.1997C38.0193 15.2111 38.0584 15.2099 38.094 15.1963C38.1295 15.1828 38.1595 15.1577 38.1791 15.1251C38.1987 15.0924 38.2067 15.0542 38.2019 15.0164C38.1971 14.9787 38.1798 14.9436 38.1527 14.9169C37.2974 14.5179 36.5851 13.8659 36.1122 13.049C35.6393 12.2322 35.4285 11.2899 35.5083 10.3494C35.5083 10.1373 35.2255 10.0524 35.1972 10.2645H35.1548Z" fill="#2B1C27"/>
<path id="Vector_36" d="M65.0772 108.488C64.2712 110.454 62.8854 113.084 62.8854 113.084C63.6538 115.223 64.9018 117.158 66.5338 118.74C67.9301 117.125 69.2377 115.435 70.4508 113.678L65.0772 108.488Z" fill="#F7A08B"/>
<path id="Vector_37" d="M71.7093 112.985C70.163 110.344 68.0351 108.091 65.4873 106.395C64.9728 107.002 64.6137 107.725 64.4409 108.502C66.3952 110.467 68.1655 112.606 69.7296 114.894C70.6061 114.529 71.3129 113.848 71.7093 112.985Z" fill="#FAF6EC"/>
<path id="Vector_38" d="M27.0096 108.644C27.8015 110.623 29.2015 113.239 29.2015 113.239C28.4285 115.38 27.1756 117.315 25.539 118.896C24.1436 117.285 22.836 115.599 21.6219 113.848L27.0096 108.644Z" fill="#F7A08B"/>
<path id="Vector_39" d="M19.9249 113.395C21.4809 110.696 23.5122 108.301 25.9207 106.324C26.5349 107.026 27.0532 107.806 27.4621 108.644C25.4168 110.748 23.5618 113.028 21.9188 115.46C21.011 115.057 20.2957 114.316 19.9249 113.395Z" fill="#FAF6EC"/>
<path id="Vector_40" d="M16.5876 78.3818C17.521 79.0897 18.2444 80.0379 18.6805 81.1252C18.9209 81.6625 19.133 82.214 19.331 82.7655C19.6002 83.4025 19.781 84.0734 19.8684 84.7594C19.8684 84.9715 20.2077 84.9715 20.1936 84.7594C20.1292 84.0629 19.9722 83.3781 19.727 82.7231C19.5148 82.1292 19.2886 81.5353 19.034 80.9555C18.5668 79.8313 17.8046 78.8541 16.828 78.1273C16.6584 78 16.4887 78.2828 16.6584 78.4101L16.5876 78.3818Z" fill="#281A24"/>
<path id="Vector_41" d="M70.7054 85.4381C71.2415 82.6578 72.6362 80.1156 74.6931 78.1696C74.8487 78.0282 74.6931 77.802 74.4669 77.9434C72.3637 79.9235 70.9386 82.5164 70.3943 85.3533C70.3943 85.5513 70.6629 85.6361 70.7054 85.4381Z" fill="#281A24"/>
<path id="Vector_42" d="M70.0125 113.48C70.3795 113.48 70.6771 113.182 70.6771 112.815C70.6771 112.448 70.3795 112.151 70.0125 112.151C69.6454 112.151 69.3478 112.448 69.3478 112.815C69.3478 113.182 69.6454 113.48 70.0125 113.48Z" fill="#382633"/>
</g>
</g>
</svg>
