<svg width="90" height="128" viewBox="0 0 90 128" fill="none" xmlns="http://www.w3.org/2000/svg">
<g id="business man 1">
<g id="Layer 1">
<path id="Vector" d="M37.2317 45.6326C32.995 49.4857 36.7827 56.6285 38.048 70.0081C39.4849 86.8302 38.4703 103.772 35.0358 120.302C45.7705 125.869 57.4113 120.098 56.7011 119.82C49.8521 117.086 54.2521 103.224 53.9174 83.9836C53.5828 63.0775 60.8399 54.3101 54.7338 47.7632C50.293 42.9305 41.1501 41.9999 37.2317 45.6326Z" fill="#3777BC"/>
<path id="Vector_2" d="M39.5909 32.9305V37.9999C39.5866 39.0248 39.3664 40.0373 38.9444 40.9713C38.5224 41.9053 37.9082 42.7398 37.1419 43.4203L36.1541 44.8734C36.9813 46.786 38.3472 48.4165 40.0852 49.566C41.8232 50.7155 43.8582 51.3343 45.9419 51.3469C52.4725 51.3469 55.4195 44.5469 55.4195 44.5469L54.1297 43.4203C53.3486 42.7363 52.7214 41.8944 52.2894 40.9502C51.8575 40.0061 51.6305 38.9811 51.6235 37.9428V36.653V32.8979L39.5909 32.9305Z" fill="#FFD6C9"/>
<path id="Vector_3" d="M55.9011 22.1632H55.6889L56.2113 18.302C56.8726 11.5754 51.3134 8.19583 45.7787 8.1795C40.7746 8.1795 36.0726 10.0815 35.4358 16.155C35.3378 17.064 35.3378 17.9808 35.4358 18.8897L35.7705 21.7224H35.6807C35.4029 21.7027 35.1242 21.7462 34.8655 21.8495C34.6069 21.9529 34.375 22.1135 34.1873 22.3193C33.9996 22.5251 33.8609 22.7707 33.7816 23.0377C33.7024 23.3048 33.6846 23.5863 33.7297 23.8611C34.0481 25.355 34.7419 26.5142 35.6726 26.4734H35.9093C37.1011 32.7836 40.3419 37.0857 45.5991 37.0857C49.3297 37.0857 54.342 33.3224 55.5011 26.5142H55.6807C56.8807 26.5142 57.2236 25.2979 57.542 24.0652C57.8603 22.8326 57.093 22.1632 55.9011 22.1632Z" fill="#FFD6C9"/>
<path id="Vector_4" opacity="0.7" d="M56.9624 24.5795C56.9461 24.4852 56.905 24.3969 56.8433 24.3237C56.7816 24.2506 56.7016 24.1952 56.6113 24.1632C56.5172 24.1426 56.4198 24.1426 56.3256 24.1632C56.4226 23.9411 56.5777 23.7494 56.7746 23.6081C56.8726 23.5346 56.7746 23.3714 56.6766 23.4448C56.4276 23.6167 56.2345 23.858 56.1215 24.1387C56.0147 24.4483 55.9921 24.7808 56.0562 25.102C56.0562 25.2244 56.2685 25.1754 56.244 25.053C56.1991 24.8211 56.1991 24.5828 56.244 24.351H56.4318H56.5052H56.5542H56.6032L56.644 24.3918C56.6471 24.4079 56.6471 24.4246 56.644 24.4407C56.6405 24.4596 56.6405 24.479 56.644 24.4979V24.604C56.645 24.623 56.645 24.6421 56.644 24.6612V24.7183C56.6351 24.7267 56.628 24.7368 56.6232 24.748C56.6183 24.7593 56.6158 24.7714 56.6158 24.7836C56.6158 24.7958 56.6183 24.8079 56.6232 24.8192C56.628 24.8304 56.6351 24.8405 56.644 24.8489C56.6524 24.8592 56.663 24.8674 56.675 24.8731C56.687 24.8788 56.7001 24.8817 56.7134 24.8817C56.7267 24.8817 56.7398 24.8788 56.7518 24.8731C56.7638 24.8674 56.7743 24.8592 56.7828 24.8489C56.8651 24.7763 56.927 24.6835 56.9624 24.5795Z" fill="#CE6453"/>
<path id="Vector_5" opacity="0.7" d="M35.4603 24.0734C35.343 23.7952 35.1508 23.555 34.9052 23.3795C34.7991 23.3061 34.7011 23.4693 34.7991 23.5428C34.9963 23.6858 35.1537 23.8769 35.2562 24.0979C35.1625 24.0867 35.0674 24.0971 34.9783 24.1282C34.8892 24.1593 34.8083 24.2104 34.7419 24.2775C34.6809 24.3482 34.6379 24.4327 34.6166 24.5237C34.5953 24.6146 34.5963 24.7094 34.6195 24.7999C34.6432 24.9062 34.6938 25.0045 34.7664 25.0856C34.7848 25.104 34.8098 25.1144 34.8358 25.1144C34.8618 25.1144 34.8868 25.104 34.9052 25.0856C34.9236 25.0672 34.9339 25.0423 34.9339 25.0163C34.9339 24.9902 34.9236 24.9653 34.9052 24.9469V24.9061C34.9052 24.9061 34.9052 24.9061 34.9052 24.8571C34.9052 24.8081 34.9052 24.8163 34.9052 24.7999C34.9052 24.7999 34.9052 24.7591 34.9052 24.7428V24.702V24.604C34.9017 24.5906 34.9017 24.5766 34.9052 24.5632H34.9542H35.0277H35.093C35.1446 24.5591 35.1964 24.5591 35.2481 24.5632C35.2969 24.7974 35.2969 25.0392 35.2481 25.2734C35.2481 25.3958 35.4195 25.4448 35.4358 25.3224C35.587 24.9212 35.5956 24.4802 35.4603 24.0734Z" fill="#CE6453"/>
<path id="Vector_6" d="M39.5501 21.3387C40.2461 21.1458 40.9669 21.0578 41.6889 21.0775C42.3218 21.0827 42.9544 21.0473 43.5827 20.9713C43.7624 20.9713 43.9348 20.9 44.0618 20.7729C44.1889 20.6458 44.2603 20.4735 44.2603 20.2938C44.2603 20.1141 44.1889 19.9418 44.0618 19.8147C43.9348 19.6876 43.7624 19.6162 43.5827 19.6162C42.8983 19.4819 42.1902 19.5355 41.5338 19.7713C40.5542 20.0489 39.6889 20.155 39.1991 20.3509C38.3419 20.6938 38.7011 21.5265 39.5501 21.3387Z" fill="#382633"/>
<g id="Group" opacity="0.35">
<path id="Vector_7" opacity="0.7" d="M45.5011 24.7509C45.4031 25.1591 45.2807 25.5673 45.1501 25.9591C45.0547 26.2526 44.981 26.5527 44.9297 26.8571C44.9077 26.949 44.9074 27.0447 44.9286 27.1367C44.9499 27.2288 44.9921 27.3147 45.0521 27.3877C45.1466 27.4665 45.2561 27.5252 45.374 27.5603C45.4919 27.5953 45.6157 27.6061 45.7378 27.5918C45.918 27.5714 46.0908 27.5092 46.2425 27.4099C46.3942 27.3107 46.5205 27.1772 46.6113 27.0203C46.6848 26.9142 46.497 26.8081 46.4317 26.9142C46.3459 27.0696 46.217 27.1969 46.0607 27.2809C45.9043 27.3649 45.727 27.4019 45.5501 27.3877C45.3297 27.3877 45.1337 27.2571 45.1256 27.0285C45.15 26.7323 45.2159 26.441 45.3215 26.1632C45.4603 25.7305 45.599 25.2979 45.7052 24.8489C45.7052 24.7183 45.5337 24.6611 45.5011 24.7918V24.7509Z" fill="#CE6453"/>
</g>
<g id="Vector_8" style="mix-blend-mode:multiply" opacity="0.76">
<path d="M45.6562 31.1673C46.115 31.208 46.5773 31.1569 47.0161 31.0167C47.4548 30.8765 47.8612 30.6502 48.2113 30.3509C48.2685 30.2938 48.2113 30.2122 48.1215 30.2122C47.3545 29.9304 46.5525 29.7546 45.7379 29.6897C44.911 29.7264 44.0902 29.8495 43.2889 30.0571C43.1991 30.0571 43.1583 30.0571 43.1991 30.1387C43.5054 30.4832 43.8853 30.7546 44.3106 30.9326C44.7359 31.1106 45.1958 31.1908 45.6562 31.1673Z" fill="#E6876F"/>
</g>
<path id="Vector_9" d="M41.4358 31.4203C41.8967 31.3419 42.3313 31.1513 42.7011 30.8652C43.4 30.3522 44.2226 30.0339 45.0848 29.9428H45.3378C45.4555 29.946 45.5725 29.9237 45.6807 29.8775C45.8015 29.9299 45.9331 29.9523 46.0644 29.9428C47.0061 29.9645 47.916 30.2878 48.6603 30.8652C49.0294 31.1525 49.4643 31.3433 49.9256 31.4203C50.102 31.4226 50.2722 31.3551 50.3991 31.2326C50.4634 31.1671 50.5093 31.0859 50.5322 30.997C50.5552 30.9082 50.5543 30.8149 50.5297 30.7265C50.3093 29.8122 47.3215 28.2775 46.4481 27.9918L46.2929 27.9428C46.2 27.9136 46.1042 27.8944 46.0072 27.8857C45.8848 27.8857 45.7705 27.9836 45.6562 28.0244C45.5414 27.96 45.4176 27.9133 45.2889 27.8857C45.1917 27.8978 45.096 27.9197 45.0032 27.951H44.9215C44.0154 28.2367 41.0276 29.7877 40.8399 30.702C40.8153 30.7904 40.8144 30.8837 40.8373 30.9725C40.8603 31.0614 40.9062 31.1426 40.9705 31.2081C41.0328 31.2695 41.1068 31.3178 41.1882 31.35C41.2695 31.3823 41.3565 31.3979 41.444 31.3959L41.4358 31.4203Z" fill="#382633"/>
<path id="Vector_10" d="M52.2848 21.3387C51.5889 21.1453 50.868 21.0573 50.146 21.0775C49.5131 21.0825 48.8806 21.047 48.2522 20.9713C48.0725 20.9713 47.9001 20.9 47.7731 20.7729C47.646 20.6458 47.5746 20.4735 47.5746 20.2938C47.5746 20.1141 47.646 19.9418 47.7731 19.8147C47.9001 19.6876 48.0725 19.6162 48.2522 19.6162C48.9366 19.4819 49.6447 19.5355 50.3011 19.7713C51.2807 20.0489 52.146 20.155 52.6358 20.3509C53.5012 20.6938 53.142 21.5265 52.2848 21.3387Z" fill="#382633"/>
<path id="Vector_11" d="M57.4113 13.355C57.4113 13.355 58.6685 8.52236 54.5787 5.68154C53.5583 4.95501 51.4277 4.53052 48.8562 4.14684C47.3112 3.93821 45.7443 3.95196 44.2032 4.18766C41.8603 4.6448 40.0399 4.92235 38.2032 5.91011C35.3378 7.4448 33.3052 9.3795 34.7583 13.3632C34.6276 15.8122 35.5746 18.7509 35.795 22.106C35.8507 24.1251 36.0225 26.1393 36.3093 28.1387C36.995 31.404 38.7583 41.6897 45.6644 41.6897C53.5175 41.6897 54.3338 32.1714 55.2399 27.8122C55.6876 25.962 55.8392 24.0526 55.6889 22.155C56.4971 20.1469 57.8766 15.8693 57.4113 13.355ZM55.3297 21.7877C54.946 23.0693 54.195 26.8489 52.5297 29.4611C52.0029 30.3012 51.3114 31.026 50.497 31.5918C49.0195 32.4081 47.3379 33.3877 45.5991 33.3877C43.786 33.2563 42.0413 32.6418 40.546 31.6081C39.8078 31.0632 39.2412 30.3181 38.9134 29.4611C37.6889 26.4407 35.9256 21.6407 36.0481 20.4244C36.4154 18.1469 36.6685 14.0162 38.9052 13.6162C41.2733 14.0273 43.6694 14.2566 46.0726 14.302C48.4317 14.302 53.1011 12.9632 54.7746 13.804C55.6317 14.6122 55.1909 19.902 55.3297 21.7877Z" fill="#382633"/>
<path id="Vector_12" d="M54.9869 13.9509C55.3804 13.9936 55.7785 13.966 56.1624 13.8693C56.554 13.7868 56.9368 13.6665 57.3052 13.5101C57.3219 13.5054 57.3375 13.4975 57.3511 13.4867C57.3647 13.4759 57.376 13.4625 57.3844 13.4473C57.3927 13.4321 57.398 13.4154 57.3998 13.3982C57.4016 13.3809 57.4 13.3635 57.395 13.3469C57.3914 13.3295 57.3841 13.3131 57.3736 13.2989C57.3631 13.2846 57.3496 13.2728 57.3341 13.2643C57.3186 13.2558 57.3014 13.2507 57.2837 13.2494C57.2661 13.2482 57.2483 13.2508 57.2318 13.2571C56.8903 13.3967 56.5381 13.5087 56.1787 13.5918C55.8144 13.6887 55.436 13.7219 55.0603 13.6897C54.8889 13.6897 54.8154 13.9264 54.9869 13.9509Z" fill="#281A24"/>
<path id="Vector_13" d="M34.8644 13.5509C35.4322 13.7749 36.0435 13.867 36.6521 13.8203C37.2967 13.8055 37.94 13.7537 38.5787 13.6652C38.7501 13.6652 38.7501 13.3795 38.5787 13.3958C37.986 13.4803 37.3892 13.532 36.7909 13.5509C36.5027 13.5672 36.2138 13.5672 35.9256 13.5509C35.606 13.5366 35.2912 13.4675 34.995 13.3469C34.8399 13.2734 34.7093 13.502 34.8644 13.5754V13.5509Z" fill="#281A24"/>
<path id="Vector_14" d="M42.595 13.7387C40.9079 12.0272 39.8517 9.79386 39.5991 7.40398C39.5991 7.23255 39.3215 7.30602 39.346 7.47745C39.6008 9.91339 40.681 12.1889 42.4072 13.9264C42.5379 14.0407 42.7256 13.853 42.595 13.7387Z" fill="#281A24"/>
<path id="Vector_15" d="M45.9664 13.9754C46.2098 13.0269 46.2293 12.0348 46.0236 11.0775C46.0236 10.906 45.7297 10.9795 45.7705 11.1509C45.9611 12.0635 45.9387 13.0076 45.7052 13.9101C45.7052 13.9411 45.7155 13.9711 45.7346 13.9955C45.7536 14.0199 45.7803 14.0372 45.8103 14.0447C45.8403 14.0523 45.872 14.0495 45.9003 14.0369C45.9286 14.0244 45.9519 14.0027 45.9664 13.9754Z" fill="#281A24"/>
<path id="Vector_16" d="M48.9052 13.6489C49.2725 12.0897 50.5786 11.053 51.5419 9.85296C52.4468 8.79627 53.095 7.5446 53.4358 6.19582C53.4358 6.02439 53.2154 5.95908 53.1746 6.12235C52.7985 7.59011 52.0603 8.94012 51.0276 10.0489C50.1052 11.1346 48.9868 12.1632 48.6603 13.5836C48.6603 13.7468 48.8807 13.8203 48.9215 13.6489H48.9052Z" fill="#281A24"/>
<path id="Vector_17" d="M51.7705 13.5673C52.2678 13.3752 52.7206 13.0835 53.101 12.7101C53.4814 12.3367 53.7815 11.8894 53.9827 11.3958C54.0481 11.2407 53.7868 11.1673 53.7215 11.3305C53.5354 11.7797 53.2599 12.1864 52.9119 12.526C52.5639 12.8655 52.1506 13.1309 51.697 13.306C51.5419 13.3713 51.6072 13.6244 51.7705 13.5673Z" fill="#281A24"/>
<path id="Vector_18" d="M45.5746 34.155C45.6015 35.9384 45.7598 37.7173 46.0481 39.4775C46.0481 39.6489 46.3338 39.5754 46.3011 39.404C46.0219 37.6677 45.8692 35.9134 45.844 34.155C45.8365 34.1249 45.8192 34.0982 45.7948 34.0791C45.7704 34.06 45.7403 34.0497 45.7093 34.0497C45.6783 34.0497 45.6482 34.06 45.6238 34.0791C45.5994 34.0982 45.582 34.1249 45.5746 34.155Z" fill="#281A24"/>
<path id="Vector_19" d="M43.5583 33.6408C43.2719 34.7373 43.1752 35.8749 43.2726 37.004C43.2726 37.1755 43.5583 37.1755 43.5419 37.004C43.4456 35.9077 43.5395 34.803 43.8195 33.7387C43.8195 33.7078 43.8091 33.6777 43.7901 33.6533C43.7711 33.6289 43.7444 33.6116 43.7144 33.6041C43.6843 33.5966 43.6527 33.5993 43.6244 33.6119C43.5961 33.6245 43.5728 33.6461 43.5583 33.6734V33.6408Z" fill="#281A24"/>
<path id="Vector_20" d="M48.5052 33.1346C48.8244 34.855 49.482 36.4949 50.4399 37.9591C50.5297 38.106 50.7664 37.9591 50.6685 37.8203C49.7248 36.3759 49.0782 34.7581 48.7664 33.0611C48.7664 32.8979 48.4725 32.9713 48.5052 33.1346Z" fill="#281A24"/>
<path id="Vector_21" d="M40.5869 32.302C40.193 34.1078 40.2462 35.9826 40.742 37.7632C40.7568 37.7913 40.7808 37.8134 40.8099 37.8259C40.8391 37.8385 40.8717 37.8406 40.9022 37.832C40.9328 37.8234 40.9595 37.8046 40.9779 37.7787C40.9962 37.7528 41.0052 37.7214 41.0032 37.6897C40.5156 35.958 40.4623 34.1327 40.8481 32.3754C40.8481 32.204 40.6277 32.1387 40.5869 32.302Z" fill="#281A24"/>
<path id="Vector_22" d="M51.1093 31.755C51.3365 32.2971 51.6096 32.8187 51.9256 33.3142C51.9441 33.3445 51.9737 33.3663 52.0082 33.3747C52.0426 33.3831 52.079 33.3775 52.1093 33.3591C52.1396 33.3407 52.1614 33.311 52.1698 33.2766C52.1782 33.2421 52.1726 33.2057 52.1542 33.1754C51.8587 32.7015 51.6073 32.2014 51.4032 31.6816C51.3935 31.6426 51.3686 31.6091 51.3342 31.5884C51.2997 31.5678 51.2585 31.5616 51.2195 31.5714C51.1806 31.5811 51.147 31.6059 51.1264 31.6404C51.1057 31.6748 51.0996 31.7161 51.1093 31.755Z" fill="#281A24"/>
<path id="Vector_23" d="M43.0521 23.7142C43.0565 23.7857 43.0466 23.8573 43.0231 23.9248C42.9995 23.9924 42.9627 24.0546 42.9148 24.1078C42.867 24.161 42.809 24.2041 42.7442 24.2347C42.6795 24.2652 42.6093 24.2825 42.5378 24.2856C42.3863 24.2856 42.2409 24.2254 42.1338 24.1183C42.0266 24.0111 41.9664 23.8658 41.9664 23.7142C41.9664 23.5627 42.0266 23.4173 42.1338 23.3102C42.2409 23.203 42.3863 23.1428 42.5378 23.1428C42.6093 23.1459 42.6795 23.1632 42.7442 23.1938C42.809 23.2243 42.867 23.2674 42.9148 23.3206C42.9627 23.3738 42.9995 23.436 43.0231 23.5036C43.0466 23.5712 43.0565 23.6428 43.0521 23.7142Z" fill="#382633"/>
<path id="Vector_24" d="M50.1134 23.7142C50.1178 23.7857 50.1079 23.8573 50.0843 23.9248C50.0608 23.9924 50.024 24.0546 49.9761 24.1078C49.9282 24.161 49.8702 24.2041 49.8055 24.2347C49.7407 24.2652 49.6706 24.2825 49.5991 24.2856C49.4475 24.2856 49.3022 24.2254 49.195 24.1183C49.0879 24.0111 49.0276 23.8658 49.0276 23.7142C49.0276 23.5627 49.0879 23.4173 49.195 23.3102C49.3022 23.203 49.4475 23.1428 49.5991 23.1428C49.6706 23.1459 49.7407 23.1632 49.8055 23.1938C49.8702 23.2243 49.9282 23.2674 49.9761 23.3206C50.024 23.3738 50.0608 23.436 50.0843 23.5036C50.1079 23.5712 50.1178 23.6428 50.1134 23.7142Z" fill="#382633"/>
<path id="Vector_25" d="M22.6684 50.4571C26.1133 48.4326 35.7297 45.1673 35.7297 45.1673C36.5554 44.0146 37.4669 42.9258 38.4562 41.9101C44.2848 64.8816 40.8481 75.8367 41.3297 87.4857C41.9574 102.305 42.3876 114.038 42.6663 123.451C32.0658 125.283 26.2353 125.425 16.0953 124C15.9429 122.447 15.9618 120.878 16.1542 119.322C16.3251 118.112 16.5982 116.919 16.9705 115.755C12.5705 107.445 9.16639 101.233 7.53374 94.8734C4.70925 83.9265 13.5827 55.8122 22.6684 50.4571Z" fill="#DDA21F"/>
<path id="Vector_26" d="M35.5419 45.306C33.9093 48.8734 33.1991 52.653 32.3419 56.4979C32.3353 56.5227 32.3354 56.5489 32.3421 56.5737C32.3488 56.5985 32.3619 56.6211 32.3801 56.6393C32.3982 56.6575 32.4209 56.6706 32.4457 56.6773C32.4705 56.684 32.4966 56.6841 32.5215 56.6775C33.6907 56.4149 34.846 56.0934 35.9827 55.7142L35.795 55.5265C35.5011 56.9632 34.3174 58.2367 33.444 59.355C33.2422 59.6358 33.16 59.9852 33.2154 60.3265C33.2331 61.335 33.3701 62.3379 33.6235 63.3142C34.2031 65.9102 34.8072 68.5061 35.5419 71.0693C36.2766 73.6326 37.2562 76.1714 38.244 78.6938C39.2966 81.5714 40.0729 84.5426 40.5623 87.5673C40.5623 87.7551 40.8807 87.6734 40.848 87.4857C40.4347 84.8786 39.8095 82.3095 38.9786 79.804C38.097 77.3551 37.0521 74.9795 36.2766 72.4571C35.5011 69.9346 34.848 67.3224 34.2521 64.7265C33.9156 63.5285 33.6754 62.3056 33.5337 61.0693C33.5337 60.5387 33.3705 59.902 33.7052 59.4857C34.6195 58.3673 35.7786 57.0367 36.0888 55.5918C36.0936 55.5664 36.092 55.5403 36.0841 55.5157C36.0762 55.4912 36.0623 55.469 36.0436 55.4511C36.025 55.4333 36.0022 55.4204 35.9773 55.4136C35.9524 55.4068 35.9262 55.4063 35.9011 55.4122C34.7664 55.7877 33.6154 56.1142 32.448 56.3754L32.6276 56.5632C33.444 52.7836 34.1705 48.9795 35.8031 45.4448C35.8766 45.2652 35.6235 45.1183 35.5419 45.2897V45.306Z" fill="#BF653C"/>
<path id="Vector_27" d="M17.6399 115.894C18.7077 115.925 19.7688 115.715 20.745 115.282C21.7212 114.848 22.5877 114.201 23.2807 113.388C25.0211 111.625 26.8842 109.989 28.8562 108.49C29.0032 108.367 28.7909 108.155 28.644 108.278C26.8174 109.65 25.0906 111.15 23.4766 112.767C22.7655 113.614 21.9186 114.337 20.9705 114.906C19.9491 115.435 18.8052 115.683 17.6562 115.624C17.4603 115.624 17.4685 115.91 17.6562 115.918L17.6399 115.894Z" fill="#BF653C"/>
<path id="Vector_28" d="M22.6195 51.5346C24.644 54.5224 24.1623 58.6857 24.1052 62.1469C24.0399 66.0816 23.8358 70.0108 23.4929 73.9346C23.1501 77.8367 22.5378 81.7387 22.6766 85.6653C22.8357 89.2595 23.4221 92.822 24.4236 96.2775C25.5664 100.359 27.1011 104.441 28.6276 108.392C28.6929 108.563 28.9868 108.49 28.9134 108.31C26.195 101.192 23.346 93.8775 22.995 86.1796C22.8236 82.2612 23.4113 78.3755 23.7623 74.4816C24.1133 70.5877 24.3501 66.4326 24.4236 62.3999C24.4236 60.3265 24.5378 58.2203 24.3746 56.1469C24.3002 54.4434 23.7824 52.7889 22.8725 51.3469C22.7664 51.1918 22.5052 51.3469 22.6195 51.502V51.5346Z" fill="#BF653C"/>
<path id="Vector_29" d="M22.9378 87.4122C21.6892 85.9041 20.0602 84.7571 18.2195 84.0898C18.0399 84.0163 17.9664 84.302 18.1378 84.3755C19.9091 85.0142 21.4765 86.1164 22.6766 87.5673C22.7909 87.7143 23.0521 87.5673 22.9378 87.4122Z" fill="#BF653C"/>
<path id="Vector_30" d="M22.9134 87.1265C22.4287 84.4877 21.2124 82.0382 19.4032 80.0571C19.2725 79.9102 19.0603 80.1224 19.1909 80.2612C20.9619 82.211 22.1523 84.6173 22.6276 87.2081C22.6276 87.3959 22.946 87.3142 22.9134 87.1265Z" fill="#BF653C"/>
<path id="Vector_31" d="M19.0848 119.918C19.9825 119.85 20.8572 119.602 21.6567 119.188C22.4562 118.775 23.1641 118.204 23.7379 117.51C24.9841 115.96 25.9183 114.183 26.4889 112.278C26.5542 112.098 26.2685 112.024 26.2032 112.204C25.0522 115.469 23.0522 119.453 19.0848 119.624C19.0458 119.624 19.0085 119.64 18.9809 119.668C18.9533 119.695 18.9379 119.732 18.9379 119.771C18.9379 119.81 18.9533 119.848 18.9809 119.875C19.0085 119.903 19.0458 119.918 19.0848 119.918Z" fill="#BF653C"/>
<path id="Vector_32" d="M27.2154 112.571C27.8716 114.331 27.9881 116.247 27.5501 118.073C27.5469 118.11 27.5565 118.146 27.5771 118.175C27.5978 118.205 27.6282 118.227 27.6631 118.236C27.698 118.246 27.7352 118.243 27.7682 118.228C27.8013 118.214 27.8281 118.188 27.844 118.155C28.2896 116.277 28.1703 114.309 27.5011 112.498C27.4358 112.318 27.1501 112.392 27.2154 112.571Z" fill="#BF653C"/>
<path id="Vector_33" d="M28.7338 108.555C28.9772 108.344 29.2527 108.173 29.5501 108.049C29.8481 107.906 30.1371 107.745 30.4154 107.567C30.9723 107.167 31.55 106.796 32.146 106.457C32.3175 106.375 32.146 106.114 31.9991 106.204C31.3856 106.55 30.7916 106.928 30.2195 107.339C29.6271 107.62 29.0638 107.959 28.5379 108.351C28.5108 108.379 28.496 108.417 28.4968 108.456C28.4976 108.495 28.5138 108.532 28.5419 108.559C28.5701 108.586 28.6078 108.601 28.6469 108.6C28.6859 108.599 28.723 108.583 28.7501 108.555H28.7338Z" fill="#BF653C"/>
<path id="Vector_34" d="M40.1215 102.302C40.1199 102.65 40.0151 102.991 39.8204 103.279C39.6257 103.568 39.3497 103.793 39.0274 103.925C38.7051 104.057 38.3508 104.091 38.0093 104.022C37.6678 103.953 37.3544 103.785 37.1086 103.538C36.8628 103.291 36.6957 102.977 36.6283 102.635C36.5609 102.293 36.5963 101.939 36.73 101.617C36.8637 101.295 37.0897 101.021 37.3795 100.827C37.6693 100.634 38.0099 100.531 38.3582 100.531C38.5905 100.531 38.8204 100.576 39.0349 100.666C39.2494 100.755 39.4441 100.885 39.608 101.05C39.7718 101.215 39.9015 101.41 39.9896 101.625C40.0778 101.84 40.1226 102.07 40.1215 102.302Z" fill="#BF653C"/>
<path id="Vector_35" d="M68.3011 49.9428C64.8562 47.9183 55.2399 44.653 55.2399 44.653C54.4122 43.4995 53.498 42.4107 52.5052 41.3958C46.6848 64.4081 49.2889 75.8367 49.8766 87.4857C50.5688 101.778 51.2106 113.165 51.8017 122.367C61.6149 123.621 66.5443 123.057 73.746 118.678C73.5931 117.541 73.5331 116.395 73.5664 115.249C77.9746 106.931 82.7093 94.7183 83.5256 88.5469C84.9869 77.3306 77.3869 55.2979 68.3011 49.9428Z" fill="#DDA21F"/>
<path id="Vector_36" d="M55.1909 44.9469C56.8236 48.4816 57.5093 52.2938 58.3665 56.0653L58.546 55.8775C57.3787 55.6163 56.2277 55.2897 55.0848 54.9142C55.06 54.9077 55.0338 54.9077 55.009 54.9144C54.9842 54.9211 54.9616 54.9342 54.9434 54.9524C54.9252 54.9706 54.9121 54.9932 54.9054 55.018C54.8987 55.0428 54.8987 55.069 54.9052 55.0938C55.1828 56.4244 56.2195 57.6489 57.044 58.6857C57.1828 58.8293 57.3085 58.985 57.4195 59.151C57.4847 59.3901 57.5041 59.6394 57.4767 59.8857C57.4385 60.9892 57.2742 62.0848 56.9869 63.151C56.4073 65.7469 55.7869 68.3428 55.0358 70.8979C54.2848 73.453 53.2889 75.8367 52.3338 78.351C51.3286 81.1434 50.5879 84.0241 50.1216 86.9551C50.1216 87.1428 50.3664 87.2245 50.4073 87.0367C50.8244 84.383 51.4662 81.7696 52.3256 79.2245C53.2481 76.6857 54.3093 74.2204 55.1011 71.6326C55.893 69.0449 56.5052 66.4898 57.093 63.8938C57.3945 62.8053 57.6075 61.6942 57.7297 60.5714C57.8191 60.0489 57.7884 59.5129 57.6399 59.004C57.2732 58.4621 56.8724 57.9441 56.4399 57.453C55.8519 56.7302 55.4135 55.8978 55.1501 55.004L54.9705 55.1918C56.1052 55.5673 57.2563 55.8938 58.4236 56.1551C58.449 56.1635 58.4761 56.1649 58.5022 56.159C58.5283 56.1532 58.5523 56.1403 58.5716 56.1218C58.5909 56.1033 58.6048 56.08 58.6118 56.0542C58.6188 56.0284 58.6187 56.0012 58.6114 55.9755C57.7624 52.1632 57.0603 48.3591 55.4195 44.8163C55.3379 44.6448 55.0848 44.8163 55.1665 44.9714L55.1909 44.9469Z" fill="#BF653C"/>
<path id="Vector_37" d="M73.3134 115.086C72.1847 115.146 71.0595 114.913 70.0481 114.408C69.0648 113.838 68.189 113.101 67.4603 112.229C65.8492 110.612 64.1251 109.111 62.3011 107.739C62.146 107.624 61.9338 107.829 62.0889 107.951C64.0582 109.45 65.9187 111.087 67.6562 112.849C68.3502 113.659 69.2155 114.305 70.1897 114.74C71.1638 115.175 72.2224 115.388 73.2889 115.363C73.4766 115.363 73.4766 115.053 73.2889 115.061L73.3134 115.086Z" fill="#BF653C"/>
<path id="Vector_38" d="M68.0971 50.8653C66.2277 53.6244 66.5134 57.2489 66.546 60.4163C66.546 64.4489 66.7664 68.4898 67.1011 72.5061C67.4358 76.5224 68.0481 80.351 68.0236 84.2939C67.9522 88.1641 67.3647 92.0076 66.2766 95.7224C65.1338 99.8449 63.5991 103.886 62.0726 107.837C62.0073 108.016 62.293 108.09 62.3583 107.918C64.995 101.02 67.7297 93.9673 68.244 86.5306C68.5134 82.6285 67.9828 78.7673 67.6073 74.8898C67.2317 71.0122 66.995 67.0449 66.8889 63.1102C66.8318 60.9551 66.7746 58.7918 66.8889 56.6449C66.8468 54.677 67.3649 52.7377 68.3828 51.053C68.4889 50.8897 68.2358 50.7428 68.1297 50.8979L68.0971 50.8653Z" fill="#BF653C"/>
<path id="Vector_39" d="M68.2521 87.053C69.4522 85.6022 71.0197 84.4999 72.7909 83.8612C72.9705 83.7877 72.8889 83.502 72.7174 83.5755C70.8745 84.2385 69.2445 85.3863 67.9991 86.8979C67.8848 87.053 68.146 87.2 68.2521 87.053Z" fill="#BF653C"/>
<path id="Vector_40" d="M68.3419 86.6939C68.8126 84.1055 70.0005 81.7014 71.7705 79.7551C71.9011 79.6081 71.6889 79.3959 71.5664 79.5428C69.7542 81.5219 68.5375 83.9723 68.0562 86.6122C68.0154 86.8 68.3011 86.8816 68.3419 86.6939Z" fill="#BF653C"/>
<path id="Vector_41" d="M71.8848 119.102C67.9093 118.931 65.9175 114.947 64.7665 111.682C64.7011 111.502 64.4154 111.575 64.4807 111.755C65.0504 113.662 65.9816 115.441 67.2236 116.996C67.8012 117.687 68.5112 118.255 69.3117 118.667C70.1122 119.079 70.9871 119.327 71.8848 119.396C72.0726 119.396 72.0726 119.11 71.8848 119.102Z" fill="#BF653C"/>
<path id="Vector_42" d="M63.4603 111.943C62.7938 113.754 62.6774 115.722 63.1256 117.6C63.1256 117.78 63.4603 117.706 63.4113 117.518C62.9817 115.691 63.098 113.778 63.746 112.016C63.8195 111.837 63.5256 111.763 63.4603 111.943Z" fill="#BF653C"/>
<path id="Vector_43" d="M62.4399 107.837C61.9309 107.446 61.3839 107.107 60.8072 106.824C60.234 106.416 59.64 106.037 59.0276 105.69C58.8562 105.6 58.7093 105.861 58.8807 105.943C59.4753 106.28 60.0503 106.651 60.6032 107.053C60.8664 107.223 61.139 107.379 61.4195 107.518C61.7165 107.65 61.9917 107.826 62.2358 108.041C62.3746 108.18 62.5868 107.967 62.4481 107.837H62.4399Z" fill="#BF653C"/>
<path id="Vector_44" d="M52.3828 102.318C53.7006 102.373 55.0207 102.337 56.3338 102.212C56.5215 102.212 56.5215 101.894 56.3338 101.91C55.0212 102.042 53.7008 102.08 52.3828 102.024C52.1868 102.024 52.195 102.31 52.3828 102.318Z" fill="#BF653C"/>
<path id="Vector_45" opacity="0.5" d="M44.4399 24.5877C44.4399 25.1399 44.2761 25.6796 43.9694 26.1387C43.6626 26.5979 43.2266 26.9557 42.7164 27.167C42.2063 27.3783 41.6449 27.4336 41.1034 27.3259C40.5618 27.2181 40.0644 26.9523 39.6739 26.5618C39.2835 26.1714 39.0176 25.6739 38.9098 25.1323C38.8021 24.5908 38.8574 24.0294 39.0687 23.5193C39.28 23.0091 39.6379 22.5731 40.097 22.2663C40.5561 21.9596 41.0959 21.7958 41.648 21.7958C42.3885 21.7958 43.0986 22.09 43.6222 22.6135C44.1457 23.1371 44.4399 23.8472 44.4399 24.5877Z" fill="#382633"/>
<path id="Vector_46" opacity="0.5" d="M53.0603 24.6203C53.0603 25.1735 52.8959 25.7143 52.588 26.1739C52.2802 26.6335 51.8427 26.9913 51.3311 27.2019C50.8196 27.4125 50.257 27.4663 49.7147 27.3566C49.1725 27.2469 48.6751 26.9785 48.2857 26.5856C47.8962 26.1927 47.6323 25.693 47.5273 25.1498C47.4224 24.6067 47.4812 24.0446 47.6962 23.5349C47.9113 23.0252 48.2729 22.5909 48.7353 22.287C49.1976 21.9832 49.7398 21.8236 50.293 21.8285C51.0291 21.8349 51.733 22.1319 52.2513 22.6548C52.7696 23.1777 53.0603 23.8841 53.0603 24.6203Z" fill="#382633"/>
<path id="Vector_47" d="M55.3378 21.9591C54.8989 22.2079 54.4738 22.4804 54.0644 22.7754L53.248 23.3877C52.9509 22.7348 52.4471 22.1979 51.8144 21.86C51.1817 21.522 50.4553 21.4018 49.7474 21.5179C49.0396 21.634 48.3896 21.98 47.8981 22.5024C47.4065 23.0248 47.1006 23.6945 47.0276 24.4081H44.8562C44.7768 23.6841 44.4578 23.0075 43.9497 22.4857C43.4416 21.964 42.7736 21.6271 42.0521 21.5285C41.3305 21.43 40.5967 21.5755 39.9673 21.942C39.338 22.3084 38.8492 22.8748 38.5786 23.5509C37.8168 22.9289 37.024 22.3458 36.2031 21.804L36.3827 22.4244C37.1029 22.9073 37.7951 23.4306 38.4562 23.9918C38.3248 24.4446 38.2931 24.9206 38.3632 25.3869C38.4333 25.8533 38.6036 26.2989 38.8623 26.6931C39.1211 27.0873 39.4621 27.4209 39.8621 27.6707C40.262 27.9206 40.7113 28.0808 41.1791 28.1405C41.6468 28.2002 42.122 28.1578 42.5718 28.0163C43.0217 27.8749 43.4355 27.6377 43.785 27.321C44.1344 27.0043 44.4111 26.6157 44.596 26.1819C44.7809 25.7481 44.8697 25.2794 44.8562 24.8081H47.0276C47.1566 25.5849 47.562 26.289 48.1691 26.7906C48.7761 27.2921 49.544 27.5574 50.3313 27.5375C51.1185 27.5176 51.872 27.2139 52.453 26.6824C53.034 26.1508 53.4033 25.4272 53.4929 24.6448C53.49 24.3496 53.4488 24.056 53.3705 23.7713C53.6644 23.5264 53.9746 23.306 54.2929 23.0856C54.6113 22.8652 55.1909 22.5387 55.1909 22.5387L55.3378 21.9591ZM41.648 27.3387C41.1039 27.3387 40.572 27.1773 40.1196 26.8751C39.6672 26.5728 39.3146 26.1431 39.1064 25.6404C38.8982 25.1378 38.8437 24.5846 38.9499 24.051C39.056 23.5173 39.318 23.0271 39.7028 22.6424C40.0875 22.2577 40.5777 21.9957 41.1113 21.8895C41.645 21.7834 42.1981 21.8378 42.7008 22.0461C43.2035 22.2543 43.6331 22.6069 43.9354 23.0593C44.2377 23.5117 44.399 24.0436 44.399 24.5877C44.399 24.9489 44.3279 25.3067 44.1896 25.6404C44.0514 25.9742 43.8487 26.2775 43.5933 26.5329C43.3378 26.7884 43.0346 26.991 42.7008 27.1293C42.367 27.2675 42.0093 27.3387 41.648 27.3387ZM50.2929 27.4122C49.7488 27.4122 49.2169 27.2508 48.7645 26.9485C48.3121 26.6462 47.9595 26.2166 47.7513 25.7139C47.5431 25.2112 47.4886 24.6581 47.5948 24.1244C47.7009 23.5908 47.9629 23.1006 48.3477 22.7159C48.7324 22.3311 49.2226 22.0691 49.7562 21.963C50.2899 21.8568 50.843 21.9113 51.3457 22.1195C51.8484 22.3277 52.278 22.6804 52.5803 23.1328C52.8826 23.5852 53.044 24.117 53.044 24.6611C53.044 25.3908 52.7541 26.0905 52.2382 26.6064C51.7223 27.1223 51.0225 27.4122 50.2929 27.4122Z" fill="#382633"/>
<path id="Vector_48" d="M57.7705 43.6734C57.6078 43.2889 57.3965 42.9268 57.1419 42.5958C56.9052 42.2938 56.7338 42.1795 56.6848 41.7795C56.6384 41.4757 56.6869 41.165 56.8236 40.8897C57.0859 40.2873 57.1376 39.614 56.9702 38.9786C56.8028 38.3432 56.4262 37.7827 55.9011 37.3877C55.0848 36.8326 54.3501 36.6612 53.8766 35.755C53.4548 34.7045 53.306 33.5643 53.444 32.4407C53.445 32.3925 53.4275 32.3458 53.395 32.3101C53.3633 32.2714 53.3193 32.2447 53.2703 32.2343C53.2214 32.2239 53.1703 32.2305 53.1256 32.253H53.0766C53.0743 32.2692 53.0743 32.2857 53.0766 32.302C52.7256 33.3142 52.3828 34.3346 52.0644 35.355C51.8907 35.835 51.7489 36.3258 51.6399 36.8244C51.6155 37.0086 51.6155 37.1953 51.6399 37.3795C51.7596 38.0586 51.7816 38.7513 51.7052 39.4367C51.4602 40.2902 51.4602 41.1954 51.7052 42.0489C52.0629 42.8488 52.5859 43.5638 53.2399 44.1469L53.7868 44.6693C54.1052 44.9795 54.1787 45.004 54.2277 45.4856C54.2283 46.1493 54.0292 46.7979 53.6562 47.3469C53.2317 48.1632 52.5379 48.7918 52.4807 49.7305C52.4808 49.7643 52.4887 49.7976 52.5037 49.8279C52.5187 49.8581 52.5404 49.8845 52.5672 49.905C52.5941 49.9255 52.6252 49.9396 52.6584 49.9461C52.6915 49.9527 52.7257 49.9515 52.7583 49.9428C53.259 49.7721 53.716 49.4934 54.097 49.1265C54.097 49.1673 54.097 49.2081 54.097 49.2407C54.0154 49.4693 54.3093 49.5918 54.4644 49.4612C54.5764 49.364 54.6827 49.2604 54.7828 49.151C54.6358 49.4122 54.4807 49.6652 54.3501 49.9183C54.3305 49.9569 54.3223 50.0003 54.3265 50.0433C54.3306 50.0864 54.3468 50.1274 54.3733 50.1616C54.3998 50.1958 54.4355 50.2218 54.4762 50.2365C54.5169 50.2513 54.5609 50.2541 54.6032 50.2448C54.9989 50.1759 55.3653 49.9913 55.6562 49.7142C55.7736 49.5903 55.8801 49.4564 55.9746 49.3142L55.7787 50.1714C55.7787 50.3754 55.9909 50.5632 56.1542 50.3918C57.2644 49.1918 58.4317 47.7795 58.4236 46.0571C58.3635 45.2275 58.1416 44.4178 57.7705 43.6734Z" fill="#382633"/>
<path id="Vector_49" d="M51.9256 38.6775C52.2888 38.1021 52.6002 37.4957 52.8562 36.8652C53.0138 36.2858 53.2617 35.7348 53.5909 35.2326C53.7133 35.0856 53.5011 34.8734 53.3868 35.0203C53.0396 35.5156 52.7826 36.0683 52.6276 36.653C52.3691 37.3142 52.0465 37.9485 51.6644 38.5469C51.6527 38.5806 51.6531 38.6173 51.6654 38.6508C51.6776 38.6844 51.7011 38.7126 51.7318 38.7308C51.7625 38.749 51.7985 38.7561 51.8338 38.7509C51.8691 38.7456 51.9015 38.7283 51.9256 38.702V38.6775Z" fill="#281A24"/>
<path id="Vector_50" d="M56.146 49.0285C56.546 47.7795 57.0276 46.1877 56.5215 44.8979C56.2252 44.3177 55.9768 43.7144 55.7787 43.0938C55.6878 42.2563 55.8261 41.4099 56.1786 40.6448C56.244 40.4652 55.9582 40.3836 55.8929 40.5632C55.6159 41.2266 55.461 41.9345 55.4358 42.653C55.4956 43.2702 55.6907 43.8667 56.0072 44.3999C56.3694 45.0596 56.5177 45.8156 56.4317 46.5632C56.3262 47.3761 56.143 48.177 55.8848 48.955C55.8276 49.1346 56.1133 49.2081 56.1786 49.0285H56.146Z" fill="#281A24"/>
<path id="Vector_51" d="M54.1297 48.751C54.6366 47.8549 55.0262 46.8974 55.2889 45.902C55.2997 45.8641 55.295 45.8235 55.2759 45.789C55.2568 45.7546 55.2247 45.7291 55.1868 45.7183C55.1489 45.7075 55.1083 45.7121 55.0739 45.7313C55.0394 45.7504 55.014 45.7825 55.0032 45.8203C54.7485 46.7913 54.367 47.7245 53.8685 48.5959C53.8568 48.6296 53.8572 48.6663 53.8695 48.6998C53.8817 48.7333 53.9052 48.7616 53.9359 48.7798C53.9666 48.798 54.0026 48.8051 54.0379 48.7999C54.0732 48.7946 54.1056 48.7773 54.1297 48.751Z" fill="#281A24"/>
<path id="Vector_52" d="M41.2154 55.5183C42.494 56.1211 43.8839 56.4519 45.297 56.4898C46.7236 56.6242 48.1611 56.3968 49.4766 55.8285C49.648 55.7469 49.4766 55.4938 49.3215 55.5673C48.0699 56.1063 46.7023 56.3197 45.346 56.1877C43.9769 56.1552 42.6292 55.8412 41.3868 55.2653C41.2154 55.1755 41.0684 55.4285 41.2317 55.5183H41.2154Z" fill="#23151F"/>
<path id="Vector_53" d="M42.8154 118.433C45.5701 118.785 48.3674 118.586 51.044 117.845C51.0819 117.834 51.1139 117.809 51.133 117.774C51.1522 117.74 51.1568 117.699 51.146 117.661C51.1352 117.623 51.1098 117.591 51.0753 117.572C51.0409 117.553 51.0002 117.548 50.9623 117.559C48.3067 118.293 45.531 118.487 42.7991 118.131C42.6032 118.131 42.6113 118.408 42.7991 118.433H42.8154Z" fill="#23151F"/>
</g>
</g>
</svg>
