<svg width="28" height="28" viewBox="0 0 28 28" fill="none" xmlns="http://www.w3.org/2000/svg">
<g id="noun-arrow-1023194 1">
<path id="Vector 2" d="M2.31642 13.4322L13.1664 2.35133C13.6239 1.88408 14.3761 1.88408 14.8336 2.35133L25.6836 13.4322C26.1344 13.8926 26.1266 14.6314 25.666 15.0822L14.816 25.7013C14.3625 26.1452 13.6375 26.1452 13.184 25.7013L2.33397 15.0822C1.87341 14.6314 1.86555 13.8926 2.31642 13.4322Z" fill="#FFB04D" stroke="#FFB04D" stroke-width="1.16667"/>
<path id="Vector" d="M11.0854 11.4588H16.0115L13.5515 9H16.5126L20 12.4874L16.5126 15.9748H13.5516L16.0117 13.5158H11.0856C10.5185 13.5158 10.0572 13.9772 10.0572 14.5444V19.0016H8V14.5444C7.99983 12.8431 9.38396 11.4588 11.0854 11.4588Z" fill="white"/>
</g>
</svg>
