<svg width="90" height="128" viewBox="0 0 90 128" fill="none" xmlns="http://www.w3.org/2000/svg">
<g id="man 1">
<g id="Group 33853">
<path id="Vector" d="M68.5317 64.3701C68.4977 64.3707 68.4649 64.3576 68.4405 64.334C68.4161 64.3103 68.4021 64.2779 68.4016 64.2439C68.4011 64.2099 68.4141 64.1771 68.4378 64.1527C68.4615 64.1283 68.4939 64.1143 68.5279 64.1138C70.8937 64.0375 72.6864 62.1819 73.1928 61.5999C71.2871 61.5873 69.3873 61.3853 67.5216 60.9968C64.0456 60.2481 61.6773 58.9124 60.4825 57.0273C60.4735 57.0131 60.4674 56.9972 60.4645 56.9806C60.4617 56.964 60.4621 56.947 60.4658 56.9306C60.4695 56.9142 60.4763 56.8986 60.486 56.8849C60.4957 56.8711 60.508 56.8594 60.5223 56.8504C60.5365 56.8414 60.5524 56.8353 60.5689 56.8324C60.5855 56.8295 60.6025 56.8299 60.619 56.8336C60.6354 56.8373 60.6509 56.8442 60.6647 56.8539C60.6784 56.8636 60.6902 56.8759 60.6992 56.8901C61.8529 58.7149 64.1693 60.0123 67.5754 60.7462C69.4662 61.14 71.3922 61.34 73.3236 61.3429C73.3613 61.3414 73.3986 61.3511 73.4309 61.3707C73.4632 61.3904 73.4889 61.4191 73.505 61.4532C73.5211 61.4874 73.5267 61.5256 73.5212 61.5629C73.5158 61.6003 73.4994 61.6352 73.4742 61.6634C72.9659 62.2774 71.1026 64.2875 68.5388 64.3708L68.5317 64.3701Z" fill="#9797DD"/>
<path id="Vector_2" d="M60.0294 50.1947C60.0126 50.1949 59.9961 50.1917 59.9807 50.1851C59.9651 50.1787 59.9509 50.1693 59.939 50.1574C59.9271 50.1456 59.9176 50.1314 59.9111 50.1159C59.9046 50.1004 59.9012 50.0837 59.9012 50.0669C59.9011 50.05 59.9044 50.0334 59.9108 50.0178C60.5217 48.523 61.6049 47.2692 62.9951 46.4476C64.0476 45.8253 64.9032 45.6561 64.9391 45.649C64.9725 45.6425 65.0071 45.6496 65.0353 45.6687C65.0635 45.6877 65.083 45.7172 65.0894 45.7506C65.0959 45.784 65.0888 45.8186 65.0698 45.8468C65.0507 45.875 65.0213 45.8944 64.9879 45.9009C64.9539 45.9073 61.6061 46.5919 60.148 50.1159C60.1382 50.1393 60.1217 50.1592 60.1006 50.1733C60.0795 50.1873 60.0547 50.1948 60.0294 50.1947Z" fill="#9797DD"/>
<path id="Vector_3" d="M22.5735 64.3702H22.569C19.9988 64.2868 18.1387 62.2768 17.6336 61.6627C17.6084 61.6346 17.5921 61.5997 17.5866 61.5623C17.5811 61.5249 17.5867 61.4868 17.6028 61.4526C17.6189 61.4184 17.6446 61.3897 17.6769 61.3701C17.7092 61.3505 17.7465 61.3408 17.7843 61.3422C19.7156 61.3393 21.6416 61.1394 23.5324 60.7455C26.9385 60.0116 29.2523 58.7143 30.4086 56.8895C30.4176 56.8753 30.4294 56.863 30.4431 56.8533C30.4569 56.8436 30.4724 56.8367 30.4889 56.833C30.5053 56.8293 30.5223 56.8289 30.5389 56.8317C30.5554 56.8346 30.5713 56.8407 30.5855 56.8498C30.5998 56.8588 30.6121 56.8705 30.6218 56.8842C30.6315 56.898 30.6384 56.9135 30.642 56.93C30.6457 56.9464 30.6462 56.9634 30.6433 56.98C30.6404 56.9966 30.6343 57.0124 30.6253 57.0267C29.4305 58.9117 27.0622 60.2475 23.5862 60.9961C21.7205 61.3847 19.8207 61.5867 17.915 61.5993C18.4214 62.1813 20.2141 64.0349 22.5799 64.1131C22.6139 64.1136 22.6463 64.1276 22.67 64.152C22.6937 64.1764 22.7067 64.2092 22.7062 64.2432C22.7057 64.2772 22.6917 64.3096 22.6673 64.3333C22.6429 64.357 22.6101 64.37 22.5761 64.3695L22.5735 64.3702Z" fill="#9797DD"/>
<path id="Vector_4" d="M31.0784 50.1947C31.0531 50.1948 31.0283 50.1873 31.0072 50.1733C30.986 50.1592 30.9696 50.1392 30.9598 50.1159C29.5016 46.5906 26.1526 45.9073 26.1199 45.9009C26.1034 45.8977 26.0876 45.8913 26.0736 45.882C26.0595 45.8727 26.0474 45.8607 26.038 45.8468C26.0286 45.8328 26.022 45.8171 26.0186 45.8006C26.0152 45.7841 26.0151 45.7671 26.0183 45.7506C26.0215 45.7341 26.0279 45.7183 26.0372 45.7042C26.0465 45.6902 26.0585 45.6781 26.0724 45.6687C26.0864 45.6592 26.1021 45.6526 26.1186 45.6493C26.1351 45.6459 26.1521 45.6458 26.1686 45.649C26.2045 45.6561 27.0602 45.8253 28.1127 46.4476C29.5029 47.2692 30.5861 48.523 31.197 50.0178C31.2034 50.0334 31.2066 50.05 31.2066 50.0669C31.2065 50.0837 31.2032 50.1004 31.1967 50.1159C31.1902 50.1314 31.1807 50.1456 31.1688 50.1574C31.1568 50.1693 31.1427 50.1787 31.1271 50.1851C31.1117 50.1917 31.0951 50.1949 31.0784 50.1947Z" fill="#9797DD"/>
<path id="Vector_5" d="M24.3483 108.479C24.1791 107.659 24.2407 106.844 24.2003 106.044C24.1851 105.644 24.1271 105.247 24.0272 104.86C23.9282 104.47 23.7463 104.105 23.4939 103.791C23.4491 103.735 23.4741 103.713 23.5221 103.768C23.7952 104.076 24 104.439 24.1234 104.832C24.2481 105.222 24.3304 105.624 24.3689 106.031C24.4541 106.84 24.4413 107.654 24.6323 108.416C24.6964 108.673 24.6752 108.822 24.6015 108.847C24.5278 108.872 24.408 108.761 24.3483 108.479Z" fill="#B889E0"/>
<path id="Vector_6" d="M65.0462 41.6603C66.6761 38.2356 66.762 34.6353 63.1573 34.1828C59.5525 33.7303 57.8373 31.3869 58.9743 26.6477C59.5044 24.4389 59.4185 22.0853 59.2121 19.8407C59.0554 18.1416 58.8029 16.4528 58.4558 14.7822C58.3404 14.2265 58.1949 13.6637 58.0642 13.1086C57.9126 12.464 57.7241 11.8286 57.4995 11.2056C57.0592 9.99421 56.4656 8.82958 55.6734 7.80853C55.279 7.29886 54.8331 6.83125 54.3428 6.41315C48.6433 1.57966 42.3965 5.50106 42.3965 5.50106C42.3965 5.50106 37.8374 2.67442 33.9621 9.74102C33.1873 11.168 32.6545 12.7136 32.3853 14.3149L32.3642 14.3233C32.3642 14.3233 30.6092 21.9084 31.7463 26.6483C32.8834 31.3882 31.1694 33.7303 27.5634 34.1835C23.9573 34.6366 24.0458 38.2356 25.6738 41.6603C27.3019 45.0849 18.3444 42.4993 18.2957 50.967C18.247 59.4348 45.361 57.4638 45.361 57.4638C45.361 57.4638 72.4736 59.4367 72.4256 50.967C72.3775 42.4974 63.4149 45.0843 65.0462 41.6603Z" fill="#3C3C3C"/>
<path id="Vector_7" d="M35.6519 29.9861C36.8485 29.4337 37.2109 27.6699 36.4615 26.0465C35.7121 24.4231 34.1346 23.5549 32.938 24.1073C31.7414 24.6597 31.379 26.4235 32.1284 28.0469C32.8778 29.6703 34.4553 30.5385 35.6519 29.9861Z" fill="#FFD6C9"/>
<path id="Vector_8" d="M35.3845 28.6538C36.0389 28.3518 36.2371 27.3873 35.8273 26.4995C35.4175 25.6118 34.5548 25.1371 33.9005 25.4392C33.2461 25.7413 33.0478 26.7058 33.4576 27.5935C33.8674 28.4812 34.7301 28.9559 35.3845 28.6538Z" fill="#FCE6E0"/>
<path id="Vector_9" d="M55.3854 29.9852C56.5819 29.4328 56.9444 27.669 56.195 26.0456C55.4456 24.4222 53.868 23.554 52.6715 24.1064C51.4749 24.6588 51.1124 26.4226 51.8618 28.046C52.6113 29.6694 54.1888 30.5376 55.3854 29.9852Z" fill="white"/>
<path id="Vector_10" d="M54.6126 30.1928C54.2004 30.1853 53.7969 30.0735 53.4396 29.8679C52.7685 29.4987 52.1975 28.859 51.8321 28.0681C51.0771 26.431 51.4475 24.6453 52.6577 24.0864C53.2461 23.8146 53.9396 23.8698 54.6158 24.2409C55.292 24.612 55.858 25.2497 56.2233 26.0413C56.5887 26.8329 56.7047 27.6816 56.5502 28.4321C56.3958 29.1827 55.9862 29.7512 55.3965 30.023C55.1506 30.1359 54.8831 30.1938 54.6126 30.1928ZM53.4435 23.9755C53.1816 23.9744 52.9226 24.0304 52.6846 24.1396C51.5059 24.6831 51.1501 26.4317 51.8904 28.036C52.25 28.8148 52.8115 29.4461 53.4704 29.807C54.1293 30.1678 54.8017 30.2223 55.3709 29.9595C55.94 29.6967 56.3368 29.1481 56.4874 28.4142C56.638 27.6803 56.5246 26.8419 56.1669 26.0631C55.8074 25.2837 55.2465 24.653 54.587 24.2921C54.2386 24.0918 53.8453 23.9828 53.4435 23.9755Z" fill="black"/>
<path id="Vector_11" d="M55.1178 28.653C55.7722 28.351 55.9705 27.3864 55.5607 26.4987C55.1509 25.611 54.2882 25.1363 53.6338 25.4384C52.9794 25.7405 52.7812 26.705 53.191 27.5927C53.6008 28.4804 54.4635 28.9551 55.1178 28.653Z" fill="white"/>
<path id="Vector_12" d="M54.6979 28.7827C54.121 28.7827 53.4929 28.3302 53.1596 27.6129C52.9622 27.204 52.8994 26.7432 52.9801 26.2964C53.0653 25.8791 53.2922 25.5663 53.6211 25.4163C53.9499 25.2664 54.3319 25.2958 54.7049 25.501C55.0972 25.7298 55.4071 26.0769 55.5901 26.4925C55.7876 26.9013 55.8507 27.3622 55.7702 27.8091C55.6843 28.2263 55.4574 28.5385 55.1292 28.6891C54.9939 28.7512 54.8467 28.7832 54.6979 28.7827ZM54.0569 25.3856C53.916 25.3847 53.7767 25.4147 53.6486 25.4734C53.3416 25.6157 53.1275 25.9118 53.0461 26.3066C52.9678 26.74 53.0291 27.1871 53.2211 27.5834C53.623 28.4539 54.4678 28.9224 55.1055 28.6282C55.4125 28.4866 55.6266 28.1904 55.708 27.795C55.7858 27.3615 55.7243 26.9145 55.5324 26.5182C55.3553 26.1151 55.055 25.7786 54.6748 25.5567C54.4863 25.448 54.2732 25.3891 54.0556 25.3856H54.0569Z" fill="black"/>
<path id="Vector_13" d="M59.0894 28.0564C59.8388 26.433 59.4763 24.6692 58.2798 24.1168C57.0832 23.5644 55.5057 24.4326 54.7562 26.056C54.0068 27.6794 54.3693 29.4432 55.5659 29.9956C56.7624 30.548 58.34 29.6797 59.0894 28.0564Z" fill="#FFD6C9"/>
<path id="Vector_14" d="M57.7598 27.6031C58.1696 26.7154 57.9714 25.7509 57.317 25.4488C56.6626 25.1467 55.7999 25.6215 55.3901 26.5092C54.9803 27.3969 55.1786 28.3614 55.833 28.6635C56.4873 28.9655 57.35 28.4908 57.7598 27.6031Z" fill="#FCE6E0"/>
<path id="Vector_15" d="M51.6117 45.9426H39.1398L40.2936 42.3391C40.488 41.7104 40.6219 41.0646 40.6935 40.4104C40.7685 39.7679 40.8055 39.1216 40.8044 38.4747C40.8262 35.6423 40.2916 32.9926 40.2916 32.9926H50.4599C50.4599 32.9926 49.8747 35.907 49.9529 38.8894C49.9686 39.7107 50.0544 40.5292 50.2092 41.336C50.2746 41.6754 50.3602 42.0106 50.4656 42.3397L51.6117 45.9426Z" fill="#FFD6C9"/>
<path id="Vector_16" d="M49.9541 38.8888C48.0543 40.1996 46.3186 41.2251 45.6327 41.1533C44.8931 41.0783 42.9042 39.8714 40.8037 38.4747C40.8255 35.6423 40.291 32.9926 40.291 32.9926H50.4592C50.4592 32.9926 49.8759 35.907 49.9541 38.8888Z" fill="#FCE6E0"/>
<path id="Vector_17" d="M51.6117 45.9425H39.1398L40.2936 42.3391C40.488 41.7104 40.6219 41.0646 40.6935 40.4104C43.076 41.4603 43.9259 46.3143 46.3872 44.394C46.5192 44.2908 49.0549 41.907 50.2086 41.3353C50.274 41.6747 50.3596 42.0099 50.465 42.3391L51.6117 45.9425Z" fill="#FCE6E0"/>
<path id="Vector_18" d="M50.9988 19.5887C44.5251 18.8593 42.0625 15.6071 42.0625 15.6071C42.0625 15.6071 41.4543 17.5222 39.0224 19.6804C36.7317 21.7135 34.6594 22.6666 34.4268 22.7704C34.5825 24.094 35.5222 31.5939 37.1342 34.0424C38.8782 36.6928 43.0887 38.7246 45.5256 38.7817C45.5434 38.7848 45.5615 38.7861 45.5795 38.7855C45.5975 38.7862 45.6156 38.7849 45.6333 38.7817C48.069 38.7246 52.2846 36.6928 54.0248 34.0424C55.424 31.9176 56.3188 25.9868 56.6329 23.5902C56.7786 22.5614 56.757 21.5157 56.5688 20.4937C56.5201 20.2433 56.463 20.0019 56.3976 19.7695C55.2612 19.8733 53.5518 19.8765 50.9988 19.5887Z" fill="#FFD6C9"/>
<path id="Vector_19" d="M40.6031 25.2344C41.1694 25.2344 41.6286 24.601 41.6286 23.8198C41.6286 23.0385 41.1694 22.4052 40.6031 22.4052C40.0367 22.4052 39.5775 23.0385 39.5775 23.8198C39.5775 24.601 40.0367 25.2344 40.6031 25.2344Z" fill="#2D1164"/>
<path id="Vector_20" d="M50.6906 25.2344C51.257 25.2344 51.7161 24.601 51.7161 23.8198C51.7161 23.0385 51.257 22.4052 50.6906 22.4052C50.1242 22.4052 49.665 23.0385 49.665 23.8198C49.665 24.601 50.1242 25.2344 50.6906 25.2344Z" fill="#2D1164"/>
<path id="Vector_21" d="M38.8315 22.3609C38.7881 22.3608 38.7454 22.3497 38.7074 22.3286C38.6695 22.3076 38.6375 22.2772 38.6145 22.2403C38.5915 22.2035 38.5782 22.1614 38.5759 22.118C38.5736 22.0747 38.5824 22.0314 38.6014 21.9924C38.8018 21.586 39.1234 21.2519 39.5218 21.0361C39.9229 20.8211 40.3799 20.7335 40.8319 20.7848C40.8664 20.7873 40.9 20.7968 40.9307 20.8127C40.9614 20.8286 40.9886 20.8505 41.0106 20.8771C41.0327 20.9038 41.0491 20.9346 41.0589 20.9677C41.0687 21.0009 41.0717 21.0357 41.0677 21.07C41.0637 21.1043 41.0529 21.1375 41.0357 21.1675C41.0186 21.1975 40.9956 21.2238 40.968 21.2447C40.9405 21.2656 40.909 21.2807 40.8755 21.2891C40.842 21.2976 40.8071 21.2991 40.773 21.2937C40.4254 21.2545 40.0741 21.3216 39.7654 21.486C39.4606 21.651 39.2143 21.9062 39.0603 22.2167C39.0394 22.2597 39.0069 22.296 38.9665 22.3214C38.9261 22.3469 38.8793 22.3606 38.8315 22.3609Z" fill="black"/>
<path id="Vector_22" d="M52.1161 22.3609C52.068 22.361 52.0209 22.3476 51.9801 22.3222C51.9393 22.2968 51.9065 22.2605 51.8853 22.2173C51.7315 21.9067 51.4852 21.6515 51.1803 21.4866C50.8718 21.322 50.5207 21.2549 50.1733 21.2943C50.1392 21.2997 50.1043 21.2982 50.0708 21.2897C50.0373 21.2813 50.0058 21.2662 49.9783 21.2453C49.9507 21.2244 49.9277 21.1982 49.9106 21.1681C49.8935 21.1381 49.8826 21.1049 49.8786 21.0706C49.8746 21.0363 49.8776 21.0015 49.8874 20.9683C49.8972 20.9352 49.9136 20.9044 49.9357 20.8777C49.9577 20.8511 49.9849 20.8292 50.0156 20.8133C50.0463 20.7974 50.0799 20.788 50.1144 20.7854C50.5665 20.7338 51.0236 20.8214 51.4245 21.0367C51.8227 21.2524 52.1443 21.5863 52.3449 21.9923C52.364 22.0314 52.3729 22.0747 52.3707 22.1182C52.3685 22.1616 52.3553 22.2038 52.3322 22.2408C52.3092 22.2777 52.2772 22.3082 52.2391 22.3293C52.2011 22.3504 52.1583 22.3615 52.1148 22.3615L52.1161 22.3609Z" fill="black"/>
<path id="Vector_23" d="M48.8068 32.2548C48.6583 33.0162 48.2496 33.7023 47.6509 34.1956C47.0521 34.6888 46.3005 34.9585 45.5247 34.9585C44.749 34.9585 43.9974 34.6888 43.3986 34.1956C42.7998 33.7023 42.3912 33.0162 42.2427 32.2548C42.229 32.1806 42.2316 32.1042 42.2503 32.0311C42.269 31.9579 42.3034 31.8897 42.351 31.8311C42.3971 31.7711 42.4564 31.7225 42.5243 31.6891C42.5922 31.6558 42.667 31.6386 42.7427 31.6389H48.3068C48.383 31.6386 48.4581 31.6559 48.5266 31.6892C48.595 31.7225 48.6549 31.7711 48.7017 31.8311C48.7487 31.89 48.7825 31.9583 48.8006 32.0315C48.8187 32.1046 48.8209 32.1808 48.8068 32.2548Z" fill="#C64F60"/>
<path id="Vector_24" d="M48.7004 31.8305C47.9255 32.215 46.7897 32.4554 45.5257 32.4554C44.2617 32.4554 43.1253 32.2125 42.3504 31.8305C42.3969 31.7705 42.4564 31.7221 42.5245 31.6887C42.5927 31.6554 42.6675 31.6381 42.7433 31.6382H48.3075C48.3833 31.6381 48.4581 31.6554 48.5263 31.6887C48.5944 31.7221 48.6539 31.7705 48.7004 31.8305Z" fill="white"/>
<path id="Vector_25" d="M45.4513 36.4133C45.8793 36.4133 46.2262 36.3011 46.2262 36.1627C46.2262 36.0243 45.8793 35.9121 45.4513 35.9121C45.0233 35.9121 44.6764 36.0243 44.6764 36.1627C44.6764 36.3011 45.0233 36.4133 45.4513 36.4133Z" fill="#F47382"/>
<g id="Group" opacity="0.33">
<path id="Vector_26" d="M39.3481 29.6262C40.6826 29.6262 41.7645 28.8302 41.7645 27.8482C41.7645 26.8662 40.6826 26.0702 39.3481 26.0702C38.0135 26.0702 36.9316 26.8662 36.9316 27.8482C36.9316 28.8302 38.0135 29.6262 39.3481 29.6262Z" fill="#FFBBAD"/>
<path id="Vector_27" d="M51.6116 29.6262C52.9462 29.6262 54.028 28.8301 54.028 27.8482C54.028 26.8662 52.9462 26.0701 51.6116 26.0701C50.2771 26.0701 49.1952 26.8662 49.1952 27.8482C49.1952 28.8301 50.2771 29.6262 51.6116 29.6262Z" fill="#FFBBAD"/>
</g>
<path id="Vector_28" d="M47.878 33.993C47.2784 34.5881 46.4755 34.9339 45.6311 34.9608C44.7867 34.9877 43.9635 34.6937 43.3272 34.1379C43.922 33.6854 44.7668 33.404 45.7058 33.404C46.5416 33.404 47.2992 33.6251 47.878 33.993Z" fill="#F47382"/>
<path id="Vector_29" d="M45.0809 29.016C45.0369 29.0159 44.9943 29.0006 44.9602 28.9729C44.9261 28.9451 44.9026 28.9065 44.8935 28.8634C44.8844 28.8204 44.8904 28.7755 44.9104 28.7364C44.9303 28.6972 44.9632 28.666 45.0033 28.6481C45.3668 28.4886 45.6979 28.2638 45.9802 27.9847C46.0254 27.9467 46.0612 27.8987 46.0846 27.8444C46.1039 27.761 45.9994 27.6284 45.9436 27.5566C45.7103 27.2598 45.4501 26.9073 45.3078 26.4881C45.1488 26.0202 45.1796 25.5446 45.386 25.1825C45.4115 25.1383 45.4535 25.106 45.5028 25.0928C45.5521 25.0795 45.6046 25.0864 45.6488 25.1119C45.693 25.1374 45.7252 25.1795 45.7385 25.2287C45.7517 25.278 45.7448 25.3305 45.7193 25.3747C45.5655 25.6401 45.5482 26.001 45.6719 26.3637C45.7821 26.6894 45.9814 26.981 46.2487 27.3188C46.3449 27.4412 46.5237 27.6687 46.4615 27.9315C46.425 28.0583 46.3524 28.1716 46.2526 28.2578C45.9377 28.5694 45.5684 28.8208 45.1629 28.9994C45.1371 29.0109 45.1091 29.0166 45.0809 29.016Z" fill="#F47382"/>
<path id="Vector_30" d="M41.0261 23.8197C41.2598 23.8197 41.4492 23.5514 41.4492 23.2204C41.4492 22.8895 41.2598 22.6211 41.0261 22.6211C40.7925 22.6211 40.6031 22.8895 40.6031 23.2204C40.6031 23.5514 40.7925 23.8197 41.0261 23.8197Z" fill="white"/>
<path id="Vector_31" d="M51.1886 23.8197C51.4222 23.8197 51.6116 23.5514 51.6116 23.2204C51.6116 22.8895 51.4222 22.6211 51.1886 22.6211C50.955 22.6211 50.7656 22.8895 50.7656 23.2204C50.7656 23.5514 50.955 23.8197 51.1886 23.8197Z" fill="white"/>
<path id="Vector_32" d="M52.8583 45.7752H37.3137V50.576H52.8583V45.7752Z" fill="#FCE6E0"/>
<path id="Vector_33" d="M67.1947 122.082C52.5308 124.699 37.3393 124.61 22.7075 121.986C22.8357 119.64 23.044 116.494 23.3625 112.868C23.4369 112.021 23.5176 111.146 23.6042 110.249C23.6311 109.978 23.6574 109.705 23.6849 109.431C24.0855 105.427 24.9245 101.645 25.7706 98.5834C26.4116 96.276 27.0525 94.3787 27.5134 93.1064C27.9217 91.9822 28.1896 91.3457 28.1896 91.3457C28.4746 90.6257 28.8415 89.941 29.2831 89.3049C31.3117 86.3879 34.7178 84.9117 38.6296 84.5073C39.8486 84.3858 41.0752 84.3581 42.2984 84.4246C42.883 84.4541 43.4712 84.5028 44.063 84.5707C44.5878 84.6297 45.1138 84.703 45.6411 84.7906C45.9083 84.8355 46.175 84.8829 46.4429 84.9342C46.927 85.0265 47.4097 85.1301 47.8908 85.245C50.3983 85.8377 52.8314 86.7095 55.1446 87.8441C55.5317 88.0351 55.9114 88.2323 56.2836 88.4357C58.766 89.7952 60.8748 91.4168 62.3086 93.1744C62.8657 93.844 63.3341 94.5827 63.7021 95.3722C64.1623 96.4069 64.5478 97.4732 64.8558 98.5629C65.8576 102.024 66.4428 106.239 66.7787 110.332C66.8537 111.246 66.9159 112.153 66.9671 113.045C67.1658 116.477 67.2081 119.675 67.1947 122.082Z" fill="#3777BC"/>
<path id="Vector_34" opacity="0.47" d="M66.9672 113.045C62.7842 114.867 55.3901 117.917 53.7512 117.484C51.4367 116.87 47.571 98.102 47.571 98.102H42.1543C42.1543 98.102 37.3746 117.757 36.1004 118.303C35.3107 118.642 28.4601 115.391 23.3625 112.869C23.4587 111.765 23.5664 110.616 23.683 109.431C24.6541 99.7397 28.1877 91.345 28.1877 91.345C33.3474 78.4014 59.3339 85.7494 63.7034 95.3722C65.7295 99.8307 66.6076 106.824 66.9672 113.045Z" fill="#2D1164"/>
<path id="Vector_35" d="M56.6862 96.1908H39.1462L38.313 77.3074L36.7619 42.2276L36.742 41.7789L44.1829 46.0612L45.3636 48.7237L48.7709 44.4581L53.8743 41.7789L56.5663 93.8519L56.6862 96.1908Z" fill="#F8F8FF"/>
<path id="Vector_36" d="M56.5682 93.8531L47.0178 96.1907H39.1462L38.3129 77.3073L39.1462 68.2441C39.1462 68.2441 48.1036 68.653 49.1785 67.2186C50.2534 65.7841 52.7333 45.5906 52.7333 45.5906C52.7333 45.5906 50.2534 51.0439 49.6163 51.3509C48.9792 51.6579 47.4889 49.662 45.0462 49.662C42.6035 49.662 40.1698 52.1701 39.5558 52.1701C38.9789 52.1701 36.9791 43.2158 36.7605 42.2262L36.7407 41.7775L44.1816 46.0598L45.3622 48.7223L48.7696 44.4567L53.8729 41.7775L56.5682 93.8531Z" fill="#E8E8FC"/>
<path id="Vector_37" d="M36.7401 41.7801C36.7401 41.7801 37.713 39.9893 37.9072 39.8015C38.1015 39.6137 40.798 38.931 40.798 38.931L40.7082 40.277C40.7082 40.277 44.0412 45.9816 44.4668 46.4059C44.8924 46.8302 45.2687 48.8121 45.2514 48.7268C45.2341 48.6416 44.4233 46.7815 44.1476 46.7136C43.872 46.6456 40.0795 51.0984 39.8532 50.8593C39.6269 50.6202 36.8702 43.012 36.7401 41.7801Z" fill="white"/>
<path id="Vector_38" d="M53.8723 41.7802C53.8723 41.7802 52.9 39.9893 52.7051 39.8015C52.5103 39.6137 49.949 38.7856 49.949 38.7856L50.0092 39.9393C50.0092 39.9393 46.5685 45.9804 46.1423 46.4066C45.7161 46.8329 45.3405 48.8128 45.3584 48.7275C45.3764 48.6423 46.6948 46.9867 46.9704 46.9187C47.246 46.8508 50.5303 51.0991 50.7572 50.86C50.9841 50.6209 53.7428 43.0121 53.8723 41.7802Z" fill="white"/>
<path id="Vector_39" d="M45.0462 96.3189H45.0398C45.0059 96.3173 44.9741 96.3022 44.9512 96.2771C44.9284 96.252 44.9165 96.2189 44.918 96.185C44.9245 96.0472 45.5757 82.3319 46.0481 76.7465C46.5204 71.1612 46.1307 67.3782 45.5718 63.0082C45.0328 58.7855 45.2315 48.8224 45.2334 48.7218C45.2342 48.6878 45.2484 48.6555 45.273 48.632C45.2976 48.6085 45.3305 48.5957 45.3645 48.5965C45.3985 48.5972 45.4308 48.6115 45.4543 48.6361C45.4778 48.6606 45.4906 48.6935 45.4898 48.7275C45.4898 48.8275 45.2892 58.772 45.8263 62.9755C46.3865 67.3609 46.7775 71.1612 46.3032 76.7683C45.8314 82.3485 45.1802 96.0613 45.1738 96.1972C45.1721 96.2299 45.158 96.2608 45.1343 96.2835C45.1106 96.3061 45.079 96.3188 45.0462 96.3189Z" fill="#C3C3F4"/>
<path id="Vector_40" d="M45.0309 91.2265C44.7232 92.6084 41.9081 112.929 41.6011 113.492C41.2941 114.056 41.2422 114.874 37.6085 114.618C33.9749 114.361 23.4818 110.318 23.2254 110.062C22.969 109.807 23.1741 109.09 23.5837 105.813C23.9932 102.537 25.9892 95.0139 26.552 92.5058C26.6622 92.0129 26.75 91.2457 26.8173 90.3304C26.9782 88.1825 27.0352 85.2206 27.0551 83.0875C27.0699 81.5031 27.0641 80.375 27.0641 80.375L26.6077 80.2917L14.1365 78.0028C14.1365 78.0028 15.1941 70.3933 16.6273 63.9439C18.0605 57.4946 19.7494 50.8914 20.0058 50.2274C20.2622 49.5633 20.7224 47.2591 22.0018 45.7746C23.0747 44.5298 32.7135 42.5647 35.7978 41.9634C36.3926 41.8474 36.7432 41.7814 36.7432 41.7814C36.7432 41.7814 36.9996 50.3805 38.586 57.3933C38.9456 58.9848 39.4898 61.5243 40.1128 64.5157C41.8607 72.9033 44.2252 84.8463 44.877 89.4125C44.9283 89.7728 44.9693 90.0875 44.9988 90.3509C45.045 90.8047 45.0597 91.1066 45.0309 91.2265Z" fill="#DDA21F"/>
<path id="Vector_41" opacity="0.5" d="M44.9956 90.3496C43.9874 89.41 42.2395 88.4498 39.1975 87.9505C34.6839 87.2089 29.81 88.944 26.8193 90.3304C26.9801 88.1825 27.0372 85.2206 27.0571 83.0875C27.0571 83.0875 26.8404 81.9729 26.6084 80.2916C26.1559 77.0067 25.6469 71.5592 26.6001 68.0384C26.6001 68.0384 27.882 70.1696 31.7739 70.5381C35.6658 70.9067 36.3292 70.5381 36.3292 70.5381L35.0755 64.5131H40.1083C41.8562 72.9007 44.2207 84.8438 44.8726 89.41C44.9251 89.7715 44.9668 90.0862 44.9956 90.3496Z" fill="#E15254"/>
<path id="Vector_42" d="M33.0551 57.2414C33.0551 56.8831 35.7946 53.9654 35.7946 53.9654C35.7946 53.9654 32.3892 51.2522 32.3892 50.6895C32.3892 50.1267 35.7946 41.9647 35.7946 41.9647C36.3894 41.8487 36.74 41.7827 36.74 41.7827C36.74 41.7827 36.9964 50.3818 38.5828 57.3946C39.9519 63.4459 43.9893 83.2182 44.8738 89.4138C38.7129 79.0501 33.0551 57.549 33.0551 57.2414Z" fill="#FFD1AB"/>
<path id="Vector_43" d="M27.066 80.5026C27.0378 80.5025 27.0104 80.4932 26.9881 80.4761C26.9657 80.4589 26.9496 80.4349 26.9423 80.4077C25.1124 73.559 25.9507 70.1414 26.6898 67.1263C27.0634 65.6034 27.416 64.1657 27.416 62.4082C27.416 57.1651 25.1239 49.4191 25.1008 49.3416C25.0952 49.3252 25.0929 49.3079 25.0941 49.2906C25.0953 49.2733 25.1 49.2565 25.1079 49.2411C25.1158 49.2257 25.1267 49.212 25.14 49.201C25.1534 49.1899 25.1688 49.1817 25.1854 49.1767C25.202 49.1718 25.2194 49.1702 25.2366 49.1722C25.2538 49.1742 25.2704 49.1796 25.2854 49.1882C25.3005 49.1968 25.3136 49.2083 25.3241 49.2221C25.3346 49.2359 25.3421 49.2517 25.3463 49.2685C25.3694 49.3461 27.6724 57.1273 27.6724 62.4082C27.6724 64.1965 27.316 65.6489 26.9391 67.1872C26.2071 70.1728 25.3771 73.5565 27.1897 80.341C27.1985 80.3738 27.194 80.4088 27.177 80.4382C27.1601 80.4677 27.1321 80.4892 27.0993 80.4981C27.0885 80.5011 27.0773 80.5026 27.066 80.5026Z" fill="#E15254"/>
<path id="Vector_44" d="M26.0629 92.9834C26.0629 92.9834 32.9699 93.5294 33.0379 93.8704C33.1058 94.2114 31.9482 98.5456 28.0217 98.7847C24.0952 99.0238 24.7458 97.1124 24.9162 96.3958C25.0867 95.6792 25.6886 92.9526 26.0629 92.9834Z" fill="#FFD1AB"/>
<path id="Vector_45" d="M45.5436 91.2265C45.8507 92.6084 48.6664 112.929 48.9728 113.492C49.2792 114.056 49.3317 114.874 52.966 114.618C56.6002 114.361 67.0928 110.318 67.3485 110.062C67.6043 109.807 67.4004 109.09 66.9909 105.814C66.5813 102.537 64.5847 95.014 64.0219 92.5059C63.9117 92.013 63.8245 91.2457 63.7566 90.3304C63.5957 88.1826 63.5393 85.2207 63.5188 83.0876C63.504 81.5031 63.5104 80.375 63.5104 80.375L63.9668 80.2917L76.4431 78.0035C76.4431 78.0035 75.3855 70.394 73.9517 63.9446C72.5179 57.4953 70.8296 50.8921 70.5738 50.2281C70.3181 49.564 69.8566 47.2598 68.5779 45.7753C67.5043 44.5305 57.8661 42.5654 54.7812 41.9641C54.187 41.8481 53.8358 41.7821 53.8358 41.7821C53.8358 41.7821 53.5794 50.3812 51.9936 57.394C51.6341 58.9855 51.0892 61.525 50.4662 64.5164C48.719 72.904 46.3538 84.847 45.7026 89.4132C45.6513 89.7735 45.6103 90.0882 45.5808 90.3516C45.5283 90.8048 45.5135 91.1067 45.5436 91.2265Z" fill="#DDA21F"/>
<path id="Vector_46" opacity="0.5" d="M45.5776 90.3496C46.5852 89.41 48.3338 88.4498 51.3758 87.9505C55.8888 87.2089 60.7633 88.944 63.7534 90.3304C63.5925 88.1825 63.5361 85.2206 63.5156 83.0875C63.5156 83.0875 63.7329 81.9729 63.9643 80.2916C64.4168 77.0067 64.9257 71.5592 63.9719 68.0384C63.9719 68.0384 62.69 70.1696 58.7988 70.5381C54.9075 70.9067 54.2428 70.5381 54.2428 70.5381L55.4965 64.5131H50.4637C48.7164 72.9007 46.3513 84.8438 45.7001 89.41C45.6481 89.7715 45.6078 90.0862 45.5776 90.3496Z" fill="#E15254"/>
<path id="Vector_47" d="M57.5181 57.2414C57.5181 56.8831 54.778 53.9654 54.778 53.9654C54.778 53.9654 58.1834 51.2522 58.1834 50.6895C58.1834 50.1267 54.778 41.9647 54.778 41.9647C54.1838 41.8487 53.8326 41.7827 53.8326 41.7827C53.8326 41.7827 53.5762 50.3818 51.9904 57.3946C50.6207 63.4459 46.5833 83.2182 45.6994 89.4138C51.8597 79.0501 57.5181 57.549 57.5181 57.2414Z" fill="#FFD1AB"/>
<path id="Vector_48" d="M63.5072 80.5025C63.496 80.5026 63.4847 80.5011 63.4739 80.498C63.4576 80.4937 63.4423 80.4862 63.4289 80.476C63.4155 80.4658 63.4043 80.453 63.3958 80.4384C63.3874 80.4238 63.3819 80.4077 63.3796 80.391C63.3774 80.3743 63.3785 80.3573 63.3829 80.341C65.1955 73.5564 64.3661 70.1728 63.6341 67.1872C63.2572 65.6489 62.9009 64.1965 62.9009 62.4082C62.9009 57.1273 65.2032 49.346 65.2263 49.2685C65.2311 49.2523 65.239 49.2373 65.2496 49.2242C65.2603 49.2111 65.2733 49.2002 65.2882 49.1922C65.303 49.1841 65.3192 49.1791 65.336 49.1773C65.3528 49.1756 65.3697 49.1771 65.3859 49.1819C65.402 49.1867 65.4171 49.1947 65.4302 49.2053C65.4433 49.2159 65.4542 49.229 65.4622 49.2438C65.4702 49.2586 65.4753 49.2749 65.477 49.2917C65.4788 49.3084 65.4772 49.3254 65.4724 49.3415C65.4493 49.4191 63.1573 57.1651 63.1573 62.4082C63.1573 64.1657 63.5098 65.6034 63.8828 67.1263C64.6225 70.1388 65.4602 73.559 63.6309 80.4077C63.6236 80.4349 63.6075 80.4589 63.5852 80.4761C63.5628 80.4932 63.5354 80.5025 63.5072 80.5025Z" fill="#E15254"/>
<path id="Vector_49" d="M64.5103 92.9834C64.5103 92.9834 57.6033 93.5294 57.5354 93.8704C57.4674 94.2114 58.625 98.5456 62.5516 98.7847C66.4781 99.0238 65.8269 97.1124 65.6564 96.3958C65.4859 95.6792 64.8847 92.9526 64.5103 92.9834Z" fill="#FFD1AB"/>
<path id="Vector_50" d="M75.797 83.7528C74.4664 85.5956 64.7405 86.4148 61.6696 86.2609C60.671 86.2109 58.1373 85.9789 55.1715 85.6892C49.0183 85.086 41.0063 84.2329 41.0063 84.2329C41.0063 84.2329 49.8445 79.6577 57.0617 76.5343C57.2574 76.4489 57.4566 76.3677 57.6591 76.2908C64.9116 73.4885 76.1021 74.8454 76.1021 74.8454C76.1021 74.8454 77.1258 81.9101 75.797 83.7528Z" fill="#DDA21F"/>
<path id="Vector_51" opacity="0.5" d="M59.1519 80.4801C59.1519 80.4801 56.4689 83.01 55.1696 85.6892C49.0164 85.086 41.0044 84.2329 41.0044 84.2329C41.0044 84.2329 49.8445 79.6577 57.0618 76.5343C57.2575 76.4489 57.4566 76.3677 57.6591 76.2908C58.3341 77.5067 58.8456 78.8989 59.1519 80.4801Z" fill="#E15254"/>
<path id="Vector_52" d="M32.0585 73.4962C32.0585 73.4962 30.0343 68.1294 29.7292 67.7775C29.4241 67.4256 27.614 64.4054 27.1141 63.9708C26.6141 63.5363 26.286 63.226 25.9809 63.5568C25.6758 63.8875 25.6546 64.1567 25.6546 64.1567C25.6546 64.1567 24.565 63.06 24.0202 62.9985C23.4753 62.937 23.192 63.3497 23.192 63.6606C23.192 63.9715 23.9548 65.6232 23.9548 65.6232C23.9548 65.6232 22.1678 64.633 21.8396 65.1502C21.5114 65.6675 21.5127 65.9155 21.6871 66.2257C21.8614 66.536 24.1061 68.3364 24.5201 68.9178C24.9342 69.4991 24.9996 69.6004 24.9996 69.6004C24.9996 69.6004 22.8639 69.0831 22.5588 69.1037C22.2537 69.1242 22.4062 70.035 22.6024 70.2625C22.7985 70.4901 24.8252 71.5656 24.9342 71.7726C25.0431 71.9796 26.1065 73.1353 26.1065 73.1353L32.0585 73.4962Z" fill="#FFB6B1"/>
<path id="Vector_53" d="M31.2175 71.4329C31.1941 71.4329 31.1712 71.4265 31.1512 71.4144C31.1312 71.4024 31.1149 71.385 31.1041 71.3643C29.6766 68.6614 25.6014 64.2881 25.5604 64.2446C25.5372 64.2196 25.5248 64.1865 25.526 64.1525C25.5272 64.1185 25.5419 64.0864 25.5668 64.0632C25.5917 64.04 25.6248 64.0276 25.6588 64.0288C25.6928 64.03 25.725 64.0447 25.7482 64.0696C25.7892 64.1132 29.8869 68.5114 31.331 71.2445C31.3389 71.2594 31.3438 71.2757 31.3455 71.2925C31.3471 71.3093 31.3454 71.3263 31.3404 71.3424C31.3355 71.3585 31.3274 71.3735 31.3167 71.3865C31.3059 71.3996 31.2927 71.4103 31.2778 71.4182C31.2591 71.4277 31.2385 71.4328 31.2175 71.4329Z" fill="#F47382"/>
<path id="Vector_54" d="M30.6945 71.9194C30.6739 71.9194 30.6535 71.9143 30.6352 71.9047C30.6169 71.8951 30.6012 71.8813 30.5894 71.8643C28.7306 69.1838 23.9286 65.7642 23.8805 65.7296C23.8545 65.7093 23.8374 65.6798 23.8326 65.6472C23.8279 65.6146 23.8358 65.5814 23.8549 65.5546C23.8739 65.5277 23.9026 65.5092 23.9349 65.5029C23.9673 65.4966 24.0008 65.5029 24.0285 65.5207C24.0773 65.5553 28.9172 69.0005 30.7997 71.7181C30.819 71.746 30.8265 71.7804 30.8205 71.8139C30.8145 71.8473 30.7954 71.8769 30.7676 71.8963C30.7462 71.9113 30.7207 71.9193 30.6945 71.9194Z" fill="#F47382"/>
<path id="Vector_55" d="M29.6433 73.4577C29.6251 73.4578 29.6072 73.454 29.5906 73.4466C29.574 73.4392 29.5592 73.4283 29.5471 73.4148C27.6704 71.2906 24.9643 69.7286 24.9367 69.7126C24.9221 69.7042 24.9093 69.693 24.899 69.6796C24.8887 69.6662 24.8812 69.651 24.8768 69.6347C24.8725 69.6184 24.8713 69.6014 24.8735 69.5847C24.8757 69.568 24.8812 69.5519 24.8896 69.5373C24.898 69.5227 24.9092 69.5099 24.9226 69.4996C24.9359 69.4893 24.9512 69.4818 24.9675 69.4774C24.9838 69.473 25.0007 69.4719 25.0175 69.4741C25.0342 69.4763 25.0503 69.4818 25.0649 69.4902C25.0924 69.5062 27.8358 71.0926 29.7401 73.2449C29.7563 73.2634 29.7669 73.2862 29.7705 73.3106C29.7742 73.335 29.7707 73.3599 29.7606 73.3823C29.7504 73.4048 29.734 73.4238 29.7133 73.4372C29.6927 73.4506 29.6686 73.4577 29.6439 73.4577H29.6433Z" fill="#F47382"/>
<path id="Vector_56" d="M74.1575 77.824C74.1243 77.8242 74.0924 77.8115 74.0684 77.7887C72.4493 76.235 69.133 75.9498 69.0964 75.9466C69.0796 75.9452 69.0632 75.9406 69.0482 75.9329C69.0331 75.9252 69.0197 75.9146 69.0088 75.9018C68.9978 75.8889 68.9895 75.874 68.9843 75.858C68.9791 75.8419 68.9772 75.825 68.9785 75.8081C68.9798 75.7913 68.9845 75.7749 68.9922 75.7599C68.9999 75.7448 69.0104 75.7314 69.0233 75.7205C69.0362 75.7095 69.051 75.7012 69.0671 75.696C69.0832 75.6908 69.1001 75.6889 69.1169 75.6902C69.2567 75.7011 72.5602 75.985 74.2446 77.6022C74.2568 77.6138 74.2666 77.6278 74.2734 77.6432C74.2801 77.6586 74.2838 77.6752 74.2842 77.6921C74.2845 77.7089 74.2816 77.7257 74.2754 77.7414C74.2693 77.7571 74.2602 77.7714 74.2485 77.7836C74.2368 77.796 74.2227 77.806 74.2071 77.813C74.1914 77.8199 74.1746 77.8236 74.1575 77.824Z" fill="#E15254"/>
<path id="Vector_57" d="M53.4275 75.1339C53.4275 75.1339 57.0246 74.6762 57.4168 74.5224C57.8091 74.3686 63.7624 68.8069 64.3783 68.1769C64.9943 67.5468 67.4492 64.4401 67.7222 64.167C67.9953 63.894 71.0834 63.4331 71.4244 63.4165C71.7654 63.3998 74.2908 63.2113 74.3933 63.5017C74.4959 63.7921 73.9158 64.2356 73.5402 64.4401C73.1646 64.6445 70.3841 65.1227 70.2303 65.2092C70.0765 65.2958 68.5074 67.4103 68.5074 67.4103C68.5074 67.4103 73.5575 67.7173 73.8274 67.9051C74.0972 68.0929 75.5849 69.4748 75.7894 70.1914C75.9938 70.908 75.7894 71.4195 75.7894 71.4195C75.7894 71.4195 76.4752 72.0508 76.4412 72.8014C76.4072 73.552 76.0964 73.7231 76.0964 73.7231C76.0964 73.7231 76.8655 74.457 76.7649 75.1736C76.6643 75.8902 76.4816 75.8203 76.3451 75.8203C76.2085 75.8203 72.7185 74.7467 72.307 74.7128C71.8955 74.6788 69.3041 75.7537 69.099 75.8216C68.8939 75.8896 64.6289 79.2681 62.7182 79.7802C60.8075 80.2923 54.5357 81.2134 54.5357 81.2134L53.4275 75.1339Z" fill="#FFB6B1"/>
<path id="Vector_58" d="M52.1302 74.4031C52.1302 74.4031 54.4851 74.5051 54.7235 74.6595C54.962 74.814 55.4574 76.7414 55.5939 78.3617C55.7305 79.9821 55.6106 81.6716 55.3376 81.8941C55.0645 82.1165 52.7955 82.0812 52.7955 82.0812L52.1302 74.4031Z" fill="white"/>
<path id="Vector_59" d="M36.3478 73.7718C36.3478 73.7718 24.0291 72.6456 20.4801 73.2257C16.9311 73.8058 14.6474 75.4434 14.1346 78.0028C13.6218 80.5621 14.3737 84.0772 19.9353 85.1008C25.4969 86.1244 37.9873 84.588 42.3209 84.0752C46.6544 83.5625 52.8653 83.1882 53.3089 82.6421C53.7524 82.096 54.162 80.7307 53.855 77.8643C53.548 74.998 53.3422 74.2814 52.5583 74.1794C51.7744 74.0775 38.7264 73.9705 36.3478 73.7718Z" fill="#DDA21F"/>
<path id="Vector_60" d="M76.1022 73.8487C76.0733 73.8487 76.0453 73.839 76.0227 73.8211C73.6511 71.947 70.2079 72.1482 70.1733 72.1508C70.1393 72.1531 70.1058 72.1418 70.0801 72.1194C70.0544 72.0969 70.0387 72.0652 70.0364 72.0312C70.0341 71.9973 70.0454 71.9637 70.0679 71.9381C70.0903 71.9124 70.122 71.8967 70.156 71.8944C70.1919 71.8944 73.7312 71.6829 76.181 73.6192C76.2019 73.6357 76.2172 73.6583 76.2246 73.6839C76.2321 73.7095 76.2314 73.7368 76.2227 73.7619C76.2139 73.7871 76.1976 73.8089 76.1759 73.8243C76.1541 73.8398 76.1282 73.8481 76.1015 73.8481L76.1022 73.8487Z" fill="#F47382"/>
<path id="Vector_61" d="M75.7971 71.5451C75.7715 71.5452 75.7465 71.5376 75.7253 71.5233C72.9634 69.66 69.6765 69.7863 69.6438 69.7876C69.627 69.7884 69.6102 69.7859 69.5943 69.7802C69.5784 69.7745 69.5639 69.7657 69.5514 69.7543C69.5389 69.743 69.5288 69.7293 69.5216 69.7141C69.5145 69.6988 69.5103 69.6823 69.5095 69.6655C69.5087 69.6486 69.5113 69.6318 69.517 69.616C69.5227 69.6001 69.5314 69.5855 69.5428 69.5731C69.5541 69.5606 69.5678 69.5505 69.5831 69.5433C69.5983 69.5361 69.6148 69.532 69.6316 69.5312C69.665 69.5312 73.0339 69.3979 75.8688 71.3099C75.8917 71.3252 75.909 71.3475 75.9181 71.3734C75.9273 71.3993 75.928 71.4275 75.9199 71.4538C75.9119 71.4801 75.8956 71.5031 75.8735 71.5194C75.8513 71.5357 75.8246 71.5445 75.7971 71.5445V71.5451Z" fill="#F47382"/>
<path id="Vector_62" d="M50.8508 78.7656C51.2342 78.7656 51.5449 78.4548 51.5449 78.0714C51.5449 77.688 51.2342 77.3772 50.8508 77.3772C50.4674 77.3772 50.1566 77.688 50.1566 78.0714C50.1566 78.4548 50.4674 78.7656 50.8508 78.7656Z" fill="#FFD1AB"/>
<path id="Vector_63" d="M47.7056 78.9366C48.089 78.9366 48.3998 78.6259 48.3998 78.2425C48.3998 77.8591 48.089 77.5483 47.7056 77.5483C47.3223 77.5483 47.0115 77.8591 47.0115 78.2425C47.0115 78.6259 47.3223 78.9366 47.7056 78.9366Z" fill="#FFD1AB"/>
<path id="Vector_64" d="M16.5895 74.7114C16.5629 74.7117 16.5368 74.7036 16.515 74.6884C16.4931 74.6731 16.4766 74.6514 16.4676 74.6263C16.4586 74.6012 16.4577 74.574 16.465 74.5483C16.4723 74.5227 16.4873 74.4999 16.5081 74.4833C16.5363 74.4608 17.2132 73.9263 18.7425 73.475C20.143 73.0616 22.5601 72.6418 26.1193 73.0058C26.1362 73.0075 26.1525 73.0125 26.1674 73.0205C26.1823 73.0285 26.1955 73.0394 26.2062 73.0525C26.2169 73.0655 26.225 73.0806 26.2299 73.0968C26.2348 73.113 26.2364 73.13 26.2347 73.1469C26.233 73.1637 26.228 73.18 26.2201 73.1949C26.2121 73.2098 26.2012 73.223 26.1881 73.2337C26.175 73.2445 26.1599 73.2525 26.1437 73.2574C26.1275 73.2623 26.1105 73.2639 26.0937 73.2622C19.3732 72.5802 16.6953 74.6634 16.6716 74.6845C16.6482 74.7027 16.6192 74.7122 16.5895 74.7114Z" fill="#E15254"/>
<path id="Vector_65" d="M43.0023 93.5294C43.4168 93.5294 43.7528 93.1934 43.7528 92.7789C43.7528 92.3643 43.4168 92.0283 43.0023 92.0283C42.5877 92.0283 42.2517 92.3643 42.2517 92.7789C42.2517 93.1934 42.5877 93.5294 43.0023 93.5294Z" fill="#FFD1AB"/>
<path id="Vector_66" d="M42.251 98.8526C42.6655 98.8526 43.0016 98.5166 43.0016 98.1021C43.0016 97.6875 42.6655 97.3515 42.251 97.3515C41.8365 97.3515 41.5004 97.6875 41.5004 98.1021C41.5004 98.5166 41.8365 98.8526 42.251 98.8526Z" fill="#FFD1AB"/>
</g>
</g>
</svg>
