<svg width="120" height="88" viewBox="0 0 120 88" fill="none" xmlns="http://www.w3.org/2000/svg">
<path d="M59.9668 13.4629H60.0016H60.0365C67.5752 13.3799 78.7803 14.4251 82.3705 15.1418L82.3888 15.1451C87.9034 16.2152 93.3567 21.4429 94.5545 26.8066C95.6296 31.9894 96.1555 37.368 96.1655 43.2394C96.1588 46.9805 95.9432 50.516 95.5101 53.9253C91.9631 49.129 88.0079 44.1983 84.0744 39.7952C82.0105 37.4991 78.9446 36.4921 75.8986 36.4788C73.6954 36.4887 71.4855 37.0213 69.649 38.181L98.4483 66.6751C99.5001 64.8883 100.282 62.9804 100.715 61.026L100.723 60.9862C101.888 55.3786 102.46 49.5769 102.471 43.2394C102.462 36.9168 101.889 31.1151 100.723 25.5026L100.715 25.4627C98.9759 17.6105 91.618 10.5164 83.5965 8.9569C79.1702 8.07429 67.6714 7.0772 60 7.15684C53.7752 7.09214 45.042 7.73584 39.6003 8.45089L45.3805 14.1696C50.0125 13.7449 55.6035 13.4148 59.9651 13.4629H59.9668Z" fill="#A1C3FC"/>
<path d="M27.0546 4.91169C25.817 3.68731 23.8195 3.69727 22.5951 4.93491C21.3707 6.17256 21.3807 8.17005 22.6183 9.39442L26.8821 13.6134C23.1243 16.7108 20.2824 20.9546 19.2853 25.4623L19.277 25.5021C18.1124 31.1063 17.5416 36.908 17.53 43.2505C17.5416 49.5732 18.1124 55.3748 19.277 60.9874L19.2853 61.0289C21.024 68.8795 28.3802 75.9735 36.4017 77.5347C40.828 78.419 52.3268 79.4177 59.9999 79.3348C60.2952 79.3381 60.5955 79.3397 60.9008 79.3397C68.5473 79.3397 79.3394 78.3841 83.5965 77.5347C85.584 77.1481 87.5284 76.4215 89.3584 75.4294C89.3584 75.4294 96.4823 82.4787 97.0978 83.0875C97.7133 83.6964 98.5146 84 99.3159 84C100.117 84 100.942 83.6881 101.557 83.0643C102.782 81.8267 102.772 79.8292 101.534 78.6048L27.0546 4.91169ZM53.669 57.5499C51.63 54.912 49.47 52.2874 47.3182 49.8784C45.8035 48.1928 43.5538 47.4546 41.3174 47.4446C39.081 47.4546 36.8314 48.1928 35.3166 49.8784C32.0881 53.4918 28.8431 57.588 26.016 61.4901C25.7771 60.8928 25.5847 60.2889 25.4503 59.6817C24.3752 54.4989 23.8493 49.1202 23.8394 43.2489C23.8493 37.3593 24.3769 31.979 25.4503 26.8044C26.1786 23.5428 28.4781 20.3391 31.4079 18.0862L38.6729 25.2748C35.9156 26.3366 33.9579 29.0093 33.9579 32.1416C33.9579 36.2046 37.2528 39.4994 41.3158 39.4994C44.4746 39.4994 47.1689 37.5086 48.2107 34.7131L61.1944 47.5591C58.5333 50.8838 55.98 54.2799 53.669 57.5482V57.5499Z" fill="#A1C3FC"/>
</svg>
