<svg width="300" height="260" viewBox="0 0 300 260" fill="none" xmlns="http://www.w3.org/2000/svg">
<path opacity="0.4" d="M150 240C210.751 240 260 190.751 260 130C260 69.2487 210.751 20 150 20C89.2487 20 40 69.2487 40 130C40 190.751 89.2487 240 150 240Z" fill="#92C5EB"/>
<path d="M143.042 77.6696C143.042 81.5126 146.157 84.6279 150 84.6279C153.843 84.6279 156.958 81.5126 156.958 77.6696V71.2159C156.958 67.3729 153.843 64.2576 150 64.2576C146.157 64.2576 143.042 67.3729 143.042 71.2159V77.6696Z" fill="#3777BC"/>
<path d="M133.732 179.475C133.757 183.772 135.483 187.885 138.531 190.915C141.579 193.945 145.702 195.645 150 195.645C154.297 195.645 158.42 193.945 161.468 190.915C164.516 187.885 166.242 183.772 166.267 179.475" fill="#92C5EB"/>
<path d="M98.9997 181.471C98.1942 181.471 97.4035 181.254 96.711 180.842C96.0184 180.431 95.4496 179.84 95.0644 179.133C94.6792 178.425 94.4918 177.627 94.5219 176.822C94.5521 176.017 94.7988 175.235 95.2359 174.558C97.4526 171.117 99.6887 167.16 100.104 164.631C102.828 148.067 104.35 117.955 104.35 117.955C104.436 105.904 109.283 94.3773 117.834 85.8869C126.386 77.3966 137.947 72.6318 149.998 72.6318C162.048 72.6318 173.609 77.3966 182.161 85.8869C190.712 94.3773 195.559 105.904 195.645 117.955C195.645 117.955 197.167 148.067 199.891 164.631C200.306 167.16 202.54 171.116 204.759 174.558C205.196 175.235 205.443 176.017 205.473 176.822C205.503 177.627 205.316 178.425 204.931 179.133C204.545 179.84 203.976 180.431 203.284 180.842C202.591 181.254 201.8 181.471 200.995 181.471H98.9997Z" fill="#3777BC"/>
</svg>
