<svg width="80" height="80" viewBox="0 0 80 80" fill="none" xmlns="http://www.w3.org/2000/svg">
<g id="qr_code_scanner 1">
<path id="Vector" d="M31.6667 21.667V31.667H21.6667V21.667H31.6667ZM36.6667 16.667H16.6667V36.667H36.6667V16.667ZM31.6667 48.3337V58.3337H21.6667V48.3337H31.6667ZM36.6667 43.3337H16.6667V63.3337H36.6667V43.3337ZM58.3334 21.667V31.667H48.3334V21.667H58.3334ZM63.3334 16.667H43.3334V36.667H63.3334V16.667ZM43.3334 43.3337H48.3334V48.3337H43.3334V43.3337ZM48.3334 48.3337H53.3334V53.3337H48.3334V48.3337ZM53.3334 43.3337H58.3334V48.3337H53.3334V43.3337ZM43.3334 53.3337H48.3334V58.3337H43.3334V53.3337ZM48.3334 58.3337H53.3334V63.3337H48.3334V58.3337ZM53.3334 53.3337H58.3334V58.3337H53.3334V53.3337ZM58.3334 48.3337H63.3334V53.3337H58.3334V48.3337ZM58.3334 58.3337H63.3334V63.3337H58.3334V58.3337ZM73.3334 23.3337H66.6668V13.3337H56.6668V6.66699H73.3334V23.3337ZM73.3334 73.3337V56.667H66.6668V66.667H56.6668V73.3337H73.3334ZM6.66675 73.3337H23.3334V66.667H13.3334V56.667H6.66675V73.3337ZM6.66675 6.66699V23.3337H13.3334V13.3337H23.3334V6.66699H6.66675Z" fill="#10498A"/>
</g>
</svg>
