<svg width="24" height="24" viewBox="0 0 24 24" fill="none" xmlns="http://www.w3.org/2000/svg">
<g id="noun-qr-code-5775234 2">
<g id="Group 8408">
<path id="Vector" fill-rule="evenodd" clip-rule="evenodd" d="M4.29685 2.88503C3.51724 2.88503 2.88523 3.51705 2.88523 4.29666V7.66531C2.88523 7.94881 2.6554 8.17863 2.37191 8.17863C2.08841 8.17863 1.85859 7.94881 1.85859 7.66531V4.29666C1.85859 2.95005 2.95024 1.8584 4.29685 1.8584H7.6655C7.949 1.8584 8.17882 2.08822 8.17882 2.37172C8.17882 2.65521 7.949 2.88503 7.6655 2.88503H4.29685Z" fill="white"/>
<path id="Vector_2" fill-rule="evenodd" clip-rule="evenodd" d="M4.29685 21.108C3.51724 21.108 2.88523 20.476 2.88523 19.6964V16.3278C2.88523 16.0443 2.6554 15.8145 2.37191 15.8145C2.08841 15.8145 1.85859 16.0443 1.85859 16.3278V19.6964C1.85859 21.043 2.95024 22.1347 4.29685 22.1347H7.6655C7.949 22.1347 8.17882 21.9049 8.17882 21.6214C8.17882 21.3379 7.949 21.108 7.6655 21.108H4.29685Z" fill="white"/>
<path id="Vector_3" fill-rule="evenodd" clip-rule="evenodd" d="M19.6965 2.88503C20.4761 2.88503 21.1081 3.51705 21.1081 4.29666V7.66531C21.1081 7.94881 21.3379 8.17863 21.6214 8.17863C21.9049 8.17863 22.1348 7.94881 22.1348 7.66531V4.29666C22.1348 2.95005 21.0431 1.8584 19.6965 1.8584H16.3278C16.0443 1.8584 15.8145 2.08822 15.8145 2.37172C15.8145 2.65521 16.0443 2.88503 16.3278 2.88503H19.6965Z" fill="white"/>
<path id="Vector_4" fill-rule="evenodd" clip-rule="evenodd" d="M19.6965 21.108C20.4761 21.108 21.1081 20.476 21.1081 19.6964V16.3278C21.1081 16.0443 21.3379 15.8145 21.6214 15.8145C21.9049 15.8145 22.1348 16.0443 22.1348 16.3278V19.6964C22.1348 21.043 21.0431 22.1347 19.6965 22.1347H16.3278C16.0443 22.1347 15.8145 21.9049 15.8145 21.6214C15.8145 21.3379 16.0443 21.108 16.3278 21.108H19.6965Z" fill="white"/>
<path id="Vector_5" d="M6.70302 7.76096C6.70302 7.17625 7.17712 6.70215 7.76183 6.70215H9.87911C10.4638 6.70215 10.9379 7.17625 10.9379 7.76096V9.87821C10.9379 10.4629 10.4638 10.937 9.87911 10.937H7.76183C7.17712 10.937 6.70302 10.4629 6.70302 9.87821V7.76096Z" fill="white"/>
<path id="Vector_6" d="M7.76183 13.0537C7.17712 13.0537 6.70302 13.5278 6.70302 14.1125V16.2298C6.70302 16.8145 7.17712 17.2886 7.76183 17.2886H9.87911C10.4638 17.2886 10.9379 16.8145 10.9379 16.2298V14.1125C10.9379 13.5278 10.4638 13.0537 9.87911 13.0537H7.76183Z" fill="white"/>
<path id="Vector_7" d="M13.0559 7.76096C13.0559 7.17625 13.53 6.70215 14.1147 6.70215H16.232C16.8167 6.70215 17.2908 7.17625 17.2908 7.76096V9.87821C17.2908 10.4629 16.8167 10.937 16.232 10.937H14.1147C13.53 10.937 13.0559 10.4629 13.0559 9.87821V7.76096Z" fill="white"/>
<path id="Vector_8" d="M14.1147 13.0537C13.53 13.0537 13.0559 13.5278 13.0559 14.1125V16.2298C13.0559 16.8145 13.53 17.2886 14.1147 17.2886H16.232C16.8167 17.2886 17.2908 16.8145 17.2908 16.2298V14.1125C17.2908 13.5278 16.8167 13.0537 16.232 13.0537H14.1147Z" fill="white"/>
<path id="Vector_9" fill-rule="evenodd" clip-rule="evenodd" d="M1.63333 4.29637C1.63333 2.82532 2.82584 1.63281 4.29689 1.63281H7.66553C8.07346 1.63281 8.40414 1.9635 8.40414 2.37142C8.40414 2.77934 8.07346 3.11004 7.66553 3.11004H4.29689C3.6417 3.11004 3.11056 3.64118 3.11056 4.29637V7.66501C3.11056 8.07294 2.77986 8.40362 2.37194 8.40362C1.96402 8.40362 1.63333 8.07294 1.63333 7.66501V4.29637ZM4.29689 2.08339C3.07469 2.08339 2.08391 3.07417 2.08391 4.29637V7.66501C2.08391 7.82409 2.21287 7.95304 2.37194 7.95304C2.53101 7.95304 2.65997 7.82409 2.65997 7.66501V4.29637C2.65997 3.39232 3.39284 2.65945 4.29689 2.65945H7.66553C7.82461 2.65945 7.95356 2.53049 7.95356 2.37142C7.95356 2.21235 7.82461 2.08339 7.66553 2.08339H4.29689Z" fill="white"/>
<path id="Vector_10" fill-rule="evenodd" clip-rule="evenodd" d="M1.63333 19.6961C1.63333 21.1672 2.82584 22.3597 4.29689 22.3597H7.66553C8.07346 22.3597 8.40414 22.029 8.40414 21.6211C8.40414 21.2132 8.07346 20.8825 7.66553 20.8825H4.29689C3.6417 20.8825 3.11056 20.3513 3.11056 19.6961V16.3275C3.11056 15.9195 2.77986 15.5889 2.37194 15.5889C1.96402 15.5889 1.63333 15.9195 1.63333 16.3275V19.6961ZM4.29689 21.9091C3.07469 21.9091 2.08391 20.9183 2.08391 19.6961V16.3275C2.08391 16.1684 2.21287 16.0394 2.37194 16.0394C2.53101 16.0394 2.65997 16.1684 2.65997 16.3275V19.6961C2.65997 20.6002 3.39284 21.333 4.29689 21.333H7.66553C7.82461 21.333 7.95356 21.462 7.95356 21.6211C7.95356 21.7801 7.82461 21.9091 7.66553 21.9091H4.29689Z" fill="white"/>
<path id="Vector_11" fill-rule="evenodd" clip-rule="evenodd" d="M22.3601 4.29637C22.3601 2.82532 21.1676 1.63281 19.6965 1.63281H16.3279C15.9199 1.63281 15.5893 1.9635 15.5893 2.37142C15.5893 2.77934 15.9199 3.11004 16.3279 3.11004H19.6965C20.3517 3.11004 20.8828 3.64118 20.8828 4.29637V7.66501C20.8828 8.07294 21.2135 8.40362 21.6215 8.40362C22.0294 8.40362 22.3601 8.07294 22.3601 7.66501V4.29637ZM19.6965 2.08339C20.9187 2.08339 21.9095 3.07417 21.9095 4.29637V7.66501C21.9095 7.82409 21.7805 7.95304 21.6215 7.95304C21.4624 7.95304 21.3334 7.82409 21.3334 7.66501V4.29637C21.3334 3.39232 20.6006 2.65945 19.6965 2.65945H16.3279C16.1688 2.65945 16.0398 2.53049 16.0398 2.37142C16.0398 2.21235 16.1688 2.08339 16.3279 2.08339H19.6965Z" fill="white"/>
<path id="Vector_12" fill-rule="evenodd" clip-rule="evenodd" d="M22.3601 19.6961C22.3601 21.1672 21.1676 22.3597 19.6965 22.3597H16.3279C15.9199 22.3597 15.5893 22.029 15.5893 21.6211C15.5893 21.2132 15.9199 20.8825 16.3279 20.8825H19.6965C20.3517 20.8825 20.8828 20.3513 20.8828 19.6961V16.3275C20.8828 15.9195 21.2135 15.5889 21.6215 15.5889C22.0294 15.5889 22.3601 15.9195 22.3601 16.3275V19.6961ZM19.6965 21.9091C20.9187 21.9091 21.9095 20.9183 21.9095 19.6961V16.3275C21.9095 16.1684 21.7805 16.0394 21.6215 16.0394C21.4624 16.0394 21.3334 16.1684 21.3334 16.3275V19.6961C21.3334 20.6002 20.6006 21.333 19.6965 21.333H16.3279C16.1688 21.333 16.0398 21.462 16.0398 21.6211C16.0398 21.7801 16.1688 21.9091 16.3279 21.9091H19.6965Z" fill="white"/>
</g>
</g>
</svg>
