<svg width="80" height="80" viewBox="0 0 80 80" fill="none" xmlns="http://www.w3.org/2000/svg">
<g id="seat 2">
<g id="Group 33758">
<path id="Vector" d="M59.8337 60.0376L64.1743 70.1419C64.3104 70.4575 64.624 70.6629 64.9719 70.6629H67.1279C67.6562 70.6629 68.0616 70.1993 67.9848 69.683L66.5459 60.0376H59.8337Z" fill="url(#paint0_linear_119_927)"/>
<path id="Vector_2" opacity="0.3" d="M64.1745 70.1419C64.3105 70.4575 64.6241 70.6629 64.9721 70.6629H66.1944L63.3037 60.0376H59.8339" fill="url(#paint1_linear_119_927)"/>
<path id="Vector_3" d="M67.1454 51.4978H12.8549C12.2229 51.4978 11.7057 50.9807 11.7057 50.3486V22.6816C11.7057 16.6835 16.6133 11.7759 22.6114 11.7759H57.3887C63.3869 11.7759 68.2945 16.6835 68.2945 22.6816V50.3486C68.2945 50.9807 67.7774 51.4978 67.1454 51.4978Z" fill="url(#paint2_linear_119_927)"/>
<path id="Vector_4" d="M13.1624 31.8325C9.2232 31.8325 6.00024 35.0555 6.00024 38.9947V41.7706C6.00024 37.8314 9.2232 34.6084 13.1624 34.6084C17.1016 34.6084 20.3245 37.8315 20.3245 41.7706V38.9947C20.3246 35.0555 17.1016 31.8325 13.1624 31.8325ZM66.8379 31.8325C62.8987 31.8325 59.6757 35.0555 59.6757 38.9947V41.7706C59.6757 37.8314 62.8987 34.6084 66.8378 34.6084C70.777 34.6084 73.9999 37.8315 73.9999 41.7706V38.9947C74 35.0555 70.777 31.8325 66.8379 31.8325Z" fill="#92C5EB"/>
<path id="Vector_5" opacity="0.05" d="M72.8925 42.7856H7.10773C6.49861 42.7856 6.00024 43.284 6.00024 43.8931V46.664C6.00291 46.0574 6.50036 45.5614 7.10758 45.5614H72.8921C73.5019 45.5614 73.9997 46.0601 73.9997 46.669V49.9203C73.9997 49.9166 74 49.9131 74 49.9094V43.8932C74 43.284 73.5016 42.7856 72.8925 42.7856Z" fill="url(#paint3_linear_119_927)"/>
<path id="Vector_6" d="M71.8957 36.2501C70.5974 34.9519 68.8079 34.146 66.838 34.146C62.8989 34.146 59.6761 37.3688 59.6761 41.3078V45.5615H20.3248V41.3078C20.3248 39.3379 19.5188 37.5483 18.2206 36.2501C16.9224 34.9519 15.1329 34.146 13.1629 34.146C9.22294 34.146 6.00012 37.3688 6.00012 41.3078V52.6854C6.00012 52.8013 6.00356 52.9164 6.00893 53.0311C6.01062 53.0672 6.01338 53.1029 6.01558 53.1388C6.0205 53.2183 6.02638 53.2975 6.03381 53.3763C6.04491 53.4936 6.05891 53.6106 6.07579 53.7272C6.08101 53.7637 6.08583 53.8003 6.09161 53.8366C6.10697 53.9332 6.12427 54.0294 6.14352 54.1252C6.14639 54.1394 6.14854 54.1538 6.15151 54.1679C6.17408 54.277 6.19953 54.3852 6.22692 54.4926C6.23517 54.5248 6.24448 54.5567 6.25308 54.5887C6.27351 54.6644 6.29481 54.7398 6.31759 54.8146C6.35075 54.923 6.38642 55.0306 6.42458 55.1373C6.43738 55.1732 6.44997 55.2093 6.46334 55.2449C6.49346 55.3251 6.525 55.4047 6.55794 55.4837C6.56721 55.5061 6.57582 55.5288 6.58529 55.5512C6.62778 55.6507 6.67257 55.7491 6.71931 55.8464C6.73329 55.8754 6.74823 55.904 6.76257 55.9328C6.79659 56.0016 6.83168 56.0698 6.86782 56.1376C6.88717 56.1737 6.9072 56.2095 6.92716 56.2453C6.9609 56.3057 6.9954 56.3656 7.03078 56.425C7.05213 56.4608 7.07337 56.4966 7.09528 56.5321C7.13419 56.595 7.17443 56.657 7.21518 56.7187C7.23438 56.7478 7.25301 56.7773 7.27262 56.8062C7.32913 56.8893 7.38734 56.9712 7.4472 57.0519H7.44771C8.79055 58.8602 10.9405 60.0379 13.3524 60.0379H66.6481C69.0604 60.0379 71.2099 58.8609 72.5525 57.0519C73.4612 55.8287 73.9997 54.3168 73.9997 52.6854V41.3079C73.9998 39.3379 73.1939 37.5483 71.8957 36.2501Z" fill="url(#paint4_linear_119_927)"/>
<path id="Vector_7" d="M20.1664 60.0376L18.9968 62.7598L15.8258 70.1419C15.6898 70.4575 15.3761 70.6629 15.0282 70.6629H12.8722C12.3439 70.6629 11.9386 70.1993 12.0153 69.683L13.0406 62.8079L13.4542 60.0376H20.1664Z" fill="url(#paint5_linear_119_927)"/>
<path id="Vector_8" d="M29.6094 31.2318C31.1657 31.2318 32.4272 29.9702 32.4272 28.414C32.4272 26.8578 31.1657 25.5962 29.6094 25.5962C28.0532 25.5962 26.7916 26.8578 26.7916 28.414C26.7916 29.9702 28.0532 31.2318 29.6094 31.2318Z" fill="#065BAA"/>
<path id="Vector_9" opacity="0.3" d="M15.8258 70.1419C15.6898 70.4575 15.3762 70.6629 15.0282 70.6629H13.8059L16.6966 60.0376H20.1665" fill="url(#paint6_linear_119_927)"/>
<path id="Vector_10" d="M50.3902 31.2318C51.9464 31.2318 53.208 29.9702 53.208 28.414C53.208 26.8578 51.9464 25.5962 50.3902 25.5962C48.834 25.5962 47.5724 26.8578 47.5724 28.414C47.5724 29.9702 48.834 31.2318 50.3902 31.2318Z" fill="#065BAA"/>
<path id="Vector_11" opacity="0.05" d="M13.4544 60.0376L13.0408 62.8079L18.9969 62.7598L20.1665 60.0376H13.4544Z" fill="url(#paint7_linear_119_927)"/>
<path id="Vector_12" d="M57.3888 9H22.6114C16.6133 9 11.7057 13.9076 11.7057 19.9057V22.6816C11.7057 16.6835 16.6133 11.7759 22.6114 11.7759H57.3888C63.3869 11.7759 68.2945 16.6835 68.2945 22.6816V19.9057C68.2945 13.9076 63.3869 9 57.3888 9Z" fill="#92C5EB"/>
<path id="Vector_13" opacity="0.05" d="M73.9997 49.9208V52.6856C73.9997 54.3169 73.4612 55.8288 72.5525 57.0521C71.2099 58.8611 69.0605 60.038 66.6482 60.038H13.3525C10.9402 60.038 8.78981 58.8611 7.44718 57.0521C6.53852 55.8288 6 54.3169 6 52.6856V49.9097C6 53.3536 8.40021 56.2647 11.611 57.0521C12.181 57.1918 12.7657 57.2623 13.3525 57.2621H66.6482C70.6881 57.2621 73.9942 53.9597 73.9997 49.9208Z" fill="url(#paint8_linear_119_927)"/>
<path id="Vector_14" opacity="0.05" d="M66.5475 60.0376L66.9611 62.8079L61.0049 62.7598L59.8353 60.0376H66.5475Z" fill="url(#paint9_linear_119_927)"/>
</g>
</g>
<defs>
<linearGradient id="paint0_linear_119_927" x1="63.914" y1="70.6629" x2="63.914" y2="60.0376" gradientUnits="userSpaceOnUse">
<stop stop-color="#F1CA78"/>
<stop offset="1" stop-color="#E0B137"/>
</linearGradient>
<linearGradient id="paint1_linear_119_927" x1="63.0141" y1="70.6629" x2="63.0141" y2="60.0376" gradientUnits="userSpaceOnUse">
<stop stop-color="#F1CA78"/>
<stop offset="1" stop-color="#E0B137"/>
</linearGradient>
<linearGradient id="paint2_linear_119_927" x1="40.0001" y1="51.4978" x2="40.0001" y2="11.7759" gradientUnits="userSpaceOnUse">
<stop stop-color="#065BAA"/>
<stop offset="1" stop-color="#92C5EB"/>
</linearGradient>
<linearGradient id="paint3_linear_119_927" x1="40.0001" y1="49.9203" x2="40.0001" y2="42.7856" gradientUnits="userSpaceOnUse">
<stop stop-color="#065BAA"/>
<stop offset="0.49" stop-color="#065BAA" stop-opacity="0.9"/>
<stop offset="0.666" stop-color="#065BAA" stop-opacity="0.8"/>
<stop offset="0.792" stop-color="#065BAA" stop-opacity="0.7"/>
<stop offset="0.894" stop-color="#065BAA" stop-opacity="0.6"/>
<stop offset="0.98" stop-color="#98A6AE"/>
<stop offset="1" stop-color="#065BAA" stop-opacity="0.5"/>
</linearGradient>
<linearGradient id="paint4_linear_119_927" x1="40" y1="60.0378" x2="40" y2="34.1459" gradientUnits="userSpaceOnUse">
<stop stop-color="#065BAA"/>
<stop offset="1" stop-color="#92C5EB"/>
</linearGradient>
<linearGradient id="paint5_linear_119_927" x1="16.0862" y1="70.6629" x2="16.0862" y2="60.0376" gradientUnits="userSpaceOnUse">
<stop stop-color="#F1CA78"/>
<stop offset="1" stop-color="#E0B137"/>
</linearGradient>
<linearGradient id="paint6_linear_119_927" x1="16.9862" y1="70.6629" x2="16.9862" y2="60.0376" gradientUnits="userSpaceOnUse">
<stop stop-color="#F1CA78"/>
<stop offset="1" stop-color="#E0B137"/>
</linearGradient>
<linearGradient id="paint7_linear_119_927" x1="16.6036" y1="62.8079" x2="16.6036" y2="60.0376" gradientUnits="userSpaceOnUse">
<stop stop-color="#F1CA78"/>
<stop offset="1" stop-color="#E0B137"/>
</linearGradient>
<linearGradient id="paint8_linear_119_927" x1="39.9999" y1="60.038" x2="39.9999" y2="49.9097" gradientUnits="userSpaceOnUse">
<stop stop-color="#065BAA"/>
<stop offset="0.49" stop-color="#065BAA" stop-opacity="0.9"/>
<stop offset="0.666" stop-color="#065BAA" stop-opacity="0.8"/>
<stop offset="0.792" stop-color="#065BAA" stop-opacity="0.7"/>
<stop offset="0.894" stop-color="#065BAA" stop-opacity="0.6"/>
<stop offset="0.98" stop-color="#065BAA"/>
<stop offset="1" stop-color="#065BAA" stop-opacity="0.5"/>
</linearGradient>
<linearGradient id="paint9_linear_119_927" x1="63.3982" y1="62.8079" x2="63.3982" y2="60.0376" gradientUnits="userSpaceOnUse">
<stop stop-color="#F1CA78"/>
<stop offset="1" stop-color="#E0B137"/>
</linearGradient>
</defs>
</svg>
