<svg width="16" height="16" viewBox="0 0 16 16" fill="none" xmlns="http://www.w3.org/2000/svg">
<g id="noun-seat-1984974 1">
<path id="Vector" d="M15.1077 12.4923L15.6308 9.53846C15.7231 9.04615 15.6 8.55385 15.3231 8.15385C15.0462 7.75385 14.6154 7.47692 14.1231 7.38461C13.8769 7.35385 13.6615 7.35385 13.4462 7.38461C13.5077 6.83077 13.5385 6.21538 13.5385 5.53846C13.5385 2.27692 11.2615 0 8 0C4.73846 0 2.46154 2.27692 2.46154 5.53846C2.46154 6.21538 2.49231 6.83077 2.55385 7.38461C2.33846 7.32308 2.09231 7.32308 1.84615 7.38461C1.35385 7.47692 0.923077 7.75385 0.646154 8.15385C0.369231 8.55385 0.246154 9.04615 0.338462 9.53846L0.861538 12.4923C0.338461 12.8308 0 13.3846 0 14.0615C0 15.0769 0.830769 15.9077 1.84615 15.9077H14.1538C15.1692 15.9077 16 15.0769 16 14.0615C16 13.3846 15.6615 12.8308 15.1077 12.4923ZM13.1692 9.32308C13.1692 9.26154 13.2 9.2 13.2 9.13846C13.2615 8.76923 13.6 8.55385 13.9385 8.61538C14.2769 8.67692 14.4923 8.98461 14.4308 9.32308L13.9077 12.2154H12.6462L13.1692 9.32308ZM2.06154 8.61538C2.4 8.55385 2.70769 8.76923 2.76923 9.10769L3.32308 12.2154H2.06154L1.53846 9.32308C1.50769 8.98461 1.72308 8.67692 2.06154 8.61538ZM14.1538 14.6769H1.84615C1.50769 14.6769 1.23077 14.4 1.23077 14.0615C1.23077 13.7231 1.50769 13.4462 1.84615 13.4462H9.53846C9.87692 13.4462 10.1538 13.1692 10.1538 12.8308C10.1538 12.4923 9.87692 12.2154 9.53846 12.2154H4.58462L4 8.89231C4 8.83077 3.96923 8.8 3.96923 8.73846C3.96923 8.70769 3.96923 8.70769 3.96923 8.67692C3.84615 7.96923 3.72308 6.89231 3.72308 5.56923C3.72308 2.98462 5.44615 1.26154 8.03077 1.26154C10.6154 1.26154 12.3385 2.98462 12.3385 5.56923C12.3385 6.92308 12.1846 8 12.0308 8.89231L11.3538 12.5231C11.3538 12.5538 11.3538 12.5538 11.3538 12.5846C11.3231 12.6462 11.2923 12.7385 11.2923 12.8308C11.2923 13.1692 11.5692 13.4462 11.9077 13.4462H14.1538C14.4923 13.4462 14.7692 13.7231 14.7692 14.0615C14.7692 14.4 14.4923 14.6769 14.1538 14.6769Z" fill="#3C3C3C"/>
</g>
</svg>
