<svg width="20" height="20" viewBox="0 0 20 20" fill="none" xmlns="http://www.w3.org/2000/svg">
<path d="M11.9666 11.8587C11.4096 12.3078 10.7155 12.5527 9.99996 12.5527C9.28439 12.5527 8.59036 12.3078 8.0333 11.8587C7.86312 11.7172 7.64371 11.6492 7.42336 11.6695C7.203 11.6898 6.99975 11.7968 6.8583 11.967C6.71685 12.1372 6.6488 12.3566 6.66911 12.5769C6.68943 12.7973 6.79645 13.0005 6.96663 13.142C7.81774 13.8525 8.89126 14.2417 9.99996 14.2417C11.1087 14.2417 12.1822 13.8525 13.0333 13.142C13.2035 13.0005 13.3105 12.7973 13.3308 12.5769C13.3511 12.3566 13.2831 12.1372 13.1416 11.967C13.0716 11.8827 12.9856 11.8131 12.8887 11.762C12.7917 11.711 12.6857 11.6795 12.5766 11.6695C12.3562 11.6492 12.1368 11.7172 11.9666 11.8587ZM7.49996 9.16699C7.66478 9.16699 7.8259 9.11812 7.96294 9.02655C8.09998 8.93498 8.20679 8.80483 8.26986 8.65256C8.33294 8.50029 8.34944 8.33273 8.31728 8.17108C8.28513 8.00943 8.20576 7.86095 8.08922 7.7444C7.97267 7.62786 7.82419 7.54849 7.66254 7.51634C7.50089 7.48418 7.33333 7.50069 7.18106 7.56376C7.02879 7.62683 6.89864 7.73364 6.80707 7.87068C6.7155 8.00772 6.66663 8.16884 6.66663 8.33366C6.66663 8.55467 6.75443 8.76663 6.91071 8.92291C7.06699 9.0792 7.27895 9.16699 7.49996 9.16699ZM12.5 7.50033C12.3351 7.50033 12.174 7.5492 12.037 7.64077C11.8999 7.73234 11.7931 7.86248 11.7301 8.01476C11.667 8.16703 11.6505 8.33458 11.6826 8.49623C11.7148 8.65789 11.7942 8.80637 11.9107 8.92291C12.0273 9.03946 12.1757 9.11883 12.3374 9.15098C12.499 9.18313 12.6666 9.16663 12.8189 9.10356C12.9711 9.04049 13.1013 8.93368 13.1929 8.79663C13.2844 8.65959 13.3333 8.49848 13.3333 8.33366C13.3333 8.11265 13.2455 7.90068 13.0892 7.7444C12.9329 7.58812 12.721 7.50033 12.5 7.50033ZM9.99996 1.66699C8.35179 1.66699 6.74062 2.15573 5.37021 3.07141C3.9998 3.98709 2.9317 5.28858 2.30097 6.8113C1.67024 8.33401 1.50521 10.0096 1.82675 11.6261C2.1483 13.2426 2.94197 14.7274 4.10741 15.8929C5.27284 17.0583 6.7577 17.852 8.37421 18.1735C9.99072 18.4951 11.6663 18.3301 13.189 17.6993C14.7117 17.0686 16.0132 16.0005 16.9289 14.6301C17.8446 13.2597 18.3333 11.6485 18.3333 10.0003C18.3333 8.90598 18.1177 7.82234 17.699 6.8113C17.2802 5.80025 16.6663 4.88159 15.8925 4.10777C15.1187 3.33395 14.2 2.72012 13.189 2.30133C12.1779 1.88254 11.0943 1.66699 9.99996 1.66699ZM9.99996 16.667C8.68142 16.667 7.39249 16.276 6.29616 15.5435C5.19983 14.8109 4.34535 13.7697 3.84077 12.5515C3.33618 11.3334 3.20416 9.99293 3.46139 8.69972C3.71863 7.40652 4.35357 6.21863 5.28592 5.28628C6.21827 4.35393 7.40615 3.71899 8.69936 3.46176C9.99257 3.20452 11.333 3.33654 12.5512 3.84113C13.7694 4.34571 14.8105 5.2002 15.5431 6.29652C16.2756 7.39285 16.6666 8.68178 16.6666 10.0003C16.6666 11.7684 15.9643 13.4641 14.714 14.7144C13.4638 15.9646 11.7681 16.667 9.99996 16.667Z" fill="black"/>
</svg>
