<svg width="18" height="18" viewBox="0 0 18 18" fill="none" xmlns="http://www.w3.org/2000/svg">
<g id="noun-store-6252999 1">
<g id="Group 33765">
<path id="Vector" d="M4.10003 7.60059C3.8423 7.60059 3.63336 7.80951 3.63336 8.06725C3.63336 8.32499 3.8423 8.53392 4.10003 8.53392H4.5667C4.82444 8.53392 5.03336 8.32499 5.03336 8.06725C5.03336 7.80951 4.82444 7.60059 4.5667 7.60059H4.10003Z" fill="#10498A"/>
<path id="Vector_2" fill-rule="evenodd" clip-rule="evenodd" d="M3.16667 2C2.95622 2 2.77182 2.14085 2.71644 2.34388L2.01644 4.91055C2.00553 4.95057 2 4.99185 2 5.03333V12.7333C2 14.5375 3.46254 16 5.26667 16H12.7333C14.5375 16 16 14.5375 16 12.7333V5.03333C16 4.99185 15.9945 4.95057 15.9836 4.91055L15.2836 2.34388C15.2282 2.14085 15.0438 2 14.8333 2H3.16667ZM15.0667 6.77972C14.733 7.00306 14.3317 7.13333 13.9 7.13333C13.2403 7.13333 12.6517 6.82914 12.2667 6.35337C11.8817 6.82914 11.293 7.13333 10.6333 7.13333C9.97363 7.13333 9.385 6.82914 9 6.35337C8.615 6.82914 8.02637 7.13333 7.36667 7.13333C6.70696 7.13333 6.11833 6.82914 5.73333 6.35337C5.34833 6.82914 4.7597 7.13333 4.1 7.13333C3.6683 7.13333 3.26702 7.00306 2.93333 6.77972V9H15.0667V6.77972ZM7.36667 6.2C6.72234 6.2 6.2 5.67766 6.2 5.03333C6.2 4.77559 5.99107 4.56667 5.73333 4.56667C5.47559 4.56667 5.26667 4.77559 5.26667 5.03333C5.26667 5.67766 4.74433 6.2 4.1 6.2C3.47492 6.2 2.96465 5.70841 2.93472 5.09073L3.5231 2.93333H14.4769L15.0653 5.09073C15.0354 5.70841 14.5251 6.2 13.9 6.2C13.2557 6.2 12.7333 5.67766 12.7333 5.03333C12.7333 4.77559 12.5244 4.56667 12.2667 4.56667C12.0089 4.56667 11.8 4.77559 11.8 5.03333C11.8 5.67766 11.2777 6.2 10.6333 6.2C9.98901 6.2 9.46667 5.67766 9.46667 5.03333C9.46667 4.77559 9.25774 4.56667 9 4.56667C8.74226 4.56667 8.53333 4.77559 8.53333 5.03333C8.53333 5.67766 8.01099 6.2 7.36667 6.2ZM2.93333 12.7333V9.93333H15.0667V12.7333C15.0667 14.022 14.022 15.0667 12.7333 15.0667H5.26667C3.97801 15.0667 2.93333 14.022 2.93333 12.7333Z" fill="#10498A"/>
</g>
</g>
</svg>
