<svg width="90" height="128" viewBox="0 0 90 128" fill="none" xmlns="http://www.w3.org/2000/svg">
<g id="child">
<g id="Group 33854">
<path id="Vector" fill-rule="evenodd" clip-rule="evenodd" d="M69.3528 14.2405C85.7402 15.1402 70.2197 39.3753 74.8717 44.3948C76.5008 46.1526 78.6301 46.6381 78.6301 46.6381C77.7648 48.0315 76.4957 48.6754 74.6782 48.3013C74.6105 52.0413 72.8137 54.9931 68.4612 54.6025C66.3759 54.4153 66.9695 51.6325 66.9695 51.6325C66.1455 54.1084 62.8515 54.1476 59.59 53.505C64.6955 51.9503 59.3671 41.7041 65.3883 40.3488L65.074 17.2646L69.3528 14.2405Z" fill="#632B2B"/>
<path id="Vector_2" fill-rule="evenodd" clip-rule="evenodd" d="M21.5662 13.0691C5.15438 13.1649 20.7562 36.7449 15.8639 41.5304C14.1505 43.2062 12 43.5869 12 43.5869C12.796 45.021 14.032 45.7264 15.8658 45.4417C15.7501 49.1806 16.905 52.613 21.2714 52.436C23.3634 52.3512 22.1147 50.5329 22.1147 50.5329C22.8164 53.0463 26.1044 53.2468 29.3935 52.7648C24.3702 50.9618 30.1944 40.9889 24.2468 39.3403L25.6917 16.2992L21.5662 13.0691Z" fill="#632B2B"/>
<path id="Vector_3" fill-rule="evenodd" clip-rule="evenodd" d="M23.0287 11.2469C24.8355 11.2912 26.2687 12.7065 26.227 14.4054C26.1853 16.1043 24.6846 17.4477 22.8778 17.4035C21.0711 17.3591 19.6379 15.9439 19.6796 14.2449C19.7212 12.5459 21.2219 11.2026 23.0287 11.2469Z" fill="#FFBBAD"/>
<path id="Vector_4" fill-rule="evenodd" clip-rule="evenodd" d="M67.3949 12.3346C69.2018 12.3788 70.6349 13.7942 70.5932 15.4931C70.5516 17.192 69.0508 18.5354 67.2441 18.4911C65.4373 18.4468 64.0042 17.0315 64.0458 15.3326C64.0875 13.6336 65.5882 12.2902 67.3949 12.3346Z" fill="#FFBBAD"/>
<path id="Vector_5" fill-rule="evenodd" clip-rule="evenodd" d="M44.9677 4.44461C28.9654 1.4632 19.6658 13.9196 19.6267 28.5262C19.6042 36.9719 27.1902 37.9974 27.1902 37.9974L62.445 39.0528C62.445 39.0528 69.8741 37.1695 70.1833 29.6848C70.8131 14.4439 61.8628 1.43713 44.9677 4.44461Z" fill="#632B2B"/>
<path id="Vector_6" fill-rule="evenodd" clip-rule="evenodd" d="M23.2592 33.2615C23.0872 32.2192 22.9865 31.1533 22.9623 30.0676C22.6881 17.7853 32.2983 7.59422 44.4095 7.32385C56.5208 7.05347 66.5762 16.8055 66.8504 29.0877C66.8834 30.5653 66.7733 32.0126 66.5328 33.4173C68.4064 33.7302 69.946 35.2237 70.2272 37.2035C70.5745 39.6492 68.871 41.9169 66.4252 42.2643C65.3217 42.421 64.2544 42.1602 63.3834 41.602C59.5716 47.6144 52.9763 51.6625 45.4032 51.8314C37.4521 52.009 30.3871 47.8669 26.3935 41.5242C25.9118 41.8025 25.3701 41.995 24.786 42.0779C22.3403 42.4253 20.0726 40.7216 19.7253 38.2759C19.3908 35.9207 20.9583 33.7306 23.2592 33.2615Z" fill="#FFD6C9"/>
<path id="Vector_7" fill-rule="evenodd" clip-rule="evenodd" d="M52.4274 50.4985C51.8994 49.9719 51.4676 49.3432 51.1658 48.6248C49.8058 45.3868 51.5978 41.5416 55.1651 40.0432C58.1665 38.7826 61.4746 39.5826 63.2585 41.7968C60.6896 45.7575 56.9037 48.8446 52.4274 50.4985Z" fill="#FFBBAD"/>
<path id="Vector_8" fill-rule="evenodd" clip-rule="evenodd" d="M26.7209 42.0291C26.9539 41.6798 27.2269 41.3523 27.5403 41.0525C30.0782 38.6249 34.31 38.924 36.9844 41.72C39.462 44.3102 39.7395 48.1403 37.7493 50.6201C33.2293 49.0341 29.3654 45.9884 26.7209 42.0291Z" fill="#FFBBAD"/>
<path id="Vector_9" fill-rule="evenodd" clip-rule="evenodd" d="M22.9022 21.2206C21.9388 26.4795 22.1563 30.5922 24.0881 36.5543C25.8663 35.1029 25.9269 33.5282 25.963 28.5581C36.1708 29.2712 32.472 22.0698 36.5336 19.2971C34.6892 22.8314 36.669 25.6879 38.9874 25.9664C42.757 26.4191 48.1193 25.9233 48.1193 25.9233C47.1953 24.5398 47.1886 22.2565 48.1477 20.219C48.1477 20.219 48.4099 27.5213 64.1296 28.9655C64.1296 28.9655 63.878 34.8417 66.0716 36.323C69.0093 31.7613 68.6558 26.4588 67.0337 21.7361C65.4809 17.2154 62.5319 6.54196 44.5315 6.29142C30.1847 6.09168 23.595 17.4389 22.9022 21.2206Z" fill="#632B2B"/>
<path id="Vector_10" fill-rule="evenodd" clip-rule="evenodd" d="M35.7074 28.1103C36.1455 27.6586 36.9692 27.2914 37.8699 27.0983C38.7823 26.9026 39.7816 26.8875 40.5702 27.2048C40.8496 27.3172 41.1675 27.1816 41.2799 26.9023C41.3923 26.623 41.2568 26.3051 40.9774 26.1927C40.0027 25.8004 38.7689 25.7897 37.6412 26.0315C36.5017 26.2759 35.4783 26.7793 34.9242 27.3507C34.7145 27.5669 34.7199 27.9126 34.936 28.1222C35.1522 28.3317 35.4978 28.3264 35.7074 28.1103Z" fill="#632B2B"/>
<path id="Vector_11" fill-rule="evenodd" clip-rule="evenodd" d="M50.2745 27.4701C52.3424 26.739 54.0677 27.1968 55.0889 28.3583C55.2877 28.5843 55.6328 28.6064 55.8588 28.4076C56.0849 28.2088 56.1071 27.8638 55.9083 27.6377C54.6324 26.1869 52.4939 25.5282 49.9108 26.4414C49.627 26.5418 49.478 26.8537 49.5784 27.1376C49.6787 27.4214 49.9906 27.5704 50.2745 27.4701Z" fill="#632B2B"/>
<path id="Vector_12" fill-rule="evenodd" clip-rule="evenodd" d="M45.0536 36.7014C45.9768 36.5851 46.529 36.8909 46.7332 37.3554C47.0147 37.9955 46.6125 38.8785 45.718 38.9407C45.5143 38.9548 45.3493 39.1315 45.3496 39.3349C45.3499 39.5384 45.5155 39.6921 45.719 39.678C47.2167 39.5738 47.8831 38.0913 47.4119 37.0199C47.1143 36.3432 46.356 35.7988 45.011 35.9682C44.8077 35.9939 44.6522 36.1789 44.664 36.3812C44.6758 36.5835 44.8504 36.727 45.0536 36.7014Z" fill="#FFBBAD"/>
<path id="Vector_13" fill-rule="evenodd" clip-rule="evenodd" d="M51.769 32.46C52.6551 32.5445 53.3061 33.3325 53.2216 34.2186C53.1372 35.1049 52.3491 35.7557 51.463 35.6713C50.5768 35.5868 49.9259 34.7989 50.0104 33.9126C50.0948 33.0265 50.8828 32.3756 51.769 32.46Z" fill="#632B2B"/>
<path id="Vector_14" fill-rule="evenodd" clip-rule="evenodd" d="M38.5113 32.4734C39.3975 32.5579 40.0484 33.3459 39.9639 34.2321C39.8796 35.1183 39.0915 35.7691 38.2054 35.6847C37.3192 35.6004 36.6682 34.8123 36.7527 33.9262C36.8371 33.0399 37.6252 32.3891 38.5113 32.4734Z" fill="#632B2B"/>
<path id="Vector_15" fill-rule="evenodd" clip-rule="evenodd" d="M40.3749 41.3745C40.3749 41.3745 40.7763 45.4276 44.8627 45.6453C49.868 45.9119 50.1422 41.7513 50.1422 41.7513L40.3749 41.3745Z" fill="#FFBBAD"/>
<path id="Vector_16" fill-rule="evenodd" clip-rule="evenodd" d="M49.2528 49.2462L42.1766 49.1479L42.0798 56.1193L49.156 56.2174L49.2528 49.2462Z" fill="#FFD6C9"/>
<path id="Vector_17" fill-rule="evenodd" clip-rule="evenodd" d="M58.7997 68.0111L61.6397 71.2044L69.182 72.5743C68.2992 67.4945 65.4856 63.8439 62.731 58.3875L55.484 53.6555L48.478 52.5581L42.6012 52.7352L34.9329 53.7577C30.2331 53.8704 22.9113 67.3345 22.1038 71.0373L29.2622 72.9642L32.1722 68.5646L33.8111 116.331L25.8361 123.795L42.1952 122.057L44.8506 91.486L47.5336 91.4484L50.6814 121.942L67.1428 123.271L59.27 116.114L58.7997 68.0111Z" fill="#FFD6C9"/>
<path id="Vector_18" fill-rule="evenodd" clip-rule="evenodd" d="M25.4242 124L42.7035 122.466L43.0103 117.15L39.2272 117.456C39.153 115.381 35.3545 114.292 33.3992 116.127L25.4242 124Z" fill="#F8DCDC"/>
<path id="Vector_19" fill-rule="evenodd" clip-rule="evenodd" d="M67.8556 123.977L50.474 122.444L49.9629 117.127L54.0526 117.434C54.1269 115.358 57.9253 114.269 59.8806 116.104L67.8556 123.977Z" fill="#F8DCDC"/>
<path id="Vector_20" fill-rule="evenodd" clip-rule="evenodd" d="M50.3473 121.86L65.9908 123.496C66.12 123.51 66.2359 123.416 66.2494 123.287C66.2629 123.157 66.169 123.041 66.0397 123.028L50.3963 121.392C50.267 121.378 50.1511 121.472 50.1376 121.602C50.1241 121.731 50.2181 121.847 50.3473 121.86Z" fill="#632B2B"/>
<path id="Vector_21" fill-rule="evenodd" clip-rule="evenodd" d="M42.7812 121.414L27.1378 123.05C27.0085 123.063 26.9146 123.179 26.9281 123.308C26.9416 123.437 27.0575 123.531 27.1868 123.518L42.8303 121.882C42.9595 121.868 43.0535 121.753 43.04 121.623C43.0264 121.494 42.9104 121.4 42.7812 121.414Z" fill="#632B2B"/>
<path id="Vector_22" fill-rule="evenodd" clip-rule="evenodd" d="M62.1646 118.735C60.8517 118.539 59.924 118.839 59.5581 119.805C59.5121 119.926 59.5734 120.062 59.695 120.108C59.8165 120.154 59.9525 120.093 59.9986 119.971C60.2887 119.206 61.0542 119.046 62.0953 119.201C62.2238 119.22 62.3438 119.131 62.3629 119.002C62.382 118.874 62.2932 118.754 62.1646 118.735Z" fill="#632B2B"/>
<path id="Vector_23" fill-rule="evenodd" clip-rule="evenodd" d="M31.0822 119.223C32.1233 119.068 32.8889 119.228 33.179 119.994C33.2251 120.115 33.3611 120.176 33.4826 120.13C33.6042 120.084 33.6655 119.948 33.6195 119.827C33.2536 118.861 32.3259 118.562 31.013 118.757C30.8844 118.776 30.7955 118.896 30.8147 119.025C30.8338 119.153 30.9537 119.242 31.0822 119.223Z" fill="#632B2B"/>
<path id="Vector_24" fill-rule="evenodd" clip-rule="evenodd" d="M60.9178 117.403C59.6975 117.327 58.838 117.778 58.2548 118.63C58.1814 118.737 58.2089 118.884 58.3162 118.957C58.4234 119.031 58.5701 119.003 58.6435 118.896C59.1341 118.179 59.8617 117.809 60.8884 117.873C61.0181 117.881 61.13 117.782 61.1381 117.653C61.1462 117.523 61.0474 117.411 60.9178 117.403Z" fill="#632B2B"/>
<path id="Vector_25" fill-rule="evenodd" clip-rule="evenodd" d="M32.2892 117.896C33.3159 117.831 34.0435 118.201 34.5341 118.918C34.6075 119.025 34.7542 119.053 34.8614 118.98C34.9687 118.906 34.9961 118.759 34.9228 118.652C34.3396 117.8 33.4801 117.349 32.2598 117.426C32.1302 117.434 32.0314 117.546 32.0395 117.675C32.0476 117.805 32.1595 117.904 32.2892 117.896Z" fill="#632B2B"/>
<path id="Vector_26" fill-rule="evenodd" clip-rule="evenodd" d="M32.2746 80.8525L29.0156 103.478C37.4528 107.338 51.5902 107.674 63.0598 103.887L59.0626 81.466L32.2746 80.8525Z" fill="#3777BC"/>
<path id="Vector_27" fill-rule="evenodd" clip-rule="evenodd" d="M41.5788 52.2241L45.4641 57.1318L49.6562 52.6331C49.6562 52.6331 53.7243 52.8379 56.0144 53.4059C62.6786 55.0589 66.8577 63.8441 66.8577 63.8441C65.2649 64.9183 61.1908 66.8579 59.0504 67.1238L59.7784 82.5778L31.3544 82.9998L31.6579 66.7718C29.0219 65.9802 25.3743 64.8077 23.9774 62.6813C23.9774 62.6813 27.7475 55.5697 33.3712 53.3317C35.2758 52.5738 41.5788 52.2241 41.5788 52.2241Z" fill="#DDA21F"/>
<path id="Vector_28" d="M54.2646 54.552H36.7374V75.9411H54.2646V54.552Z" fill="#3777BC"/>
<path id="Vector_29" d="M51.789 56.2354H39.213V59.9983H51.789V56.2354Z" fill="#F8DCDC"/>
<path id="Vector_30" fill-rule="evenodd" clip-rule="evenodd" d="M31.7691 67.59L32.0758 62.9924C32.0863 62.8351 31.9897 62.6968 31.8602 62.6841C31.7306 62.6713 31.6169 62.7888 31.6064 62.9462L31.2997 67.5438C31.2892 67.7011 31.3858 67.8394 31.5153 67.8521C31.6449 67.8648 31.7586 67.7475 31.7691 67.59Z" fill="#632B2B"/>
<path id="Vector_31" fill-rule="evenodd" clip-rule="evenodd" d="M59.3998 67.7495L59.1788 64.4777C59.17 64.348 59.0577 64.2498 58.9279 64.2586C58.7983 64.2673 58.7001 64.3797 58.7089 64.5095L58.93 67.7812C58.9387 67.9109 59.0511 68.0091 59.1807 68.0004C59.3105 67.9915 59.4086 67.8791 59.3998 67.7495Z" fill="#632B2B"/>
<g id="Group">
<path id="Vector_32" fill-rule="evenodd" clip-rule="evenodd" d="M68.7526 76.0886C70.4381 75.325 68.7728 70.7449 68.7728 70.7449L55.2624 66.7974C54.6725 65.5982 53.4739 64.5944 52.5449 63.9614C52.0628 63.6328 50.2524 62.491 49.6128 63.1869C49.1256 63.7172 50.4052 64.6725 50.4052 64.6725C50.4052 64.6725 49.1457 64.0354 48.0775 63.6829C47.414 63.4639 47.0957 64.5833 47.4198 64.9805C47.8369 65.4918 49.2794 66.3236 49.2794 66.3236C48.9775 66.2313 47.5289 65.4787 46.9315 65.6722C46.3666 65.8552 46.1261 66.8174 46.7612 67.1283C47.3418 67.4126 48.7659 67.7702 48.7659 67.7702C48.7659 67.7702 47.2476 67.6442 47.1485 67.6377C46.2478 67.5782 46.0305 69.2019 46.935 69.2095C47.0403 69.2103 48.7081 69.5036 48.803 69.5885C48.7012 69.621 46.9896 69.5948 46.8861 69.6112C46.3859 69.6903 46.3202 70.8427 46.8699 71.0165C46.9626 71.0458 48.75 71.4466 48.8571 71.4808C49.7429 71.7642 53.0514 71.6561 53.0514 71.6561C58.0017 74.3306 63.7559 78.353 68.7526 76.0886Z" fill="#FFD6C9"/>
</g>
<g id="Group_2">
<path id="Vector_33" fill-rule="evenodd" clip-rule="evenodd" d="M22.1555 76.0886C20.4702 75.325 22.1354 70.7449 22.1354 70.7449L35.6458 66.7974C36.2357 65.5982 37.4342 64.5944 38.3633 63.9614C38.8453 63.6328 40.6558 62.491 41.2954 63.1869C41.7826 63.7172 40.503 64.6725 40.503 64.6725C40.503 64.6725 41.7624 64.0354 42.8306 63.6829C43.4942 63.4639 43.8124 64.5833 43.4885 64.9805C43.0713 65.4918 41.6288 66.3236 41.6288 66.3236C41.9307 66.2313 43.3793 65.4787 43.9767 65.6722C44.5416 65.8552 44.7821 66.8174 44.147 67.1283C43.5664 67.4126 42.1423 67.7702 42.1423 67.7702C42.1423 67.7702 43.6606 67.6442 43.7597 67.6377C44.6603 67.5782 44.8776 69.2019 43.9731 69.2095C43.868 69.2103 42.2001 69.5036 42.1052 69.5885C42.2071 69.621 43.9187 69.5948 44.0221 69.6112C44.5223 69.6903 44.588 70.8427 44.0384 71.0165C43.9456 71.0458 42.1582 71.4466 42.0512 71.4808C41.1653 71.7642 37.8568 71.6561 37.8568 71.6561C32.9065 74.3306 27.1524 78.353 22.1555 76.0886Z" fill="#FFD6C9"/>
</g>
</g>
</g>
</svg>
