<svg width="120" height="120" viewBox="0 0 120 120" fill="none" xmlns="http://www.w3.org/2000/svg">
<g id="check-7055 1" clip-path="url(#clip0_25_575)">
<g id="Group">
<path id="Vector" d="M57.334 81.5595C57.2971 81.5595 57.2602 81.5595 57.2234 81.5582C56.1367 81.5279 55.1106 81.0511 54.3875 80.241L36.3855 60.0959C34.9313 58.4692 35.0709 55.9705 36.6989 54.5163C38.3244 53.0608 40.8244 53.2018 42.2786 54.8298L57.496 71.8584L103.067 26.2877C104.61 24.7439 107.111 24.7439 108.654 26.2877C110.198 27.8301 110.198 30.3328 108.654 31.8752L60.1278 80.4017C59.3862 81.1446 58.3799 81.5595 57.334 81.5595Z" fill="#10498A"/>
<path id="Vector_2" d="M59.9329 119.206C27.2495 119.206 0.659424 92.616 0.659424 59.9326C0.659424 27.2492 27.2495 0.65918 59.9329 0.65918C73.305 0.65918 85.9262 5.0059 96.4348 13.2278C98.1537 14.5726 98.4566 17.0568 97.1118 18.7745C95.7669 20.4947 93.284 20.795 91.5651 19.4515C82.4607 12.3281 71.5228 8.5623 59.9329 8.5623C31.6067 8.5623 8.56255 31.6065 8.56255 59.9326C8.56255 88.2587 31.6067 111.303 59.9329 111.303C88.259 111.303 111.303 88.2587 111.303 59.9326C111.303 55.5885 110.762 51.2747 109.692 47.1124C109.15 44.9997 110.423 42.8447 112.536 42.3021C114.648 41.7594 116.804 43.0331 117.345 45.1472C118.581 49.951 119.206 54.926 119.206 59.9326C119.206 92.616 92.6162 119.206 59.9329 119.206Z" fill="#10498A"/>
</g>
</g>
<defs>
<clipPath id="clip0_25_575">
<rect width="120" height="120" fill="white"/>
</clipPath>
</defs>
</svg>
