<svg width="24" height="24" viewBox="0 0 24 24" fill="none" xmlns="http://www.w3.org/2000/svg">
<g id="noun-ticket-5792774 1">
<g id="Group 33879">
<path id="Vector" fill-rule="evenodd" clip-rule="evenodd" d="M3.7198 6.21967C3.86045 6.07902 4.05122 6 4.25013 6H9.25C9.39807 6 9.54282 6.04383 9.66603 6.12596L10.75 6.84861L11.834 6.12596C11.9572 6.04383 12.1019 6 12.25 6H20.25C20.4489 6 20.6397 6.07901 20.7803 6.21965L22.7804 8.21965C22.9211 8.36031 23.0001 8.55108 23.0001 8.75V14.75C23.0001 14.9489 22.9211 15.1397 22.7804 15.2803L20.7803 17.2803C20.6397 17.421 20.4489 17.5 20.25 17.5H12.25C12.1019 17.5 11.9572 17.4562 11.834 17.374L10.75 16.6514L9.66603 17.374C9.54282 17.4562 9.39807 17.5 9.25 17.5H4.25013C4.05123 17.5 3.86047 17.421 3.71982 17.2803L1.71969 15.2803C1.57902 15.1397 1.5 14.9489 1.5 14.75L1.50002 13.75C1.50003 13.3358 1.83582 13 2.25004 13C2.66425 13 3.00003 13.3358 3.00002 13.75L3.00001 14.4393L4.56078 16H9.02292L10.334 15.126C10.5859 14.958 10.9141 14.958 11.166 15.126L12.4771 16H19.9394L21.5001 14.4393V9.06068L19.9394 7.5H12.4771L11.166 8.37404C10.9141 8.54199 10.5859 8.54199 10.334 8.37404L9.02292 7.5H4.56079L3.00012 9.06067L3.00011 9.75C3.0001 10.1642 2.66431 10.5 2.25009 10.5C1.83588 10.5 1.5001 10.1642 1.50011 9.74998L1.50013 8.74998C1.50014 8.55108 1.57915 8.36032 1.7198 8.21967L3.7198 6.21967Z" fill="#808081"/>
<path id="Vector_2" fill-rule="evenodd" clip-rule="evenodd" d="M10.25 9.5C10.6642 9.5 11 9.8358 11 10.25V13.25C11 13.6642 10.6642 14 10.25 14C9.8358 14 9.5 13.6642 9.5 13.25V10.25C9.5 9.8358 9.8358 9.5 10.25 9.5Z" fill="#808081"/>
<path id="Vector_3" fill-rule="evenodd" clip-rule="evenodd" d="M13 9.75C13 9.33579 13.3358 9 13.75 9H17.75C18.1642 9 18.5 9.33579 18.5 9.75C18.5 10.1642 18.1642 10.5 17.75 10.5H13.75C13.3358 10.5 13 10.1642 13 9.75Z" fill="#808081"/>
<path id="Vector_4" fill-rule="evenodd" clip-rule="evenodd" d="M13 12.75C13 12.3358 13.3358 12 13.75 12H18.75C19.1642 12 19.5 12.3358 19.5 12.75C19.5 13.1642 19.1642 13.5 18.75 13.5H13.75C13.3358 13.5 13 13.1642 13 12.75Z" fill="#808081"/>
</g>
</g>
</svg>
