<svg width="144" height="144" viewBox="0 0 144 144" fill="none" xmlns="http://www.w3.org/2000/svg">
<g id="otp code 6">
<path id="Vector" d="M39.9005 124.445C38.6093 124.516 24.7459 123.032 23.4773 128.136C22.2086 133.239 25.6646 129.229 39.9005 132.295C54.1363 135.362 61.3738 137.486 66.8242 134.418C72.2741 131.352 85.6786 139.726 97.6733 136.188C109.668 132.649 121.718 136.939 122.836 130.843C123.954 124.746 81.8179 122.139 39.9005 124.445Z" fill="#BCCFE2"/>
<path id="Vector_2" d="M35.3059 124.611C34.7074 129.914 49.2 127.818 55.261 132.196C56.9069 133.385 59.353 133.413 61.3118 132.886C66.4598 131.499 65.2181 133.396 67.1928 133.396C76.1731 133.396 75.0989 130.864 76.8754 131.167C78.7075 131.48 87.467 130.476 86.0246 131.603C83.7278 133.396 89.1178 134.171 90.1901 134.294C93.9518 134.722 96.2909 131.926 97.2437 132.054C98.1101 132.17 98.9736 132.305 99.8419 132.409C101.468 132.603 103.068 132.612 104.666 132.232C105.634 132.003 106.529 131.58 107.489 131.337C108.449 131.094 109.452 131.06 110.44 131.045C112.16 131.019 115.744 131.708 115.627 129.955C115.258 124.445 69.9398 123.435 35.3059 124.611Z" fill="#D3D9EF"/>
<path id="Vector_3" d="M110.645 95.9516C106.652 99.9447 107.041 101.309 107.235 103.696C107.427 106.031 102.3 106.501 104.043 111.54H102.949C102.949 111.54 95.6424 110.223 96.5194 106.521C97.3954 102.819 102.9 107.155 102.997 104.524C103.095 101.894 99.4411 98.63 100.903 97.1694C102.364 95.7073 103.143 100.53 105.384 99.2617C107.624 97.9921 103.874 94.6849 104.459 92.3468C105.043 90.0087 106.602 92.6391 109.476 93.6135C112.123 94.5116 110.513 87.6006 112.64 88.3642C113.088 90.1297 113.332 93.2646 110.645 95.9516Z" fill="#D3D9EF"/>
<path id="Vector_4" d="M113.618 101.162C112.837 103.599 106.7 104.963 109.135 106.862C111.572 108.762 109.38 111.539 109.38 111.539H104.043C102.301 106.501 107.427 106.03 107.236 103.696C107.042 101.308 106.652 99.9447 110.646 95.9511C113.332 93.2646 113.088 90.1292 112.641 88.3638C112.824 88.4295 113.035 88.5524 113.277 88.741C116.346 91.1286 112.546 95.8527 111.767 96.9735C110.987 98.0943 114.397 98.727 113.618 101.162Z" fill="#E1E6F4"/>
<path id="Vector_5" d="M24.2117 111.715C25.5576 111.562 27.1431 113.009 27.685 113.552C28.2696 113.669 29.3237 113.916 29.9981 114.265C29.6746 113.569 29.4149 112.819 29.2541 112.011C29.1072 111.274 28.8955 110.621 28.6416 110.039C28.1861 109.459 27.8482 108.94 27.6015 108.282C26.5239 106.902 25.2264 106.194 24.3883 105.855C23.4768 106.238 22.752 106.429 21.5799 106.33C20.2603 106.219 20.2061 103.524 21.6917 103.525C23.0515 103.525 24.4733 105.346 24.7042 105.654C25.4491 105.98 26.4543 106.559 27.3763 107.543C27.3447 107.411 27.3139 107.277 27.2871 107.132C27.0178 105.674 29.9112 104.821 30.349 106.425C30.7143 107.763 29.461 109.605 29.0347 110.18C29.2479 110.713 29.4269 111.3 29.5565 111.951C30.0418 114.388 31.4367 116.311 32.8474 117.702C32.8383 117.248 32.9928 116.696 33.1349 116.258C32.7509 115.122 32.5771 114.28 32.8066 112.911C33.0519 111.449 36.0624 111.636 35.9256 113.293C35.8128 114.663 34.0407 115.953 33.4267 116.361C33.2549 116.894 33.0485 117.641 33.2103 118.019C33.2146 118.03 33.2122 118.041 33.2141 118.051C34.8663 119.576 36.4325 120.364 36.4623 120.379C36.5391 120.417 36.5702 120.509 36.5328 120.586C36.5271 120.598 36.5198 120.609 36.5122 120.618C36.4675 120.671 36.3907 120.688 36.3264 120.656C36.2779 120.633 32.3679 118.67 30.3077 114.885C30.3039 114.88 30.2981 114.876 30.2947 114.871C30.0619 114.472 28.7127 114.079 27.6797 113.866C26.6319 114.468 25.8351 114.808 24.4411 114.849C22.9599 114.891 22.5595 111.901 24.2117 111.715Z" fill="#D3D9EF"/>
<path id="Vector_6" d="M26.3309 85.4082C26.3309 87.502 27.8462 89.2434 29.8416 89.5909C27.8458 89.938 26.3309 91.6794 26.3309 93.7736C26.3309 91.6799 24.8141 89.9384 22.8182 89.5909C24.8136 89.2434 26.3309 87.502 26.3309 85.4082Z" fill="#D3D9EF"/>
<path id="Vector_7" d="M26.5757 98.8301C26.5757 100.162 27.5395 101.269 28.8086 101.49C27.5395 101.711 26.5757 102.818 26.5757 104.15C26.5757 102.819 25.6109 101.711 24.3418 101.49C25.6109 101.269 26.5757 100.162 26.5757 98.8301Z" fill="#F1F2FF"/>
<path id="Vector_8" d="M22.3152 78.9863C22.3152 80.1052 23.125 81.0359 24.1915 81.2217C23.125 81.4074 22.3152 82.3377 22.3152 83.457C22.3152 82.3382 21.5045 81.4074 20.4379 81.2217C21.5045 81.0359 22.3152 80.1057 22.3152 78.9863Z" fill="#F1F2FF"/>
<path id="Vector_9" d="M19.1722 92.2758C19.1722 92.5921 19.429 92.8489 19.7453 92.8489C20.0616 92.8489 20.3184 92.5921 20.3184 92.2758C20.3184 91.9594 20.0616 91.7026 19.7453 91.7026C19.429 91.7026 19.1722 91.9594 19.1722 92.2758Z" fill="#D3D9EF"/>
<path id="Vector_10" d="M15.2184 99.5804C15.2184 100.188 15.7109 100.68 16.3181 100.68C16.9258 100.68 17.4178 100.188 17.4178 99.5804C17.4178 98.9732 16.9253 98.4807 16.3181 98.4807C15.7109 98.4802 15.2184 98.9727 15.2184 99.5804Z" fill="#F1F2FF"/>
<path id="Vector_11" d="M25.3877 121.076C25.9653 121.076 26.4336 120.608 26.4336 120.03C26.4336 119.453 25.9653 118.984 25.3877 118.984C24.81 118.984 24.3418 119.453 24.3418 120.03C24.3418 120.608 24.81 121.076 25.3877 121.076Z" fill="#F1F2FF"/>
<path id="Vector_12" d="M85.4866 29.9874V117.282C85.4866 122.372 81.7541 126.501 77.1485 126.501H62.0822C61.4213 126.501 60.7685 126.525 60.1397 126.329C60.0077 126.289 59.8714 126.269 59.7274 126.269H56.4792C56.3352 126.269 56.1989 126.289 56.0707 126.329C55.4338 126.525 54.7853 126.501 54.1243 126.501H39.0576C34.452 126.501 30.7152 122.372 30.7152 117.282V29.9874C30.7152 24.897 34.4515 20.7681 39.0576 20.7681H77.148C81.7536 20.7681 85.4866 24.897 85.4866 29.9874Z" fill="#4F3F3D"/>
<path id="Vector_13" d="M82.2686 28.775C81.8371 26.8752 80.5958 25.3334 78.9706 24.6206C78.347 24.3456 77.6664 24.1963 76.9526 24.1963H39.2544C36.2294 24.1963 33.7738 26.9083 33.7738 30.2539V117.012C33.7738 120.143 35.9237 122.719 38.6789 123.037C38.8675 123.06 39.0595 123.07 39.2544 123.07H76.9531C79.9781 123.07 82.4338 120.358 82.4338 117.012V30.2539C82.4338 29.7432 82.3766 29.2492 82.2686 28.775Z" fill="url(#paint0_radial_360_1842)"/>
<path id="Vector_14" d="M85.4866 29.9874V55.0698H64.2168L60.9566 59.8036L57.3802 55.0698H52.2739C49.7467 55.0698 47.7005 53.0231 47.7005 50.4964V20.7681H77.1485C81.7536 20.7681 85.4866 24.897 85.4866 29.9874Z" fill="#D3D9EF"/>
<path id="Vector_15" d="M78.7291 28.6929H75.42V29.0577H78.7291V28.6929Z" fill="#F1F2FF"/>
<path id="Vector_16" d="M78.7291 29.7566H75.42V30.1214H78.7291V29.7566Z" fill="#F1F2FF"/>
<path id="Vector_17" d="M78.7291 30.8203H75.42V31.1851H78.7291V30.8203Z" fill="#F1F2FF"/>
<path id="Vector_18" opacity="0.25" d="M82.2686 28.775C66.0518 47.6812 49.8888 66.6038 33.7738 85.5432V77.6582C48.8395 59.9788 63.9053 42.2995 78.9706 24.6201C80.5958 25.3334 81.8371 26.8752 82.2686 28.775Z" fill="url(#paint1_linear_360_1842)"/>
<path id="Vector_19" opacity="0.25" d="M82.4338 35.7114V71.6173C67.8389 88.7529 53.256 105.895 38.6789 123.037C35.9237 122.719 33.7738 120.143 33.7738 117.013V92.709C49.943 73.6929 66.1627 54.694 82.4338 35.7114Z" fill="url(#paint2_linear_360_1842)"/>
<path id="Vector_20" d="M40.0632 28.0723C38.9323 28.0723 38.0141 28.9905 38.0141 30.1214C38.0141 31.2523 38.9323 32.1705 40.0632 32.1705C41.1941 32.1705 42.1123 31.2523 42.1123 30.1214C42.1123 28.9905 41.1941 28.0723 40.0632 28.0723ZM40.9882 30.8275C40.9882 31.0031 40.8456 31.1457 40.6699 31.1457H40.3517V30.0911H39.7747V31.1457H39.4565C39.2808 31.1457 39.1382 31.0031 39.1382 30.8275V29.7667L39.8678 28.9478C39.9706 28.8316 40.1563 28.8316 40.259 28.9478L40.9886 29.7667V30.8275H40.9882Z" fill="#F1F2FF"/>
<path id="Vector_21" d="M115.65 11.3611H55.3262C52.8024 11.3611 50.7561 13.4073 50.7561 15.9312V47.7902C50.7561 50.314 52.8024 52.3603 55.3262 52.3603H115.65C118.174 52.3603 120.22 50.314 120.22 47.7902V15.9312C120.22 13.4073 118.174 11.3611 115.65 11.3611Z" fill="#EFF7FF"/>
<path id="Vector_22" d="M69.336 49.3608L64.0104 57.0946L58.3411 49.5884L69.336 49.3608Z" fill="#F1F2FF"/>
<path id="Vector_23" d="M48.5966 70.6566H40.0661C40.0123 70.6566 39.9691 70.6134 39.9691 70.5596V60.1316C39.9691 60.0779 40.0123 60.0347 40.0661 60.0347H48.5966C48.6504 60.0347 48.6936 60.0779 48.6936 60.1316V70.5596C48.6936 70.6129 48.6504 70.6566 48.5966 70.6566Z" fill="#F1F2FF"/>
<path id="Vector_24" opacity="0.5" d="M39.9691 64.7529V69.9C39.9691 70.318 40.308 70.6569 40.7261 70.6569H47.9371C48.3552 70.6569 48.6941 70.318 48.6941 69.9V64.7529H39.9691Z" fill="#E1E6F4"/>
<path id="Vector_25" d="M47.892 68.9592H40.681V69.5381H47.892V68.9592Z" fill="#D3D9EF"/>
<path id="Vector_26" d="M58.7458 70.6566H50.2152C50.1614 70.6566 50.1182 70.6134 50.1182 70.5596V60.1316C50.1182 60.0779 50.1614 60.0347 50.2152 60.0347H58.7458C58.7995 60.0347 58.8427 60.0779 58.8427 60.1316V70.5596C58.8427 70.6129 58.7995 70.6566 58.7458 70.6566Z" fill="#F1F2FF"/>
<path id="Vector_27" opacity="0.5" d="M50.1182 64.7529V69.9C50.1182 70.318 50.4571 70.6569 50.8752 70.6569H58.0862C58.5043 70.6569 58.8432 70.318 58.8432 69.9V64.7529H50.1182Z" fill="#E1E6F4"/>
<path id="Vector_28" d="M58.0411 68.9592H50.8301V69.5381H58.0411V68.9592Z" fill="#D3D9EF"/>
<path id="Vector_29" d="M68.8949 70.6566H60.3643C60.3106 70.6566 60.2673 70.6134 60.2673 70.5596V60.1316C60.2673 60.0779 60.3106 60.0347 60.3643 60.0347H68.8949C68.9486 60.0347 68.9918 60.0779 68.9918 60.1316V70.5596C68.9918 70.6129 68.9486 70.6566 68.8949 70.6566Z" fill="#F1F2FF"/>
<path id="Vector_30" opacity="0.5" d="M60.2673 64.7529V69.9C60.2673 70.318 60.6062 70.6569 61.0238 70.6569H68.2349C68.653 70.6569 68.9918 70.318 68.9918 69.9V64.7529H60.2673Z" fill="#E1E6F4"/>
<path id="Vector_31" d="M68.1902 68.9592H60.9792V69.5381H68.1902V68.9592Z" fill="#D3D9EF"/>
<g id="Group">
<path id="Vector_32" d="M79.044 70.6566H70.5134C70.4597 70.6566 70.4165 70.6134 70.4165 70.5596V60.1316C70.4165 60.0779 70.4597 60.0347 70.5134 60.0347H79.044C79.0978 60.0347 79.141 60.0779 79.141 60.1316V70.5596C79.141 70.6129 79.0978 70.6566 79.044 70.6566Z" fill="#F1F2FF"/>
<path id="Vector_33" opacity="0.5" d="M70.4165 64.7532V69.9002C70.4165 70.3183 70.7554 70.6572 71.1734 70.6572H78.3845C78.8026 70.6572 79.1414 70.3183 79.1414 69.9002V64.7532H70.4165Z" fill="#E1E6F4"/>
<path id="Vector_34" d="M78.3394 68.9592H71.1283V69.5381H78.3394V68.9592Z" fill="#D3D9EF"/>
</g>
<g id="Group_2">
<path id="Vector_35" d="M65.7221 22.092H64.0781L63.8145 22.87H62.6913L64.2854 18.4646H65.5277L67.1217 22.87H65.9861L65.7221 22.092ZM64.9003 19.6512L64.3608 21.264H65.4461L64.9003 19.6512Z" fill="#D3D9EF"/>
<path id="Vector_36" d="M71.0616 22.8705H69.9888V22.3934C69.7752 22.6948 69.3989 22.9079 68.928 22.9079C68.1187 22.9079 67.5725 22.3497 67.5725 21.4142V19.3684H68.639V21.2697C68.639 21.7468 68.9088 22.0103 69.3106 22.0103C69.7248 22.0103 69.9883 21.7468 69.9883 21.2697V19.3684H71.0611V22.8705H71.0616Z" fill="#D3D9EF"/>
<path id="Vector_37" d="M72.0024 20.2599H71.5757V19.3691H72.0024V18.5156H73.0752V19.3691H73.7779V20.2599H73.0752V21.6654C73.0752 21.8723 73.163 21.9601 73.4016 21.9601H73.7842V22.8702H73.2384C72.5107 22.8702 72.0024 22.5625 72.0024 21.6529V20.2599Z" fill="#D3D9EF"/>
<path id="Vector_38" d="M74.3798 18.2266H75.4531V19.8394C75.6662 19.5379 76.0493 19.331 76.5321 19.331C77.3289 19.331 77.8627 19.883 77.8627 20.8243V22.8701H76.7957V20.9688C76.7957 20.4922 76.5321 20.2282 76.1241 20.2282C75.7161 20.2282 75.4531 20.4917 75.4531 20.9688V22.8701H74.3798V18.2266Z" fill="#D3D9EF"/>
<path id="Vector_39" d="M80.1648 22.9205C79.1357 22.9205 78.3955 22.2303 78.3955 21.1196C78.3955 20.0088 79.1232 19.3186 80.1648 19.3186C81.1877 19.3186 81.9096 19.9964 81.9096 21.0629C81.9096 21.1632 81.9034 21.2698 81.8909 21.3768H79.4621C79.5 21.8348 79.7822 22.0484 80.1273 22.0484C80.4288 22.0484 80.5982 21.8976 80.6861 21.7095H81.828C81.6581 22.3935 81.0369 22.9205 80.1648 22.9205ZM79.4678 20.7807H80.8109C80.8109 20.3981 80.5094 20.1783 80.1518 20.1783C79.8009 20.1783 79.5307 20.3919 79.4678 20.7807Z" fill="#D3D9EF"/>
<path id="Vector_40" d="M84.8894 20.9688C84.8894 20.4922 84.6259 20.2282 84.2179 20.2282C83.8099 20.2282 83.5469 20.4917 83.5469 20.9688V22.8701H82.4736V19.3685H83.5469V19.8331C83.76 19.5384 84.1363 19.3311 84.6072 19.3311C85.4165 19.3311 85.9565 19.8831 85.9565 20.8243V22.8701H84.8894V20.9688Z" fill="#D3D9EF"/>
<path id="Vector_41" d="M86.8714 20.2599H86.4446V19.3691H86.8714V18.5156H87.9442V19.3691H88.6469V20.2599H87.9442V21.6654C87.9442 21.8723 88.032 21.9601 88.2706 21.9601H88.6536V22.8702H88.1078C87.3802 22.8702 86.8718 22.5625 86.8718 21.6529V20.2599H86.8714Z" fill="#D3D9EF"/>
<path id="Vector_42" d="M89.1485 18.4277C89.1485 18.1013 89.4057 17.844 89.7883 17.844C90.1651 17.844 90.4224 18.1013 90.4224 18.4277C90.4224 18.7478 90.1651 19.0051 89.7883 19.0051C89.4057 19.0046 89.1485 18.7474 89.1485 18.4277ZM89.2493 19.369H90.3225V22.8706H89.2493V19.369Z" fill="#D3D9EF"/>
<path id="Vector_43" d="M92.6434 19.3186C93.5218 19.3186 94.1434 19.802 94.3253 20.6367H93.1834C93.0955 20.3919 92.9199 20.2349 92.6247 20.2349C92.2416 20.2349 91.9786 20.5364 91.9786 21.1196C91.9786 21.7032 92.2421 22.0042 92.6247 22.0042C92.9194 22.0042 93.0893 21.8597 93.1834 21.6024H94.3253C94.1434 22.4117 93.5222 22.92 92.6434 22.92C91.6142 22.92 90.8866 22.2298 90.8866 21.1191C90.8866 20.0151 91.6142 19.3186 92.6434 19.3186Z" fill="#D3D9EF"/>
<path id="Vector_44" d="M96.2261 19.3186C96.7469 19.3186 97.117 19.5572 97.3056 19.8644V19.3685H98.3789V22.8701H97.3056V22.3743C97.1112 22.682 96.7406 22.92 96.2198 22.92C95.3664 22.92 94.6824 22.2173 94.6824 21.1128C94.6824 20.0088 95.3664 19.3186 96.2261 19.3186ZM96.5395 20.2536C96.1378 20.2536 95.7739 20.5551 95.7739 21.1133C95.7739 21.6716 96.1378 21.9855 96.5395 21.9855C96.9475 21.9855 97.3051 21.6778 97.3051 21.1196C97.3051 20.5613 96.9475 20.2536 96.5395 20.2536Z" fill="#D3D9EF"/>
<path id="Vector_45" d="M99.325 20.2599H98.8982V19.3691H99.325V18.5156H100.398V19.3691H101.1V20.2599H100.398V21.6654C100.398 21.8723 100.486 21.9601 100.724 21.9601H101.107V22.8702H100.561C99.8338 22.8702 99.3254 22.5625 99.3254 21.6529V20.2599H99.325Z" fill="#D3D9EF"/>
<path id="Vector_46" d="M101.602 18.4277C101.602 18.1013 101.859 17.844 102.242 17.844C102.619 17.844 102.876 18.1013 102.876 18.4277C102.876 18.7478 102.619 19.0051 102.242 19.0051C101.859 19.0046 101.602 18.7474 101.602 18.4277ZM101.703 19.369H102.776V22.8706H101.703V19.369Z" fill="#D3D9EF"/>
<path id="Vector_47" d="M105.147 22.9205C104.118 22.9205 103.34 22.2303 103.34 21.1196C103.34 20.0088 104.137 19.3186 105.16 19.3186C106.189 19.3186 106.98 20.0088 106.98 21.1196C106.98 22.2303 106.176 22.9205 105.147 22.9205ZM105.147 21.9917C105.53 21.9917 105.888 21.7095 105.888 21.1196C105.888 20.5234 105.536 20.2474 105.16 20.2474C104.771 20.2474 104.432 20.5234 104.432 21.1196C104.432 21.7095 104.758 21.9917 105.147 21.9917Z" fill="#D3D9EF"/>
<path id="Vector_48" d="M109.966 20.9688C109.966 20.4922 109.703 20.2282 109.295 20.2282C108.887 20.2282 108.624 20.4917 108.624 20.9688V22.8701H107.55V19.3685H108.624V19.8331C108.837 19.5384 109.213 19.3311 109.684 19.3311C110.493 19.3311 111.033 19.8831 111.033 20.8243V22.8701H109.966V20.9688Z" fill="#D3D9EF"/>
</g>
<g id="Group_3">
<path id="Vector_49" opacity="0.25" d="M74.8862 86.6179H41.7955C41.6722 86.6179 41.5718 86.5181 41.5718 86.3942V79.3699C41.5718 79.2466 41.6717 79.1462 41.7955 79.1462H74.8862C75.0096 79.1462 75.1099 79.2461 75.1099 79.3699V86.3942C75.1099 86.5176 75.0096 86.6179 74.8862 86.6179Z" fill="#F1F2FF"/>
<path id="Vector_50" d="M49.1784 84.5396C48.2938 84.5396 47.5738 83.8772 47.5738 82.9398C47.5738 82.0018 48.2938 81.3442 49.1784 81.3442C50.0674 81.3442 50.7739 82.0018 50.7739 82.9398C50.7739 83.8777 50.063 84.5396 49.1784 84.5396ZM49.1784 83.8465C49.6762 83.8465 50.0006 83.4865 50.0006 82.9398C50.0006 82.3844 49.6762 82.033 49.1784 82.033C48.672 82.033 48.3518 82.3844 48.3518 82.9398C48.3518 83.4865 48.672 83.8465 49.1784 83.8465Z" fill="#F1F2FF"/>
<path id="Vector_51" d="M51.0269 81.3889H53.4398V81.998H52.6133V84.5089H51.8534V81.998H51.0269V81.3889Z" fill="#F1F2FF"/>
<path id="Vector_52" d="M55.0527 83.3886H54.5818V84.5084H53.8219V81.3884H55.0531C55.8178 81.3884 56.1998 81.8195 56.1998 82.3931C56.1994 82.9091 55.8485 83.3886 55.0527 83.3886ZM54.995 82.7843C55.2974 82.7843 55.4261 82.6331 55.4261 82.3931C55.4261 82.1531 55.297 82.0019 54.995 82.0019H54.5818V82.7843H54.995Z" fill="#F1F2FF"/>
<path id="Vector_53" d="M58.9766 81.3533C59.7187 81.3533 60.2789 81.7709 60.4565 82.4467H59.6208C59.4917 82.1803 59.2565 82.0464 58.9675 82.0464C58.501 82.0464 58.1808 82.393 58.1808 82.944C58.1808 83.495 58.501 83.8421 58.9675 83.8421C59.2565 83.8421 59.4922 83.7086 59.6208 83.4418H60.4565C60.2789 84.1171 59.7187 84.5309 58.9766 84.5309C58.0565 84.5309 57.4075 83.8776 57.4075 82.944C57.4075 82.0109 58.0565 81.3533 58.9766 81.3533Z" fill="#F1F2FF"/>
<path id="Vector_54" d="M62.051 84.5444C61.3224 84.5444 60.7709 84.0553 60.7709 83.269C60.7709 82.4823 61.3354 81.9937 62.0597 81.9937C62.7888 81.9937 63.3485 82.4823 63.3485 83.269C63.349 84.0553 62.7802 84.5444 62.051 84.5444ZM62.051 83.8868C62.3222 83.8868 62.5757 83.6866 62.5757 83.269C62.5757 82.8466 62.327 82.6513 62.0602 82.6513C61.7846 82.6513 61.5446 82.8466 61.5446 83.269C61.5446 83.6866 61.7755 83.8868 62.051 83.8868Z" fill="#F1F2FF"/>
<path id="Vector_55" d="M64.6949 81.993C65.0237 81.993 65.3083 82.1442 65.4595 82.3708V81.2197H66.2194V84.5082H65.4595V84.1525C65.3218 84.3791 65.0597 84.5437 64.6949 84.5437C64.0862 84.5437 63.6014 84.046 63.6014 83.2636C63.6019 82.4817 64.0862 81.993 64.6949 81.993ZM64.9171 82.6554C64.6325 82.6554 64.3747 82.869 64.3747 83.2641C64.3747 83.6596 64.6325 83.8818 64.9171 83.8818C65.2061 83.8818 65.459 83.6639 65.459 83.2684C65.4595 82.8728 65.2061 82.6554 64.9171 82.6554Z" fill="#F1F2FF"/>
<path id="Vector_56" d="M67.872 84.5444C67.1429 84.5444 66.6187 84.0553 66.6187 83.269C66.6187 82.4823 67.1342 81.9937 67.872 81.9937C68.5963 81.9937 69.1075 82.4737 69.1075 83.2292C69.1075 83.3002 69.1032 83.3756 69.0941 83.4514H67.3742C67.4011 83.7759 67.6008 83.9271 67.8456 83.9271C68.0587 83.9271 68.1787 83.8205 68.2411 83.6871H69.0499C68.9299 84.1709 68.4898 84.5444 67.872 84.5444ZM67.379 83.029H68.3299C68.3299 82.7578 68.1163 82.6023 67.8634 82.6023C67.6142 82.6018 67.4232 82.753 67.379 83.029Z" fill="#F1F2FF"/>
</g>
<g id="Group_4">
<path id="Vector_57" d="M61.1189 31.8726C61.1189 30.2305 62.1139 29.3401 64.2139 29.3401C66.2035 29.3401 67.235 30.2305 67.235 31.789V32.0396H65.3189V31.6916C65.3189 30.9956 64.9138 30.7316 64.2691 30.7316C63.5506 30.7316 63.1454 30.9961 63.1454 31.9282V33.7095C63.4954 33.1527 64.1218 32.8465 65.0246 32.8465C66.517 32.8465 67.272 33.6394 67.272 35.0727V36.854C67.272 38.4126 66.1853 39.303 64.1957 39.303C62.2061 39.303 61.1194 38.4126 61.1194 36.854V31.8726H61.1189ZM63.1454 35.1985V36.9519C63.1454 37.6479 63.5506 37.898 64.1952 37.898C64.8403 37.898 65.2454 37.6474 65.2454 36.9519V35.1985C65.2454 34.5025 64.8403 34.2385 64.1952 34.2385C63.551 34.238 63.1454 34.5025 63.1454 35.1985Z" fill="#D3D9EF"/>
<path id="Vector_58" d="M75.5511 31.789C75.5511 30.2305 76.6378 29.3401 78.6274 29.3401C80.617 29.3401 81.7037 30.2305 81.7037 31.789V36.8545C81.7037 38.413 80.6165 39.3034 78.6274 39.3034C76.6383 39.3034 75.5511 38.413 75.5511 36.8545V31.789ZM77.5776 36.9519C77.5776 37.6479 77.9827 37.9119 78.6279 37.9119C79.2725 37.9119 79.6776 37.6474 79.6776 36.9519V31.6916C79.6776 30.9956 79.2725 30.7316 78.6279 30.7316C77.9827 30.7316 77.5776 30.9961 77.5776 31.6916V36.9519Z" fill="#D3D9EF"/>
<path id="Vector_59" d="M93.1531 30.7316C92.508 30.7316 92.1029 30.9961 92.1029 31.6916V32.7351H90.1872V31.789C90.1872 30.2305 91.2187 29.3401 93.2083 29.3401C95.1979 29.3401 96.2294 30.2305 96.2294 31.789C96.2294 34.8505 92.195 35.9914 92.195 37.5918C92.195 37.6614 92.195 37.731 92.2138 37.8006H96.0456V39.1921H90.1872V37.9954C90.1872 35.1289 94.2029 34.6556 94.2029 31.8447C94.2034 30.9682 93.7978 30.7316 93.1531 30.7316Z" fill="#D3D9EF"/>
<path id="Vector_60" d="M110.606 36.771C110.606 38.4131 109.611 39.3035 107.511 39.3035C105.522 39.3035 104.49 38.4131 104.49 36.8545V36.6039H106.406V36.9519C106.406 37.6479 106.812 37.9119 107.456 37.9119C108.175 37.9119 108.58 37.6475 108.58 36.7153V34.934C108.23 35.4908 107.604 35.7971 106.701 35.7971C105.208 35.7971 104.453 35.0041 104.453 33.5708V31.7895C104.453 30.231 105.54 29.3406 107.53 29.3406C109.519 29.3406 110.606 30.231 110.606 31.7895V36.771H110.606ZM108.579 33.4451V31.6916C108.579 30.9956 108.174 30.7455 107.53 30.7455C106.884 30.7455 106.479 30.9961 106.479 31.6916V33.4451C106.479 34.1411 106.884 34.4051 107.53 34.4051C108.174 34.4051 108.579 34.1411 108.579 33.4451Z" fill="#D3D9EF"/>
<path id="Vector_61" d="M68.3136 42.3682H60.4085V42.8774H68.3136V42.3682Z" fill="#D3D9EF"/>
<path id="Vector_62" d="M82.5802 42.3682H74.675V42.8774H82.5802V42.3682Z" fill="#D3D9EF"/>
<path id="Vector_63" d="M96.8467 42.3682H88.9416V42.8774H96.8467V42.3682Z" fill="#D3D9EF"/>
<path id="Vector_64" d="M111.113 42.3682H103.208V42.8774H111.113V42.3682Z" fill="#D3D9EF"/>
</g>
<g id="Group_5">
<path id="Vector_65" d="M60.8342 13.7794C60.8342 14.2517 60.8126 14.7773 60.7699 15.3245C60.7483 15.7647 60.7056 16.2365 60.6413 16.7194C60.577 17.2344 60.5016 17.7495 60.3946 18.2861C59.3966 23.4581 56.7893 26.8056 52.8514 27.997C52.8086 28.0076 52.7654 28.0186 52.7011 28.0397L52.5725 28.0719L52.4438 28.0397C52.3795 28.0181 52.3363 28.0076 52.3042 27.997C48.3662 26.8167 45.7589 23.4581 44.761 18.2861C44.0208 14.4552 44.4178 11.0112 44.4283 10.8716L44.4926 10.3992L44.965 10.4098H45.1579C48.6024 10.4098 51.3494 8.09189 52.1112 7.38389L52.1328 7.36229C52.1328 7.36229 52.165 7.34069 52.2082 7.29797L52.573 6.92261L52.9483 7.28741C52.991 7.34117 53.0237 7.37333 53.0342 7.37333C53.8066 8.09237 56.5536 10.4098 59.9875 10.4098H60.1915L60.6638 10.3992L60.7176 10.8716C60.7267 10.9469 60.8664 12.0951 60.8342 13.7794Z" fill="#6F9DF7"/>
<path id="Vector_66" d="M53.3784 27.2582C53.1543 27.3451 52.9195 27.4267 52.6795 27.4977C52.6795 27.4977 52.6589 27.5078 52.5773 27.5284C52.5062 27.5078 52.4702 27.4977 52.4702 27.4977C43.3066 24.7646 44.9539 10.93 44.9539 10.93C48.6917 11.0265 51.6802 8.50266 52.4702 7.76298C52.4702 7.76298 52.511 7.72746 52.5773 7.66602C52.5773 7.66602 52.5773 7.6713 52.5826 7.6761C52.6387 7.7217 52.6795 7.7625 52.6795 7.7625C53.4749 8.5017 56.4634 11.026 60.2011 10.9295C60.2016 10.93 61.7621 24.0508 53.3784 27.2582Z" fill="#92C5EB"/>
<path id="Vector_67" opacity="0.2" d="M53.3784 27.2584C58.7837 23.0257 58.8806 13.5817 58.8806 13.5817C58.8806 13.5817 58.6613 13.9643 56.0405 12.1028C53.5162 10.3182 52.6445 7.86012 52.583 7.67676C52.6392 7.72236 52.68 7.76316 52.68 7.76316C53.4754 8.50236 56.4638 11.0267 60.2016 10.9302C60.2016 10.9302 61.7621 24.051 53.3784 27.2584Z" fill="#F1F2FF"/>
<path id="Vector_68" opacity="0.23" d="M60.8342 13.7793C60.8342 14.2516 60.8126 14.7772 60.7699 15.3244L53.3659 24.2303L48.1512 18.8654L47.5747 17.2771L53.3664 19.391L60.8342 13.7793Z" fill="#D3D9EF"/>
<path id="Vector_69" d="M47.5747 17.2771L50.1888 14.8492L52.7904 17.7998L62.7893 12.3086L52.7904 22.6353L47.5747 17.2771Z" fill="#3777BC"/>
</g>
<path id="Vector_70" d="M116.088 109.054C115.108 109.082 114.12 110.281 113.787 110.725C113.38 110.869 112.65 111.154 112.203 111.473C112.363 110.941 112.473 110.377 112.505 109.782C112.535 109.239 112.62 108.75 112.742 108.307C113.009 107.844 113.198 107.437 113.308 106.941C113.939 105.841 114.796 105.202 115.362 104.873C116.054 105.054 116.593 105.117 117.422 104.926C118.356 104.711 118.119 102.775 117.055 102.928C116.081 103.067 115.248 104.517 115.115 104.761C114.614 105.071 113.953 105.588 113.393 106.388C113.402 106.29 113.411 106.191 113.415 106.084C113.459 105.012 111.299 104.697 111.149 105.891C111.024 106.887 112.111 108.079 112.476 108.447C112.378 108.851 112.309 109.29 112.283 109.77C112.184 111.565 111.382 113.086 110.513 114.227C110.473 113.901 110.306 113.521 110.16 113.221C110.318 112.368 110.357 111.747 110.052 110.79C109.727 109.768 107.589 110.209 107.856 111.383C108.077 112.353 109.479 113.095 109.961 113.325C110.138 113.689 110.363 114.203 110.286 114.491C110.283 114.499 110.287 114.507 110.286 114.514C109.259 115.776 108.217 116.501 108.197 116.515C108.146 116.549 108.132 116.619 108.168 116.67C108.173 116.678 108.179 116.685 108.186 116.691C108.223 116.724 108.28 116.729 108.323 116.699C108.355 116.677 110.956 114.872 112.045 111.949C112.047 111.945 112.051 111.942 112.053 111.937C112.179 111.628 113.105 111.208 113.823 110.95C114.636 111.274 115.242 111.436 116.244 111.322C117.31 111.202 117.291 109.018 116.088 109.054Z" fill="#D3D9EF"/>
<g id="Group_6">
<path id="Vector_71" d="M85.9277 122.413H66.5568C66.503 122.413 66.4598 122.37 66.4598 122.316V98.69C66.4598 98.6362 66.503 98.593 66.5568 98.593H85.9277C85.9814 98.593 86.0246 98.6362 86.0246 98.69V122.316C86.0246 122.369 85.9814 122.413 85.9277 122.413Z" fill="#D3D9EF"/>
<path id="Vector_72" d="M86.6607 123.742H67.2898C67.236 123.742 67.1928 123.698 67.1928 123.645V100.019C67.1928 99.9648 67.236 99.9216 67.2898 99.9216H86.6607C86.7144 99.9216 86.7576 99.9648 86.7576 100.019V123.645C86.7576 123.698 86.7144 123.742 86.6607 123.742Z" fill="#F1F2FF"/>
<path id="Vector_73" d="M82.5178 106.331C81.3163 106.249 79.9781 106.006 79.0118 105.234C77.9136 104.357 77.6827 103.054 77.6194 101.72C77.591 101.119 77.5973 100.521 77.6112 99.9216H68.6583C67.849 99.9216 67.1928 100.578 67.1928 101.387V122.276C67.1928 123.085 67.849 123.742 68.6583 123.742H85.2917C86.101 123.742 86.7576 123.085 86.7576 122.276V106.142C85.357 106.311 83.9285 106.427 82.5178 106.331Z" fill="#D3D9EF"/>
<path id="Vector_74" d="M84.961 119.936H68.7898V121.234H84.961V119.936Z" fill="#D3D9EF"/>
<path id="Vector_75" d="M71.4225 107.498C71.4225 105.191 72.8208 103.94 75.7723 103.94C78.5678 103.94 80.0179 105.191 80.0179 107.381V107.733H77.3251V107.244C77.3251 106.266 76.7558 105.895 75.8496 105.895C74.8397 105.895 74.2709 106.266 74.2709 107.576V110.079C74.7629 109.297 75.6427 108.867 76.9113 108.867C79.0085 108.867 80.0697 109.981 80.0697 111.996V114.499C80.0697 116.689 78.5419 117.941 75.7464 117.941C72.9509 117.941 71.423 116.689 71.423 114.499V107.498H71.4225ZM74.2704 112.172V114.635C74.2704 115.613 74.8397 115.965 75.7459 115.965C76.6521 115.965 77.2214 115.613 77.2214 114.635V112.172C77.2214 111.194 76.6521 110.822 75.7459 110.822C74.8397 110.822 74.2704 111.194 74.2704 112.172Z" fill="#D3D9EF"/>
<path id="Vector_76" opacity="0.5" d="M67.1928 110.503V122.045C67.1928 122.981 67.9526 123.741 68.8896 123.741H85.0608C85.9978 123.741 86.7576 122.981 86.7576 122.045V110.503H67.1928Z" fill="#E1E6F4"/>
<path id="Vector_77" d="M76.8322 105.348C76.8322 105.348 86.9011 87.2771 82.4338 88.0792C60.4565 92.0262 63.0077 105.348 63.0077 105.348H60.7478C60.3729 105.348 60.0691 105.651 60.0691 106.026V125.904C60.0691 126.279 60.3729 126.583 60.7478 126.583H76.8322C77.207 126.583 77.5109 126.279 77.5109 125.904V106.026C77.5109 105.651 77.207 105.348 76.8322 105.348Z" fill="#D3D9EF"/>
<path id="Vector_78" d="M78.0936 107.193H62.0093C61.6344 107.193 61.3306 107.496 61.3306 107.871V127.749C61.3306 128.124 61.6344 128.428 62.0093 128.428H78.0936C78.4685 128.428 78.7723 128.124 78.7723 127.749V107.871C78.7723 107.497 78.4685 107.193 78.0936 107.193Z" fill="#D3D9EF"/>
<path id="Vector_79" d="M79.3286 129.613H62.0808C62.027 129.613 61.9838 129.569 61.9838 129.516V108.474C61.9838 108.421 62.027 108.377 62.0808 108.377H79.3286C79.3824 108.377 79.4256 108.421 79.4256 108.474V129.516C79.4256 129.569 79.3824 129.613 79.3286 129.613Z" fill="#EFF7FF"/>
<path id="Vector_80" d="M77.8238 126.22H63.4075V127.377H77.8238V126.22Z" fill="#D3D9EF"/>
<path id="Vector_81" d="M73.3709 112.099V113.772L69.6321 124.301H67.0939L70.8091 113.842H65.7552V112.098H73.3709V112.099Z" fill="#D3D9EF"/>
<path id="Vector_82" opacity="0.5" d="M61.9838 117.81V128.1C61.9838 128.935 62.6611 129.613 63.4968 129.613H77.9131C78.7488 129.613 79.4261 128.935 79.4261 128.1V117.81H61.9838Z" fill="#E1E6F4"/>
<g id="Group_7">
<path id="Vector_83" d="M106.868 122.068H86.9405C86.8867 122.068 86.8435 122.025 86.8435 121.971V97.6675C86.8435 97.6138 86.8867 97.5706 86.9405 97.5706H106.868C106.922 97.5706 106.965 97.6138 106.965 97.6675V121.971C106.965 122.025 106.921 122.068 106.868 122.068Z" fill="#D3D9EF"/>
<path id="Vector_84" d="M107.622 123.435H87.6941C87.6403 123.435 87.5971 123.392 87.5971 123.338V99.034C87.5971 98.9802 87.6403 98.937 87.6941 98.937H107.622C107.676 98.937 107.719 98.9802 107.719 99.034V123.338C107.719 123.392 107.676 123.435 107.622 123.435Z" fill="#EFF7FF"/>
<path id="Vector_85" d="M100.032 103.092C99.3341 103.088 98.2339 102.882 97.5533 103.137C96.8769 103.39 96.5866 104.363 96.2179 104.916C94.8595 106.956 92.5387 106.987 90.2966 107.178C89.3981 107.254 88.4976 107.303 87.5971 107.341V121.928C87.5971 122.76 88.272 123.435 89.1043 123.435H106.211C107.043 123.435 107.718 122.76 107.718 121.928V102.963C105.165 103.193 102.596 103.106 100.032 103.092Z" fill="#D3D9EF"/>
<path id="Vector_86" d="M105.871 119.521H89.2397V120.855H105.871V119.521Z" fill="#D3D9EF"/>
<path id="Vector_87" d="M93.3869 106.609C93.3869 104.357 94.9575 103.07 97.8327 103.07C100.708 103.07 102.279 104.357 102.279 106.609V113.929C102.279 116.182 100.709 117.469 97.8327 117.469C94.9575 117.469 93.3869 116.182 93.3869 113.929V106.609ZM96.3149 114.069C96.3149 115.075 96.901 115.457 97.8322 115.457C98.7643 115.457 99.3504 115.075 99.3504 114.069V106.468C99.3504 105.462 98.7643 105.08 97.8322 105.08C96.9005 105.08 96.3149 105.462 96.3149 106.468V114.069Z" fill="#D3D9EF"/>
<path id="Vector_88" opacity="0.5" d="M87.5971 109.82V121.69C87.5971 122.654 88.3786 123.435 89.3424 123.435H105.973C106.937 123.435 107.719 122.654 107.719 121.69V109.82H87.5971Z" fill="#E1E6F4"/>
</g>
<g id="Group_8">
<path id="Vector_89" d="M97.932 129.055H77.616C77.5622 129.055 77.519 129.012 77.519 128.958V104.182C77.519 104.128 77.5622 104.085 77.616 104.085H97.932C97.9857 104.085 98.0289 104.128 98.0289 104.182V128.958C98.0289 129.011 97.9857 129.055 97.932 129.055Z" fill="#D3D9EF"/>
<path id="Vector_90" d="M98.7005 130.448H78.3845C78.3307 130.448 78.2875 130.405 78.2875 130.351V105.575C78.2875 105.521 78.3307 105.478 78.3845 105.478H98.7005C98.7542 105.478 98.7974 105.521 98.7974 105.575V130.351C98.7974 130.404 98.7542 130.448 98.7005 130.448Z" fill="#EFF7FF"/>
<path id="Vector_91" d="M96.9139 126.458H79.9618V127.818H96.9139V126.458Z" fill="#D3D9EF"/>
<path id="Vector_92" d="M88.7208 124.366C85.7083 124.366 84.0533 123.054 84.0533 120.758V119.631C84.0533 118.257 84.5957 117.191 85.8984 116.638C84.6494 116.125 84.0533 115.162 84.0533 113.747V113.296C84.0533 111.001 85.7083 109.689 88.7208 109.689C91.7333 109.689 93.3883 111.001 93.3883 113.296V113.747C93.3883 115.162 92.7643 116.125 91.5432 116.638C92.8464 117.191 93.3883 118.257 93.3883 119.631V120.758C93.3883 123.054 91.7333 124.366 88.7208 124.366ZM87.0384 114.178C87.0384 115.326 87.744 115.695 88.7208 115.695C89.6707 115.695 90.4032 115.326 90.4032 114.178V113.378C90.4032 112.087 89.6707 111.738 88.7208 111.738C87.7709 111.738 87.0384 112.087 87.0384 113.378V114.178ZM88.7208 122.316C89.6707 122.316 90.3758 121.967 90.4032 120.696V119.364C90.4032 118.237 89.7792 117.745 88.7208 117.745C87.6624 117.745 87.0384 118.237 87.0384 119.364V120.696C87.0384 121.967 87.7709 122.316 88.7208 122.316Z" fill="#D3D9EF"/>
<path id="Vector_93" opacity="0.5" d="M78.2875 116.57V128.669C78.2875 129.652 79.0838 130.448 80.0664 130.448H97.0185C98.0011 130.448 98.7974 129.652 98.7974 128.669V116.57H78.2875Z" fill="#E1E6F4"/>
</g>
<g id="Group_9">
<path id="Vector_94" d="M114.116 129.112H98.4585C98.4048 129.112 98.3616 129.069 98.3616 129.015V109.91C98.3616 109.857 98.4048 109.813 98.4585 109.813H114.116C114.17 109.813 114.213 109.857 114.213 109.91V129.015C114.213 129.069 114.17 129.112 114.116 129.112Z" fill="#D3D9EF"/>
<path id="Vector_95" d="M114.71 130.189H99.0523C98.9986 130.189 98.9554 130.146 98.9554 130.092V110.987C98.9554 110.933 98.9986 110.89 99.0523 110.89H114.71C114.764 110.89 114.807 110.933 114.807 110.987V130.092C114.807 130.146 114.764 130.189 114.71 130.189Z" fill="#EFF7FF"/>
<path id="Vector_96" d="M113.351 127.105H100.249V128.157H113.351V127.105Z" fill="#D3D9EF"/>
<path id="Vector_97" d="M101.984 121.765L106.178 114.272H108.696V121.765H109.787V123.35H108.696V125.362H106.43V123.35H101.984V121.765ZM106.43 121.765V117.599L104.102 121.765H106.43Z" fill="#D3D9EF"/>
<path id="Vector_98" opacity="0.5" d="M98.9554 119.463V128.814C98.9554 129.574 99.5707 130.189 100.33 130.189H113.432C114.192 130.189 114.807 129.574 114.807 128.814V119.463H98.9554Z" fill="#E1E6F4"/>
</g>
</g>
<g id="Group_10">
<path id="Vector_99" d="M65.5838 64.9883C65.5838 64.9883 64.6128 67.2851 68.208 69.9904C70.3426 78.7643 77.6232 87.0184 79.7664 87.3289C81.9096 87.639 84.6682 85.9321 84.6682 85.9321V81.4331C84.6682 81.4331 76.7717 78.9486 75.4123 77.1265C74.0534 75.3044 65.5838 64.9883 65.5838 64.9883Z" fill="#D3D9EF"/>
<path id="Vector_100" d="M86.5694 76.8725C86.5694 76.8725 87.204 83.3323 81.2913 85.1261C78.7229 85.9056 70.2139 75.8395 69.2553 70.0901C69.0542 68.8848 70.5067 68.7014 70.5067 68.7014L80.041 78.2328L81.3014 74.2176L86.5694 76.8725Z" fill="#F4CABA"/>
<path id="Vector_101" d="M66.649 67.3435C66.9418 67.8005 67.223 68.195 67.3982 68.3755C67.5331 68.5147 67.679 68.6333 67.8221 68.7327C67.9454 68.8176 68.0659 68.8886 68.1768 68.9467C68.4638 69.0994 68.6827 69.1632 68.6827 69.1632L70.6858 72.6495C71.4226 72.397 72.2448 71.7086 72.3787 71.5834C72.3787 71.5834 70.2494 68.5459 70.3416 67.8595C70.3411 67.8538 70.3426 67.8461 70.344 67.8408C70.3478 67.8322 70.3531 67.8226 70.3579 67.813C70.4227 67.668 70.4242 67.4223 70.3786 67.1539C70.345 66.9571 70.2864 66.7493 70.212 66.5607C70.0296 66.1003 70.7894 64.9776 70.525 64.8255C70.259 64.6738 69.6418 65.2061 69.601 65.6155C69.5597 66.024 69.1939 65.9822 68.9851 65.651L68.9194 65.5469C68.5027 64.8855 67.2034 62.845 66.839 63.0015C66.6014 63.1037 67.055 64.0042 67.44 64.6829C66.9394 63.8703 66.1795 62.7317 65.9918 62.965C65.8474 63.1445 66.4723 64.3872 66.828 65.0775C66.541 64.6267 65.94 63.7555 65.783 63.8496C65.4442 64.0536 65.9818 65.0102 66.3821 65.6314C66.1186 65.2781 65.7782 64.9013 65.5834 64.9877C65.3467 65.0947 66.0211 66.3662 66.649 67.3435Z" fill="#F4CABA"/>
<path id="Vector_102" opacity="0.1" d="M68.4701 68.9765C68.5406 69.0111 68.6136 69.0413 68.6937 69.0586C68.963 69.1147 69.252 69.0595 69.5011 68.9482C69.7526 68.8359 69.9907 68.6573 70.1054 68.4C70.1539 68.2939 70.1717 68.1816 70.188 68.0669C69.8779 68.4072 69.3811 68.5181 69.3811 68.5181C69.0897 68.7725 68.7878 68.9203 68.496 68.9539C68.4835 68.9698 68.4739 68.977 68.4701 68.9765Z" fill="#231F20"/>
<path id="Vector_103" opacity="0.2" d="M66.7723 67.2874C66.7498 67.4991 67.223 68.1951 67.3982 68.3756C67.5331 68.5148 67.679 68.6334 67.8221 68.7327C67.9454 68.8177 68.0659 68.8887 68.1768 68.9468C68.281 68.9665 68.388 68.9684 68.496 68.9545C68.7874 68.9209 69.0898 68.7735 69.3811 68.5186C69.3811 68.5186 69.8784 68.4078 70.188 68.0674C70.2494 68.0017 70.3032 67.9268 70.344 67.8414C70.3478 67.8327 70.3531 67.8231 70.3579 67.8135C70.4227 67.6686 70.4242 67.4228 70.3786 67.1545C70.345 66.9577 70.2864 66.7498 70.212 66.5612C70.0296 66.1009 70.7894 64.9782 70.525 64.826C70.259 64.6743 69.6418 65.2067 69.601 65.6161C69.5597 66.0246 69.2832 65.9449 68.9242 65.7884C68.6126 65.6526 68.1408 65.773 67.6022 66.1671C67.0301 66.5842 66.8592 67.0969 66.7723 67.2874Z" fill="white"/>
<path id="Vector_104" d="M67.044 66.6906C67.0401 66.6878 67.0353 66.6868 67.0325 66.6825L66.3955 65.6562L67.0833 66.6383C67.103 66.6124 67.1218 66.5855 67.1424 66.5601C67.2379 66.4444 67.3416 66.334 67.4577 66.2351C67.4573 66.2342 67.4563 66.2342 67.4558 66.2337L66.8827 65.1705L67.5091 66.1929C67.5187 66.1852 67.5278 66.177 67.5379 66.1694C67.6901 66.0618 67.8451 65.962 68.0093 65.8766C68.0405 65.8607 68.0717 65.8449 68.1029 65.83C68.1024 65.829 68.1005 65.829 68.1 65.8276L67.5269 64.7644L68.1576 65.7945C68.1581 65.795 68.1581 65.7954 68.1585 65.7959C68.16 65.7983 68.1585 65.8007 68.1595 65.8031C68.2766 65.7489 68.3966 65.7014 68.5209 65.6702C68.3515 65.7407 68.1902 65.8281 68.0333 65.9212C67.8773 66.0153 67.7217 66.1132 67.5773 66.2226C67.4323 66.3282 67.3051 66.4598 67.1827 66.5932C67.0603 66.7276 66.9446 66.8682 66.8313 67.0118C66.8937 66.8999 66.9667 66.7943 67.044 66.6906Z" fill="#E8AD80"/>
<path id="Vector_105" d="M87.4109 63.5529C87.4109 63.5529 86.9606 64.5432 88.069 67.5984C89.2181 70.7649 85.5864 81.0547 85.5864 81.0547C85.5864 81.0547 79.4842 77.4436 79.9963 75.2798C80.8229 71.7873 81.4478 63.4391 87.4109 63.5529Z" fill="#F0B529"/>
<path id="Vector_106" opacity="0.15" d="M79.9906 75.4853C80.4912 75.8611 81.1896 75.9787 81.7286 75.601C82.2398 75.2424 82.5235 74.5786 82.6397 73.9843C82.7818 73.2562 82.5595 72.5827 82.3939 71.8776C82.2067 71.0794 82.2715 70.2879 82.475 69.4992C82.6488 68.8253 82.9502 68.172 83.4739 67.6987C83.9986 67.2245 84.7378 66.9581 85.4448 67.0152C86.0587 67.0647 86.6179 67.3762 87.072 67.7779C87.5534 68.2032 87.9504 68.7144 88.2912 69.2645C88.2869 73.4007 85.5864 81.0552 85.5864 81.0552C85.5864 81.0552 79.8283 77.6472 79.9694 75.469C79.9771 75.4738 79.9834 75.48 79.9906 75.4853Z" fill="#202234"/>
<path id="Vector_107" d="M68.9818 129.792C68.9818 129.792 68.376 127.788 68.6539 127.633C68.9318 127.477 69.6019 127.384 69.7646 127.512C69.9274 127.639 69.9945 129.803 69.7493 130.098C69.5045 130.394 69.1622 130.321 68.9818 129.792Z" fill="#F4CABA"/>
<path id="Vector_108" opacity="0.2" d="M69.5357 129.311C69.3331 129.038 69.1464 128.754 68.9645 128.467C68.8767 128.328 68.7902 128.188 68.6933 128.055C68.6558 128.004 68.6184 127.953 68.5815 127.901C68.5872 128.486 68.9818 129.792 68.9818 129.792C69.1622 130.32 69.504 130.394 69.7498 130.099C69.7939 130.046 69.828 129.93 69.8535 129.778C69.7512 129.62 69.648 129.463 69.5357 129.311Z" fill="white"/>
<path id="Vector_109" d="M69 128.528C68.8752 128.511 68.7523 128.48 68.6275 128.459C68.6597 129.376 68.9674 129.812 68.9674 129.812C69.156 130.365 69.5136 130.441 69.7699 130.133C69.9197 129.952 69.9581 129.105 69.9298 128.404C69.673 128.571 69.2707 128.566 69 128.528Z" fill="#CED9EF"/>
<path id="Vector_110" d="M65.387 131.29L65.1782 131.335C65.1782 131.335 65.1144 131.598 65.2133 131.712C65.3122 131.826 66.2045 132.072 67.9147 131.945C69.625 131.819 70.3978 131.496 70.3469 131.193C70.295 130.891 66.155 131.968 65.387 131.29Z" fill="#432D29"/>
<path id="Vector_111" d="M70.3459 131.193C68.1134 132.047 64.6843 131.641 65.2286 131.25C65.3486 131.164 65.5608 131.086 65.819 131.008C66.7373 130.733 68.2411 130.476 68.2603 130.007C68.2848 129.405 68.5978 129.303 68.6712 129.321C68.6899 129.326 68.7413 129.344 68.8123 129.364C69.0197 129.423 69.3941 129.502 69.6149 129.335C69.9115 129.11 69.9557 129.084 70.0963 129.216C70.5101 129.601 70.5149 129.943 70.3459 131.193Z" fill="#4F3F3D"/>
<path id="Vector_112" d="M90.4848 130.359C90.4848 130.359 89.4691 128.393 89.7278 128.178C89.9866 127.963 90.6653 127.738 90.8592 127.838C91.0531 127.94 91.5398 130.176 91.3421 130.53C91.1438 130.884 90.7738 130.874 90.4848 130.359Z" fill="#F4CABA"/>
<path id="Vector_113" opacity="0.2" d="M90.9677 129.753C90.7046 129.508 90.456 129.248 90.2117 128.985C90.0931 128.858 89.977 128.73 89.8502 128.61C89.8013 128.564 89.7528 128.518 89.7043 128.471C89.8229 129.078 90.4848 130.36 90.4848 130.36C90.7738 130.874 91.1438 130.885 91.3416 130.53C91.3776 130.466 91.3906 130.34 91.3872 130.177C91.2514 130.032 91.1136 129.889 90.9677 129.753Z" fill="white"/>
<path id="Vector_114" d="M90.2602 129.042C90.1267 129.048 89.9933 129.039 89.8598 129.042C90.0701 129.989 90.6394 131.096 90.6394 131.096C90.9418 131.634 91.5792 131.434 91.7861 131.064C91.907 130.847 91.367 129.456 91.2029 128.733C90.9677 128.957 90.5491 129.029 90.2602 129.042Z" fill="#CED9EF"/>
<path id="Vector_115" d="M88.8922 132.951C88.8922 132.951 88.9373 133.264 89.2392 133.347C89.9885 133.551 92.1667 132.723 92.2353 132.493C92.3035 132.262 92.2109 132.007 92.2109 132.007L88.8922 132.951Z" fill="#432D29"/>
<path id="Vector_116" d="M90.239 130.21C90.239 130.21 91.5408 129.6 91.7045 129.977C91.8682 130.354 92.3467 131.972 92.1984 132.269C92.0501 132.566 90.575 132.652 90.575 132.652C90.575 132.652 89.365 132.235 89.9304 131.986C90.9547 131.534 89.7221 130.431 90.239 130.21Z" fill="#4F3F3D"/>
<path id="Vector_117" d="M88.9877 133.131C89.4216 133.356 90.7147 133.157 90.9144 132.791C91.1136 132.426 90.5774 131.348 89.4667 131.847C89.0083 132.054 88.6834 132.973 88.9877 133.131Z" fill="#4F3F3D"/>
<path id="Vector_118" opacity="0.2" d="M89.6933 131.864C89.5359 131.906 89.4159 131.971 89.3271 132.049C89.376 132.098 89.4274 132.144 89.4811 132.187C89.5843 132.092 89.7317 132.003 89.9304 131.986C90.3883 131.946 90.4037 131.96 90.4037 131.96C90.4037 131.96 90.0639 131.763 89.6933 131.864Z" fill="white"/>
<path id="Vector_119" opacity="0.2" d="M89.219 132.247C89.1994 132.303 89.2344 132.363 89.2934 132.372C89.3309 132.377 89.3674 132.36 89.3866 132.327C89.4024 132.301 89.4254 132.266 89.4552 132.227C89.4019 132.184 89.3506 132.138 89.3016 132.09C89.2661 132.14 89.2382 132.192 89.219 132.247Z" fill="white"/>
<path id="Vector_120" d="M86.2574 88.2664C85.7842 88.4588 68.4019 91.4656 65.0083 101.557C61.6147 111.648 68.3885 128.261 68.3885 128.261L70.0982 128.083L76.1928 103.069L100.633 93.89L86.2574 88.2664Z" fill="#065BAA"/>
<path id="Vector_121" opacity="0.2" d="M64.5115 113.935C63.8851 109.684 63.7838 105.197 65.0083 101.557C66.336 97.6076 69.8064 94.7439 73.5667 92.7092C73.8005 92.9905 73.6718 93.4945 73.5398 93.7864C73.0709 94.8212 72.132 95.644 71.2987 96.386C70.0239 97.5212 68.9318 98.9507 67.9954 100.371C66.9336 101.982 66.06 103.747 65.5661 105.618C65.3333 106.5 65.1878 107.409 65.1571 108.321C65.1278 109.194 65.2215 110.067 65.2186 110.941C65.2157 111.736 65.0731 113.141 64.5115 113.935Z" fill="#F2FAFF"/>
<path id="Vector_122" opacity="0.3" d="M68.8819 127.931C69.4018 127.175 69.624 126.163 69.7382 125.27C69.8832 124.135 69.887 122.976 69.9581 121.835C70.0354 120.596 69.9466 119.355 70.0805 118.118C70.2101 116.92 70.513 115.749 70.7803 114.576C71.0352 113.457 71.2834 112.311 71.3011 111.159C71.3174 110.111 71.1322 109.073 70.9493 108.045C70.7664 107.016 70.5902 105.979 70.6416 104.93C70.6939 103.873 71.015 102.87 71.4984 101.935C72.3907 100.208 73.7563 98.7672 75.2405 97.5331C76.7765 96.2558 78.4714 95.1441 80.255 94.247C81.3058 93.7185 82.3834 93.2467 83.4734 92.806C84.5112 92.3865 85.5744 92.0251 86.5728 91.5153C87.6638 90.959 88.6829 90.2822 89.7091 89.616L100.633 93.8889L76.1928 103.068L70.0982 128.082L68.5982 128.238C68.7014 128.155 68.7974 128.054 68.8819 127.931Z" fill="#202234"/>
<path id="Vector_123" d="M86.3371 105.096L91.5845 128.51L89.6558 128.953C89.6558 128.953 72.9274 109.27 74.0899 103.741C74.988 99.4709 81.4666 90.5175 85.9738 90.1455C90.481 89.7735 103.6 91.1909 103.6 91.1909C103.6 91.1909 105.576 98.87 99.4963 101.205C93.4171 103.54 86.3371 105.096 86.3371 105.096Z" fill="#065BAA"/>
<path id="Vector_124" opacity="0.2" d="M74.0904 103.741C74.5819 101.403 76.7486 97.6617 79.3473 94.6929C79.4016 94.7044 79.4563 94.7193 79.5125 94.7418C79.8177 94.8666 79.7875 95.2305 79.7294 95.5007C79.5216 96.4674 78.9077 97.366 78.3667 98.1757C77.7 99.1737 76.8984 100.064 76.2072 101.042C75.2462 102.403 74.8834 103.95 75.2669 105.586C75.6734 107.32 76.7558 108.838 77.7984 110.248C78.2837 110.904 78.8266 111.59 78.9926 112.409C79.1208 113.042 78.949 113.698 78.4526 114.068C75.7085 109.828 73.657 105.802 74.0904 103.741Z" fill="#F2FAFF"/>
<path id="Vector_125" opacity="0.3" d="M90.6941 128.715C90.6955 128.711 90.6979 128.707 90.6994 128.702C90.8741 128.164 90.8962 127.582 90.8232 127.025C90.7378 126.374 90.4704 125.787 90.2698 125.166C89.7629 123.599 89.4173 122.002 88.669 120.522C87.9859 119.172 87.1752 117.9 86.7206 116.446C86.2166 114.832 86.0587 113.136 85.6032 111.51C85.4376 110.919 85.212 110.375 84.828 109.892C84.468 109.438 84.0158 109.075 83.5603 108.722C82.6661 108.03 81.131 106.764 81.9346 105.48C82.4371 104.676 83.651 104.552 84.4944 104.397C85.5274 104.207 86.5176 103.95 87.1925 103.077C87.4963 102.684 87.7114 102.225 88.0411 101.852C88.4352 101.407 89.0078 101.123 89.5584 100.92C90.8357 100.451 92.219 100.377 93.5621 100.26C95.735 100.068 98.2363 99.6557 99.5784 97.715C100.062 97.0157 100.186 96.1286 99.6691 95.4101C99.1181 94.644 98.173 94.2288 97.2941 93.9614C95.748 93.491 94.1189 93.3153 92.5358 93.0101C91.0008 92.7144 89.3184 92.3798 88.0219 91.452C87.5438 91.1102 87.143 90.6509 86.939 90.0965C92.1058 89.9501 103.6 91.1918 103.6 91.1918C103.6 91.1918 105.576 98.8709 99.4963 101.206C93.4166 103.541 86.3366 105.096 86.3366 105.096L91.584 128.511L90.6941 128.715Z" fill="#202234"/>
<path id="Vector_126" d="M83.6294 65.1327C82.4184 66.9366 82.5298 88.1838 85.9742 90.146C89.4187 92.1083 99.4939 92.7515 103.305 94.1238C107.115 95.4956 108.117 78.4388 101.217 69.3366C94.3171 60.2343 85.1054 62.9334 83.6294 65.1327Z" fill="#DDA21F"/>
<path id="Vector_127" opacity="0.15" d="M85.0008 88.31C85.6934 88.6369 86.3736 89.005 87.0302 89.3991C87.6686 89.7821 88.2912 90.1964 88.9675 90.5113C90.3509 91.1545 91.8797 91.2447 93.3835 91.2922C94.9843 91.3426 96.6034 91.3186 98.173 91.6844C98.8176 91.8346 99.4334 92.0804 100.082 92.2138C100.648 92.3305 101.233 92.3967 101.812 92.3602C102.383 92.3242 102.968 92.1913 103.452 91.8749C103.891 91.5884 104.19 91.1631 104.414 90.6965C104.839 89.8119 105.04 88.5322 105.986 88.0287C106.077 87.9802 106.166 87.9457 106.248 87.9375C106.031 91.9719 104.921 94.7045 103.305 94.1223C99.4939 92.7505 89.4187 92.1068 85.9742 90.1445C85.4693 89.857 85.0363 89.1524 84.6686 88.1578C84.7819 88.2087 84.8933 88.2596 85.0008 88.31Z" fill="#202234"/>
<path id="Vector_128" opacity="0.15" d="M84.8294 76.6647C85.0099 76.8015 85.2038 76.9205 85.4117 77.017C86.1653 77.3669 86.9971 77.5047 87.745 77.8681C88.5067 78.2381 89.1394 78.7781 89.8022 79.2946C91.2216 80.4005 92.6165 81.5429 94.1002 82.5629C96.2563 84.0457 98.7648 85.4516 101.46 85.4617C102.362 85.465 103.474 85.2543 103.832 84.302C104.015 83.8172 104.025 83.1313 103.627 82.7487C103.247 82.382 102.624 82.37 102.13 82.3407C101.009 82.2745 99.8842 82.393 98.7653 82.2716C97.7294 82.1593 96.6442 81.7791 96.3125 80.6876C96.0634 79.8687 96.0634 78.9663 95.9549 78.121C95.8978 77.677 95.8258 77.2354 95.711 76.8025C95.5934 76.358 95.4226 75.9308 95.3069 75.4858C95.0957 74.6737 95.004 73.8313 95.0285 72.9941C95.9669 73.3901 96.911 73.7756 97.8883 74.066C98.7442 74.3204 99.6542 74.546 100.541 74.6602C101.001 74.7197 101.433 74.6852 101.834 74.5349C101.885 74.6751 101.93 74.8162 101.988 74.9549C102.389 75.9212 102.986 76.7473 103.49 77.6559C104.035 78.6399 104.454 79.6901 104.774 80.7677C105.392 82.8428 104.787 85.1285 103.3 86.6861C102.548 87.4738 101.641 88.0172 100.579 88.2716C99.9826 88.4141 99.373 88.4746 98.7605 88.5001C97.4707 88.3609 96.205 88.0249 95.027 87.4757C93.155 86.6031 91.4818 85.3306 90.2539 83.6626C89.7523 82.981 89.4 82.2145 88.9474 81.5031C88.501 80.8018 87.9106 80.2532 87.1526 79.9023C86.4192 79.5625 85.6502 79.2865 85.1995 78.565C84.8453 77.9967 84.7882 77.3228 84.8294 76.6647Z" fill="#202234"/>
<path id="Vector_129" d="M87.8976 76.599L87.7747 76.4579C87.7747 76.4579 88.0022 76.3206 88.0406 76.3705C88.079 76.4209 87.8976 76.599 87.8976 76.599Z" fill="#E8AD80"/>
<path id="Vector_130" d="M87.5136 75.6691C87.5021 75.6259 87.3177 75.4891 87.3177 75.4891C87.3177 75.4891 87.5438 75.3255 87.6682 75.3523C87.7925 75.3792 87.5136 75.6691 87.5136 75.6691Z" fill="#E8AD80"/>
<path id="Vector_131" d="M86.9669 74.5306C86.9477 74.5056 86.819 74.4087 86.819 74.4087C86.819 74.4087 86.9745 74.2407 87.0456 74.2536C87.1161 74.2666 86.9669 74.5306 86.9669 74.5306Z" fill="#E8AD80"/>
<path id="Vector_132" d="M85.8859 74.4778L85.6954 74.3761C85.6954 74.3761 85.7914 74.2383 85.9138 74.2306C86.0357 74.223 85.8859 74.4778 85.8859 74.4778Z" fill="#E8AD80"/>
<path id="Vector_133" d="M85.5768 70.9278L83.0967 71.4423C82.8058 71.5028 82.6594 71.7985 82.7669 72.1023L84.9 78.1163C85.0003 78.3995 85.3133 78.5991 85.6003 78.5636L86.5527 78.4451C86.5949 78.4398 86.6366 78.4359 86.6736 78.4201C86.6813 78.4167 86.6894 78.4143 86.6986 78.4134L86.9074 78.3875C86.9165 78.3865 86.9256 78.3865 86.9347 78.3879C86.9794 78.3942 87.0206 78.3875 87.0634 78.3822L88.0464 78.2598C88.3507 78.2219 88.5197 77.9526 88.4213 77.6579L86.3299 71.3876C86.2239 71.0694 85.8859 70.8635 85.5768 70.9278Z" fill="#432D29"/>
<path id="Vector_134" opacity="0.15" d="M85.6354 71.1432L83.1821 71.6462C82.9906 71.6856 82.8936 71.8795 82.9647 72.0797L85.0848 78.0768C85.1506 78.2635 85.357 78.395 85.5456 78.371L87.9672 78.0638C88.1669 78.0384 88.2773 77.8612 88.2125 77.6678L86.1288 71.4446C86.0597 71.2368 85.8379 71.1019 85.6354 71.1432Z" fill="#4F3F3D"/>
<path id="Vector_135" opacity="0.5" d="M83.4687 71.8926C83.341 71.9291 83.2752 72.0663 83.3213 72.1993L83.6563 73.167C83.7014 73.298 83.8421 73.3811 83.9717 73.3518C84.1023 73.3225 84.1718 73.19 84.1258 73.0566L83.7874 72.0707C83.7408 71.9353 83.5978 71.8556 83.4687 71.8926Z" fill="#4F3F3D"/>
<g id="Group_11">
<path id="Vector_136" d="M83.4504 74.8079C83.7173 74.6361 84.8098 75.5303 84.8098 75.5303C84.8098 75.5303 83.2978 73.8316 83.6069 73.6631C83.916 73.4947 85.2648 74.9385 85.2648 74.9385C85.2648 74.9385 83.6683 73.0257 83.8594 72.6974C84.0499 72.3695 85.7314 74.495 85.7314 74.495C85.7314 74.495 84.5962 72.4291 84.8909 72.2443C85.1856 72.059 86.3242 74.1494 86.6525 74.5286C86.8656 74.7748 87.1714 74.7623 87.1536 74.4215C87.1358 74.0807 87.576 73.5667 87.8131 73.6579C88.0502 73.7491 87.5659 74.7667 87.7738 75.1209C87.9816 75.4751 88.1232 75.9436 88.0416 76.1553C88.0118 76.7035 90.5482 78.1363 90.5482 78.1363C90.4546 78.2567 89.9155 79.726 89.3429 80.0241L86.844 77.4499C86.844 77.4499 86.2142 77.362 85.691 76.9636C85.1688 76.5647 83.1835 74.9793 83.4504 74.8079Z" fill="#F4CABA"/>
<g id="Group_12" opacity="0.2">
<path id="Vector_137" d="M87.8285 73.7047C87.8779 73.7686 87.8376 73.9082 87.8198 73.9644C87.8198 73.9644 87.7027 73.9918 87.7037 73.9202C87.7046 73.8492 87.779 73.6414 87.8285 73.7047Z" fill="white"/>
<path id="Vector_138" d="M84.9125 72.272C84.9922 72.2476 85.1558 72.4535 85.1544 72.4832C85.1544 72.4832 84.9658 72.5836 84.9254 72.586C84.8861 72.5884 84.8333 72.2965 84.9125 72.272Z" fill="white"/>
<path id="Vector_139" d="M83.9146 72.7506C83.9847 72.7055 84.1983 72.8596 84.2045 72.8889C84.2045 72.8889 84.0495 73.0362 84.0115 73.0497C83.9741 73.0626 83.845 72.7958 83.9146 72.7506Z" fill="white"/>
<path id="Vector_140" d="M83.6592 73.7456C83.7269 73.6976 83.9472 73.8416 83.9553 73.8704C83.9553 73.8704 83.807 74.0249 83.7701 74.0393C83.7326 74.0542 83.5915 73.794 83.6592 73.7456Z" fill="white"/>
<path id="Vector_141" d="M83.4979 74.8521C83.5507 74.807 83.7442 74.9097 83.7528 74.9328C83.7528 74.9328 83.6419 75.072 83.6122 75.0873C83.5824 75.1027 83.4456 74.8977 83.4979 74.8521Z" fill="white"/>
</g>
</g>
<path id="Vector_142" d="M102.814 72.2915L97.5048 75.2277L98.304 80.6747L88.0406 76.3715L86.8445 77.4501C86.8445 77.4501 97.8528 90.9856 103.007 87.0318C108.16 83.0771 102.814 72.2915 102.814 72.2915Z" fill="#F4CABA"/>
<g id="Group_13">
<path id="Vector_143" d="M96.6782 65.4625C96.6782 65.4625 97.6406 65.282 100.082 67.4271C102.613 69.6505 104.372 73.7041 104.372 73.7041C104.372 73.7041 98.8205 77.9468 96.816 76.9839C94.8115 76.0215 91.3953 68.2316 96.6782 65.4625Z" fill="#F0B529"/>
</g>
<g id="Group_14" opacity="0.15">
<path id="Vector_144" opacity="0.5" d="M102.058 71.5378C101.574 70.9508 101.233 70.2606 100.857 69.6044C100.205 68.4654 99.4598 67.1958 98.3208 66.481C97.7837 66.1441 97.1376 65.9972 96.5294 66.2262C95.7264 66.5281 95.304 67.335 94.7438 67.9292C94.5672 68.1164 94.3747 68.2542 94.1726 68.3526C94.5566 67.1948 95.3352 66.1662 96.6778 65.4625C96.6778 65.4625 97.6402 65.282 100.082 67.4271C101.67 68.8225 102.954 70.9383 103.691 72.3207C103.084 72.6193 102.399 71.953 102.058 71.5378Z" fill="#133363" fill-opacity="0.05"/>
<path id="Vector_145" d="M94.1429 72.0045C94.6032 72.3789 95.077 72.5609 95.6443 72.7082C96.3091 72.881 96.8222 73.1128 97.115 73.769C97.3363 74.2648 97.4803 74.8073 97.8538 75.2191C98.1302 75.5239 98.5032 75.6549 98.903 75.7005C99.5323 75.7725 100.19 75.7423 100.822 75.7154C101.016 75.7073 101.208 75.6933 101.4 75.6737C99.7493 76.6274 97.8293 77.4717 96.816 76.9845C95.8118 76.5021 94.4534 74.3052 94.0118 71.885C94.056 71.9239 94.0968 71.9671 94.1429 72.0045Z" fill="#202234"/>
</g>
<g id="Group_15">
<path id="Vector_146" d="M87.5179 61.296L87.8419 65.1207C87.8419 65.1207 90.5323 65.497 91.3344 63.6787L90.0989 60.708L87.5179 61.296Z" fill="#F4CABA"/>
<path id="Vector_147" opacity="0.1" d="M90.2347 61.1572C90.2194 62.2583 87.8088 63.0801 88.1626 64.0036C88.3416 64.4716 88.8787 64.6809 89.3554 64.7515C89.6712 64.7985 89.9952 64.7908 90.3149 64.7471C89.2349 65.3155 87.8415 65.1206 87.8415 65.1206L87.5175 61.2959L90.2347 61.1572Z" fill="#513F3C"/>
<path id="Vector_148" d="M91.4141 54.7762C91.4141 54.7762 93.3307 56.4029 92.7806 58.9493C92.2305 61.4957 90.0225 61.9676 87.5688 61.9901C85.115 62.0127 84.3965 59.8575 84.2913 58.8001C84.1862 57.7426 83.0491 57.8357 83.5589 56.4797C84.0691 55.1237 84.611 53.8916 86.9515 53.7985C89.292 53.7053 91.4141 54.7762 91.4141 54.7762Z" fill="#432D29"/>
<path id="Vector_149" d="M84.6101 56.5263C84.6101 56.5263 84.0494 55.9282 83.6256 56.2273C83.2017 56.5263 83.7187 58.683 84.4699 58.2092C85.2206 57.7354 84.6101 56.5263 84.6101 56.5263Z" fill="#F4CABA"/>
<path id="Vector_150" d="M91.8005 55.271C91.8005 55.271 92.9193 61.1467 88.0128 61.8907C83.1067 62.6347 84.6225 54.6412 84.6225 54.6412C84.6225 54.6412 89.8891 54.1483 91.8005 55.271Z" fill="#F4CABA"/>
<path id="Vector_151" d="M91.9469 56.2162C91.9469 56.2162 87.6259 56.4821 86.3467 54.9543C86.3467 54.9543 86.0419 56.4356 84.4834 56.0712C82.9248 55.7064 83.5099 53.7399 84.6638 53.7744C84.6638 53.7744 85.7544 50.2426 88.3118 51.8271C90.8693 53.4116 92.2267 52.1568 92.3026 54.4407C92.3386 55.4991 93.5726 56.3597 91.9469 56.2162Z" fill="#432D29"/>
<path id="Vector_152" opacity="0.18" d="M84.324 56.8199C84.3005 56.8199 84.2779 56.8065 84.2678 56.7834C84.2664 56.7806 84.1401 56.5017 83.9457 56.457C83.8613 56.4378 83.7758 56.4657 83.6851 56.5415C83.6587 56.5636 83.6203 56.5598 83.5982 56.5338C83.5761 56.5079 83.5795 56.469 83.6059 56.447C83.7269 56.3452 83.8507 56.3078 83.9736 56.3366C84.2275 56.3956 84.3739 56.7191 84.3801 56.733C84.3941 56.7642 84.3801 56.8002 84.3489 56.8142C84.3408 56.8185 84.3321 56.8199 84.324 56.8199Z" fill="#432D29"/>
<path id="Vector_153" d="M91.199 55.7236C91.199 55.7236 92.1773 57.5227 90.9566 58.8062C89.736 60.0892 88.5216 58.2379 87.3653 58.3252C86.2089 58.4126 85.4947 59.7834 84.9979 58.9175C84.5011 58.0516 84.4017 57.2692 84.6235 55.6516C83.9035 55.5681 84.1022 57.8913 84.1022 57.8913C84.1022 57.8913 84.6513 59.5031 84.3245 60.5802C83.9976 61.6574 85.7937 64.8633 87.7646 63.6734C89.7355 62.4835 90.7238 63.4756 91.5629 61.4164C92.4019 59.3572 93.432 55.3732 91.199 55.7236Z" fill="#432D29"/>
<path id="Vector_154" d="M91.3166 56.2552C91.3166 56.2552 91.9267 55.6043 92.388 55.9297C92.8493 56.2552 92.2867 58.6019 91.4693 58.0864C90.6518 57.5709 91.3166 56.2552 91.3166 56.2552Z" fill="#F4CABA"/>
<path id="Vector_155" opacity="0.18" d="M91.5413 56.5744C91.5667 56.5744 91.5912 56.5595 91.6027 56.5345C91.6041 56.5316 91.7419 56.2283 91.9531 56.1793C92.0448 56.1587 92.1379 56.1884 92.2368 56.2715C92.2651 56.2955 92.3073 56.2916 92.3313 56.2633C92.3553 56.235 92.3515 56.1927 92.3232 56.1692C92.1912 56.0588 92.0568 56.018 91.9229 56.0492C91.6464 56.1131 91.4875 56.4654 91.4808 56.4803C91.4659 56.5139 91.4813 56.5537 91.5149 56.5686C91.523 56.5729 91.5321 56.5744 91.5413 56.5744Z" fill="#432D29"/>
<path id="Vector_156" d="M91.9627 56.3857C91.9627 56.3857 92.3501 57.3328 91.561 57.7417C91.561 57.7417 92.7375 57.2896 91.9627 56.3857Z" fill="#432D29"/>
<path id="Vector_157" d="M89.8387 56.6051C89.8387 56.6051 88.6353 56.7063 88.499 56.6051C88.3627 56.5038 88.7035 56.2047 89.2483 56.2667C89.7931 56.3291 89.9745 56.5825 89.8387 56.6051Z" fill="#432D29"/>
<path id="Vector_158" d="M88.8225 57.2708C88.8225 57.4656 88.9565 57.6231 89.1211 57.6231C89.2857 57.6231 89.4197 57.4656 89.4197 57.2708C89.4197 57.0759 89.2857 56.9175 89.1211 56.9175C89.075 56.9175 89.0313 56.9295 88.9925 56.953C89.051 56.9703 89.0942 57.0332 89.0942 57.108C89.0942 57.1959 89.0333 57.2684 88.9584 57.2684C88.9037 57.2684 88.8557 57.229 88.835 57.1733C88.8269 57.205 88.8225 57.2372 88.8225 57.2708Z" fill="#432D29"/>
<path id="Vector_159" d="M86.6664 56.6051C86.6664 56.6051 85.463 56.7063 85.3267 56.6051C85.1904 56.5038 85.5312 56.2047 86.076 56.2667C86.6208 56.3291 86.8022 56.5825 86.6664 56.6051Z" fill="#432D29"/>
<path id="Vector_160" d="M85.6502 57.2708C85.6502 57.4656 85.7842 57.6231 85.9488 57.6231C86.1134 57.6231 86.2474 57.4656 86.2474 57.2708C86.2474 57.0759 86.1134 56.9175 85.9488 56.9175C85.9027 56.9175 85.859 56.9295 85.8202 56.953C85.8787 56.9703 85.9219 57.0332 85.9219 57.108C85.9219 57.1959 85.861 57.2684 85.7861 57.2684C85.7314 57.2684 85.6834 57.229 85.6627 57.1733C85.6546 57.205 85.6502 57.2372 85.6502 57.2708Z" fill="#432D29"/>
<path id="Vector_161" d="M87.0936 58.8076C87.1248 58.8076 87.1555 58.7918 87.1723 58.7625C87.1978 58.7193 87.1834 58.6632 87.1402 58.6377C86.9362 58.5177 86.9021 58.4462 86.8992 58.414C86.8939 58.3478 87.0086 58.2537 87.1306 58.1544C87.2045 58.0939 87.288 58.0252 87.3667 57.946C87.7397 57.5712 87.6403 56.5632 87.636 56.5204C87.6307 56.4705 87.5861 56.4336 87.5362 56.4393C87.4862 56.4446 87.4498 56.4892 87.455 56.5392C87.4824 56.8065 87.4973 57.5572 87.2381 57.8174C87.1661 57.8899 87.0893 57.9528 87.0154 58.0132C86.8493 58.1496 86.7053 58.2672 86.7178 58.428C86.7274 58.5528 86.8291 58.666 87.048 58.7947C87.0619 58.8038 87.0778 58.8076 87.0936 58.8076Z" fill="#432D29"/>
<g id="Group_16">
<path id="Vector_162" d="M86.0611 60.5212C86.0381 60.525 86.016 60.5351 85.9977 60.5519C85.9464 60.5985 85.9425 60.6772 85.9886 60.7286C86.0011 60.742 86.2958 61.0626 86.7897 61.0698C87.2107 61.0766 87.6379 60.8572 88.0593 60.4185C88.1073 60.3686 88.1059 60.2894 88.056 60.2414C88.0061 60.1934 87.9269 60.1948 87.8789 60.2447C87.5073 60.6311 87.1416 60.8246 86.7936 60.8188C86.4072 60.813 86.1768 60.5625 86.1744 60.5596C86.1451 60.5279 86.1019 60.5145 86.0611 60.5212Z" fill="white"/>
</g>
</g>
</g>
<g id="Group_17">
<path id="Vector_163" d="M116.908 60.6456C116.733 62.726 116.565 64.7117 116.404 66.6072C116.35 67.2456 116.296 67.874 116.246 68.4927C116.236 68.617 116.115 68.7279 115.977 68.738C111.726 69.084 107.479 69.084 103.227 68.738C103.09 68.7279 102.969 68.617 102.959 68.4927C102.75 66.0394 102.532 63.4282 102.297 60.6461C102.29 60.5655 102.317 60.4916 102.367 60.4344C102.414 60.3874 102.475 60.3538 102.545 60.3471C105.298 60.0951 108.07 59.9943 110.839 60.038C112.781 60.0682 114.727 60.169 116.659 60.3471C116.726 60.3538 116.787 60.384 116.827 60.4277C116.837 60.4378 116.847 60.4479 116.854 60.458C116.854 60.4613 116.857 60.4613 116.857 60.4613C116.894 60.5112 116.915 60.5784 116.908 60.6456Z" fill="#EFF7FF"/>
<path id="Vector_164" opacity="0.25" d="M116.855 60.4587C116.855 60.4587 114.528 63.2216 111.263 64.1259C109.588 63.3555 108.276 63.9473 107.763 64.2598H107.757C106.016 63.8749 104.174 62.7526 102.365 60.4366C102.41 60.3862 102.471 60.3531 102.544 60.3473C107.227 59.9177 111.976 59.9177 116.659 60.3473C116.726 60.3531 116.787 60.3809 116.827 60.4256C116.844 60.4419 116.849 60.4534 116.855 60.4587Z" fill="#D3D9EF"/>
<path id="Vector_165" d="M116.86 60.4535C116.81 60.3921 116.737 60.3474 116.659 60.3474C116.737 60.3532 116.799 60.3978 116.849 60.4535V60.4593C115.872 61.4917 114.756 62.3793 113.522 63.0767C112.791 63.501 112.066 63.8077 111.362 64.0089C110.821 63.7521 110.252 63.5903 109.655 63.5735C109.007 63.5903 108.354 63.7909 107.724 64.1317C105.736 63.6738 103.934 62.3625 102.376 60.4367C102.393 60.4089 102.415 60.3921 102.444 60.3753C102.421 60.3863 102.393 60.4031 102.371 60.4309L102.365 60.4367C103.007 61.2796 103.722 62.1057 104.564 62.7585C105.474 63.5063 106.451 64.0089 107.467 64.2709C105.842 65.2141 104.352 66.9613 103.325 68.4628C104.475 67.0117 106.122 65.2089 107.835 64.3549C107.941 64.2993 108.041 64.2546 108.147 64.21C108.649 63.9921 109.152 63.8639 109.655 63.8529C110.09 63.8586 110.52 63.9532 110.938 64.1154C111.033 64.149 111.128 64.1879 111.223 64.2325C111.892 64.534 112.523 64.9751 113.109 65.4493C114.153 66.3143 115.113 67.3415 115.983 68.4633C115.174 67.2632 114.248 66.1804 113.209 65.2708C112.702 64.8354 112.16 64.4279 111.591 64.1265C112.277 63.9143 112.953 63.6076 113.606 63.2111C114.834 62.4801 115.939 61.5479 116.86 60.465L116.866 60.4593L116.86 60.4535Z" fill="#D3D9EF"/>
<path id="Vector_166" opacity="0.2" d="M116.908 60.6455C116.733 62.7258 116.565 64.7116 116.404 66.6071C116.138 66.6508 115.866 66.6743 115.591 66.6743C112.818 66.6743 110.57 64.426 110.57 61.654C110.57 61.0862 110.664 60.5452 110.839 60.0378C112.782 60.0681 114.727 60.1689 116.66 60.347C116.727 60.3537 116.787 60.3839 116.828 60.4276C116.838 60.4377 116.848 60.4478 116.855 60.4578C116.855 60.4612 116.858 60.4612 116.858 60.4612C116.894 60.5111 116.915 60.5783 116.908 60.6455Z" fill="#4F3F3D"/>
<path id="Vector_167" d="M118.442 64.5062C120.017 62.931 120.017 60.3772 118.442 58.8021C116.867 57.2269 114.313 57.227 112.738 58.8022C111.163 60.3774 111.163 62.9312 112.738 64.5063C114.313 66.0814 116.867 66.0814 118.442 64.5062Z" fill="#D3D9EF"/>
<path id="Vector_168" d="M118.11 64.1737C119.501 62.782 119.501 60.5257 118.11 59.1341C116.718 57.7425 114.462 57.7426 113.07 59.1342C111.678 60.5259 111.678 62.7822 113.07 64.1738C114.462 65.5654 116.718 65.5654 118.11 64.1737Z" fill="white"/>
<path id="Vector_169" d="M117.735 63.1842C117.735 63.2893 117.078 63.379 116.187 63.4054C116.16 63.6886 115.925 63.9109 115.635 63.9109C115.346 63.9109 115.11 63.6886 115.084 63.4054C114.192 63.379 113.536 63.2898 113.536 63.1842C113.536 63.175 113.541 63.1659 113.55 63.1563C113.978 62.7613 114.162 62.1651 114.26 61.591L114.329 61.1778C114.329 60.6118 114.683 60.1285 115.184 59.9389C115.243 59.9163 115.285 59.8611 115.285 59.7982V59.7454C115.285 59.5534 115.441 59.3965 115.634 59.3965C115.827 59.3965 115.985 59.5544 115.985 59.7478V59.7978C115.985 59.8611 116.028 59.9163 116.087 59.9384C116.094 59.9408 116.102 59.9437 116.109 59.9475C115.821 60.1333 115.63 60.4568 115.63 60.8254C115.63 61.4019 116.098 61.8694 116.674 61.8694C116.807 61.8694 116.933 61.8445 117.05 61.7998C117.156 62.3067 117.344 62.8093 117.72 63.1558C117.73 63.1654 117.735 63.1746 117.735 63.1842Z" fill="#D3D9EF"/>
<path id="Vector_170" d="M116.674 59.9326C116.181 59.9326 115.78 60.3329 115.78 60.8264C115.78 61.3198 116.181 61.7201 116.674 61.7201C117.168 61.7201 117.568 61.3198 117.568 60.8264C117.568 60.3329 117.168 59.9326 116.674 59.9326ZM117.02 61.2896L116.674 61.1067L116.327 61.2896L116.394 60.9037L116.113 60.6301L116.5 60.5734L116.674 60.2221L116.846 60.5734L117.235 60.6301L116.954 60.9037L117.02 61.2896Z" fill="#D3D9EF"/>
</g>
<path id="Vector_171" d="M128.093 52.6258C127.249 51.0298 125.68 49.8999 123.959 49.4165C123.524 49.2946 123.08 49.214 122.63 49.1703C122.494 49.1569 122.472 49.3685 122.609 49.3815C124.336 49.55 126.014 50.3242 127.162 51.6442C128.299 52.9517 128.806 54.7676 128.464 56.4725C128.255 57.5185 127.679 58.4905 126.829 59.0847C126.787 58.8548 126.728 58.6268 126.648 58.4031C126.424 57.7791 126.023 57.1954 125.446 56.8513C124.815 56.4749 123.904 56.3511 123.308 56.8589C122.182 57.8194 123.375 59.593 124.544 59.8388C125.27 59.9914 126.019 59.8133 126.669 59.4413C126.804 60.7129 126.383 62.0377 125.702 63.0989C124.125 65.557 121.255 66.8122 118.499 67.4055C118.365 67.4343 118.4 67.6436 118.534 67.6148C121.271 67.0258 124.098 65.8018 125.74 63.4249C126.551 62.2508 127.049 60.7532 126.865 59.3213C127.412 58.9637 127.873 58.4693 128.166 57.9279C129.046 56.3002 128.948 54.242 128.093 52.6258ZM125.338 59.6578C124.608 59.7442 124 59.5095 123.539 58.9373C123.081 58.369 122.815 57.4992 123.495 56.9804C124.066 56.5455 124.926 56.7356 125.471 57.121C125.958 57.4652 126.286 57.9927 126.475 58.5514C126.548 58.7674 126.6 58.9877 126.636 59.21C126.251 59.4418 125.817 59.6012 125.338 59.6578Z" fill="#D3D9EF"/>
</g>
<defs>
<radialGradient id="paint0_radial_360_1842" cx="0" cy="0" r="1" gradientUnits="userSpaceOnUse" gradientTransform="translate(8.94528 33.0136) scale(158.309 158.309)">
<stop stop-color="#F1F2FF"/>
<stop offset="0.01" stop-color="#798B9B"/>
<stop offset="0.24" stop-color="#66839E"/>
<stop offset="0.461" stop-color="#5680A7"/>
<stop offset="0.667" stop-color="#4177A9"/>
<stop offset="0.852" stop-color="#296CAA"/>
<stop offset="1" stop-color="#065BAA"/>
</radialGradient>
<linearGradient id="paint1_linear_360_1842" x1="58.0212" y1="24.6201" x2="58.0212" y2="85.5432" gradientUnits="userSpaceOnUse">
<stop stop-color="#CFE8FF"/>
<stop offset="1" stop-color="#CFE8FF" stop-opacity="0"/>
</linearGradient>
<linearGradient id="paint2_linear_360_1842" x1="58.1038" y1="35.7114" x2="58.1038" y2="123.037" gradientUnits="userSpaceOnUse">
<stop stop-color="#CFE8FF"/>
<stop offset="1" stop-color="#CFE8FF" stop-opacity="0"/>
</linearGradient>
</defs>
</svg>
