<svg width="24" height="24" viewBox="0 0 24 24" fill="none" xmlns="http://www.w3.org/2000/svg">
<path d="M20.71 5.86433C20.8963 6.05169 21.0008 6.30515 21.0008 6.56933C21.0008 6.83352 20.8963 7.08697 20.71 7.27433L12.85 15.1343C12.7566 15.227 12.6458 15.3003 12.5239 15.3501C12.4021 15.3999 12.2716 15.4251 12.14 15.4243H12C11.8534 15.4093 11.712 15.3621 11.5858 15.286C11.4596 15.2099 11.3518 15.1069 11.27 14.9843L8.13001 10.2743C8.04827 10.1657 7.98955 10.0414 7.95745 9.90929C7.92535 9.77714 7.92054 9.63983 7.94331 9.50576C7.96609 9.37169 8.01597 9.24367 8.08991 9.12954C8.16385 9.0154 8.26029 8.91755 8.37333 8.84196C8.48638 8.76636 8.61366 8.71462 8.74738 8.6899C8.88111 8.66518 9.01847 8.66799 9.15107 8.69816C9.28368 8.72834 9.40873 8.78524 9.51859 8.86539C9.62845 8.94555 9.72081 9.04727 9.79001 9.16433L12.26 12.8643L19.26 5.86433C19.3534 5.76599 19.4659 5.68769 19.5905 5.63418C19.7152 5.58067 19.8494 5.55308 19.985 5.55308C20.1206 5.55308 20.2549 5.58067 20.3795 5.63418C20.5041 5.68769 20.6166 5.76599 20.71 5.86433ZM20 10.8643C19.7348 10.8643 19.4804 10.9697 19.2929 11.1572C19.1054 11.3448 19 11.5991 19 11.8643V12.0043C18.9941 13.5516 18.4757 15.0532 17.5258 16.2746C16.576 17.496 15.2482 18.3683 13.7501 18.7551C12.252 19.142 10.6679 19.0215 9.2455 18.4127C7.82308 17.8038 6.64246 16.7408 5.88818 15.3899C5.13391 14.0389 4.84847 12.4762 5.0765 10.9458C5.30453 9.41544 6.03316 8.00375 7.14852 6.93139C8.26388 5.85902 9.7031 5.18641 11.2412 5.01868C12.7794 4.85095 14.3297 5.19756 15.65 6.00433C15.7623 6.09281 15.8923 6.15619 16.0311 6.19018C16.17 6.22418 16.3145 6.22801 16.455 6.20141C16.5954 6.17481 16.7286 6.11841 16.8454 6.036C16.9622 5.95359 17.06 5.84709 17.1322 5.72368C17.2043 5.60027 17.2492 5.46283 17.2637 5.32061C17.2783 5.17839 17.2622 5.03471 17.2165 4.89925C17.1708 4.76379 17.0966 4.6397 16.9989 4.53535C16.9011 4.431 16.7822 4.34881 16.65 4.29433C14.9475 3.26695 12.9527 2.83233 10.9771 3.05833C9.00149 3.28434 7.15637 4.15826 5.72987 5.5436C4.30338 6.92893 3.37583 8.74769 3.0921 10.7158C2.80837 12.684 3.18443 14.6906 4.16154 16.4225C5.13865 18.1543 6.66181 19.5138 8.49312 20.2887C10.3244 21.0635 12.3608 21.21 14.2842 20.7053C16.2075 20.2007 17.9096 19.0732 19.1246 17.4991C20.3396 15.925 20.9991 13.9928 21 12.0043V11.8743C21 11.6091 20.8947 11.3548 20.7071 11.1672C20.5196 10.9797 20.2652 10.8743 20 10.8743V10.8643Z" fill="#78B948"/>
</svg>
