<svg width="343" height="255" viewBox="0 0 343 255" fill="none" xmlns="http://www.w3.org/2000/svg">
<path d="M200.649 46.1853C240.12 52.926 265.006 19.969 304.356 41.3028C387.275 86.2899 323.579 200.949 237.161 229.313C150.869 257.631 -28.5104 194.355 3.86019 70.8034C40.9865 -70.8819 184.247 43.3875 200.649 46.1853Z" fill="url(#paint0_linear_165_1252)"/>
<path d="M137.808 30H233.193C234.612 30 236.017 30.2569 237.328 30.7561C238.64 31.2552 239.831 31.9868 240.835 32.9091C241.838 33.8314 242.634 34.9264 243.177 36.1314C243.72 37.3365 244 38.628 244 39.9324V218.068C244 220.702 242.861 223.228 240.835 225.091C238.808 226.954 236.059 228 233.193 228H137.808C134.941 228 132.192 226.954 130.165 225.091C128.139 223.228 127 220.702 127 218.068V39.9325C127 37.2982 128.139 34.7718 130.165 32.9092C132.192 31.0465 134.941 30 137.808 30Z" fill="url(#paint1_linear_165_1252)"/>
<path d="M238.89 42.5566H132.135V209.253H238.89V42.5566Z" fill="white"/>
<path d="M174.878 38H196.147" stroke="#131147" stroke-width="1.21715" stroke-linecap="round" stroke-linejoin="round"/>
<path d="M179.585 218.428C179.585 217.256 179.932 216.11 180.584 215.135C181.235 214.16 182.161 213.4 183.244 212.951C184.328 212.502 185.52 212.385 186.67 212.614C187.82 212.842 188.876 213.407 189.705 214.236C190.534 215.065 191.099 216.122 191.328 217.272C191.556 218.422 191.439 219.614 190.99 220.697C190.541 221.78 189.781 222.706 188.807 223.357C187.832 224.009 186.685 224.356 185.513 224.356C183.941 224.356 182.433 223.732 181.321 222.62C180.209 221.508 179.585 220 179.585 218.428Z" stroke="#807DFB" stroke-width="0.912861" stroke-linecap="round" stroke-linejoin="round"/>
<path d="M143.292 77.5352V68.1294H152.524" fill="#10498A"/>
<path d="M143.292 77.5352V68.1294H152.524" stroke="#DDE2F8" stroke-width="1.21715" stroke-linejoin="round"/>
<path d="M227.734 77.5352V68.1294H218.503" fill="#10498A"/>
<path d="M227.734 77.5352V68.1294H218.503" stroke="#DDE2F8" stroke-width="1.21715" stroke-linejoin="round"/>
<path d="M143.292 143.166V152.572H152.524" fill="#10498A"/>
<path d="M143.292 143.166V152.572H152.524" stroke="#DDE2F8" stroke-width="1.21715" stroke-linejoin="round"/>
<path d="M227.734 143.166V152.572H218.503" fill="#10498A"/>
<path d="M227.734 143.166V152.572H218.503" stroke="#DDE2F8" stroke-width="1.21715" stroke-linejoin="round"/>
<path d="M174.516 77.3608H152.523V99.3541H174.516V77.3608ZM171.767 96.6049H155.272V80.11H171.767V96.6049ZM169.018 82.8591H158.022V93.8558H169.018V82.8591ZM218.503 77.3608H196.51V99.3541H218.503L218.503 77.3608ZM215.754 96.6049H199.259V80.11H215.754V96.6049ZM213.005 82.8591H202.008V93.8558H213.005V82.8591ZM152.523 143.34H174.516V121.347H152.523V143.34ZM155.272 124.096H171.767V140.591H155.272V124.096ZM158.022 137.842H169.018V126.846H158.022V137.842ZM174.516 107.601V102.103H171.767V107.601H174.516ZM180.015 107.601H182.764V104.852H180.015V102.103H177.266V104.852H180.015V107.601ZM169.018 102.102H166.269V107.601H163.52V104.852H160.771V107.602H163.52V110.35H169.018V102.102ZM163.52 110.35H160.771V113.099H158.022V115.849H155.272V118.598H158.022V118.597H163.52V118.598H166.269V115.849H163.52V110.35ZM158.022 107.602H155.272V104.852H152.523V110.351H158.022V107.602ZM188.262 91.1066H185.513V88.3575H188.262V85.6083H180.015V88.3575H182.764V99.3541H188.262V91.1066ZM177.266 91.1066H180.015L180.015 88.3575H177.266V91.1066ZM180.015 93.8558H177.266V96.6049H180.015V93.8558ZM182.764 99.3541H180.015V102.103H182.764V99.3541ZM210.255 135.093V132.344H207.506V135.093H210.255ZM213.005 129.595V126.846H210.255V129.595H213.005ZM215.754 124.096H213.005V126.845H215.754V124.096ZM213.005 132.344V137.842H215.754V132.344H213.005ZM215.754 140.591H218.503V137.842H215.754V140.591ZM199.258 140.591H202.007V137.842H199.258V140.591ZM199.258 135.093V132.344H199.259V129.595H193.76V132.344H196.509V135.093H199.258ZM191.011 137.842H188.262V140.591H191.011V143.34H193.76V135.093H191.011V137.842ZM185.513 135.093V137.842H182.764V140.591H185.513V137.842H188.262V135.093H185.513ZM185.513 135.093V129.595H182.764V129.594H180.015V129.595H177.266V132.344H180.015V137.841H177.266V140.59H180.015V137.842H182.764V135.093H185.513ZM177.266 126.846H180.015V124.096H177.266V126.846ZM180.015 121.347V124.096H182.764V121.347H180.015ZM180.015 113.098V113.1H180.014V110.351H177.265V113.1H177.266V115.849H171.767V113.1H166.269L166.269 115.849L169.018 115.849V118.598H180.015V115.847H182.764V113.098H180.015ZM191.011 115.848V110.35H188.262V104.852H191.011V107.602H196.51V104.852H193.76V102.103H188.262V102.103H185.513V115.847H182.764V121.346H185.513V115.847L191.011 115.848ZM185.513 121.346V124.095H188.262V121.346L185.513 121.346ZM185.513 126.846V124.096H182.764V126.846H185.513ZM191.011 124.095H188.262V132.342H191.011V126.846H193.76V124.096H191.011V124.095ZM191.011 118.598V121.347H193.76V118.598H191.011ZM196.51 115.849H193.76V118.598H196.51V115.849ZM174.516 110.351H171.767V113.1L174.516 113.1V110.351ZM207.506 113.1H199.259V110.351H193.76V113.1H196.51L196.51 115.849L207.506 115.849V113.1ZM199.259 102.103H196.51V104.852H199.259V102.103ZM204.757 107.602H199.259V110.351H204.757V107.602ZM204.758 104.852V107.602H207.507V104.852L204.758 104.852ZM204.757 104.852V102.103H202.008V104.852H204.757ZM207.506 102.103V104.852H210.255V102.103H207.506ZM207.507 107.602V110.351H210.256V107.602H207.507ZM215.754 115.849V113.1H213.005V121.347H218.503V115.849H215.754ZM207.506 121.347V124.096H207.506V121.347H204.757V124.096H204.756V118.598H199.258V121.347H193.76V124.096H199.259V121.347H202.007V124.096H199.259V126.846H202.008V137.842H204.757V140.591H207.506L207.506 135.093H204.757V132.344H207.506L207.506 129.595H204.757V126.846H210.255V121.347H207.506ZM215.753 110.351V104.852H213.005V104.852L210.255 104.852V107.601H213.004V110.351L210.256 110.351V113.1H213.005V110.351L215.753 110.351ZM218.503 107.6V104.851H215.754V107.6H218.503ZM191.011 82.8592V80.11H188.262V82.8592H191.011ZM193.76 77.3609H191.011V80.11H193.76V77.3609ZM193.76 88.3575V82.8592L191.011 82.8592V88.3575L193.76 88.3575ZM180.015 80.11H188.262V77.3609H177.266V82.8592H180.015V80.11Z" fill="#10498A"/>
<path d="M132.185 246.29V244.457H137.193C137.231 245.589 137.425 246.71 137.768 247.789C136.465 248.289 134.56 246.998 132.185 246.29Z" fill="#F7D3C9"/>
<path d="M132.185 246.29C134.56 246.998 136.466 248.289 137.768 247.789C138.458 248.289 148.615 251.943 149.649 252.651C150.706 253.375 150.552 254.498 149.432 254.498C147.794 254.498 134.307 253.904 134.307 253.904C134.033 254.201 133.812 254.498 133.812 254.498H130.73C129.81 252.904 130.059 248.123 132.185 246.29Z" fill="#10498A"/>
<path d="M99.4639 246.29V244.457H104.472C104.51 245.589 104.704 246.71 105.047 247.789C103.744 248.289 101.839 246.998 99.4639 246.29Z" fill="#F7D3C9"/>
<path d="M99.4638 246.29C101.839 246.998 103.744 248.289 105.047 247.789C105.736 248.289 115.894 251.943 116.927 252.651C117.985 253.375 117.83 254.498 116.71 254.498C115.073 254.498 101.586 253.904 101.586 253.904C101.312 254.201 101.09 254.498 101.09 254.498H98.0084C97.089 252.904 97.3381 248.123 99.4638 246.29Z" fill="#10498A"/>
<path d="M105.896 90.0229C98.1163 104.475 96.3769 112.96 96.4457 120.024C96.5262 128.306 103.023 144.973 103.023 144.973C103.299 136.957 102.321 103.301 105.896 90.0229Z" fill="#DDA21F"/>
<path d="M135.434 140.983C135.02 133.125 135.226 113.677 135.115 110.279C134.917 104.248 137.815 94.878 134.379 91.0627C132.034 88.4586 129.518 86.4708 125.669 86.1613C120.056 85.7098 105.261 82.9824 103.487 96.0775C101.779 108.678 101.433 136.609 102.677 140.983H135.434Z" fill="#E0B137"/>
<path d="M102.677 140.984C100.189 150.126 98.1163 233.385 98.1163 244.457H105.891C107.02 237.817 115.776 183.737 117.641 171.082C115.154 158.634 102.677 140.984 102.677 140.984Z" fill="#10498A"/>
<path d="M135.434 140.984C136.678 150.955 138.543 228.41 138.543 244.457H130.361C129.255 234.06 118.892 184.014 111.921 171.082C106.938 161.838 101.162 155.475 102.677 140.984H135.434Z" fill="#3E6B9F"/>
<path d="M113.848 75.6263C114.219 77.3904 114.84 83.906 113.494 85.9755C114.654 86.7103 118.735 87.2675 124.737 86.0767C123.718 85.0164 122.147 83.8526 123.153 81.7306C124.249 79.4207 126.673 82.195 128.086 78.4416C129.737 74.0645 129.638 65.7166 127.452 63.5744C125.006 61.1759 120.294 58.3908 114.588 62.4268C109.932 65.719 113.096 72.0412 113.848 75.6263Z" fill="#F8D8D0"/>
<path d="M125.378 70.1246C126.742 70.0292 126.24 67.592 126.24 66.272C126.24 65.3391 127.156 64.6797 128.196 64.6953C132.069 64.7532 134.038 59.5819 131.41 57.7106C128.779 55.8397 126.789 58.8946 124.909 58.4398C122.718 57.9094 122.873 55.2764 119.729 55.8184C116.826 56.3179 118.384 58.9273 116.566 59.5678C114.692 60.2282 111.66 57.9258 109.574 61.1274C108.027 63.503 111 65.5138 110.933 68.0169C110.891 69.5796 109.347 76.1022 113.668 77.3062C118.105 78.5422 121.85 74.5992 121.482 70.2342C121.332 68.4652 121.804 67.1285 122.686 67.1623C124 67.2127 123.428 70.264 125.378 70.1246Z" fill="#20196F"/>
<path d="M157.105 100.225L152.523 97.722C152.523 97.722 147.252 104.349 143.461 110.84C141.809 105.397 139.434 100.141 137.862 96.7518C134.424 89.3402 131.31 88.1992 128.585 89.1285C125.963 90.0225 127.096 97.2941 127.898 100.964C129.307 107.405 134.618 117.498 137.015 121.704C139.138 125.431 143.36 128.773 144.828 125.105C148.666 119.368 157.105 100.225 157.105 100.225Z" fill="#F0B529"/>
<path d="M152.944 97.9521C153.527 96.7333 153.735 93.3945 154.558 91.5924C155.877 88.7064 161.182 85.3846 162.193 85.8415C163.112 86.2568 158.677 88.8584 158.4 89.8043C159.23 90.4273 162.172 92.8728 161.065 94.534C159.957 96.1951 159.196 97.3557 158.125 97.8717C157.254 98.2915 156.593 99.9458 156.593 99.9458L152.944 97.9521Z" fill="#F7D3C9"/>
<g style="mix-blend-mode:screen">
<path d="M273.157 69.8577C266.787 68.7257 259.684 71.7153 257.326 76.5207C255.584 80.0716 256.918 83.6325 260.3 85.709L276.404 70.8646C275.37 70.3886 274.279 70.0501 273.157 69.8577Z" fill="#4C4C4C"/>
</g>
<g style="mix-blend-mode:screen">
<path d="M80.918 148.605C78.5393 146.4 75.6289 145.061 72.8092 145.159C67.4166 145.347 64.3832 150.694 66.0488 157.074C66.6389 159.282 67.6866 161.341 69.1237 163.119L80.918 148.605Z" fill="#4C4C4C"/>
</g>
<path d="M193.995 169.943H177.031C175.331 169.943 173.952 171.322 173.952 173.023V189.987C173.952 191.687 175.331 193.066 177.031 193.066H193.995C195.696 193.066 197.075 191.687 197.075 189.987V173.023C197.075 171.322 195.696 169.943 193.995 169.943Z" fill="#E0B137"/>
<path d="M179.771 181.68L183.971 185.879L191.255 178.595" stroke="white" stroke-width="1.21715" stroke-linecap="round" stroke-linejoin="round"/>
<defs>
<linearGradient id="paint0_linear_165_1252" x1="0" y1="107.786" x2="343.404" y2="107.786" gradientUnits="userSpaceOnUse">
<stop stop-color="#B1CCFC"/>
<stop offset="1" stop-color="#FFEDBD"/>
</linearGradient>
<linearGradient id="paint1_linear_165_1252" x1="265.437" y1="202.464" x2="119.031" y2="43.1588" gradientUnits="userSpaceOnUse">
<stop stop-color="#10498A" stop-opacity="0.8"/>
<stop offset="1" stop-color="#10498A" stop-opacity="0.5"/>
</linearGradient>
</defs>
</svg>
