<svg width="343" height="266" viewBox="0 0 343 266" fill="none" xmlns="http://www.w3.org/2000/svg">
<path d="M200.649 46.1853C240.12 52.926 265.006 19.969 304.356 41.3028C387.275 86.2899 323.579 200.949 237.161 229.313C150.869 257.631 -28.5104 194.355 3.86019 70.8034C40.9865 -70.8819 184.247 43.3875 200.649 46.1853Z" fill="url(#paint0_linear_177_82)"/>
<path d="M190.239 24.4968C190.36 24.4968 190.459 24.4036 190.465 24.2803C190.471 24.1571 190.375 24.0519 190.248 24.0459C189.797 24.0248 189.347 24.0068 188.899 23.9918C188.778 23.9888 188.67 24.0849 188.664 24.2082C188.658 24.3314 188.757 24.4366 188.881 24.4426C189.329 24.4577 189.779 24.4757 190.227 24.4968C190.233 24.4968 190.236 24.4968 190.239 24.4968Z" fill="#3A67B3"/>
<path d="M196.846 24.8303L189.695 25.2662L191.845 21.6411L196.846 24.8303Z" fill="#10498A"/>
<path d="M180.933 23.658L195.277 17L193.233 20.3185L180.933 23.658Z" fill="#3A67B3"/>
<path d="M180.942 23.67L192.512 23.174L196.846 24.8303L193.233 20.2673L180.942 23.67Z" fill="#10498A"/>
<path d="M190.254 26.4084L180.942 23.6701L192.485 23.144L190.254 26.4084Z" fill="#3A67B3"/>
<path d="M100.322 191.497C100.427 191.497 100.523 191.422 100.544 191.314C100.568 191.19 100.487 191.073 100.364 191.052C100.358 191.052 99.8768 190.962 99.0502 190.776C98.93 190.748 98.8097 190.824 98.7827 190.947C98.7556 191.067 98.8308 191.187 98.954 191.214C99.7896 191.401 100.28 191.491 100.283 191.494C100.292 191.497 100.307 191.497 100.322 191.497Z" fill="#3A67B3"/>
<path d="M96.3121 190.571C95.4374 190.34 94.5566 190.093 93.691 189.832C93.5707 189.796 93.5046 189.669 93.5407 189.552C93.5767 189.432 93.703 189.366 93.8202 189.402C94.6799 189.66 95.5576 189.907 96.4263 190.138C96.5465 190.171 96.6187 190.295 96.5856 190.415C96.5585 190.517 96.4684 190.583 96.3692 190.583C96.3481 190.577 96.3301 190.577 96.3121 190.571ZM91.0999 189.002C90.2312 188.707 89.3685 188.395 88.5389 188.076C88.4216 188.031 88.3645 187.902 88.4096 187.785C88.4547 187.667 88.584 187.61 88.7012 187.655C89.5248 187.971 90.3815 188.281 91.2442 188.575C91.3614 188.614 91.4245 188.743 91.3854 188.861C91.3524 188.954 91.2652 189.014 91.172 189.014C91.148 189.014 91.1239 189.011 91.0999 189.002ZM86.017 187.048C85.1663 186.678 84.3367 186.294 83.5461 185.906C83.4349 185.852 83.3898 185.717 83.4439 185.605C83.498 185.494 83.6333 185.449 83.7445 185.503C84.526 185.891 85.3527 186.273 86.1943 186.636C86.3085 186.684 86.3596 186.82 86.3115 186.931C86.2755 187.015 86.1913 187.066 86.1041 187.066C86.0771 187.069 86.047 187.063 86.017 187.048ZM81.1384 184.631C80.3268 184.169 79.5453 183.688 78.8149 183.204C78.7127 183.135 78.6826 182.996 78.7517 182.891C78.8209 182.789 78.9622 182.759 79.0644 182.828C79.7828 183.309 80.5553 183.784 81.3608 184.241C81.4691 184.301 81.5081 184.439 81.445 184.547C81.4029 184.619 81.3278 184.662 81.2496 184.662C81.2106 184.659 81.1745 184.649 81.1384 184.631ZM76.6086 181.593C75.8721 181.003 75.1868 180.39 74.5676 179.774C74.4804 179.687 74.4804 179.543 74.5676 179.455C74.6547 179.368 74.799 179.368 74.8862 179.455C75.4934 180.06 76.1667 180.661 76.8911 181.241C76.9873 181.319 77.0023 181.46 76.9272 181.556C76.8821 181.611 76.816 181.641 76.7498 181.641C76.7017 181.641 76.6506 181.626 76.6086 181.593ZM72.764 177.715C72.1959 176.964 71.7 176.185 71.2942 175.397C71.2371 175.286 71.2791 175.151 71.3904 175.094C71.5016 175.037 71.6368 175.079 71.6939 175.19C72.0877 175.954 72.5687 176.711 73.1217 177.441C73.1969 177.541 73.1758 177.682 73.0767 177.757C73.0346 177.787 72.9895 177.802 72.9414 177.802C72.8753 177.805 72.8091 177.772 72.764 177.715ZM70.2812 172.845C70.0317 171.965 69.8754 171.054 69.8183 170.137C69.8093 170.014 69.9055 169.906 70.0287 169.897C70.1549 169.888 70.2601 169.984 70.2692 170.107C70.3263 170.991 70.4766 171.869 70.717 172.719C70.7501 172.839 70.681 172.963 70.5607 172.996C70.5397 173.002 70.5187 173.005 70.5006 173.005C70.3984 173.011 70.3082 172.945 70.2812 172.845ZM72.6438 169.828C72.5206 169.806 72.4394 169.689 72.4635 169.566C72.4845 169.443 72.6017 169.362 72.725 169.386C73.6057 169.545 74.4924 169.566 75.3491 169.446C75.4723 169.431 75.5866 169.515 75.6046 169.638C75.6226 169.761 75.5355 169.876 75.4122 169.894C75.0245 169.948 74.6307 169.975 74.2339 169.975C73.7079 169.972 73.1728 169.924 72.6438 169.828ZM77.7568 168.971C77.7027 168.86 77.7508 168.724 77.862 168.67C78.7427 168.249 79.4461 167.732 79.9511 167.134C80.0322 167.038 80.1735 167.026 80.2697 167.107C80.3659 167.188 80.3779 167.33 80.2968 167.426C79.7497 168.075 78.9952 168.631 78.0574 169.079C78.0273 169.094 77.9943 169.1 77.9612 169.1C77.874 169.1 77.7959 169.052 77.7568 168.971ZM70.0227 168.953C69.2201 168.559 68.4416 168.057 67.7082 167.456C67.612 167.378 67.5969 167.236 67.6781 167.14C67.7563 167.044 67.8975 167.029 67.9937 167.11C68.7001 167.687 69.4486 168.171 70.2211 168.55C70.3323 168.604 70.3804 168.739 70.3233 168.851C70.2842 168.932 70.203 168.977 70.1219 168.977C70.0888 168.977 70.0527 168.971 70.0227 168.953ZM70.1129 167.645C69.9896 167.627 69.9024 167.516 69.9205 167.393C70.0407 166.518 70.2421 165.616 70.5247 164.715C70.5607 164.597 70.687 164.528 70.8072 164.567C70.9275 164.603 70.9936 164.73 70.9545 164.85C70.681 165.728 70.4826 166.602 70.3684 167.453C70.3533 167.567 70.2571 167.648 70.1459 167.648C70.1339 167.645 70.1219 167.645 70.1129 167.645ZM65.7694 165.508C65.1983 164.811 64.6812 164.047 64.2274 163.236C64.1672 163.127 64.2063 162.989 64.3145 162.929C64.4227 162.869 64.561 162.908 64.6211 163.016C65.063 163.804 65.565 164.546 66.1181 165.223C66.1962 165.319 66.1842 165.46 66.088 165.538C66.0459 165.571 65.9948 165.589 65.9467 165.589C65.8776 165.589 65.8145 165.562 65.7694 165.508ZM81.0993 165.036C80.9761 165.03 80.8799 164.925 80.8829 164.802C80.8859 164.745 80.8859 164.691 80.8859 164.633C80.8859 163.87 80.6605 163.073 80.2367 162.337C80.1735 162.229 80.2126 162.09 80.3208 162.03C80.429 161.967 80.5673 162.006 80.6274 162.111C81.0933 162.917 81.3368 163.792 81.3368 164.633C81.3368 164.697 81.3368 164.757 81.3338 164.82C81.3278 164.94 81.2286 165.036 81.1084 165.036C81.1053 165.036 81.1023 165.036 81.0993 165.036ZM71.6669 162.481C71.5587 162.421 71.5196 162.283 71.5827 162.175C72.0967 161.27 72.7039 160.557 73.3893 160.058C73.4885 159.986 73.6297 160.007 73.7049 160.107C73.777 160.206 73.756 160.347 73.6568 160.422C73.0225 160.885 72.4574 161.549 71.9765 162.397C71.9344 162.469 71.8593 162.511 71.7811 162.511C71.739 162.508 71.703 162.499 71.6669 162.481ZM63.0881 160.741C62.7815 159.89 62.535 159.003 62.3577 158.099C62.3337 157.975 62.4118 157.858 62.535 157.834C62.6553 157.81 62.7755 157.888 62.7996 158.011C62.9739 158.892 63.2144 159.761 63.512 160.587C63.554 160.705 63.4939 160.834 63.3767 160.876C63.3526 160.885 63.3256 160.888 63.3015 160.888C63.2084 160.888 63.1212 160.831 63.0881 160.741ZM78.4692 160.452C77.7057 159.947 76.8701 159.668 76.0495 159.65C75.9262 159.647 75.827 159.544 75.83 159.418C75.833 159.295 75.9382 159.199 76.0615 159.199C76.9663 159.22 77.883 159.523 78.7187 160.076C78.8209 160.146 78.8509 160.284 78.7818 160.389C78.7397 160.455 78.6676 160.488 78.5954 160.488C78.5504 160.491 78.5083 160.479 78.4692 160.452ZM62.0241 155.378C62.009 155.051 62 154.72 62 154.386C62 153.809 62.024 153.223 62.0751 152.64C62.0872 152.517 62.1984 152.424 62.3186 152.436C62.4419 152.448 62.5351 152.556 62.523 152.679C62.4749 153.247 62.4479 153.824 62.4479 154.386C62.4479 154.711 62.4569 155.036 62.4719 155.354C62.4779 155.477 62.3818 155.583 62.2585 155.592C62.2555 155.592 62.2495 155.592 62.2465 155.592C62.1293 155.592 62.0301 155.499 62.0241 155.378ZM62.6553 150.202C62.5351 150.175 62.4569 150.055 62.484 149.935C62.6733 149.06 62.9198 148.173 63.2174 147.302C63.2565 147.184 63.3857 147.121 63.5029 147.16C63.6202 147.199 63.6833 147.329 63.6442 147.446C63.3526 148.302 63.1092 149.171 62.9258 150.031C62.9018 150.136 62.8086 150.208 62.7064 150.208C62.6883 150.208 62.6733 150.208 62.6553 150.202ZM64.3446 145.065C64.2304 145.014 64.1823 144.879 64.2364 144.768C64.6121 143.959 65.0389 143.144 65.5049 142.351C65.568 142.243 65.7063 142.207 65.8115 142.27C65.9197 142.333 65.9557 142.471 65.8926 142.579C65.4327 143.364 65.0149 144.163 64.6452 144.96C64.6061 145.041 64.5249 145.089 64.4408 145.089C64.4077 145.086 64.3746 145.08 64.3446 145.065ZM67.0348 140.37C66.9326 140.298 66.9086 140.157 66.9807 140.057C67.4917 139.333 68.0508 138.603 68.637 137.893C68.7151 137.797 68.8594 137.785 68.9526 137.863C69.0488 137.941 69.0608 138.085 68.9827 138.179C68.4025 138.879 67.8524 139.6 67.3444 140.316C67.2994 140.379 67.2302 140.412 67.1611 140.412C67.119 140.412 67.0739 140.397 67.0348 140.37ZM70.4645 136.186C70.3774 136.096 70.3804 135.954 70.4706 135.867C71.0958 135.266 71.7992 134.677 72.5627 134.121C72.6618 134.049 72.8031 134.07 72.8783 134.169C72.9504 134.268 72.9294 134.409 72.8302 134.484C72.0847 135.029 71.3964 135.603 70.7862 136.192C70.7411 136.234 70.687 136.255 70.6299 136.255C70.5668 136.255 70.5066 136.234 70.4645 136.186ZM74.766 132.948C74.7028 132.84 74.7419 132.702 74.8471 132.642C75.5986 132.209 76.4132 131.785 77.2638 131.382C77.3751 131.328 77.5103 131.376 77.5644 131.491C77.6185 131.602 77.5704 131.737 77.4562 131.791C76.6146 132.188 75.815 132.606 75.0726 133.033C75.0365 133.054 74.9974 133.063 74.9613 133.063C74.8832 133.06 74.808 133.021 74.766 132.948ZM79.6415 130.595C79.5964 130.481 79.6535 130.348 79.7677 130.303C80.5793 129.982 81.439 129.669 82.3257 129.371C82.443 129.332 82.5722 129.396 82.6113 129.513C82.6504 129.63 82.5872 129.759 82.47 129.798C81.5923 130.093 80.7386 130.405 79.9331 130.721C79.906 130.733 79.8789 130.736 79.8489 130.736C79.7617 130.736 79.6745 130.682 79.6415 130.595ZM84.7695 128.839C84.7364 128.719 84.8026 128.596 84.9228 128.56C85.7645 128.316 86.6482 128.076 87.5499 127.85C87.6702 127.82 87.7934 127.893 87.8235 128.013C87.8535 128.133 87.7814 128.256 87.6612 128.286C86.7654 128.512 85.8877 128.749 85.0491 128.993C85.028 128.999 85.007 129.002 84.9859 129.002C84.8897 129.002 84.7996 128.939 84.7695 128.839ZM90.0238 127.493C89.9967 127.373 90.0719 127.252 90.1951 127.225C91.0548 127.036 91.9506 126.847 92.8553 126.669C92.9786 126.645 93.0958 126.723 93.1198 126.847C93.1439 126.97 93.0657 127.087 92.9425 127.111C92.0407 127.288 91.148 127.475 90.2913 127.664C90.2763 127.667 90.2582 127.67 90.2432 127.67C90.141 127.667 90.0478 127.598 90.0238 127.493ZM95.3472 126.435C95.3261 126.311 95.4073 126.194 95.5305 126.173C96.3962 126.023 97.298 125.873 98.2118 125.731C98.335 125.713 98.4492 125.797 98.4703 125.918C98.4883 126.041 98.4042 126.155 98.2839 126.176C97.3731 126.317 96.4744 126.468 95.6117 126.618C95.5997 126.621 95.5846 126.621 95.5726 126.621C95.4614 126.621 95.3652 126.543 95.3472 126.435ZM100.707 125.587C100.689 125.464 100.776 125.35 100.899 125.332C101.786 125.208 102.685 125.088 103.592 124.974C103.719 124.959 103.83 125.046 103.845 125.169C103.86 125.292 103.773 125.407 103.649 125.422C102.745 125.536 101.849 125.656 100.962 125.779C100.95 125.779 100.941 125.782 100.932 125.782C100.818 125.779 100.722 125.698 100.707 125.587ZM106.087 124.896C106.072 124.772 106.162 124.661 106.286 124.646C107.178 124.544 108.077 124.445 108.985 124.352C109.108 124.34 109.219 124.43 109.231 124.553C109.243 124.676 109.153 124.788 109.03 124.8C108.122 124.893 107.226 124.992 106.334 125.094C106.325 125.094 106.316 125.094 106.307 125.094C106.198 125.097 106.102 125.013 106.087 124.896ZM111.486 124.328C111.474 124.204 111.564 124.093 111.687 124.081C112.583 123.997 113.485 123.913 114.389 123.835C114.513 123.826 114.621 123.916 114.633 124.039C114.645 124.162 114.552 124.273 114.428 124.283C113.521 124.361 112.622 124.445 111.729 124.529C111.723 124.529 111.714 124.529 111.708 124.529C111.594 124.532 111.495 124.445 111.486 124.328ZM116.89 123.85C116.881 123.726 116.971 123.618 117.098 123.606C117.993 123.534 118.898 123.465 119.803 123.396C119.926 123.384 120.034 123.48 120.043 123.603C120.052 123.726 119.959 123.835 119.836 123.844C118.931 123.913 118.03 123.982 117.134 124.054C117.128 124.054 117.122 124.054 117.116 124.054C116.999 124.057 116.899 123.97 116.89 123.85ZM176.13 94.7047C176.121 94.5815 176.214 94.4733 176.34 94.4642C177.239 94.4011 178.141 94.341 179.049 94.2809C179.175 94.2719 179.28 94.368 179.289 94.4913C179.298 94.6145 179.202 94.7227 179.079 94.7318C178.174 94.7919 177.272 94.852 176.374 94.9151C176.368 94.9151 176.362 94.9151 176.359 94.9151C176.238 94.9121 176.139 94.8219 176.13 94.7047ZM181.544 94.347C181.535 94.2238 181.631 94.1156 181.754 94.1095C182.653 94.0524 183.558 93.9983 184.462 93.9442C184.586 93.9352 184.694 94.0314 184.7 94.1546C184.706 94.2779 184.613 94.3861 184.489 94.3921C183.585 94.4462 182.683 94.5003 181.781 94.5574C181.775 94.5574 181.772 94.5574 181.766 94.5574C181.652 94.5574 181.553 94.4642 181.544 94.347ZM186.96 94.0224C186.954 93.8991 187.047 93.7909 187.174 93.7849C188.072 93.7338 188.974 93.6827 189.876 93.6316C190.005 93.6256 190.107 93.7188 190.113 93.845C190.119 93.9683 190.026 94.0765 189.9 94.0825C188.998 94.1336 188.096 94.1817 187.198 94.2358C187.195 94.2358 187.189 94.2358 187.186 94.2358C187.068 94.2358 186.969 94.1426 186.96 94.0224ZM192.368 93.7218C192.362 93.5985 192.455 93.4903 192.581 93.4843L195.293 93.337C195.413 93.331 195.524 93.4242 195.53 93.5504C195.536 93.6737 195.443 93.7819 195.317 93.7879L192.605 93.9352C192.602 93.9352 192.596 93.9352 192.593 93.9352C192.476 93.9352 192.377 93.842 192.368 93.7218ZM197.799 93.4272C197.793 93.304 197.887 93.1957 198.013 93.1897L200.721 93.0424C200.844 93.0394 200.953 93.1296 200.959 93.2559C200.965 93.3791 200.871 93.4873 200.745 93.4933L198.037 93.6406C198.034 93.6406 198.028 93.6406 198.025 93.6406C197.905 93.6406 197.805 93.5474 197.799 93.4272ZM203.216 93.1296C203.21 93.0064 203.303 92.8982 203.429 92.8922C204.334 92.8411 205.236 92.79 206.138 92.7359C206.267 92.7268 206.369 92.823 206.375 92.9463C206.381 93.0695 206.288 93.1777 206.165 93.1837C205.263 93.2348 204.361 93.2889 203.457 93.34C203.454 93.34 203.447 93.34 203.444 93.34C203.321 93.343 203.222 93.2499 203.216 93.1296ZM208.633 92.814C208.624 92.6908 208.72 92.5826 208.843 92.5765C209.748 92.5224 210.65 92.4653 211.548 92.4082C211.672 92.4022 211.78 92.4954 211.789 92.6186C211.798 92.7419 211.702 92.8501 211.578 92.8591C210.68 92.9162 209.775 92.9733 208.87 93.0274C208.864 93.0274 208.861 93.0274 208.855 93.0274C208.738 93.0274 208.639 92.9342 208.633 92.814ZM214.046 92.4683C214.037 92.3451 214.13 92.2369 214.257 92.2279C215.161 92.1677 216.063 92.1016 216.962 92.0385C217.085 92.0295 217.193 92.1227 217.202 92.2459C217.211 92.3691 217.118 92.4773 216.995 92.4864C216.096 92.5525 215.194 92.6156 214.287 92.6757C214.281 92.6757 214.278 92.6757 214.272 92.6757C214.154 92.6787 214.055 92.5886 214.046 92.4683ZM219.46 92.0776C219.451 91.9543 219.544 91.8461 219.667 91.8371C220.572 91.768 221.474 91.6928 222.369 91.6177C222.49 91.6117 222.601 91.6988 222.613 91.8221C222.622 91.9453 222.532 92.0535 222.409 92.0655C221.513 92.1407 220.611 92.2128 219.703 92.285C219.697 92.285 219.691 92.285 219.685 92.285C219.565 92.285 219.469 92.1948 219.46 92.0776ZM224.864 91.6267C224.852 91.5034 224.945 91.3922 225.069 91.3832C225.974 91.299 226.875 91.2149 227.768 91.1247C227.891 91.1127 228.002 91.2029 228.014 91.3261C228.027 91.4493 227.936 91.5606 227.813 91.5726C226.92 91.6628 226.019 91.7469 225.111 91.8311C225.105 91.8311 225.096 91.8311 225.09 91.8311C224.973 91.8311 224.876 91.7409 224.864 91.6267ZM230.266 91.0916C230.254 90.9684 230.341 90.8572 230.464 90.8421C231.369 90.743 232.268 90.6408 233.158 90.5356C233.284 90.5205 233.392 90.6077 233.407 90.7309C233.422 90.8542 233.335 90.9654 233.212 90.9804C232.322 91.0886 231.42 91.1908 230.512 91.287C230.503 91.287 230.497 91.287 230.488 91.287C230.374 91.293 230.278 91.2059 230.266 91.0916ZM235.652 90.4514C235.637 90.3281 235.722 90.2139 235.845 90.1989C236.75 90.0787 237.645 89.9554 238.529 89.8262C238.652 89.8081 238.767 89.8923 238.785 90.0155C238.803 90.1388 238.718 90.253 238.595 90.271C237.708 90.4003 236.813 90.5235 235.905 90.6438C235.896 90.6438 235.884 90.6468 235.875 90.6468C235.764 90.6468 235.667 90.5626 235.652 90.4514ZM241.021 89.6729C241 89.5496 241.084 89.4354 241.207 89.4144C242.118 89.2671 243.017 89.1138 243.876 88.9575C243.997 88.9364 244.117 89.0176 244.138 89.1378C244.159 89.2611 244.078 89.3783 243.958 89.3993C243.095 89.5556 242.193 89.7089 241.279 89.8592C241.267 89.8622 241.255 89.8622 241.243 89.8622C241.135 89.8622 241.039 89.7811 241.021 89.6729ZM246.362 88.714C246.338 88.5908 246.416 88.4735 246.54 88.4495C247.441 88.2661 248.331 88.0767 249.185 87.8814C249.305 87.8543 249.425 87.9295 249.455 88.0497C249.482 88.1699 249.407 88.2932 249.287 88.3202C248.427 88.5156 247.535 88.708 246.63 88.8913C246.615 88.8943 246.6 88.8973 246.585 88.8973C246.477 88.8943 246.383 88.8192 246.362 88.714ZM251.65 87.5147C251.62 87.3944 251.692 87.2712 251.812 87.2411C252.705 87.0097 253.582 86.7662 254.418 86.5197C254.538 86.4836 254.662 86.5528 254.698 86.673C254.734 86.7932 254.665 86.9165 254.544 86.9525C253.703 87.202 252.822 87.4455 251.923 87.677C251.905 87.683 251.884 87.683 251.866 87.683C251.767 87.683 251.677 87.6138 251.65 87.5147ZM256.853 85.9877C256.814 85.8704 256.877 85.7412 256.994 85.7021C257.869 85.4045 258.723 85.0919 259.525 84.7703C259.639 84.7252 259.772 84.7823 259.817 84.8965C259.862 85.0107 259.805 85.143 259.69 85.1881C258.879 85.5097 258.019 85.8253 257.138 86.1259C257.114 86.1349 257.09 86.138 257.066 86.138C256.973 86.141 256.886 86.0808 256.853 85.9877ZM261.891 84.0038C261.837 83.8926 261.885 83.7573 261.999 83.7032C262.838 83.3094 263.64 82.8946 264.386 82.4708C264.494 82.4107 264.632 82.4467 264.692 82.555C264.752 82.6632 264.716 82.8014 264.608 82.8616C263.851 83.2914 263.039 83.7092 262.191 84.109C262.161 84.124 262.128 84.13 262.095 84.13C262.008 84.133 261.927 84.0849 261.891 84.0038ZM266.595 81.3586C266.523 81.2564 266.547 81.1151 266.649 81.046C267.4 80.517 268.101 79.9579 268.732 79.3868C268.825 79.3026 268.967 79.3086 269.051 79.4018C269.135 79.495 269.129 79.6362 269.036 79.7204C268.392 80.3035 267.677 80.8747 266.911 81.4157C266.871 81.4428 266.826 81.4578 266.781 81.4578C266.706 81.4518 266.637 81.4187 266.595 81.3586ZM270.587 77.7846C270.491 77.7065 270.475 77.5652 270.554 77.469C271.122 76.7686 271.615 76.0262 272.027 75.2687C272.087 75.1605 272.222 75.1184 272.333 75.1785C272.441 75.2387 272.483 75.3739 272.423 75.4851C271.999 76.2667 271.488 77.0302 270.905 77.7546C270.86 77.8087 270.797 77.8387 270.731 77.8387C270.677 77.8327 270.626 77.8177 270.587 77.7846ZM273.226 73.1045C273.109 73.0624 273.049 72.9331 273.091 72.8159C273.403 71.9592 273.665 71.0966 273.869 70.2489C273.899 70.1287 274.019 70.0535 274.14 70.0836C274.26 70.1136 274.335 70.2339 274.305 70.3541C274.095 71.2168 273.827 72.0975 273.511 72.9692C273.478 73.0594 273.391 73.1165 273.301 73.1165C273.277 73.1195 273.25 73.1135 273.226 73.1045ZM274.539 67.8592C274.416 67.8442 274.326 67.733 274.341 67.6097C274.425 66.8733 274.467 66.1309 274.467 65.4004C274.467 65.2441 274.464 65.0908 274.461 64.9375C274.458 64.8143 274.557 64.7091 274.681 64.7061C274.684 64.7061 274.684 64.7061 274.687 64.7061C274.81 64.7061 274.909 64.8023 274.912 64.9255C274.915 65.0848 274.918 65.2411 274.918 65.4004C274.918 66.1459 274.876 66.9064 274.789 67.6608C274.777 67.7751 274.678 67.8622 274.566 67.8622C274.557 67.8592 274.548 67.8592 274.539 67.8592ZM274.209 62.2833C274.064 61.4146 273.857 60.5429 273.593 59.6893C273.557 59.572 273.623 59.4458 273.74 59.4067C273.86 59.3706 273.983 59.4368 274.022 59.554C274.293 60.4287 274.506 61.3214 274.651 62.2082C274.672 62.3314 274.588 62.4456 274.464 62.4667C274.452 62.4697 274.44 62.4697 274.428 62.4697C274.323 62.4727 274.227 62.3945 274.209 62.2833ZM272.64 57.1944C272.279 56.4008 271.855 55.6073 271.389 54.8288C271.326 54.7236 271.359 54.5853 271.464 54.5192C271.57 54.456 271.708 54.4891 271.774 54.5943C272.252 55.3848 272.682 56.1964 273.049 57.005C273.1 57.1192 273.052 57.2515 272.937 57.3026C272.907 57.3176 272.874 57.3236 272.844 57.3236C272.76 57.3266 272.676 57.2785 272.64 57.1944ZM269.886 52.6074C269.366 51.9101 268.792 51.2127 268.182 50.5304C268.098 50.4372 268.107 50.2959 268.2 50.2117C268.293 50.1276 268.434 50.1366 268.519 50.2298C269.138 50.9211 269.718 51.6305 270.247 52.3369C270.322 52.4361 270.301 52.5774 270.202 52.6525C270.16 52.6826 270.115 52.6976 270.067 52.6976C270.001 52.6976 269.931 52.6645 269.886 52.6074ZM266.315 48.5916C265.687 47.9844 265.014 47.3772 264.316 46.788C264.22 46.7069 264.211 46.5656 264.289 46.4694C264.371 46.3762 264.512 46.3612 264.608 46.4424C265.314 47.0405 265.994 47.6537 266.631 48.2669C266.721 48.3541 266.724 48.4954 266.637 48.5856C266.592 48.6306 266.535 48.6547 266.475 48.6547C266.415 48.6547 266.357 48.6337 266.315 48.5916ZM262.206 45.1048C261.506 44.5757 260.77 44.0467 260.012 43.5327C259.91 43.4635 259.883 43.3223 259.952 43.2201C260.021 43.1179 260.162 43.0908 260.265 43.16C261.028 43.68 261.77 44.212 262.477 44.744C262.576 44.8192 262.597 44.9605 262.522 45.0597C262.477 45.1168 262.411 45.1498 262.342 45.1498C262.297 45.1498 262.248 45.1348 262.206 45.1048ZM257.749 42.0628C257 41.5999 256.219 41.137 255.425 40.6861C255.317 40.626 255.278 40.4877 255.341 40.3795C255.401 40.2713 255.539 40.2322 255.648 40.2954C256.447 40.7492 257.235 41.2152 257.986 41.6811C258.091 41.7472 258.124 41.8855 258.058 41.9907C258.016 42.0598 257.941 42.0959 257.866 42.0959C257.827 42.0959 257.785 42.0838 257.749 42.0628ZM253.05 39.3906C252.269 38.9818 251.457 38.573 250.634 38.1762C250.522 38.1221 250.474 37.9868 250.529 37.8756C250.583 37.7644 250.718 37.7163 250.829 37.7704C251.656 38.1702 252.473 38.579 253.258 38.9908C253.369 39.0479 253.411 39.1832 253.354 39.2944C253.315 39.3725 253.237 39.4146 253.156 39.4146C253.12 39.4176 253.084 39.4086 253.05 39.3906ZM248.181 37.037C247.372 36.6733 246.537 36.3126 245.698 35.9639C245.584 35.9158 245.53 35.7835 245.578 35.6693C245.626 35.5551 245.758 35.501 245.872 35.5491C246.714 35.9008 247.553 36.2645 248.367 36.6282C248.482 36.6793 248.533 36.8115 248.482 36.9258C248.445 37.0099 248.361 37.058 248.277 37.058C248.244 37.058 248.211 37.052 248.181 37.037ZM243.188 34.9509C242.362 34.6293 241.511 34.3107 240.654 33.998C240.537 33.956 240.477 33.8267 240.519 33.7095C240.561 33.5922 240.69 33.5321 240.807 33.5742C241.667 33.8868 242.521 34.2085 243.35 34.5301C243.468 34.5752 243.525 34.7044 243.48 34.8217C243.444 34.9118 243.359 34.9659 243.269 34.9659C243.242 34.9689 243.215 34.9629 243.188 34.9509ZM238.102 33.1053C237.264 32.8197 236.398 32.5372 235.529 32.2606C235.412 32.2246 235.346 32.0953 235.382 31.9781C235.418 31.8609 235.544 31.7947 235.664 31.8308C236.533 32.1073 237.402 32.3929 238.243 32.6785C238.361 32.7175 238.424 32.8468 238.385 32.964C238.352 33.0572 238.265 33.1173 238.171 33.1173C238.15 33.1143 238.126 33.1113 238.102 33.1053ZM232.941 31.4671C232.084 31.2146 231.21 30.9621 230.338 30.7216C230.218 30.6886 230.149 30.5653 230.182 30.4451C230.215 30.3249 230.338 30.2557 230.458 30.2888C231.333 30.5323 232.211 30.7818 233.067 31.0373C233.188 31.0733 233.254 31.1966 233.221 31.3168C233.191 31.416 233.1 31.4791 233.004 31.4791C232.983 31.4761 232.962 31.4731 232.941 31.4671ZM227.723 30.0213C226.86 29.7988 225.977 29.5764 225.096 29.366C224.976 29.3359 224.9 29.2157 224.93 29.0955C224.961 28.9752 225.081 28.9001 225.201 28.9301C226.082 29.1436 226.968 29.363 227.834 29.5884C227.954 29.6185 228.027 29.7417 227.996 29.862C227.969 29.9642 227.879 30.0303 227.78 30.0303C227.762 30.0273 227.744 30.0243 227.723 30.0213ZM222.46 28.7528C221.588 28.5574 220.698 28.365 219.811 28.1817C219.688 28.1576 219.61 28.0374 219.637 27.9142C219.661 27.7909 219.781 27.7128 219.905 27.7398C220.791 27.9232 221.684 28.1155 222.559 28.3109C222.679 28.338 222.757 28.4582 222.73 28.5784C222.706 28.6837 222.613 28.7558 222.511 28.7558C222.493 28.7588 222.475 28.7558 222.46 28.7528ZM217.157 27.6526C216.274 27.4843 215.381 27.319 214.5 27.1627C214.377 27.1416 214.296 27.0244 214.317 26.9012C214.338 26.7779 214.455 26.6968 214.578 26.7178C215.462 26.8741 216.358 27.0394 217.241 27.2078C217.365 27.2318 217.443 27.349 217.419 27.4723C217.398 27.5805 217.305 27.6556 217.199 27.6556C217.184 27.6556 217.172 27.6526 217.157 27.6526ZM211.834 26.7118C210.944 26.5675 210.051 26.4323 209.159 26.3C209.035 26.282 208.951 26.1677 208.969 26.0445C208.987 25.9213 209.102 25.8371 209.225 25.8551C210.121 25.9874 211.013 26.1227 211.906 26.2669C212.029 26.288 212.113 26.4022 212.092 26.5254C212.074 26.6367 211.978 26.7148 211.87 26.7148C211.858 26.7148 211.846 26.7148 211.834 26.7118ZM206.477 25.9273C205.582 25.81 204.686 25.6958 203.787 25.5906C203.664 25.5756 203.577 25.4644 203.589 25.3411C203.604 25.2179 203.715 25.1277 203.838 25.1427C204.737 25.2479 205.636 25.3592 206.535 25.4794C206.658 25.4944 206.745 25.6086 206.727 25.7319C206.712 25.8461 206.616 25.9273 206.504 25.9273C206.498 25.9273 206.486 25.9273 206.477 25.9273ZM201.091 25.293C200.189 25.1998 199.287 25.1127 198.389 25.0345C198.265 25.0225 198.172 24.9143 198.184 24.791C198.196 24.6678 198.304 24.5776 198.428 24.5866C199.329 24.6678 200.234 24.752 201.136 24.8452C201.259 24.8572 201.349 24.9684 201.337 25.0916C201.325 25.2089 201.229 25.293 201.115 25.293C201.106 25.296 201.097 25.293 201.091 25.293ZM195.686 24.8151C194.785 24.749 193.883 24.6888 192.981 24.6347C192.858 24.6287 192.762 24.5205 192.771 24.3973C192.777 24.274 192.882 24.1778 193.008 24.1869C193.91 24.241 194.815 24.3011 195.719 24.3672C195.843 24.3762 195.936 24.4844 195.927 24.6077C195.918 24.7249 195.819 24.8151 195.701 24.8151C195.698 24.8181 195.692 24.8181 195.686 24.8151Z" fill="#3A67B3"/>
<path d="M242.19 131.93L243.026 132.747C242.202 134.064 241.595 135.477 241.207 136.935L239.837 136.947C237.786 136.968 236.142 138.645 236.163 140.692C236.184 142.742 237.862 144.386 239.909 144.365L241.081 144.353C241.418 145.829 241.977 147.26 242.752 148.597L241.793 149.577C240.36 151.041 240.381 153.389 241.844 154.826C243.308 156.259 245.656 156.238 247.093 154.774L247.913 153.939C249.23 154.762 250.643 155.37 252.1 155.757L252.113 157.128C252.134 159.178 253.811 160.822 255.858 160.801C257.905 160.78 259.552 159.103 259.531 157.056L259.519 155.884C260.998 155.547 262.426 154.988 263.766 154.212L264.746 155.171C266.21 156.605 268.558 156.584 269.994 155.12C271.428 153.656 271.407 151.309 269.943 149.872L269.108 149.054C269.931 147.738 270.539 146.325 270.926 144.867L272.297 144.855C274.347 144.834 275.991 143.157 275.97 141.11C275.949 139.06 274.272 137.416 272.225 137.437L271.059 137.449C270.719 135.973 270.16 134.542 269.384 133.201L270.343 132.224C271.777 130.761 271.756 128.413 270.292 126.976C268.828 125.542 266.481 125.563 265.044 127.027L264.226 127.863C262.91 127.039 261.497 126.432 260.039 126.044L260.027 124.674C260.006 122.624 258.329 120.979 256.282 121C254.232 121.021 252.587 122.699 252.608 124.746L252.62 125.912C251.145 126.252 249.714 126.811 248.373 127.586L247.396 126.627C245.932 125.194 243.585 125.215 242.148 126.679C240.705 128.145 240.729 130.493 242.19 131.93ZM248.181 133.168C252.452 128.813 259.45 128.747 263.805 133.015C268.161 137.286 268.23 144.284 263.959 148.639C259.684 152.998 252.69 153.061 248.334 148.793C243.976 144.521 243.906 137.527 248.181 133.168Z" fill="#99C7FF"/>
<path d="M261.052 145.793C263.751 143.039 263.709 138.618 260.956 135.918C258.202 133.219 253.778 133.258 251.078 136.012C248.379 138.765 248.421 143.19 251.174 145.892C253.928 148.591 258.352 148.546 261.052 145.793Z" fill="#99C7FF"/>
<path d="M254.803 101.66L255.265 102.171C254.733 102.914 254.328 103.725 254.048 104.567L253.243 104.525C252.037 104.465 251.012 105.391 250.949 106.596C250.889 107.801 251.815 108.826 253.02 108.889L253.708 108.925C253.856 109.806 254.132 110.666 254.541 111.48L253.943 112.022C253.047 112.83 252.978 114.21 253.787 115.106C254.595 116.001 255.975 116.07 256.871 115.262L257.382 114.799C258.124 115.331 258.936 115.737 259.777 116.016L259.735 116.822C259.675 118.027 260.601 119.052 261.806 119.115C263.012 119.175 264.037 118.25 264.1 117.044L264.136 116.356C265.017 116.209 265.876 115.932 266.691 115.523L267.232 116.122C268.04 117.017 269.42 117.086 270.316 116.278C271.212 115.469 271.281 114.09 270.472 113.194L270.012 112.683C270.544 111.94 270.95 111.129 271.23 110.287L272.035 110.329C273.241 110.389 274.266 109.464 274.329 108.258C274.389 107.053 273.463 106.028 272.258 105.965L271.572 105.929C271.425 105.051 271.149 104.188 270.74 103.374L271.338 102.833C272.234 102.024 272.303 100.644 271.494 99.7485C270.686 98.8528 269.306 98.7836 268.41 99.5922L267.899 100.052C267.154 99.5201 266.345 99.1143 265.504 98.8347L265.546 98.0292C265.606 96.8238 264.68 95.7988 263.475 95.7357C262.269 95.6756 261.244 96.6014 261.181 97.8067L261.145 98.4921C260.267 98.6394 259.405 98.9189 258.59 99.3247L258.049 98.7265C257.24 97.8308 255.861 97.7616 254.965 98.5702C254.063 99.3848 253.994 100.765 254.803 101.66ZM258.277 102.601C260.941 100.193 265.056 100.404 267.463 103.067C269.871 105.73 269.661 109.845 266.997 112.253C264.331 114.661 260.219 114.45 257.811 111.787C255.404 109.124 255.611 105.012 258.277 102.601Z" fill="#FF7DBE"/>
<path d="M265.389 110.48C267.073 108.959 267.205 106.358 265.684 104.675C264.163 102.992 261.563 102.857 259.877 104.378C258.193 105.899 258.061 108.502 259.582 110.185C261.106 111.868 263.706 112.001 265.389 110.48Z" fill="#FF7DBE"/>
<path d="M276.355 115.947L276.517 116.392C275.985 116.729 275.516 117.138 275.119 117.603L274.617 117.369C273.866 117.017 272.97 117.342 272.619 118.093C272.267 118.845 272.591 119.741 273.343 120.092L273.773 120.294C273.638 120.892 273.589 121.511 273.641 122.136L273.118 122.326C272.336 122.608 271.933 123.471 272.219 124.249C272.501 125.031 273.364 125.434 274.143 125.148L274.587 124.986C274.924 125.518 275.333 125.987 275.799 126.384L275.564 126.886C275.213 127.637 275.537 128.533 276.289 128.885C277.04 129.236 277.936 128.912 278.288 128.16L278.489 127.73C279.087 127.866 279.706 127.914 280.332 127.863L280.521 128.386C280.804 129.167 281.666 129.57 282.445 129.284C283.226 129.002 283.629 128.139 283.343 127.361L283.181 126.916C283.713 126.579 284.182 126.17 284.579 125.704L285.081 125.939C285.832 126.29 286.728 125.966 287.08 125.214C287.431 124.463 287.107 123.567 286.355 123.215L285.929 123.014C286.064 122.416 286.109 121.794 286.061 121.168L286.581 120.979C287.362 120.697 287.765 119.834 287.48 119.055C287.197 118.274 286.334 117.871 285.556 118.157L285.111 118.319C284.774 117.787 284.366 117.318 283.9 116.921L284.134 116.419C284.486 115.668 284.161 114.772 283.41 114.42C282.658 114.069 281.762 114.393 281.411 115.145L281.209 115.574C280.611 115.439 279.989 115.394 279.364 115.442L279.174 114.922C278.892 114.141 278.029 113.738 277.251 114.023C276.475 114.306 276.072 115.166 276.355 115.947ZM278.324 117.447C280.647 116.606 283.214 117.805 284.056 120.128C284.898 122.452 283.698 125.019 281.375 125.861C279.051 126.702 276.484 125.503 275.642 123.179C274.801 120.859 276 118.292 278.324 117.447Z" fill="#FFBC47"/>
<path d="M280.816 124.313C282.282 123.781 283.043 122.158 282.511 120.691C281.979 119.224 280.356 118.463 278.889 118.995C277.422 119.527 276.661 121.151 277.193 122.621C277.722 124.087 279.349 124.845 280.816 124.313Z" fill="#FFBC47"/>
<path d="M248.066 47.7922H129.295C124.468 47.7922 120.554 51.784 120.554 56.7107V237.517C120.554 242.441 124.468 246.436 129.295 246.436H248.066C252.894 246.436 256.808 242.444 256.808 237.517V56.7107C256.808 51.784 252.894 47.7922 248.066 47.7922Z" fill="#10498A"/>
<path d="M128.826 241.515C126.71 241.515 124.994 239.799 124.994 237.682V56.5454C124.994 54.4292 126.71 52.7129 128.826 52.7129H248.538C250.654 52.7129 252.371 54.4292 252.371 56.5454V237.682C252.371 239.799 250.654 241.515 248.538 241.515H128.826Z" fill="white"/>
<path d="M217.746 47.3113V57.4501C217.746 59.3408 216.213 60.8738 214.323 60.8738H161.798C159.907 60.8738 158.374 59.3408 158.374 57.4501V47.3113H156.619V57.7747C156.619 60.456 158.792 62.6262 161.473 62.6262H214.647C217.328 62.6262 219.499 60.453 219.499 57.7747V47.3113H217.746Z" fill="#1F4F89"/>
<path d="M188.06 36.9861C185.409 36.9861 183.26 39.1353 183.26 41.7865V50.2029H192.863V41.7865C192.863 39.1353 190.711 36.9861 188.06 36.9861ZM188.06 43.593C186.948 43.593 186.046 42.6912 186.046 41.5791C186.046 40.4669 186.948 39.5651 188.06 39.5651C189.172 39.5651 190.074 40.4669 190.074 41.5791C190.074 42.6912 189.172 43.593 188.06 43.593Z" fill="#1F4F89"/>
<path d="M219.381 50.2029H156.742C155.41 50.2029 154.331 49.1238 154.331 47.7922C154.331 46.4606 155.41 45.3845 156.742 45.3845H219.381C220.713 45.3845 221.789 46.4636 221.789 47.7922C221.789 49.1238 220.713 50.2029 219.381 50.2029Z" fill="#1F4F89"/>
<path d="M197.042 63.2814H180.317C180.203 63.2814 180.11 63.1882 180.11 63.074V59.9779C180.11 59.8637 180.203 59.7705 180.317 59.7705H197.042C197.156 59.7705 197.249 59.8637 197.249 59.9779V63.074C197.252 63.1882 197.159 63.2814 197.042 63.2814Z" fill="#1F4F89"/>
<path d="M159.817 141.1H141V158.116H159.817V141.1Z" fill="#B6DBFF"/>
<path d="M241.243 145.522H170.939V146.901H241.243V145.522Z" fill="#B6DBFF"/>
<path d="M213.421 152.315H170.939V153.695H213.421V152.315Z" fill="#B6DBFF"/>
<path d="M154.71 143.872C152.852 146.469 150.992 149.063 149.134 151.66C147.841 150.446 146.546 149.231 145.253 148.017C144.475 149.009 143.696 150.001 142.915 150.993C145.109 152.445 147.303 153.893 149.495 155.345C152.296 152.336 155.095 149.327 157.896 146.319C156.835 145.501 155.774 144.686 154.71 143.872Z" fill="white"/>
<path d="M159.817 116H141V133.016H159.817V116Z" fill="#B6DBFF"/>
<path d="M241.243 120.422H170.939V121.801H241.243V120.422Z" fill="#B6DBFF"/>
<path d="M213.421 127.215H170.939V128.595H213.421V127.215Z" fill="#B6DBFF"/>
<path d="M154.71 118.772C152.852 121.369 150.992 123.963 149.134 126.56C147.841 125.346 146.546 124.131 145.253 122.917C144.475 123.909 143.696 124.901 142.915 125.893C145.109 127.344 147.303 128.793 149.495 130.245C152.296 127.236 155.095 124.227 157.896 121.219C156.835 120.401 155.774 119.586 154.71 118.772Z" fill="white"/>
<path d="M159.739 191.13H140.922V208.146H159.739V191.13Z" fill="#B6DBFF"/>
<path d="M241.165 195.552H170.861V196.931H241.165V195.552Z" fill="#B6DBFF"/>
<path d="M213.343 202.345H170.861V203.724H213.343V202.345Z" fill="#B6DBFF"/>
<path d="M159.739 166.12H140.922V183.136H159.739V166.12Z" fill="#B6DBFF"/>
<path d="M241.165 170.542H170.861V171.921H241.165V170.542Z" fill="#B6DBFF"/>
<path d="M213.343 177.335H170.861V178.715H213.343V177.335Z" fill="#B6DBFF"/>
<path d="M154.632 168.891C152.774 171.488 150.914 174.083 149.056 176.68C147.764 175.465 146.468 174.251 145.175 173.036C144.397 174.028 143.618 175.02 142.837 176.012C145.031 177.464 147.225 178.913 149.417 180.365C152.218 177.356 155.017 174.347 157.818 171.338C156.757 170.521 155.696 169.706 154.632 168.891Z" fill="white"/>
<path d="M151.878 96.1115H159.721C160.112 96.1115 160.403 96.1235 160.598 96.1506C160.794 96.1746 161.019 96.2558 161.275 96.3911C161.732 96.6285 161.963 97.2898 161.963 98.378C161.963 99.5653 161.648 100.263 161.022 100.467C160.734 100.569 160.292 100.62 159.697 100.62H149.612C148.425 100.62 147.727 100.299 147.523 99.6524C147.421 99.3819 147.37 98.9491 147.37 98.3539V84.1962C147.37 83.3305 147.532 82.7414 147.854 82.4258C148.175 82.1132 148.788 81.9539 149.687 81.9539H159.721C160.112 81.9539 160.403 81.9659 160.598 81.9929C160.794 82.017 161.019 82.0981 161.275 82.2334C161.732 82.4709 161.963 83.1322 161.963 84.2203C161.963 85.4076 161.648 86.105 161.022 86.3094C160.734 86.4116 160.292 86.4627 159.697 86.4627H151.878V89.0357H156.919C157.31 89.0357 157.602 89.0477 157.797 89.0748C157.992 89.0988 158.218 89.18 158.473 89.3183C158.93 89.5557 159.162 90.217 159.162 91.3051C159.162 92.4925 158.84 93.1898 158.194 93.3942C157.905 93.4964 157.463 93.5475 156.868 93.5475H151.878V96.1115Z" fill="url(#paint1_linear_177_82)"/>
<path d="M180.654 82.2334C181.655 82.7263 182.157 83.2704 182.157 83.8626C182.157 84.1331 182.03 84.5419 181.775 85.086L174.747 99.3458C174.561 99.7186 174.275 100.022 173.893 100.251C173.512 100.479 173.118 100.593 172.709 100.593H172.454C172.03 100.593 171.627 100.479 171.245 100.251C170.864 100.022 170.578 99.7216 170.392 99.3458L163.364 85.086C163.108 84.5419 162.982 84.1361 162.982 83.8626C162.982 83.2674 163.484 82.7263 164.485 82.2334C165.044 81.9448 165.474 81.8005 165.772 81.8005C166.069 81.8005 166.295 81.8336 166.445 81.9027C166.598 81.9719 166.743 82.0891 166.878 82.2604C167.031 82.4648 167.169 82.6903 167.299 82.9368C167.425 83.1832 167.752 83.8866 168.279 85.0499C168.805 86.2132 169.37 87.4486 169.971 88.7561C170.572 90.0637 171.143 91.2991 171.678 92.4624C172.213 93.6257 172.514 94.2749 172.583 94.4102L177.675 83.2554C177.81 82.9338 177.93 82.6782 178.033 82.4919C178.339 82.032 178.712 81.8035 179.154 81.8035C179.593 81.8005 180.092 81.9448 180.654 82.2334Z" fill="url(#paint2_linear_177_82)"/>
<path d="M188.063 96.1115H195.905C196.296 96.1115 196.588 96.1235 196.783 96.1506C196.978 96.1746 197.204 96.2558 197.459 96.3911C197.916 96.6285 198.148 97.2898 198.148 98.378C198.148 99.5653 197.832 100.263 197.207 100.467C196.918 100.569 196.477 100.62 195.881 100.62H185.797C184.609 100.62 183.912 100.299 183.708 99.6524C183.605 99.3819 183.554 98.9491 183.554 98.3539V84.1962C183.554 83.3305 183.717 82.7414 184.038 82.4258C184.36 82.1132 184.973 81.9539 185.872 81.9539H195.905C196.296 81.9539 196.588 81.9659 196.783 81.9929C196.978 82.017 197.204 82.0981 197.459 82.2334C197.916 82.4709 198.148 83.1322 198.148 84.2203C198.148 85.4076 197.832 86.105 197.207 86.3094C196.918 86.4116 196.477 86.4627 195.881 86.4627H188.063V89.0357H193.104C193.495 89.0357 193.786 89.0477 193.982 89.0748C194.177 89.0988 194.402 89.18 194.658 89.3183C195.115 89.5557 195.346 90.217 195.346 91.3051C195.346 92.4925 195.025 93.1898 194.378 93.3942C194.09 93.4964 193.648 93.5475 193.053 93.5475H188.063V96.1115Z" fill="url(#paint3_linear_177_82)"/>
<path d="M211.861 82.7296C212.023 82.432 212.264 82.2336 212.585 82.1314C212.907 82.0292 213.31 81.9781 213.794 81.9781C214.278 81.9781 214.668 82.0202 214.966 82.1044C215.263 82.1885 215.483 82.2907 215.627 82.411C215.771 82.5312 215.877 82.7085 215.946 82.946C216.048 83.2165 216.099 83.6494 216.099 84.2445V98.3782C216.099 98.787 216.087 99.0815 216.06 99.2679C216.036 99.4543 215.955 99.6767 215.82 99.9292C215.582 100.386 214.921 100.618 213.833 100.618C213.171 100.618 212.711 100.566 212.459 100.464C212.206 100.362 211.993 100.2 211.822 99.9803C208.001 94.8883 205.488 91.5608 204.283 89.9978V98.3752C204.283 98.784 204.271 99.0785 204.244 99.2649C204.22 99.4513 204.139 99.6737 204.003 99.9262C203.766 100.383 203.105 100.615 202.017 100.615C200.965 100.615 200.318 100.386 200.081 99.9262C199.946 99.6707 199.864 99.4422 199.84 99.2378C199.816 99.0334 199.801 98.7359 199.801 98.3481V84.1393C199.801 83.4931 199.882 83.0241 200.045 82.7266C200.207 82.429 200.448 82.2306 200.769 82.1284C201.091 82.0262 201.509 81.9751 202.017 81.9751C202.525 81.9751 202.93 82.0232 203.225 82.1164C203.523 82.2096 203.73 82.3148 203.85 82.435C203.919 82.4861 204.115 82.7055 204.436 83.0963C208.019 87.9688 210.412 91.1851 211.617 92.7482V84.1423C211.62 83.4991 211.698 83.0272 211.861 82.7296Z" fill="url(#paint4_linear_177_82)"/>
<path d="M219.36 81.927H233.518C234.062 81.927 234.459 81.9901 234.714 82.1194C234.97 82.2486 235.138 82.447 235.222 82.7175C235.306 82.9881 235.349 83.3458 235.349 83.7876C235.349 84.2295 235.306 84.5812 235.222 84.8457C235.138 85.1102 234.994 85.2906 234.789 85.3928C234.483 85.5461 234.05 85.6212 233.491 85.6212H228.627V98.4293C228.627 98.82 228.615 99.1086 228.588 99.295C228.564 99.4813 228.486 99.6977 228.36 99.9442C228.234 100.191 228.008 100.365 227.684 100.467C227.362 100.569 226.935 100.621 226.409 100.621C225.883 100.621 225.462 100.569 225.15 100.467C224.834 100.365 224.615 100.191 224.488 99.9442C224.362 99.6977 224.284 99.4783 224.26 99.2829C224.236 99.0876 224.221 98.796 224.221 98.4052V85.6212H219.33C218.786 85.6212 218.389 85.5581 218.134 85.4319C217.878 85.3056 217.71 85.1042 217.626 84.8337C217.542 84.5632 217.5 84.2055 217.5 83.7636C217.5 83.3217 217.542 82.97 217.626 82.7055C217.71 82.441 217.854 82.2607 218.059 82.1585C218.365 82.0052 218.798 81.927 219.36 81.927Z" fill="url(#paint5_linear_177_82)"/>
<path d="M117.612 162.175L131.406 155.147C131.646 154.197 134.231 151.6 134.844 152.971C135.262 153.9 136.089 156.845 136.089 156.845C135.818 157.368 132.884 158.18 132.313 158C132.313 158 124.943 167.213 117.672 167.507L117.612 162.175Z" fill="#FFDBCC"/>
<path d="M110.265 143.367C110.241 142.558 110.055 141.762 109.718 141.025C109.345 140.214 108.774 139.529 108.257 138.807C107.698 138.029 107.166 137.082 107.289 136.087C107.295 136.027 107.208 136.003 107.196 136.066C106.835 137.77 108.143 139.057 108.967 140.382C109.85 141.804 110.091 143.55 109.622 145.156C109.49 145.612 109.3 146.051 109.06 146.466C108.804 146.908 108.48 147.287 108.179 147.695C108.098 147.804 108.212 147.993 108.344 147.897C109.03 147.401 109.511 146.586 109.826 145.817C110.139 145.041 110.292 144.206 110.265 143.367Z" fill="#8A5447"/>
<path d="M109.27 142.456C108.795 141.224 107.945 140.151 107.599 138.876C107.061 136.886 107.842 134.797 107.897 132.738C107.984 129.441 106.006 126.176 103.045 124.727L98.0283 121.679C96.865 121.304 95.5905 121.514 94.4994 122.088C93.1618 122.521 91.9534 123.369 91.0968 124.493C90.5888 125.16 90.21 125.906 89.9665 126.708C89.672 127.679 89.5187 128.707 89.0077 129.6C88.0939 131.199 86.3655 132.089 85.2022 133.478C84.6311 134.16 84.1502 134.968 84.0299 135.867C83.9307 136.613 84.1081 137.31 84.4147 137.986C84.8626 138.969 85.5629 139.856 86.0078 140.839C86.0318 140.986 86.0499 141.136 86.0529 141.29C86.0799 142.417 85.4698 143.484 85.4667 144.611C85.4637 146.547 87.3093 148.074 89.2121 148.426C91.1148 148.78 93.0566 148.263 94.9383 147.81C96.8199 147.356 98.8188 146.965 100.664 147.557C102.152 148.035 103.439 149.126 104.993 149.288C106.592 149.454 108.203 148.516 109.006 147.124C109.811 145.72 109.847 143.956 109.27 142.456ZM90.8172 127.679C90.6218 128.512 90.4805 129.374 90.0778 130.126C89.3744 131.443 87.9917 132.218 86.8404 133.171C85.6952 134.118 84.6822 135.446 84.7544 136.931C84.7934 137.761 85.1662 138.53 85.5028 139.303C85.3525 139.059 85.2022 138.822 85.064 138.581C84.7153 137.977 84.4147 137.334 84.3456 136.631C84.2554 135.726 84.6101 134.869 85.1391 134.154C86.2032 132.72 87.8324 131.842 88.9235 130.436C89.5096 129.678 89.8193 128.815 90.0507 127.896C90.2731 127.006 90.4896 126.125 90.9404 125.32C91.6017 124.135 92.6087 123.155 93.805 122.524C93.5886 122.683 93.3812 122.855 93.1888 123.041C91.9234 124.265 91.22 125.966 90.8172 127.679Z" fill="#8A4728"/>
<path d="M88.6408 247.398C87.1018 248.131 83.2031 247.286 82.629 246.06C82.0549 244.84 81.2042 242.339 80.3115 241.78C79.4218 241.22 77.522 240.063 77.7024 238.9C77.8647 237.836 79.2354 236.555 80.1792 235.482H80.1822C80.9457 234.62 81.9918 230.24 81.9918 230.24L86.6419 233.276C86.6419 233.276 84.5317 237.132 84.3724 238.738C84.2732 239.736 84.7722 241.193 85.4756 242.2C85.7551 242.597 86.9124 244.467 87.727 245.062V245.065C88.9985 245.994 89.5786 246.953 88.6408 247.398Z" fill="#FFD4C2"/>
<path d="M89.29 247.421C87.751 248.155 83.2031 247.286 82.629 246.063C82.0549 244.842 81.2042 242.342 80.3115 241.782C79.4218 241.223 77.522 240.066 77.7024 238.903C77.8647 237.839 79.2354 236.558 80.1792 235.485H80.1822C80.1822 235.485 79.9358 236.799 80.053 237.974C80.1702 239.152 83.9516 245.152 86.2361 243.327C87.5076 244.253 90.2279 246.977 89.29 247.421Z" fill="#244160"/>
<path d="M80.3837 233.381C82.3736 234.836 84.4506 236.444 86.3985 236.158C87.9735 232.428 98.8308 219.067 101.716 206.082L90.8051 208.495C85.2111 212.481 81.9498 227.997 80.3837 233.381Z" fill="#4072AD"/>
<path d="M120.485 248.398C120.14 248.966 112.841 248.155 111.849 247.938C110.857 247.722 107.915 248.338 106.532 247.686C105.146 247.033 106.361 245.251 106.676 243.634C106.679 243.625 106.679 243.616 106.682 243.607V243.595C106.703 243.474 106.715 243.333 106.721 243.183C106.721 243.18 106.721 243.177 106.721 243.177C106.748 242.486 105.79 238.584 105.79 238.584L111.194 238.058C111.2 238.611 110.56 241.31 111.489 242.831C112.345 244.238 114.729 244.481 115.817 244.812C115.817 244.812 115.937 244.848 116.142 244.911C116.211 244.932 116.277 244.953 116.346 244.974C116.448 245.004 116.56 245.041 116.68 245.077C116.743 245.092 116.806 245.113 116.869 245.134C117.338 245.272 117.783 245.404 118.186 245.533C118.504 245.636 118.79 245.738 119.042 245.834C121.321 246.727 120.828 247.83 120.485 248.398Z" fill="#FFD4C2"/>
<path d="M111.948 239.369C109.532 239.94 108.281 240.051 105.546 239.585C105.338 233.745 102.191 223.717 101.803 215.307C101.782 214.898 101.776 214.495 101.779 214.098C101.791 212.604 101.972 211.201 102.378 209.929C102.501 209.541 102.645 209.166 102.813 208.805L104.091 208.435L105.053 208.156L112.348 202.574C112.64 210.305 111.627 235.572 111.948 239.369Z" fill="#305D9E"/>
<path d="M103.727 144.257C103.977 152.174 98.0072 149.734 95.0253 144.555C95.4882 144.11 95.7197 143.557 95.8369 142.895C95.9902 142.06 95.9722 141.059 96.0413 139.898C96.0534 139.703 96.0654 139.499 96.0834 139.291L96.5764 139.237L97.7427 139.111L101.461 138.705C101.446 139.072 101.419 139.463 101.392 139.859C101.308 141.2 101.223 142.64 101.476 143.602C101.599 144.056 103.427 144.074 103.727 144.257Z" fill="#FFDBCC"/>
<path d="M109.55 149.992L105.705 155.832C108.221 160.491 112.153 165.4 117.675 167.507C118.047 167.651 119.998 162.036 119.998 162.036C117.479 158.523 109.55 149.992 109.55 149.992Z" fill="#FFDBCC"/>
<path d="M117.284 157.774C115.643 160.293 113.232 163.134 110.37 164.808L104.166 157.985L107.103 146.177C111.125 147.71 113.938 152.646 117.284 157.774Z" fill="#FFCA76"/>
<path d="M110.367 210.542C110.343 210.783 102.429 210.037 102.495 209.577C103.144 205.12 94.5293 181.758 99.1673 172.533C99.2455 172.377 109.174 169.32 110.019 175.037C110.022 175.037 115.165 205.165 110.367 210.542Z" fill="#305D9E"/>
<path d="M89.7441 210.088L98.915 212.454C104.749 208.141 104.734 176.546 104.734 176.546C104.734 176.546 102.501 177.67 96.9461 173.314C81.6372 181.448 91.0095 204.684 89.7441 210.088Z" fill="#4072AD"/>
<path d="M93.3662 132.816C93.5856 132.786 93.8501 132.922 93.8802 133.159C93.8952 133.264 93.7479 133.303 93.7179 133.198C93.6968 133.117 93.6247 133.057 93.5405 133.057C93.4654 133.057 93.3782 133.114 93.3271 133.165C93.1678 133.324 93.1828 133.586 93.1979 133.793C93.2129 133.998 93.252 134.205 93.3151 134.4C93.3812 134.608 93.5075 134.791 93.5766 134.996C93.6397 135.191 93.3512 135.344 93.2219 135.185C93.1227 135.065 93.0716 134.908 93.0205 134.761C92.9724 134.626 92.9364 134.485 92.9093 134.343C92.8522 134.055 92.8281 133.745 92.8732 133.451C92.9123 133.192 93.0686 132.855 93.3662 132.816Z" fill="#EDD0BE"/>
<path d="M110.815 178.37C109.511 180.231 94.5595 183.279 90.9675 178.755C89.8794 177.384 94.0996 169.488 94.2319 168.466C94.7549 163.434 90.697 161.892 88.8604 158.688C87.126 154.044 87.2252 151.146 89.8283 147.921C90.8052 146.713 93.4984 144.873 95.0254 144.554C97.358 147.759 104.873 147.359 101.945 143.914C110.446 144.825 111.531 153.773 110.277 157.263C108.609 161.901 108.275 163.885 108.564 167.303C108.696 168.839 110.746 174.784 110.815 178.37Z" fill="#FFBC47"/>
<path d="M95.3048 187.166L90.4323 191.106C89.4825 191.873 89.3352 193.264 90.1047 194.214L93.4983 198.411C94.2648 199.36 95.6565 199.508 96.6064 198.738L101.479 194.797L95.3048 187.166Z" fill="#FF9E66"/>
<path d="M93.42 198.317L90.1797 194.311C89.3681 193.31 89.5244 191.84 90.5254 191.031L90.7268 190.869C90.7809 190.962 90.841 191.052 90.9131 191.139L94.1535 195.146C94.9621 196.147 96.4319 196.304 97.4329 195.492L100.213 193.244L101.476 194.804L96.6995 198.666C95.6985 199.475 94.2286 199.318 93.42 198.317Z" fill="#FF8B47"/>
<path d="M136.509 151.6L143.657 149.253L146.378 148.387L149.188 147.491C149.94 147.251 150.598 148.05 150.222 148.742L148.722 151.498L147.165 154.372L143.805 160.774L143.648 161.075L143.57 160.973L142.593 161.793L135.866 152.863L136.843 152.042L136.509 151.6Z" fill="#F9CBCB"/>
<path d="M147.162 154.374L148.719 151.501L150.219 148.744C150.595 148.053 149.937 147.253 149.185 147.494L146.375 148.39L143.654 149.255C144.045 150.407 144.61 151.504 145.362 152.499C145.903 153.211 146.507 153.836 147.162 154.374Z" fill="#244160"/>
<path d="M136.419 151.645L132.319 155.087C132.301 155.102 132.289 155.123 132.277 155.147L93.0506 188.067L94.8301 190.43L137.613 154.525C137.835 154.338 138.214 153.154 137.721 152.499C137.225 151.841 136.642 151.459 136.419 151.645Z" fill="#FFBC47"/>
<path d="M137.612 154.525L94.8298 190.43L96.6213 192.808L139.425 156.884C139.416 156.89 139.407 156.896 139.401 156.902C139.623 156.716 140.002 155.532 139.506 154.877C139.016 154.221 137.835 154.338 137.612 154.525Z" fill="#FF8B47"/>
<path d="M139.428 156.884L96.6245 192.808L98.416 195.188L141.235 159.25C141.22 159.259 141.205 159.268 141.193 159.277C141.415 159.091 141.794 157.906 141.301 157.251C140.823 156.617 139.699 156.707 139.428 156.884Z" fill="#FF9557"/>
<path d="M141.235 159.25L98.4161 195.188L100.193 197.545L139.419 164.624C139.443 164.615 139.467 164.615 139.488 164.597L143.588 161.156C143.811 160.969 143.588 160.284 143.095 159.626C142.62 159.006 141.532 159.082 141.235 159.25Z" fill="#FF9E66"/>
<path d="M104.368 195.278C103.911 195.663 103.279 195.657 102.868 195.299L102.071 195.97C102.309 196.475 102.17 197.124 101.713 197.509C101.257 197.893 100.625 197.887 100.213 197.53L100.195 197.545L100.054 197.355L93.2008 188.256L93.0595 188.067L93.0775 188.052C92.8401 187.547 92.9783 186.898 93.4352 186.513C93.8921 186.128 94.5234 186.134 94.9352 186.492L95.7317 185.822C95.4943 185.317 95.6325 184.667 96.0894 184.283C96.5463 183.898 97.1775 183.904 97.5894 184.262L98.3859 183.591C98.1484 183.086 98.2867 182.437 98.7436 182.052C99.2005 181.668 99.8317 181.674 100.244 182.031L100.262 182.016L104.058 178.83L111.197 188.308L107.401 191.494L107.382 191.509C107.62 192.014 107.482 192.663 107.025 193.048C106.568 193.433 105.937 193.427 105.525 193.069L104.728 193.739C104.963 194.247 104.824 194.896 104.368 195.278Z" fill="#244160"/>
<path d="M96.0864 184.286C96.5433 183.901 97.1745 183.907 97.5863 184.265L98.3829 183.595C98.1454 183.09 98.2837 182.44 98.7406 182.056C99.1975 181.671 99.8287 181.677 100.241 182.035L100.259 182.019L104.055 178.833L104.479 179.395L100.682 182.582L100.664 182.597C100.25 182.239 99.6213 182.236 99.1644 182.618C98.7075 183.002 98.5693 183.652 98.8067 184.157L98.0102 184.827C97.5984 184.469 96.9671 184.466 96.5102 184.848C96.0533 185.233 95.9151 185.882 96.1525 186.387L95.356 187.057C94.9412 186.7 94.3129 186.697 93.8561 187.078C93.3992 187.463 93.2609 188.112 93.4984 188.617L93.4803 188.632L93.2008 188.26L93.0595 188.07L93.0775 188.055C92.8401 187.55 92.9783 186.901 93.4352 186.516C93.8921 186.132 94.5234 186.138 94.9352 186.495L95.7317 185.825C95.4943 185.317 95.6295 184.668 96.0864 184.286Z" fill="#E6E6E6"/>
<path d="M97.9952 184.818L104.71 193.734L105.456 193.108L98.7407 184.193L97.9952 184.818Z" fill="#E6E6E6"/>
<path d="M100.664 182.609L107.379 191.524L108.125 190.896L101.41 181.98L100.664 182.609Z" fill="#E6E6E6"/>
<path d="M95.3618 187.012L102.077 195.928L102.822 195.302L96.1073 186.387L95.3618 187.012Z" fill="#E6E6E6"/>
<path d="M101.533 147.359C98.6505 148.432 94.334 146.562 93.4473 145.101C93.7629 145.053 94.7248 144.611 95.0284 144.554C97.3609 147.759 104.169 146.514 101.948 143.914C102.318 143.818 102.973 143.899 103.475 144.103C103.971 145.297 103.58 146.595 101.533 147.359Z" fill="white"/>
<path d="M120.485 248.398C119.346 249.201 112.841 248.155 111.849 247.938C110.857 247.722 107.915 248.338 106.532 247.686C105.146 247.034 106.361 245.251 106.676 243.634C106.679 243.625 106.679 243.616 106.682 243.607C106.646 244.358 107.277 245.627 108.573 245.906C110.316 246.282 115.273 246.968 116.1 246.183C116.902 245.422 115.817 244.815 115.817 244.815C115.817 244.815 115.937 244.851 116.142 244.915C116.205 244.933 116.271 244.954 116.346 244.978C116.448 245.008 116.559 245.044 116.68 245.08C116.743 245.098 116.803 245.119 116.869 245.137C117.257 245.254 117.717 245.395 118.186 245.537C118.504 245.639 118.79 245.741 119.042 245.837C121.321 246.727 121.029 248.017 120.485 248.398Z" fill="#244160"/>
<path d="M94.6376 171.493L106.562 184.043L103.466 185.834C103.466 185.834 90.6278 179.919 88.3283 174.168L94.6376 171.493Z" fill="#FFDBCC"/>
<path d="M95.4221 172.32C95.4221 172.32 89.1128 175.431 88.8753 175.115C85.6019 170.799 86.4015 154.774 86.9846 152.923C88.689 147.506 95.9121 150.804 96.0233 153.758C96.2277 159.082 95.2237 168.214 95.4221 172.32Z" fill="#FFDBCC"/>
<path d="M96.438 165.658C92.5544 166.47 88.3432 165.974 85.3373 165.042C85.3373 165.042 84.3303 148.287 92.2568 148.567C100.427 148.852 96.438 165.658 96.438 165.658Z" fill="#FFCA76"/>
<path d="M106.559 123.667C106.559 123.667 110.223 130.778 108.293 136.781C107.31 139.841 104.608 141.87 100.731 142.05C95.3651 142.3 93.9673 138.122 93.6126 135.606C93.0475 131.599 93.6217 127.355 94.4663 125.004L106.559 123.667Z" fill="#FFDBCC"/>
<path d="M91.4032 131.518C92.0344 130.403 93.5013 132.032 93.5013 132.032L93.9131 136.333C90.7569 136.156 90.7689 132.633 91.4032 131.518Z" fill="#FFDBCC"/>
<path d="M93.33 133.165C93.3961 133.183 93.5524 131.578 93.9372 131.503C94.3279 131.428 94.7127 131.314 95.0824 131.169C96.4651 130.622 97.6314 129.609 98.3348 128.299C98.8939 127.256 99.1253 126.071 99.0261 124.902C99.1614 124.71 99.2816 124.586 99.3958 124.565C105.026 123.615 107.875 129.66 109.066 129.624C109.667 126.107 108.128 122.72 105.017 120.979C101.906 119.239 97.6104 119.329 94.9081 121.659C91.6497 124.472 91.7639 131.746 93.33 133.165ZM95.3259 130.646C97.0362 129.333 98.0733 126.603 98.7917 125.293C98.7376 126.693 98.2266 128.082 97.3098 129.143C96.7627 129.778 96.0804 130.289 95.3259 130.646Z" fill="#8A4728"/>
<path d="M98.3866 134.248C98.8397 134.207 99.1599 133.65 99.1019 133.004C99.0439 132.357 98.6296 131.866 98.1766 131.907C97.7236 131.947 97.4033 132.504 97.4613 133.151C97.5193 133.797 97.9336 134.288 98.3866 134.248Z" fill="#222731"/>
<path d="M106.208 133.32C106.613 133.309 106.928 132.831 106.911 132.254C106.895 131.676 106.553 131.217 106.148 131.229C105.744 131.24 105.429 131.718 105.445 132.295C105.461 132.873 105.803 133.331 106.208 133.32Z" fill="#222731"/>
<path d="M103.472 133.466C103.042 132.831 102.303 132.341 102.212 131.506C102.191 131.373 101.984 131.37 101.972 131.509C101.587 132.588 102.934 133.123 103.033 133.91C103.156 134.89 101.885 135.239 102.378 135.239C102.97 135.239 104.031 134.614 103.472 133.466Z" fill="#EDD0BE"/>
<path d="M99.2996 131.049C99.2515 131.004 99.2004 130.965 99.1463 130.926C99.0291 130.839 98.9028 130.779 98.7645 130.727C98.509 130.634 98.2325 130.619 97.968 130.667C97.451 130.764 97.0782 131.16 96.8979 131.638C96.8318 131.807 97.1203 131.921 97.1955 131.755C97.2766 131.575 97.3878 131.446 97.5562 131.344C97.7065 131.253 97.8838 131.175 98.0461 131.163C98.1393 131.154 98.2175 131.157 98.2926 131.172C98.3437 131.181 98.3978 131.193 98.4459 131.211C98.497 131.226 98.497 131.229 98.5421 131.247C98.6353 131.29 98.7044 131.335 98.7615 131.383C98.8697 131.47 98.9389 131.584 99.0832 131.62C99.2515 131.662 99.4619 131.521 99.4409 131.335C99.4288 131.214 99.3837 131.13 99.2996 131.049Z" fill="#8A5447"/>
<path d="M105.2 130.34C105.242 130.297 105.287 130.258 105.333 130.222C105.435 130.141 105.543 130.081 105.663 130.033C105.886 129.94 106.132 129.916 106.37 129.952C106.832 130.018 107.178 130.361 107.359 130.778C107.422 130.926 107.172 131.037 107.097 130.893C107.019 130.736 106.914 130.625 106.76 130.538C106.622 130.463 106.463 130.4 106.318 130.394C106.237 130.391 106.165 130.394 106.099 130.409C106.054 130.418 106.006 130.433 105.964 130.448C105.919 130.463 105.919 130.466 105.88 130.484C105.798 130.526 105.738 130.568 105.687 130.613C105.594 130.694 105.537 130.799 105.411 130.836C105.263 130.881 105.071 130.76 105.083 130.595C105.092 130.49 105.128 130.415 105.2 130.34Z" fill="#8A5447"/>
<path d="M103.965 136.895C104.007 137.334 103.86 137.752 103.58 138.077C103.283 138.428 102.835 138.672 102.318 138.72C101.762 138.774 101.245 138.591 100.881 138.263C100.589 138.002 100.394 137.647 100.358 137.241C100.271 136.327 101.494 136.904 102.167 136.841C102.729 136.784 103.875 135.982 103.965 136.895Z" fill="#942525"/>
<path d="M103.58 138.074C103.282 138.425 102.834 138.669 102.317 138.717C101.761 138.771 101.244 138.588 100.881 138.26C101.124 137.962 101.596 137.734 102.149 137.68C102.753 137.626 103.297 137.788 103.58 138.074Z" fill="#FF7878"/>
<path d="M98.2538 136.226C99.359 136.195 100.245 135.801 100.232 135.346C100.219 134.892 99.3124 134.548 98.2073 134.58C97.1021 134.611 96.2166 135.005 96.2294 135.46C96.2423 135.914 97.1487 136.257 98.2538 136.226Z" fill="#FFB394"/>
<path d="M106.563 135.283C107.439 135.258 108.141 134.946 108.131 134.586C108.121 134.226 107.403 133.954 106.526 133.979C105.65 134.004 104.948 134.316 104.958 134.676C104.969 135.036 105.687 135.308 106.563 135.283Z" fill="#FFB394"/>
<path d="M98.4822 132.964C98.6084 132.964 98.7106 132.861 98.7106 132.735C98.7106 132.609 98.6084 132.507 98.4822 132.507C98.356 132.507 98.2538 132.609 98.2538 132.735C98.2538 132.861 98.356 132.964 98.4822 132.964Z" fill="white"/>
<path d="M106.339 132.098C106.452 132.098 106.544 132.006 106.544 131.894C106.544 131.781 106.452 131.689 106.339 131.689C106.227 131.689 106.135 131.781 106.135 131.894C106.135 132.006 106.227 132.098 106.339 132.098Z" fill="white"/>
<path d="M92.2058 132.245C92.4493 132.173 92.7679 132.278 92.843 132.537C92.8761 132.651 92.7198 132.723 92.6687 132.609C92.6296 132.522 92.5394 132.468 92.4463 132.48C92.3621 132.492 92.2749 132.573 92.2268 132.639C92.0765 132.844 92.1397 133.138 92.1908 133.367C92.2839 133.772 92.3381 133.841 92.4282 134.028C92.5394 134.25 92.7138 134.431 92.825 134.65C92.9332 134.857 92.6356 135.08 92.4613 134.927C92.329 134.806 92.2419 134.641 92.1577 134.485C92.0796 134.34 92.0134 134.19 91.9593 134.037C91.8451 133.721 91.7609 133.379 91.7609 133.042C91.7639 132.744 91.8812 132.342 92.2058 132.245Z" fill="#EDD0BE"/>
<path d="M86.5097 146.986C87.2732 148.312 89.2179 149.893 90.9493 150.028C91.2078 150.049 91.5355 150.022 91.8902 149.965C93.345 150.196 95.1245 149.863 96.1285 148.708C96.6244 148.14 96.7356 147.425 96.4531 146.731C96.1525 145.991 95.5754 145.375 95.4551 144.563C95.7137 143.893 96.5312 143.409 96.7837 142.685C97.0272 141.99 96.6815 141.209 96.1766 140.674C95.6716 140.139 95.0193 139.766 94.4572 139.291C93.4983 138.479 93.0865 137.626 92.801 136.402L86.5097 146.986ZM92.8731 149.742C93.6276 149.532 94.37 149.24 94.8119 148.97C95.6746 148.447 96.2517 147.356 95.9241 146.403C95.7587 145.922 95.386 145.504 95.374 144.996C95.374 144.987 95.374 144.981 95.374 144.972C95.5363 145.597 95.9661 146.132 96.2156 146.725C96.3599 147.061 96.4381 147.428 96.3509 147.792C96.2637 148.17 96.0142 148.498 95.7257 148.75C95.1786 149.228 94.4602 149.514 93.7538 149.652C93.4653 149.706 93.1707 149.736 92.8731 149.742Z" fill="#8A4728"/>
<path d="M109.862 190.31C110.427 189.438 108.924 189.104 108.221 188.185C107.812 187.65 107.899 186.751 107.899 186.751C107.899 186.751 108.964 187.325 109.393 186.384C109.889 185.305 107.419 184.758 106.562 184.04L103.129 185.545C103.592 191.1 108.516 192.387 109.862 190.31Z" fill="#FFDBCC"/>
<path d="M250.88 211.543L255.99 246.73C256.131 247.695 255.515 248.576 254.7 248.576H243.966L250.88 211.543Z" fill="#FFB0DB"/>
<path d="M244.556 248.01L250.823 214.438L255.431 246.165C255.572 247.13 254.956 248.01 254.141 248.01H244.556Z" fill="#FF7DBE"/>
<path d="M251.616 219.893L250.823 214.438L244.556 248.01H248.737L251.616 219.893Z" fill="#EADAE4"/>
<path d="M249.446 201.871H197.297H196.281C195.488 201.871 194.841 202.478 194.841 203.223V211.544H250.883V203.223C250.883 202.475 250.24 201.871 249.446 201.871ZM198.593 204.907C198.578 204.907 198.563 204.904 198.548 204.904C198.566 204.904 198.584 204.904 198.602 204.907C198.599 204.907 198.596 204.907 198.593 204.907Z" fill="#FF7DBE"/>
<path d="M197.877 205.598C197.892 205.598 197.907 205.601 197.922 205.601C197.925 205.601 197.929 205.601 197.932 205.601C197.913 205.601 197.895 205.598 197.877 205.598Z" fill="#EADAE4"/>
<path d="M249.446 201.871H197.297H196.281C195.677 201.871 195.16 202.219 194.947 202.715C195.145 202.619 195.37 202.562 195.611 202.562H196.627H248.776C249.569 202.562 250.216 203.169 250.216 203.915V211.541H250.886V203.22C250.883 202.475 250.24 201.871 249.446 201.871Z" fill="#EADAE4"/>
<path d="M244.598 248.579H189.557C188.595 248.579 187.991 247.641 188.21 246.486L194.838 211.546H250.88L246.597 246.486C246.455 247.641 245.56 248.579 244.598 248.579Z" fill="#FFB0DB"/>
<path d="M195.337 212.084L188.836 246.49C188.679 247.313 189.269 247.987 190.146 247.987H244.192C245.073 247.987 245.869 247.313 245.971 246.49L250.213 212.084H195.337Z" fill="white"/>
<path d="M248.385 212.084L245.361 236.318C244.673 241.743 238.334 246.06 232.454 246.06H188.917L188.836 246.49C188.679 247.316 189.266 247.987 190.146 247.987H244.192C245.073 247.987 245.869 247.316 245.971 246.49L250.213 212.084H248.385Z" fill="#F4E9EE"/>
<path d="M202.564 214.793H196.958C196.807 214.793 196.711 214.651 196.744 214.477L196.765 214.363C196.798 214.188 196.946 214.047 197.099 214.047H202.699C202.849 214.047 202.945 214.188 202.915 214.363L202.894 214.477C202.864 214.651 202.717 214.793 202.564 214.793Z" fill="#FFB0DB"/>
<path d="M210.18 214.793H204.574C204.424 214.793 204.325 214.651 204.358 214.477L204.379 214.363C204.409 214.188 204.556 214.047 204.71 214.047H210.31C210.46 214.047 210.559 214.188 210.529 214.363L210.511 214.477C210.478 214.651 210.331 214.793 210.18 214.793Z" fill="#FFB0DB"/>
<path d="M217.797 214.793H212.191C212.041 214.793 211.942 214.651 211.972 214.477L211.99 214.363C212.02 214.188 212.164 214.047 212.318 214.047H217.918C218.068 214.047 218.167 214.188 218.14 214.363L218.122 214.477C218.095 214.651 217.948 214.793 217.797 214.793Z" fill="#FFB0DB"/>
<path d="M225.414 214.793H219.808C219.658 214.793 219.556 214.651 219.586 214.477L219.604 214.363C219.631 214.188 219.775 214.047 219.928 214.047H225.528C225.679 214.047 225.781 214.188 225.754 214.363L225.736 214.477C225.709 214.651 225.564 214.793 225.414 214.793Z" fill="#FFB0DB"/>
<path d="M233.031 214.793H227.425C227.275 214.793 227.173 214.651 227.2 214.477L227.218 214.363C227.245 214.188 227.389 214.047 227.539 214.047H233.139C233.29 214.047 233.392 214.188 233.368 214.363L233.353 214.477C233.326 214.651 233.181 214.793 233.031 214.793Z" fill="#FFB0DB"/>
<path d="M240.648 214.793H235.042C234.892 214.793 234.79 214.651 234.814 214.477L234.829 214.363C234.853 214.188 234.997 214.047 235.147 214.047H240.747C240.898 214.047 241.003 214.188 240.979 214.363L240.964 214.477C240.943 214.651 240.798 214.793 240.648 214.793Z" fill="#FFB0DB"/>
<path d="M248.265 214.793H242.659C242.509 214.793 242.404 214.651 242.428 214.477L242.443 214.363C242.467 214.188 242.608 214.047 242.758 214.047H248.358C248.508 214.047 248.614 214.188 248.593 214.363L248.578 214.477C248.557 214.651 248.415 214.793 248.265 214.793Z" fill="#FFB0DB"/>
<path d="M208.01 217.14H205.927C205.542 217.14 205.185 217.423 205.122 217.771L204.788 219.668C204.728 220.017 204.989 220.302 205.374 220.302H207.463C207.848 220.302 208.209 220.02 208.269 219.668L208.593 217.771C208.656 217.423 208.395 217.14 208.01 217.14Z" fill="#FFD7EF"/>
<path d="M215.651 217.14H213.568C213.183 217.14 212.826 217.423 212.768 217.771L212.453 219.668C212.396 220.017 212.66 220.302 213.045 220.302H215.134C215.519 220.302 215.877 220.02 215.934 219.668L216.243 217.771C216.297 217.423 216.033 217.14 215.651 217.14Z" fill="#FFD7EF"/>
<path d="M223.289 217.14H221.206C220.821 217.14 220.467 217.423 220.413 217.771L220.112 219.668C220.058 220.017 220.322 220.302 220.707 220.302H222.796C223.181 220.302 223.536 220.02 223.59 219.668L223.881 217.771C223.938 217.423 223.671 217.14 223.289 217.14Z" fill="#FFD7EF"/>
<path d="M230.927 217.14H228.844C228.459 217.14 228.107 217.423 228.056 217.771L227.774 219.668C227.723 220.017 227.99 220.302 228.375 220.302H230.464C230.849 220.302 231.201 220.02 231.252 219.668L231.525 217.771C231.579 217.423 231.309 217.14 230.927 217.14Z" fill="#FFD7EF"/>
<path d="M238.565 217.14H236.482C236.097 217.14 235.748 217.423 235.7 217.771L235.436 219.668C235.388 220.017 235.658 220.302 236.043 220.302H238.132C238.517 220.302 238.868 220.02 238.914 219.668L239.172 217.771C239.22 217.423 238.947 217.14 238.565 217.14Z" fill="#FFD7EF"/>
<path d="M246.203 217.14H244.12C243.735 217.14 243.389 217.423 243.344 217.771L243.098 219.668C243.053 220.017 243.326 220.302 243.711 220.302H245.8C246.185 220.302 246.533 220.02 246.576 219.668L246.816 217.771C246.861 217.423 246.585 217.14 246.203 217.14Z" fill="#FFD7EF"/>
<path d="M207.021 222.866H204.926C204.541 222.866 204.178 223.152 204.115 223.503L203.775 225.424C203.712 225.779 203.976 226.067 204.364 226.067H206.468C206.856 226.067 207.22 225.779 207.28 225.424L207.61 223.503C207.671 223.152 207.409 222.866 207.021 222.866Z" fill="#FFD7EF"/>
<path d="M214.713 222.866H212.618C212.233 222.866 211.873 223.152 211.813 223.503L211.491 225.424C211.431 225.779 211.698 226.067 212.086 226.067H214.19C214.578 226.067 214.939 225.779 214.996 225.424L215.308 223.503C215.366 223.152 215.098 222.866 214.713 222.866Z" fill="#FFBC47"/>
<path d="M222.402 222.866H220.307C219.922 222.866 219.565 223.152 219.508 223.503L219.204 225.424C219.147 225.779 219.417 226.067 219.805 226.067H221.909C222.297 226.067 222.655 225.779 222.709 225.424L223.003 223.503C223.058 223.152 222.79 222.866 222.402 222.866Z" fill="#FFD7EF"/>
<path d="M230.094 222.866H227.999C227.615 222.866 227.257 223.152 227.206 223.503L226.92 225.424C226.866 225.779 227.14 226.067 227.527 226.067H229.632C230.019 226.067 230.374 225.779 230.425 225.424L230.702 223.503C230.75 223.152 230.479 222.866 230.094 222.866Z" fill="#FFD7EF"/>
<path d="M237.783 222.866H235.688C235.304 222.866 234.949 223.152 234.901 223.503L234.633 225.424C234.585 225.779 234.859 226.067 235.244 226.067H237.348C237.735 226.067 238.087 225.779 238.135 225.424L238.397 223.503C238.445 223.152 238.168 222.866 237.783 222.866Z" fill="#FFD7EF"/>
<path d="M245.472 222.866H243.377C242.992 222.866 242.641 223.152 242.596 223.503L242.343 225.424C242.298 225.779 242.575 226.067 242.959 226.067H245.063C245.451 226.067 245.8 225.779 245.845 225.424L246.088 223.503C246.137 223.152 245.86 222.866 245.472 222.866Z" fill="#FFD7EF"/>
<path d="M206.02 228.671H203.91C203.523 228.671 203.156 228.959 203.093 229.317L202.75 231.265C202.687 231.625 202.951 231.917 203.342 231.917H205.461C205.852 231.917 206.219 231.625 206.279 231.265L206.613 229.317C206.673 228.959 206.408 228.671 206.02 228.671Z" fill="#FFD7EF"/>
<path d="M213.763 228.671H211.653C211.265 228.671 210.902 228.959 210.842 229.317L210.517 231.265C210.457 231.625 210.724 231.917 211.115 231.917H213.234C213.625 231.917 213.989 231.625 214.046 231.265L214.365 229.317C214.419 228.959 214.151 228.671 213.763 228.671Z" fill="#FFD7EF"/>
<path d="M221.507 228.671H219.397C219.009 228.671 218.648 228.959 218.591 229.317L218.284 231.265C218.227 231.625 218.498 231.917 218.889 231.917H221.008C221.398 231.917 221.759 231.625 221.813 231.265L222.114 229.317C222.165 228.959 221.894 228.671 221.507 228.671Z" fill="#FFD7EF"/>
<path d="M229.25 228.671H227.14C226.752 228.671 226.394 228.959 226.34 229.317L226.051 231.265C225.997 231.625 226.271 231.917 226.662 231.917H228.781C229.172 231.917 229.529 231.625 229.58 231.265L229.863 229.317C229.911 228.959 229.637 228.671 229.25 228.671Z" fill="#FFD7EF"/>
<path d="M236.993 228.671H234.883C234.495 228.671 234.137 228.959 234.089 229.317L233.816 231.265C233.765 231.625 234.041 231.917 234.432 231.917H236.551C236.942 231.917 237.297 231.625 237.345 231.265L237.609 229.317C237.657 228.959 237.381 228.671 236.993 228.671Z" fill="#FFD7EF"/>
<path d="M244.736 228.671H242.626C242.238 228.671 241.884 228.959 241.838 229.317L241.583 231.265C241.535 231.625 241.814 231.917 242.205 231.917H244.324C244.715 231.917 245.067 231.625 245.112 231.265L245.358 229.317C245.4 228.959 245.124 228.671 244.736 228.671Z" fill="#FFD7EF"/>
<path d="M205.004 234.556H202.879C202.488 234.556 202.119 234.851 202.055 235.211L201.707 237.186C201.644 237.55 201.908 237.848 202.302 237.848H204.436C204.83 237.848 205.2 237.553 205.26 237.186L205.599 235.211C205.659 234.848 205.395 234.556 205.004 234.556Z" fill="#FFD7EF"/>
<path d="M199.332 222.866H197.237C196.852 222.866 196.486 223.152 196.419 223.503L196.065 225.424C195.999 225.779 196.26 226.067 196.648 226.067H198.752C199.14 226.067 199.507 225.779 199.57 225.424L199.918 223.503C199.978 223.152 199.717 222.866 199.332 222.866Z" fill="#FFD7EF"/>
<path d="M198.277 228.671H196.167C195.779 228.671 195.41 228.959 195.343 229.317L194.983 231.265C194.917 231.625 195.178 231.917 195.569 231.917H197.688C198.079 231.917 198.449 231.625 198.512 231.265L198.863 229.317C198.926 228.959 198.665 228.671 198.277 228.671Z" fill="#FFD7EF"/>
<path d="M197.207 234.556H195.082C194.691 234.556 194.318 234.851 194.252 235.211L193.886 237.186C193.819 237.55 194.081 237.848 194.475 237.848H196.609C197.003 237.848 197.372 237.553 197.438 237.186L197.796 235.211C197.862 234.848 197.598 234.556 197.207 234.556Z" fill="#FFD7EF"/>
<path d="M196.122 240.52H193.982C193.588 240.52 193.212 240.818 193.146 241.184L192.776 243.186C192.707 243.556 192.972 243.857 193.369 243.857H195.518C195.915 243.857 196.287 243.556 196.356 243.186L196.72 241.184C196.78 240.818 196.516 240.52 196.122 240.52Z" fill="#FFD7EF"/>
<path d="M203.973 240.52H201.833C201.439 240.52 201.067 240.818 201.004 241.184L200.652 243.186C200.586 243.556 200.853 243.857 201.25 243.857H203.399C203.796 243.857 204.166 243.556 204.232 243.186L204.578 241.184C204.635 240.818 204.367 240.52 203.973 240.52Z" fill="#FFD7EF"/>
<path d="M211.822 240.52H209.681C209.288 240.52 208.918 240.818 208.858 241.184L208.524 243.186C208.461 243.556 208.732 243.857 209.128 243.857H211.277C211.674 243.857 212.041 243.556 212.104 243.186L212.432 241.184C212.489 240.818 212.215 240.52 211.822 240.52Z" fill="#FFD7EF"/>
<path d="M212.799 234.556H210.674C210.283 234.556 209.916 234.851 209.856 235.211L209.525 237.186C209.465 237.55 209.733 237.848 210.126 237.848H212.261C212.654 237.848 213.021 237.553 213.078 237.186L213.4 235.211C213.46 234.848 213.189 234.556 212.799 234.556Z" fill="#FFD7EF"/>
<path d="M220.596 234.556H218.471C218.08 234.556 217.716 234.851 217.659 235.211L217.346 237.186C217.289 237.55 217.56 237.848 217.954 237.848H220.088C220.481 237.848 220.845 237.553 220.899 237.186L221.203 235.211C221.26 234.848 220.986 234.556 220.596 234.556Z" fill="#FFD7EF"/>
<path d="M228.393 234.556H226.268C225.877 234.556 225.516 234.851 225.462 235.211L225.168 237.186C225.114 237.55 225.387 237.848 225.781 237.848H227.915C228.309 237.848 228.67 237.553 228.721 237.186L229.006 235.211C229.057 234.848 228.784 234.556 228.393 234.556Z" fill="#FFD7EF"/>
<path d="M236.19 234.556H234.065C233.674 234.556 233.317 234.851 233.265 235.211L232.989 237.186C232.938 237.55 233.214 237.848 233.608 237.848H235.742C236.136 237.848 236.494 237.553 236.542 237.186L236.809 235.211C236.857 234.848 236.581 234.556 236.19 234.556Z" fill="#FFD7EF"/>
<path d="M243.985 234.556H241.859C241.469 234.556 241.114 234.851 241.066 235.211L240.807 237.186C240.759 237.55 241.039 237.848 241.433 237.848H243.567C243.96 237.848 244.315 237.553 244.36 237.186L244.61 235.211C244.658 234.848 244.375 234.556 243.985 234.556Z" fill="#FFD7EF"/>
<path d="M214.295 223.44C213.905 223.888 213.511 224.339 213.117 224.79C212.925 224.58 212.732 224.369 212.543 224.159C212.381 224.33 212.218 224.501 212.056 224.676C212.399 224.928 212.741 225.181 213.084 225.433C213.652 224.91 214.22 224.387 214.788 223.867C214.62 223.723 214.458 223.582 214.295 223.44Z" fill="white"/>
<path d="M198.397 204.152C198.397 203.725 198.71 203.379 199.098 203.379C199.485 203.379 199.798 203.725 199.798 204.152C199.798 204.579 199.485 204.924 199.098 204.924C198.71 204.924 198.397 204.579 198.397 204.152Z" fill="white"/>
<path d="M201.211 201.867H200.435C200.411 200.944 199.96 200.184 199.413 200.184C198.875 200.184 198.421 200.944 198.4 201.867C198.391 201.9 198.391 201.927 198.391 201.96C198.391 202.925 198.86 203.737 199.413 203.737C199.627 203.737 199.798 203.932 199.798 204.161C199.798 204.398 199.63 204.585 199.413 204.585C198.406 204.585 197.625 203.433 197.625 201.963V201.87C197.655 200.439 198.43 199.342 199.413 199.342C200.399 199.339 201.181 200.439 201.211 201.867Z" fill="#FFB0DB"/>
<path d="M200.946 204.152C200.946 203.725 201.259 203.379 201.647 203.379C202.034 203.379 202.347 203.725 202.347 204.152C202.347 204.579 202.034 204.924 201.647 204.924C201.259 204.924 200.946 204.579 200.946 204.152Z" fill="white"/>
<path d="M203.76 201.867H202.984C202.96 200.944 202.509 200.184 201.962 200.184C201.424 200.184 200.97 200.944 200.949 201.867C200.94 201.9 200.94 201.927 200.94 201.96C200.94 202.925 201.409 203.737 201.962 203.737C202.176 203.737 202.347 203.932 202.347 204.161C202.347 204.398 202.179 204.585 201.962 204.585C200.955 204.585 200.174 203.433 200.174 201.963V201.87C200.204 200.439 200.979 199.342 201.962 199.342C202.948 199.339 203.73 200.439 203.76 201.867Z" fill="#FFB0DB"/>
<path d="M209.144 204.152C209.144 203.725 209.456 203.379 209.844 203.379C210.232 203.379 210.544 203.725 210.544 204.152C210.544 204.579 210.232 204.924 209.844 204.924C209.456 204.924 209.144 204.579 209.144 204.152Z" fill="white"/>
<path d="M211.957 201.867H211.181C211.157 200.944 210.707 200.184 210.159 200.184C209.621 200.184 209.168 200.944 209.146 201.867C209.137 201.9 209.137 201.927 209.137 201.96C209.137 202.925 209.606 203.737 210.159 203.737C210.373 203.737 210.544 203.932 210.544 204.161C210.544 204.398 210.376 204.585 210.159 204.585C209.152 204.585 208.371 203.433 208.371 201.963V201.87C208.401 200.439 209.177 199.342 210.159 199.342C211.142 199.339 211.927 200.439 211.957 201.867Z" fill="#FFB0DB"/>
<path d="M211.689 204.152C211.689 203.725 212.002 203.379 212.39 203.379C212.778 203.379 213.09 203.725 213.09 204.152C213.09 204.579 212.778 204.924 212.39 204.924C212.005 204.924 211.689 204.579 211.689 204.152Z" fill="white"/>
<path d="M214.506 201.867H213.73C213.706 200.944 213.255 200.184 212.708 200.184C212.17 200.184 211.716 200.944 211.695 201.867C211.686 201.9 211.686 201.927 211.686 201.96C211.686 202.925 212.155 203.737 212.708 203.737C212.922 203.737 213.093 203.932 213.093 204.161C213.093 204.398 212.925 204.585 212.708 204.585C211.701 204.585 210.92 203.433 210.92 201.963V201.87C210.95 200.439 211.725 199.342 212.708 199.342C213.691 199.339 214.476 200.439 214.506 201.867Z" fill="#FFB0DB"/>
<path d="M219.886 204.152C219.886 203.725 220.199 203.379 220.587 203.379C220.974 203.379 221.287 203.725 221.287 204.152C221.287 204.579 220.974 204.924 220.587 204.924C220.199 204.924 219.886 204.579 219.886 204.152Z" fill="white"/>
<path d="M222.7 201.867H221.924C221.9 200.944 221.449 200.184 220.902 200.184C220.364 200.184 219.91 200.944 219.889 201.867C219.88 201.9 219.88 201.927 219.88 201.96C219.88 202.925 220.349 203.737 220.902 203.737C221.116 203.737 221.287 203.932 221.287 204.161C221.287 204.398 221.119 204.585 220.902 204.585C219.895 204.585 219.114 203.433 219.114 201.963V201.87C219.144 200.439 219.919 199.342 220.902 199.342C221.888 199.339 222.67 200.439 222.7 201.867Z" fill="#FFB0DB"/>
<path d="M222.435 204.152C222.435 203.725 222.748 203.379 223.136 203.379C223.523 203.379 223.836 203.725 223.836 204.152C223.836 204.579 223.523 204.924 223.136 204.924C222.748 204.924 222.435 204.579 222.435 204.152Z" fill="white"/>
<path d="M225.249 201.867H224.473C224.449 200.944 223.999 200.184 223.451 200.184C222.913 200.184 222.46 200.944 222.439 201.867C222.429 201.9 222.43 201.927 222.43 201.96C222.43 202.925 222.898 203.737 223.451 203.737C223.665 203.737 223.836 203.932 223.836 204.161C223.836 204.398 223.668 204.585 223.451 204.585C222.445 204.585 221.663 203.433 221.663 201.963V201.87C221.693 200.439 222.469 199.342 223.451 199.342C224.434 199.339 225.219 200.439 225.249 201.867Z" fill="#FFB0DB"/>
<path d="M230.629 204.152C230.629 203.725 230.942 203.379 231.33 203.379C231.717 203.379 232.03 203.725 232.03 204.152C232.03 204.579 231.717 204.924 231.33 204.924C230.945 204.924 230.629 204.579 230.629 204.152Z" fill="white"/>
<path d="M233.446 201.867H232.67C232.646 200.944 232.195 200.184 231.648 200.184C231.11 200.184 230.656 200.944 230.635 201.867C230.626 201.9 230.626 201.927 230.626 201.96C230.626 202.925 231.095 203.737 231.648 203.737C231.862 203.737 232.033 203.932 232.033 204.161C232.033 204.398 231.865 204.585 231.648 204.585C230.641 204.585 229.86 203.433 229.86 201.963V201.87C229.89 200.439 230.666 199.342 231.648 199.342C232.631 199.339 233.416 200.439 233.446 201.867Z" fill="#FFB0DB"/>
<path d="M233.178 204.152C233.178 203.725 233.491 203.379 233.879 203.379C234.267 203.379 234.579 203.725 234.579 204.152C234.579 204.579 234.267 204.924 233.879 204.924C233.494 204.924 233.178 204.579 233.178 204.152Z" fill="white"/>
<path d="M235.995 201.867H235.219C235.195 200.944 234.744 200.184 234.197 200.184C233.659 200.184 233.205 200.944 233.184 201.867C233.175 201.9 233.175 201.927 233.175 201.96C233.175 202.925 233.644 203.737 234.197 203.737C234.411 203.737 234.582 203.932 234.582 204.161C234.582 204.398 234.414 204.585 234.197 204.585C233.19 204.585 232.409 203.433 232.409 201.963V201.87C232.439 200.439 233.214 199.342 234.197 199.342C235.18 199.339 235.965 200.439 235.995 201.867Z" fill="#FFB0DB"/>
<path d="M241.375 204.152C241.375 203.725 241.688 203.379 242.076 203.379C242.463 203.379 242.776 203.725 242.776 204.152C242.776 204.579 242.463 204.924 242.076 204.924C241.688 204.924 241.375 204.579 241.375 204.152Z" fill="white"/>
<path d="M244.189 201.867H243.414C243.389 200.944 242.939 200.184 242.391 200.184C241.853 200.184 241.4 200.944 241.379 201.867C241.37 201.9 241.369 201.927 241.369 201.96C241.369 202.925 241.838 203.737 242.391 203.737C242.605 203.737 242.776 203.932 242.776 204.161C242.776 204.398 242.608 204.585 242.391 204.585C241.385 204.585 240.603 203.433 240.603 201.963V201.87C240.633 200.439 241.409 199.342 242.391 199.342C243.377 199.339 244.159 200.439 244.189 201.867Z" fill="#FFB0DB"/>
<path d="M243.924 204.152C243.924 203.725 244.237 203.379 244.625 203.379C245.012 203.379 245.325 203.725 245.325 204.152C245.325 204.579 245.012 204.924 244.625 204.924C244.237 204.924 243.924 204.579 243.924 204.152Z" fill="white"/>
<path d="M246.738 201.867H245.962C245.938 200.944 245.488 200.184 244.94 200.184C244.402 200.184 243.949 200.944 243.927 201.867C243.918 201.9 243.918 201.927 243.918 201.96C243.918 202.925 244.387 203.737 244.94 203.737C245.154 203.737 245.325 203.932 245.325 204.161C245.325 204.398 245.157 204.585 244.94 204.585C243.933 204.585 243.152 203.433 243.152 201.963V201.87C243.182 200.439 243.958 199.342 244.94 199.342C245.923 199.339 246.708 200.439 246.738 201.867Z" fill="#FFB0DB"/>
<defs>
<linearGradient id="paint0_linear_177_82" x1="0" y1="107.786" x2="343.404" y2="107.786" gradientUnits="userSpaceOnUse">
<stop stop-color="#B1CCFC"/>
<stop offset="1" stop-color="#FFEDBD"/>
</linearGradient>
<linearGradient id="paint1_linear_177_82" x1="154.666" y1="81.9539" x2="154.666" y2="100.62" gradientUnits="userSpaceOnUse">
<stop stop-color="#E0B137"/>
<stop offset="1" stop-color="#FDC400"/>
</linearGradient>
<linearGradient id="paint2_linear_177_82" x1="172.569" y1="81.8005" x2="172.569" y2="100.593" gradientUnits="userSpaceOnUse">
<stop stop-color="#E0B137"/>
<stop offset="1" stop-color="#FDC400"/>
</linearGradient>
<linearGradient id="paint3_linear_177_82" x1="190.851" y1="81.9539" x2="190.851" y2="100.62" gradientUnits="userSpaceOnUse">
<stop stop-color="#E0B137"/>
<stop offset="1" stop-color="#FDC400"/>
</linearGradient>
<linearGradient id="paint4_linear_177_82" x1="207.95" y1="81.9751" x2="207.95" y2="100.618" gradientUnits="userSpaceOnUse">
<stop stop-color="#E0B137"/>
<stop offset="1" stop-color="#FDC400"/>
</linearGradient>
<linearGradient id="paint5_linear_177_82" x1="226.424" y1="81.927" x2="226.424" y2="100.621" gradientUnits="userSpaceOnUse">
<stop stop-color="#E0B137"/>
<stop offset="1" stop-color="#FDC400"/>
</linearGradient>
</defs>
</svg>
